<svg width="112" height="43" viewBox="0 0 112 43" fill="none" xmlns="http://www.w3.org/2000/svg">
<g clip-path="url(#clip0_4224_166)">
<path fill-rule="evenodd" clip-rule="evenodd" d="M52.3869 28.4607H51.534H46.1541V42.7247H49.3033V38.1581H52.2491H52.2819H52.3869C54.939 38.0842 56.9926 35.9419 56.9926 33.3094C56.9926 30.6769 54.9456 28.5346 52.3869 28.4607ZM52.2753 35.2435H49.3098V31.382H52.2557C53.2988 31.382 54.1386 32.2483 54.1386 33.3094C54.1386 34.3705 53.3054 35.23 52.2753 35.2368V35.2435ZM35.8601 22.8868H32.7109V0H35.8601V22.8868ZM39.0749 34.2764L44.9207 42.6642H41.4237L37.087 36.4321L35.4074 38.2521V34.5048L40.9185 28.4876H44.4155L39.0749 34.2697V34.2764ZM92.4867 34.2764L98.3324 42.6642H94.8355L90.4988 36.4321L89.1013 37.9499V42.812H85.9521V0H89.1013V34.1891L94.3368 28.4876H97.8338L92.4933 34.2697L92.4867 34.2764ZM111.999 28.548V42.5836H108.849V33.6049L103.128 42.5836H99.9726V28.548H103.128V37.97L108.987 28.548H112.005H111.999ZM65.2986 28.2391H62.0707L56.0478 42.6709H59.2889L60.7126 39.2661H66.6698L68.0935 42.6709H71.328L65.3052 28.2391H65.2986ZM65.5676 36.6403H61.7951L63.6781 32.1274L65.561 36.6403H65.5676ZM81.8253 38.2118L84.2528 40.2869C82.9013 41.9457 80.8609 43 78.5843 43C74.51 43 71.2034 39.6153 71.2034 35.4449C71.2034 31.2746 74.51 27.8899 78.5843 27.8899C80.7953 27.8899 82.7832 28.8838 84.1348 30.462L81.7597 32.5908C80.9856 31.6909 79.8505 31.1201 78.5843 31.1201C76.2486 31.1201 74.3591 33.0542 74.3591 35.4449C74.3591 37.8357 76.2486 39.7698 78.5843 39.7698C79.8833 39.7698 81.0512 39.1654 81.8253 38.2185V38.2118Z" fill="#0D1387"/>
<path fill-rule="evenodd" clip-rule="evenodd" d="M9.49385 31.5576H13.2204V35.4191H9.49385C8.45068 35.4191 7.61089 34.5527 7.61089 33.4917C7.61089 32.4306 8.45724 31.5643 9.49385 31.5643M27.0703 33.4917C27.0703 32.4239 26.224 31.5643 25.1874 31.5643H22.2416V35.4258H25.2071C26.2371 35.4123 27.0703 34.5527 27.0703 33.4984V33.4917ZM19.0858 42.6719H22.235V38.0919H25.1808H25.2005H25.312C27.8642 38.018 29.9177 35.8757 29.9177 33.2432C29.9177 30.6107 27.8708 28.4684 25.312 28.3945H25.1742H19.0727V42.6719H19.0858ZM4.36328 42.6719H8.02423L11.016 38.3403H13.2204V42.6719H8.02423H16.3696V28.3945H9.42825C6.84328 28.4281 4.75693 30.5905 4.75693 33.2432C4.75693 35.2915 5.99693 37.0442 7.75523 37.7561L4.36984 42.6585V42.6719H4.36328Z" fill="#FEFEFE"/>
<path fill-rule="evenodd" clip-rule="evenodd" d="M9.49353 31.5563H13.2201V35.4178H9.49353C8.45035 35.4178 7.60401 34.5515 7.60401 33.4904C7.60401 32.4293 8.45035 31.563 9.49353 31.563M27.07 33.4904C27.07 32.4226 26.2237 31.563 25.187 31.563H22.2412V35.4245H25.2067C26.2368 35.4111 27.07 34.5515 27.07 33.4971V33.4904ZM0 22.873V42.6706H4.36295V42.6572L7.74834 37.7548C5.9966 37.043 4.75004 35.2902 4.75004 33.2419C4.75004 30.5893 6.83639 28.4268 9.42136 28.3933H9.48697H16.3627V42.6706H19.0789V28.3933H25.3117C27.8639 28.4671 29.9174 30.6094 29.9174 33.2419C29.9174 35.8745 27.8704 38.0167 25.3117 38.0906H25.2002H25.1805H22.2347V42.6706H32.7058V22.873H0ZM11.0156 38.3391H13.2201V42.6706H8.0239L11.0156 38.3391Z" fill="#CD1719"/>
<path fill-rule="evenodd" clip-rule="evenodd" d="M0.214844 16.931L1.25146 16.0513C1.63854 15.7222 1.78944 15.5476 1.78944 15.279C1.78944 15.0103 1.6123 14.8626 1.36955 14.8626C1.1268 14.8626 0.962779 15.0036 0.73315 15.2924L0.254209 14.8895C0.562568 14.4597 0.857805 14.2246 1.41548 14.2246C2.05844 14.2246 2.49145 14.6141 2.49145 15.2252C2.49145 15.7625 2.22246 16.0311 1.67135 16.4743L1.16616 16.8773H2.52426V17.4884H0.214844V16.9243V16.931Z" fill="#CD1719"/>
<path fill-rule="evenodd" clip-rule="evenodd" d="M3.01953 15.8823C3.01953 14.9488 3.58376 14.2168 4.41043 14.2168C5.23709 14.2168 5.79476 14.9421 5.79476 15.8823C5.79476 16.8225 5.23709 17.5477 4.40387 17.5477C3.57064 17.5477 3.01953 16.8225 3.01953 15.8823ZM5.08619 15.8823C5.08619 15.298 4.81064 14.8548 4.39731 14.8548C3.98397 14.8548 3.72154 15.2846 3.72154 15.8823C3.72154 16.48 3.99053 16.9098 4.41043 16.9098C4.83032 16.9098 5.08619 16.48 5.08619 15.8823Z" fill="#CD1719"/>
<path fill-rule="evenodd" clip-rule="evenodd" d="M6.26568 15.8823C6.26568 14.9488 6.82991 14.2168 7.65658 14.2168C8.48324 14.2168 9.03435 14.9421 9.03435 15.8823C9.03435 16.8225 8.47668 17.5477 7.64346 17.5477C6.81023 17.5477 6.25912 16.8225 6.26568 15.8823ZM8.33235 15.8823C8.33235 15.298 8.05679 14.8548 7.64346 14.8548C7.23013 14.8548 6.96769 15.2846 6.96769 15.8823C6.96769 16.4732 7.23669 16.9098 7.65658 16.9098C8.07647 16.9098 8.33235 16.48 8.33235 15.8823Z" fill="#CD1719"/>
<path fill-rule="evenodd" clip-rule="evenodd" d="M11.9916 15.5595V17.4868H11.5782V15.9422H11.0337V16.09C11.0337 17.2249 10.8566 17.5137 10.4235 17.5137C10.3579 17.5137 10.2595 17.5003 10.207 17.4868L10.2333 17.1376C10.2333 17.1376 10.2726 17.1376 10.2989 17.1376C10.522 17.1376 10.6466 16.9899 10.6466 15.9557V15.5527H11.9916V15.5595Z" fill="#CD1719"/>
<path fill-rule="evenodd" clip-rule="evenodd" d="M12.4375 15.5605H13.8612V15.9433H12.8508V16.3328H13.7431V16.7089H12.8508V17.1119H13.8743V17.4946H12.4375V15.5605Z" fill="#CD1719"/>
<path fill-rule="evenodd" clip-rule="evenodd" d="M14.6841 15.9568H14.1133V15.5605H15.6748V15.9568H15.0974V17.4946H14.6841V15.9568Z" fill="#CD1719"/>
<path fill-rule="evenodd" clip-rule="evenodd" d="M14.0205 6.33227C13.8368 6.54717 13.6597 6.61433 13.4498 6.66805C13.4038 6.68148 13.3645 6.6882 13.3185 6.70163C11.639 7.17172 11.2322 8.14549 10.8123 9.16626C10.1693 10.6974 9.97251 12.0741 5.76045 12.4569C3.44448 12.6651 2.84744 12.5039 0.702051 13.6657C0.518348 13.7664 0.341205 13.8873 0.164062 14.0351C0.22311 13.9612 0.282158 13.8806 0.334644 13.8C2.52596 10.4959 8.516 13.209 10.3006 8.93793C10.7729 7.80971 11.2256 6.71506 13.0823 6.17781C12.9971 5.64057 12.4984 5.0093 11.7505 5.17047C11.5799 5.21748 11.4093 5.3115 11.2584 5.43238C11.0813 5.58013 10.9041 6.05693 10.7861 6.29198C10.9435 5.43238 11.0157 5.06302 11.1797 4.67352C11.4225 4.10269 11.5471 3.96838 12.2557 3.08192C10.6942 3.45128 10.0053 4.03554 9.3033 5.56669C9.02775 6.1711 8.69971 6.72178 8.25357 7.21202C8.20765 7.17172 8.17484 7.11128 8.16172 7.04413C7.07918 3.18937 3.70691 4.55935 1.23348 2.041C1.43686 4.61979 2.8212 7.96416 5.38649 8.82376C6.71834 9.26699 4.9994 11.3018 4.08088 11.5033C4.75665 11.1406 5.98352 9.68336 4.80257 9.2267C3.1558 8.58872 2.04702 7.57466 1.32533 6.28526C0.524908 4.83469 0.209988 3.06177 0.170623 1.10753C0.170623 1.08739 0.170623 1.07396 0.170623 1.05381L0.216549 0.791902C0.242793 0.637443 0.387131 0.529993 0.53803 0.556856C0.603638 0.570287 0.662686 0.603865 0.702051 0.65759C3.23453 3.26996 6.86923 2.75957 8.49632 6.27183C8.60129 6.05022 8.79812 5.82189 8.89653 5.60027C9.51981 4.23701 10.0119 2.95433 11.7702 2.36335C11.7767 2.36335 11.7899 2.36335 11.7964 2.35664C12.131 2.28277 13.2464 1.75895 13.3579 2.36335C13.4301 2.75286 12.9249 3.1155 12.6887 3.3304C12.3016 3.68633 11.7505 4.25715 11.4749 4.92871C11.5077 4.91528 11.5405 4.90857 11.5734 4.89513C11.8227 4.82126 12.0917 4.81455 12.3475 4.86827C13.0955 5.02945 13.3907 6.05693 14.014 6.33227" fill="#CD1719"/>
<path fill-rule="evenodd" clip-rule="evenodd" d="M15.0104 19.4493L14.7152 18.724L14.42 19.4493H15.0039H15.0104ZM15.1482 19.7783H14.2887L14.1247 20.1813H13.6851L14.5052 18.2942H14.9251L15.7518 20.1813H15.3057L15.1416 19.7783H15.1482ZM13.6261 18.6501H13.0356V20.1813H12.6157V18.6501H12.0252V18.2942H13.6261V18.6501ZM11.3298 18.2942H11.7563V20.1813H11.3298V18.2942ZM10.3129 19.8589C10.4244 19.8589 10.5097 19.8321 10.5753 19.7783C10.6344 19.7246 10.6672 19.644 10.6672 19.5366C10.6672 19.3418 10.5491 19.2411 10.3129 19.2411H9.92578V19.8589H10.3129ZM10.3982 18.912C10.6212 18.912 10.7984 18.9658 10.9165 19.0665C11.0346 19.1672 11.1002 19.3217 11.1002 19.5232C11.1002 19.7381 11.0346 19.8992 10.9033 20.0134C10.7721 20.1276 10.5819 20.1813 10.3457 20.1813H9.51245V18.2942H9.9389V18.912H10.4113H10.3982ZM9.04663 18.2942V20.1813H8.62018V18.6501H7.78695V20.1813H7.3605V18.2942H9.04007H9.04663ZM6.02209 19.8455C6.13362 19.8455 6.23203 19.8186 6.31732 19.7716C6.40262 19.7179 6.47478 19.6508 6.52727 19.5567C6.57976 19.4627 6.59944 19.362 6.59944 19.2411C6.59944 19.1202 6.5732 19.0195 6.52727 18.9255C6.47478 18.8314 6.40918 18.7643 6.31732 18.7106C6.23203 18.6568 6.13362 18.6367 6.02209 18.6367C5.91055 18.6367 5.81214 18.6636 5.72685 18.7106C5.64156 18.7643 5.56939 18.8314 5.5169 18.9255C5.46442 19.0195 5.44473 19.1202 5.44473 19.2411C5.44473 19.362 5.47098 19.4627 5.5169 19.5567C5.56939 19.6508 5.635 19.7179 5.72685 19.7716C5.81214 19.8254 5.91055 19.8455 6.02209 19.8455ZM6.02209 20.2149C5.83182 20.2149 5.65468 20.1746 5.50378 20.0873C5.35288 20 5.22823 19.8858 5.14294 19.7381C5.05764 19.5903 5.01172 19.4224 5.01172 19.2344C5.01172 19.0463 5.05764 18.8852 5.14294 18.7307C5.22823 18.583 5.35288 18.4688 5.50378 18.3815C5.65468 18.2942 5.83182 18.2539 6.02209 18.2539C6.21235 18.2539 6.38293 18.2942 6.54039 18.3815C6.69129 18.4688 6.81595 18.583 6.90124 18.7307C6.98653 18.8785 7.03246 19.0463 7.03246 19.2344C7.03246 19.4224 6.98653 19.5836 6.90124 19.7381C6.81595 19.8858 6.69129 20 6.54039 20.0873C6.38949 20.1746 6.21235 20.2149 6.02209 20.2149Z" fill="#CD1719"/>
</g>
<defs>
<clipPath id="clip0_4224_166">
<rect width="112" height="43" fill="white"/>
</clipPath>
</defs>
</svg>
