<svg width="508" height="152" viewBox="0 0 508 152" fill="none" xmlns="http://www.w3.org/2000/svg">
<g clip-path="url(#clip0_4030_890)">
<path d="M0 149.43C2.67688 141.551 5.49103 133.261 8.44246 124.559C11.3939 115.858 14.1737 107.602 16.782 99.7911L33.8728 49.5355C36.9615 40.423 39.7413 32.2355 42.2123 24.973C44.7519 17.6419 47.2572 10.2765 49.7281 2.87695H86.9985C89.5381 10.5506 92.0434 18.0187 94.5144 25.2813C96.9853 32.5439 99.7308 40.6286 102.751 49.5355L119.636 99.8939C122.381 107.979 125.195 116.303 128.078 124.868C130.961 133.432 133.707 141.619 136.315 149.43H106.56C104.089 141.414 101.55 133.158 98.9415 124.662C96.3333 116.166 93.8623 108.15 91.5286 100.613L69.187 27.645H66.9219L44.3744 99.7911C41.9034 107.67 39.3295 115.926 36.6526 124.559C34.0444 133.124 31.4705 141.414 28.9309 149.43H0ZM32.6373 116.748L35.5201 94.9608H104.089L106.457 116.748H32.6373Z" fill="#ECF1F6"/>
<path d="M250.594 149.43C250.594 141.482 250.594 133.774 250.594 126.306C250.594 118.838 250.594 110.548 250.594 101.435V51.8993C250.594 42.5127 250.594 34.0169 250.594 26.4118C250.594 18.8066 250.594 10.9617 250.594 2.87695H279.525C279.525 10.9617 279.525 18.8066 279.525 26.4118C279.525 34.0169 279.525 42.5127 279.525 51.8993V101.435C279.525 110.548 279.525 118.838 279.525 126.306C279.525 133.774 279.525 141.482 279.525 149.43H250.594ZM157.006 149.43C157.006 141.482 157.006 133.774 157.006 126.306C157.006 118.838 157.006 110.548 157.006 101.435V51.8993C157.006 42.5127 157.006 34.0169 157.006 26.4118C157.006 18.8066 157.006 10.9617 157.006 2.87695H185.937C185.937 10.9617 185.937 18.8066 185.937 26.4118C185.937 34.0169 185.937 42.5127 185.937 51.8993V101.435C185.937 110.548 185.937 118.838 185.937 126.306C185.937 133.774 185.937 141.482 185.937 149.43H157.006ZM177.494 87.5612V63.4098H259.654V87.5612H177.494Z" fill="#ECF1F6"/>
<path d="M347.476 149.43C347.476 141.482 347.476 133.774 347.476 126.306C347.476 118.838 347.476 110.548 347.476 101.435V56.3185C347.476 46.9319 347.476 38.4361 347.476 30.831C347.476 23.2258 347.476 15.3809 347.476 7.29617L358.492 28.0561H339.651C331.758 28.0561 324.723 28.0561 318.545 28.0561C312.436 28.0561 306.636 28.0561 301.145 28.0561V2.87695H422.429V28.0561C416.938 28.0561 411.138 28.0561 405.029 28.0561C398.92 28.0561 391.885 28.0561 383.923 28.0561H365.082L376.201 7.29617C376.201 15.3809 376.201 23.2258 376.201 30.831C376.201 38.4361 376.201 46.9319 376.201 56.3185V101.435C376.201 110.548 376.201 118.838 376.201 126.306C376.201 133.774 376.201 141.482 376.201 149.43H347.476Z" fill="#ECF1F6"/>
<path d="M443.958 149.43C443.958 141.482 443.958 133.774 443.958 126.306C443.958 118.838 443.958 110.548 443.958 101.435V51.8993C443.958 42.5127 443.958 34.0169 443.958 26.4118C443.958 18.8066 443.958 10.9617 443.958 2.87695H472.168C472.168 10.9617 472.168 18.8409 472.168 26.5145C472.168 34.1197 472.168 42.6498 472.168 52.1048V101.333H474.227L500.687 62.9987C507.345 53.4066 514.071 43.6775 520.867 33.8114C527.73 23.9452 534.869 13.6338 542.282 2.87695H566.785C566.785 10.9617 566.785 18.8066 566.785 26.4118C566.785 34.0169 566.785 42.5127 566.785 51.8993V101.435C566.785 110.548 566.785 118.838 566.785 126.306C566.785 133.774 566.785 141.482 566.785 149.43H538.575C538.575 141.414 538.575 133.672 538.575 126.204C538.575 118.735 538.575 110.445 538.575 101.333V50.8716H536.619L509.953 89.2056C501.854 100.853 494.407 111.541 487.612 121.27C480.885 131 474.433 140.386 468.256 149.43H443.958Z" fill="#ECF1F6"/>
</g>
<defs>
<clipPath id="clip0_4030_890">
<rect width="508" height="152" fill="white"/>
</clipPath>
</defs>
</svg>
