<svg width="509" height="157" viewBox="0 0 509 157" fill="none" xmlns="http://www.w3.org/2000/svg">
<g clip-path="url(#clip0_4030_876)">
<path d="M16.7903 157C14.537 157 12.3928 156.892 10.3576 156.674C8.32245 156.53 6.43264 156.313 4.68819 156.023C3.01643 155.734 1.4537 155.409 0 155.047L1.41736 129.549C2.94375 129.839 4.32477 130.056 5.56042 130.2C6.79606 130.345 7.88634 130.417 8.83125 130.417C14.5734 130.417 19.0435 127.994 22.2417 123.148C25.5125 118.229 27.9474 110.707 29.5465 100.58C31.1456 90.3808 32.3449 77.4331 33.1444 61.7367C33.7259 51.61 34.3074 41.3748 34.8889 31.0311C35.4704 20.6151 36.0518 10.2714 36.6333 0H145.116C145.116 8.53536 145.116 16.8176 145.116 24.8466C145.116 32.8756 145.116 41.845 145.116 51.7547V104.052C145.116 113.672 145.116 122.425 145.116 130.309C145.116 138.193 145.116 146.331 145.116 154.721H114.588C114.588 146.331 114.588 138.193 114.588 130.309C114.588 122.425 114.588 113.672 114.588 104.052V56.4202C114.588 46.5105 114.588 37.5411 114.588 29.5121C114.588 21.4831 114.588 13.2009 114.588 4.66553L129.634 25.4976H48.5173L65.1986 6.18452C64.3991 17.1792 63.5995 28.1378 62.8 39.0601C62.0731 49.9825 61.3099 61.375 60.5104 73.2377C59.5655 87.1981 58.4389 99.4225 57.1305 109.911C55.8949 120.399 53.8597 129.152 51.025 136.168C48.1903 143.112 44.0472 148.32 38.5958 151.792C33.2171 155.264 25.9486 157 16.7903 157Z" fill="#ECF1F6"/>
<path d="M167.327 154.721C170.162 146.403 173.142 137.651 176.267 128.464C179.393 119.278 182.336 110.562 185.098 102.316L203.197 49.2592C206.468 39.6388 209.412 30.9949 212.028 23.3276C214.718 15.5879 217.371 7.81203 219.987 0H259.455C262.145 8.10137 264.798 15.9857 267.414 23.6531C270.031 31.3204 272.938 39.8558 276.137 49.2592L294.017 102.424C296.925 110.96 299.905 119.748 302.957 128.79C306.01 137.832 308.918 146.475 311.68 154.721H280.171C277.554 146.258 274.865 137.542 272.103 128.573C269.341 119.604 266.724 111.141 264.253 103.184L240.594 26.1486H238.195L214.318 102.316C211.701 110.634 208.976 119.35 206.141 128.464C203.379 137.506 200.653 146.258 197.964 154.721H167.327ZM201.889 120.218L204.942 97.2163H277.554L280.062 120.218H201.889Z" fill="#ECF1F6"/>
<path d="M424.956 154.721C419.432 147.633 414.235 140.978 409.365 134.757C404.568 128.537 399.843 122.461 395.192 116.529L371.642 86.4748H361.393V62.3877H371.314L392.139 37.6496C397.009 31.7906 401.842 25.9678 406.639 20.1811C411.509 14.3944 417.106 7.66736 423.43 0H458.973C451.85 8.17369 444.872 16.2027 438.039 24.0871C431.28 31.9714 424.447 39.892 417.542 47.8487L391.594 77.9033L391.048 64.5577L419.941 101.339C424.375 106.981 429.135 113.057 434.223 119.567C439.384 126.077 444.399 132.407 449.269 138.555C454.139 144.703 458.391 150.092 462.026 154.721H424.956ZM333.591 154.721C333.591 146.331 333.591 138.193 333.591 130.309C333.591 122.425 333.591 113.672 333.591 104.052V51.7547C333.591 41.845 333.591 32.8756 333.591 24.8466C333.591 16.8176 333.591 8.53536 333.591 0H364.119C364.119 8.53536 364.119 16.8176 364.119 24.8466C364.119 32.8756 364.119 41.845 364.119 51.7547V104.052C364.119 113.672 364.119 122.425 364.119 130.309C364.119 138.193 364.119 146.331 364.119 154.721H333.591Z" fill="#ECF1F6"/>
<path d="M483.93 154.721C483.93 146.331 483.93 138.193 483.93 130.309C483.93 122.425 483.93 113.672 483.93 104.052V51.7547C483.93 41.845 483.93 32.8756 483.93 24.8466C483.93 16.8176 483.93 8.53536 483.93 0H513.803C513.803 8.53536 513.803 16.8537 513.803 24.9551C513.803 32.9841 513.803 41.9896 513.803 51.9717V103.943H515.984L544.004 63.4727C551.055 53.346 558.178 43.0746 565.374 32.6586C572.642 22.2426 580.201 11.3564 588.051 0H614C614 8.53536 614 16.8176 614 24.8466C614 32.8756 614 41.845 614 51.7547V104.052C614 113.672 614 122.425 614 130.309C614 138.193 614 146.331 614 154.721H584.126C584.126 146.258 584.126 138.085 584.126 130.2C584.126 122.316 584.126 113.564 584.126 103.943V50.6697H582.055L553.817 91.1403C545.24 103.437 537.354 114.721 530.158 124.992C523.034 135.264 516.202 145.173 509.66 154.721H483.93Z" fill="#ECF1F6"/>
</g>
<defs>
<clipPath id="clip0_4030_876">
<rect width="509" height="157" fill="white"/>
</clipPath>
</defs>
</svg>
