<svg width="508" height="147" viewBox="0 0 508 147" fill="none" xmlns="http://www.w3.org/2000/svg">
<g clip-path="url(#clip0_4030_898)">
<path d="M0 147.414C0 139.414 0 131.655 0 124.138C0 116.621 0 108.276 0 99.1034V49.2413C0 39.793 0 31.2413 0 23.5861C0 15.931 0 8.03442 0 -0.103516H95.4767V25.2413C88.2735 25.2413 80.5509 25.2413 72.3088 25.2413C64.0667 25.2413 54.3701 25.2413 43.219 25.2413H16.9344L29.1936 4.34477C29.1936 12.4827 29.1936 20.3792 29.1936 28.0344C29.1936 35.6896 29.1936 44.2413 29.1936 53.6896V99.1034C29.1936 108.276 29.1936 116.621 29.1936 124.138C29.1936 131.655 29.1936 139.414 29.1936 147.414H0Z" fill="#ECF1F6"/>
<path d="M119.11 147.414C119.11 139.414 119.11 131.655 119.11 124.138C119.11 116.621 119.11 108.276 119.11 99.1034V49.1379C119.11 39.7586 119.11 31.2413 119.11 23.5861C119.11 15.931 119.11 8.03442 119.11 -0.103516C124.998 -0.103516 132.79 -0.103516 142.486 -0.103516C152.252 -0.103516 163.472 -0.103516 176.147 -0.103516C187.922 -0.103516 197.722 1.37925 205.549 4.34477C213.375 7.31029 219.262 12.1034 223.21 18.7241C227.158 25.2758 229.132 34.0344 229.132 44.9999C229.132 54.4482 227.4 62.8275 223.937 70.1379C220.474 77.3792 214.864 83.0689 207.107 87.2068C199.35 91.2758 188.926 93.3103 175.835 93.3103C172.511 93.3103 168.875 93.3103 164.927 93.3103C161.048 93.3103 157.239 93.3103 153.499 93.3103C149.828 93.3103 146.676 93.3103 144.045 93.3103V70.4482H169.498C176.424 70.4482 182.104 69.5861 186.536 67.862C190.969 66.1379 194.224 63.4482 196.302 59.793C198.449 56.0689 199.523 51.2413 199.523 45.3103C199.523 40.4827 198.761 36.6206 197.237 33.7241C195.713 30.7586 193.705 28.5172 191.211 26.9999C188.718 25.4827 185.982 24.4482 183.004 23.8965C180.026 23.3448 177.082 23.0689 174.173 23.0689H133.759L147.785 4.34477C147.785 12.4827 147.785 20.4137 147.785 28.1379C147.785 35.793 147.785 44.3103 147.785 53.6896V99.1034C147.785 108.276 147.785 116.621 147.785 124.138C147.785 131.655 147.785 139.414 147.785 147.414H119.11Z" fill="#ECF1F6"/>
<path d="M271.119 147.414C274.028 141.138 277.006 134.724 280.054 128.172C283.17 121.621 286.391 114.724 289.716 107.483L257.509 42.3103C253.977 35.2068 250.618 28.4482 247.432 22.0344C244.246 15.5517 240.609 8.17235 236.523 -0.103516H269.249C271.673 5.55166 273.855 10.6206 275.794 15.1034C277.733 19.5172 279.534 23.6551 281.196 27.5172C282.859 31.3792 284.521 35.2413 286.183 39.1034C287.915 42.8965 289.75 47.0344 291.69 51.5172L304.053 79.7586H306.338L318.078 51.931C320.017 47.3103 321.784 43.0344 323.377 39.1034C325.039 35.1723 326.667 31.2758 328.26 27.4137C329.922 23.4827 331.688 19.3103 333.558 14.8965C335.428 10.4827 337.541 5.4827 339.895 -0.103516H371.271C367.046 8.86201 362.682 18.1724 358.18 27.8275C353.748 37.4137 349.627 46.2413 345.817 54.3103L324 100.862C320.745 108.034 317.178 115.759 313.299 124.034C309.42 132.241 305.715 140.034 302.183 147.414H271.119Z" fill="#ECF1F6"/>
<path d="M486.467 147.414C486.467 139.414 486.467 131.655 486.467 124.138C486.467 116.621 486.467 108.276 486.467 99.1034V49.2413C486.467 39.793 486.467 31.2413 486.467 23.5861C486.467 15.931 486.467 8.03442 486.467 -0.103516H515.661C515.661 8.03442 515.661 15.931 515.661 23.5861C515.661 31.2413 515.661 39.793 515.661 49.2413V99.1034C515.661 108.276 515.661 116.621 515.661 124.138C515.661 131.655 515.661 139.414 515.661 147.414H486.467ZM392.03 147.414C392.03 139.414 392.03 131.655 392.03 124.138C392.03 116.621 392.03 108.276 392.03 99.1034V49.2413C392.03 39.793 392.03 31.2413 392.03 23.5861C392.03 15.931 392.03 8.03442 392.03 -0.103516H421.223C421.223 8.03442 421.223 15.931 421.223 23.5861C421.223 31.2413 421.223 39.793 421.223 49.2413V99.1034C421.223 108.276 421.223 116.621 421.223 124.138C421.223 131.655 421.223 139.414 421.223 147.414H392.03ZM412.704 85.1379V60.8275H495.61V85.1379H412.704Z" fill="#ECF1F6"/>
</g>
<defs>
<clipPath id="clip0_4030_898">
<rect width="508" height="147" fill="white"/>
</clipPath>
</defs>
</svg>
