<svg width="705" height="159" viewBox="0 0 705 159" fill="none" xmlns="http://www.w3.org/2000/svg">
<mask id="mask0_10034_6812" style="mask-type:alpha" maskUnits="userSpaceOnUse" x="0" y="0" width="705" height="159">
<rect width="705" height="159" fill="#D9D9D9"/>
</mask>
<g mask="url(#mask0_10034_6812)">
<path d="M60 152.431C60 144.483 60 136.775 60 129.307C60 121.839 60 113.549 60 104.436V54.8999C60 45.5134 60 37.0176 60 29.4124C60 21.8073 60 13.9624 60 5.87762H182.033C182.033 13.9624 182.033 21.8073 182.033 29.4124C182.033 37.0176 182.033 45.5134 182.033 54.8999V104.436C182.033 113.549 182.033 121.839 182.033 129.307C182.033 136.775 182.033 144.483 182.033 152.431H153.046C153.046 144.483 153.046 136.775 153.046 129.307C153.046 121.839 153.046 113.549 153.046 104.436V59.3191C153.046 49.9326 153.046 41.4368 153.046 33.8316C153.046 26.2265 153.046 18.3816 153.046 10.2968L161.711 30.0291H80.3216L88.9866 10.2968C88.9866 18.3816 88.9866 26.2265 88.9866 33.8316C88.9866 41.4368 88.9866 49.9326 88.9866 59.3191V104.436C88.9866 113.549 88.9866 121.839 88.9866 129.307C88.9866 136.775 88.9866 144.483 88.9866 152.431H60Z" fill="#ECF1F6" fill-opacity="0.4"/>
<path d="M282.731 155C269.734 155 258.421 152.979 248.793 148.936C239.234 144.894 231.326 139.344 225.068 132.287C218.878 125.23 214.236 117.146 211.142 108.033C208.116 98.9207 206.603 89.2944 206.603 79.1542C206.603 64.9716 209.457 52.1251 215.165 40.6146C220.873 29.0356 229.297 19.8889 240.438 13.1745C251.647 6.39148 265.47 3 281.906 3C294.422 3 305.391 4.95267 314.813 8.85802C324.234 12.7634 332.108 18.2103 338.435 25.1988C344.762 32.1873 349.507 40.272 352.671 49.453C355.834 58.634 357.416 68.5001 357.416 79.0514C357.416 93.5765 354.527 106.56 348.751 118.002C342.974 129.444 334.515 138.488 323.375 145.134C312.234 151.711 298.686 155 282.731 155ZM282.216 131.054C289.918 131.054 296.589 129.684 302.228 126.943C307.867 124.134 312.543 120.297 316.257 115.433C320.039 110.5 322.824 104.916 324.612 98.6809C326.469 92.446 327.398 85.9029 327.398 79.0514C327.398 71.7203 326.4 64.9031 324.406 58.5997C322.412 52.2964 319.489 46.7809 315.638 42.0534C311.856 37.2574 307.145 33.5576 301.506 30.954C295.935 28.282 289.505 26.9459 282.216 26.9459C274.72 26.9459 268.118 28.3162 262.41 31.0568C256.702 33.7974 251.922 37.6 248.071 42.4645C244.289 47.3291 241.435 52.913 239.509 59.2164C237.584 65.4512 236.621 72.0629 236.621 79.0514C236.621 86.0399 237.549 92.6516 239.406 98.8864C241.263 105.121 244.083 110.671 247.865 115.535C251.647 120.4 256.392 124.203 262.1 126.943C267.808 129.684 274.513 131.054 282.216 131.054Z" fill="#ECF1F6" fill-opacity="0.4"/>
<path d="M468.603 152.431C463.376 145.716 458.459 139.413 453.851 133.521C449.313 127.628 444.842 121.873 440.441 116.255L418.16 87.787H408.463V64.9716H417.85L437.553 41.5396C442.16 35.9899 446.734 30.4744 451.272 24.9932C455.88 19.5121 461.175 13.1402 467.158 5.87762H500.787C494.047 13.6198 487.446 21.2249 480.981 28.693C474.586 36.1611 468.121 43.6635 461.588 51.2001L437.037 79.668L436.521 67.0271L463.857 101.867C468.052 107.211 472.557 112.966 477.371 119.133C482.253 125.299 486.999 131.294 491.606 137.118C496.214 142.941 500.237 148.046 503.675 152.431H468.603ZM382.158 152.431C382.158 144.483 382.158 136.775 382.158 129.307C382.158 121.839 382.158 113.549 382.158 104.436V54.8999C382.158 45.5134 382.158 37.0176 382.158 29.4124C382.158 21.8073 382.158 13.9624 382.158 5.87762H411.042C411.042 13.9624 411.042 21.8073 411.042 29.4124C411.042 37.0176 411.042 45.5134 411.042 54.8999V104.436C411.042 113.549 411.042 121.839 411.042 129.307C411.042 136.775 411.042 144.483 411.042 152.431H382.158Z" fill="#ECF1F6" fill-opacity="0.4"/>
<path d="M524.4 152.431C524.4 144.483 524.4 136.775 524.4 129.307C524.4 121.839 524.4 113.549 524.4 104.436V54.7972C524.4 45.4792 524.4 37.0176 524.4 29.4124C524.4 21.8073 524.4 13.9624 524.4 5.87762C530.245 5.87762 537.982 5.87762 547.61 5.87762C557.306 5.87762 568.447 5.87762 581.032 5.87762C592.723 5.87762 602.454 7.35069 610.225 10.2968C617.996 13.243 623.841 18.0047 627.761 24.5822C631.681 31.0911 633.641 39.7924 633.641 50.6863C633.641 60.0728 631.922 68.3973 628.483 75.6599C625.045 82.854 619.475 88.5064 611.772 92.6173C604.07 96.6597 593.72 98.6809 580.723 98.6809C577.422 98.6809 573.811 98.6809 569.891 98.6809C566.04 98.6809 562.258 98.6809 558.544 98.6809C554.899 98.6809 551.77 98.6809 549.157 98.6809V75.9682H574.43C581.307 75.9682 586.946 75.1118 591.348 73.3989C595.749 71.6861 598.981 69.014 601.044 65.3827C603.176 61.6829 604.242 56.8869 604.242 50.9946C604.242 46.1986 603.485 42.3617 601.973 39.4841C600.46 36.538 598.465 34.3112 595.99 32.8039C593.514 31.2966 590.797 30.2689 587.84 29.7208C584.883 29.1726 581.96 28.8986 579.072 28.8986H538.945L552.871 10.2968C552.871 18.3816 552.871 26.2608 552.871 33.9344C552.871 41.5396 552.871 50.0011 552.871 59.3191V104.436C552.871 113.549 552.871 121.839 552.871 129.307C552.871 136.775 552.871 144.483 552.871 152.431H524.4Z" fill="#ECF1F6" fill-opacity="0.4"/>
</g>
</svg>
