<svg width="705" height="159" viewBox="0 0 705 159" fill="none" xmlns="http://www.w3.org/2000/svg">
<mask id="mask0_10034_6812" style="mask-type:alpha" maskUnits="userSpaceOnUse" x="0" y="0" width="705" height="159">
<rect width="705" height="159" fill="#D9D9D9"/>
</mask>
<g mask="url(#mask0_10034_6812)">
<path d="M60 153.414C60 145.414 60 137.655 60 130.138C60 122.621 60 114.276 60 105.103V55.2413C60 45.793 60 37.2413 60 29.5861C60 21.931 60 14.0344 60 5.89648H155.477V31.2413C148.274 31.2413 140.551 31.2413 132.309 31.2413C124.067 31.2413 114.37 31.2413 103.219 31.2413H76.9344L89.1936 10.3448C89.1936 18.4827 89.1936 26.3792 89.1936 34.0344C89.1936 41.6896 89.1936 50.2413 89.1936 59.6896V105.103C89.1936 114.276 89.1936 122.621 89.1936 130.138C89.1936 137.655 89.1936 145.414 89.1936 153.414H60Z" fill="#ECF1F6" fill-opacity="0.4"/>
<path d="M179.11 153.414C179.11 145.414 179.11 137.655 179.11 130.138C179.11 122.621 179.11 114.276 179.11 105.103V55.1379C179.11 45.7586 179.11 37.2413 179.11 29.5861C179.11 21.931 179.11 14.0344 179.11 5.89648C184.998 5.89648 192.79 5.89648 202.486 5.89648C212.252 5.89648 223.472 5.89648 236.147 5.89648C247.922 5.89648 257.722 7.37925 265.549 10.3448C273.375 13.3103 279.262 18.1034 283.21 24.7241C287.158 31.2758 289.132 40.0344 289.132 50.9999C289.132 60.4482 287.4 68.8275 283.937 76.1379C280.474 83.3792 274.864 89.0689 267.107 93.2068C259.35 97.2758 248.926 99.3103 235.835 99.3103C232.511 99.3103 228.875 99.3103 224.927 99.3103C221.048 99.3103 217.239 99.3103 213.499 99.3103C209.828 99.3103 206.676 99.3103 204.045 99.3103V76.4482H229.498C236.424 76.4482 242.104 75.5861 246.536 73.862C250.969 72.1379 254.224 69.4482 256.302 65.793C258.449 62.0689 259.523 57.2413 259.523 51.3103C259.523 46.4827 258.761 42.6206 257.237 39.7241C255.713 36.7586 253.705 34.5172 251.211 32.9999C248.718 31.4827 245.982 30.4482 243.004 29.8965C240.026 29.3448 237.082 29.0689 234.173 29.0689H193.759L207.785 10.3448C207.785 18.4827 207.785 26.4137 207.785 34.1379C207.785 41.793 207.785 50.3103 207.785 59.6896V105.103C207.785 114.276 207.785 122.621 207.785 130.138C207.785 137.655 207.785 145.414 207.785 153.414H179.11Z" fill="#ECF1F6" fill-opacity="0.4"/>
<path d="M331.119 153.414C334.028 147.138 337.006 140.724 340.054 134.172C343.17 127.621 346.391 120.724 349.716 113.483L317.509 48.3103C313.977 41.2068 310.618 34.4482 307.432 28.0344C304.246 21.5517 300.609 14.1723 296.523 5.89648H329.249C331.673 11.5517 333.855 16.6206 335.794 21.1034C337.733 25.5172 339.534 29.6551 341.196 33.5172C342.859 37.3792 344.521 41.2413 346.183 45.1034C347.915 48.8965 349.75 53.0344 351.69 57.5172L364.053 85.7586H366.338L378.078 57.931C380.017 53.3103 381.784 49.0344 383.377 45.1034C385.039 41.1723 386.667 37.2758 388.26 33.4137C389.922 29.4827 391.688 25.3103 393.558 20.8965C395.428 16.4827 397.541 11.4827 399.895 5.89648H431.271C427.046 14.862 422.682 24.1724 418.18 33.8275C413.748 43.4137 409.627 52.2413 405.817 60.3103L384 106.862C380.745 114.034 377.178 121.759 373.299 130.034C369.42 138.241 365.715 146.034 362.183 153.414H331.119Z" fill="#ECF1F6" fill-opacity="0.4"/>
<path d="M546.467 153.414C546.467 145.414 546.467 137.655 546.467 130.138C546.467 122.621 546.467 114.276 546.467 105.103V55.2413C546.467 45.793 546.467 37.2413 546.467 29.5861C546.467 21.931 546.467 14.0344 546.467 5.89648H575.661C575.661 14.0344 575.661 21.931 575.661 29.5861C575.661 37.2413 575.661 45.793 575.661 55.2413V105.103C575.661 114.276 575.661 122.621 575.661 130.138C575.661 137.655 575.661 145.414 575.661 153.414H546.467ZM452.03 153.414C452.03 145.414 452.03 137.655 452.03 130.138C452.03 122.621 452.03 114.276 452.03 105.103V55.2413C452.03 45.793 452.03 37.2413 452.03 29.5861C452.03 21.931 452.03 14.0344 452.03 5.89648H481.223C481.223 14.0344 481.223 21.931 481.223 29.5861C481.223 37.2413 481.223 45.793 481.223 55.2413V105.103C481.223 114.276 481.223 122.621 481.223 130.138C481.223 137.655 481.223 145.414 481.223 153.414H452.03ZM472.704 91.1379V66.8275H555.61V91.1379H472.704Z" fill="#ECF1F6" fill-opacity="0.4"/>
</g>
</svg>
