<svg width="705" height="159" viewBox="0 0 705 159" fill="none" xmlns="http://www.w3.org/2000/svg">
<mask id="mask0_10034_6812" style="mask-type:alpha" maskUnits="userSpaceOnUse" x="0" y="0" width="705" height="159">
<rect width="705" height="159" fill="#D9D9D9"/>
</mask>
<g mask="url(#mask0_10034_6812)">
<path d="M149.039 155.346C143.656 148.411 138.591 141.9 133.845 135.814C129.17 129.728 124.566 123.783 120.032 117.98L97.082 88.5761H87.0943V65.0102H96.7633L117.057 40.8073C121.803 35.0751 126.514 29.3782 131.189 23.7167C135.935 18.0552 141.389 11.4737 147.552 3.97228H182.19C175.248 11.9691 168.448 19.8244 161.79 27.5382C155.202 35.252 148.543 43.0011 141.814 50.7857L116.526 80.19L115.995 67.1332L144.152 103.119C148.473 108.639 153.112 114.584 158.071 120.953C163.1 127.322 167.988 133.514 172.734 139.529C177.48 145.545 181.623 150.817 185.165 155.346H149.039ZM60 155.346C60 147.137 60 139.176 60 131.462C60 123.748 60 115.185 60 105.773V54.6072C60 44.9119 60 36.1366 60 28.2813C60 20.426 60 12.323 60 3.97228H89.7506C89.7506 12.323 89.7506 20.426 89.7506 28.2813C89.7506 36.1366 89.7506 44.9119 89.7506 54.6072V105.773C89.7506 115.185 89.7506 123.748 89.7506 131.462C89.7506 139.176 89.7506 147.137 89.7506 155.346H60Z" fill="#ECF1F6" fill-opacity="0.4"/>
<path d="M206.512 155.346C206.512 147.137 206.512 139.176 206.512 131.462C206.512 123.748 206.512 115.185 206.512 105.773V54.501C206.512 44.8765 206.512 36.1366 206.512 28.2813C206.512 20.426 206.512 12.323 206.512 3.97228C212.533 3.97228 220.502 3.97228 230.419 3.97228C240.406 3.97228 251.881 3.97228 264.844 3.97228C276.886 3.97228 286.909 5.49381 294.914 8.53686C302.918 11.5799 308.939 16.4983 312.977 23.2921C317.014 30.0151 319.033 39.0027 319.033 50.2549C319.033 59.9502 317.262 68.5486 313.72 76.05C310.179 83.4807 304.441 89.3191 296.507 93.5653C288.574 97.7406 277.913 99.8283 264.526 99.8283C261.125 99.8283 257.407 99.8283 253.369 99.8283C249.402 99.8283 245.506 99.8283 241.681 99.8283C237.927 99.8283 234.704 99.8283 232.012 99.8283V76.3685H258.044C265.128 76.3685 270.936 75.4839 275.469 73.7147C280.003 71.9455 283.332 69.1855 285.457 65.4348C287.653 61.6133 288.751 56.6595 288.751 50.5734C288.751 45.6196 287.972 41.6565 286.413 38.6842C284.855 35.6412 282.801 33.3412 280.251 31.7843C277.701 30.2274 274.903 29.1659 271.857 28.5997C268.811 28.0336 265.801 27.7505 262.825 27.7505H221.493L235.837 8.53686C235.837 16.8875 235.837 25.0259 235.837 32.952C235.837 40.8073 235.837 49.5472 235.837 59.1717V105.773C235.837 115.185 235.837 123.748 235.837 131.462C235.837 139.176 235.837 147.137 235.837 155.346H206.512Z" fill="#ECF1F6" fill-opacity="0.4"/>
<path d="M319.865 155.346C322.627 147.208 325.531 138.645 328.577 129.657C331.623 120.67 334.492 112.142 337.184 104.074L354.822 52.1657C358.009 42.7534 360.878 34.2966 363.428 26.7951C366.049 19.2229 368.634 11.6153 371.184 3.97228H409.648C412.269 11.8984 414.854 19.6121 417.404 27.1136C419.954 34.6151 422.788 42.9658 425.904 52.1657L443.33 104.181C446.163 112.531 449.067 121.13 452.042 129.976C455.017 138.822 457.851 147.279 460.543 155.346H429.836C427.286 147.066 424.665 138.539 421.973 129.763C419.281 120.988 416.731 112.708 414.323 104.924L391.266 29.5551H388.929L365.659 104.074C363.109 112.213 360.453 120.74 357.69 129.657C354.999 138.503 352.342 147.066 349.721 155.346H319.865ZM353.547 121.59L356.522 99.0852H427.286L429.729 121.59H353.547Z" fill="#ECF1F6" fill-opacity="0.4"/>
<path d="M547.077 158C534.893 158 523.914 156.125 514.138 152.374C504.363 148.552 496.04 143.174 489.169 136.239C482.298 129.233 477.021 120.953 473.338 111.399C469.725 101.774 467.919 91.1945 467.919 79.6592C467.919 64.444 471 50.9272 477.163 39.1089C483.396 27.2198 492.215 17.9137 503.62 11.1907C515.024 4.39689 528.589 1 544.314 1C549.202 1 554.018 1.31846 558.764 1.95538C563.581 2.59229 568.15 3.4769 572.471 4.6092C576.863 5.7415 580.9 7.01533 584.584 8.4307C588.338 9.77531 591.632 11.2261 594.465 12.783L592.128 40.595C586.673 37.1981 581.361 34.4735 576.19 32.4212C571.019 30.2982 566.025 28.7767 561.208 27.8567C556.462 26.9367 551.858 26.4767 547.395 26.4767C538.045 26.4767 529.687 28.5643 522.32 32.7397C515.024 36.915 509.286 42.9657 505.107 50.8918C500.928 58.8179 498.838 68.407 498.838 79.6592C498.838 86.9484 499.901 93.8483 502.026 100.359C504.222 106.799 507.48 112.496 511.801 117.45C516.122 122.403 521.505 126.296 527.951 129.126C534.468 131.886 542.047 133.266 550.689 133.266C554.089 133.266 557.525 133.054 560.996 132.629C564.467 132.134 567.938 131.391 571.408 130.4C574.879 129.41 578.315 128.065 581.715 126.366C585.115 124.668 588.48 122.616 591.809 120.21L593.615 147.703C590.64 149.472 587.311 151.029 583.627 152.374C579.944 153.648 576.083 154.709 572.046 155.558C568.079 156.408 563.971 157.009 559.721 157.363C555.471 157.788 551.256 158 547.077 158Z" fill="#ECF1F6" fill-opacity="0.4"/>
</g>
</svg>
