<svg width="705" height="159" viewBox="0 0 705 159" fill="none" xmlns="http://www.w3.org/2000/svg">
<mask id="mask0_10034_6812" style="mask-type:alpha" maskUnits="userSpaceOnUse" x="0" y="0" width="705" height="159">
<rect width="705" height="159" fill="#D9D9D9"/>
</mask>
<g mask="url(#mask0_10034_6812)">
<path d="M60 152.43C62.6769 144.551 65.491 136.261 68.4425 127.559C71.3939 118.858 74.1737 110.602 76.782 102.791L93.8728 52.5355C96.9615 43.4231 99.7413 35.2355 102.212 27.973C104.752 20.6419 107.257 13.2765 109.728 5.87695H146.999C149.538 13.5506 152.043 21.0187 154.514 28.2813C156.985 35.5439 159.731 43.6286 162.751 52.5355L179.636 102.894C182.381 110.979 185.195 119.303 188.078 127.868C190.961 136.432 193.707 144.619 196.315 152.43H166.56C164.089 144.414 161.55 136.158 158.941 127.662C156.333 119.166 153.862 111.15 151.529 103.613L129.187 30.645H126.922L104.374 102.791C101.903 110.67 99.3295 118.926 96.6526 127.559C94.0444 136.124 91.4705 144.414 88.9309 152.43H60ZM92.6373 119.748L95.5201 97.9608H164.089L166.457 119.748H92.6373Z" fill="#ECF1F6" fill-opacity="0.4"/>
<path d="M310.594 152.43C310.594 144.482 310.594 136.774 310.594 129.306C310.594 121.838 310.594 113.548 310.594 104.435V54.8993C310.594 45.5127 310.594 37.0169 310.594 29.4118C310.594 21.8066 310.594 13.9617 310.594 5.87695H339.525C339.525 13.9617 339.525 21.8066 339.525 29.4118C339.525 37.0169 339.525 45.5127 339.525 54.8993V104.435C339.525 113.548 339.525 121.838 339.525 129.306C339.525 136.774 339.525 144.482 339.525 152.43H310.594ZM217.006 152.43C217.006 144.482 217.006 136.774 217.006 129.306C217.006 121.838 217.006 113.548 217.006 104.435V54.8993C217.006 45.5127 217.006 37.0169 217.006 29.4118C217.006 21.8066 217.006 13.9617 217.006 5.87695H245.937C245.937 13.9617 245.937 21.8066 245.937 29.4118C245.937 37.0169 245.937 45.5127 245.937 54.8993V104.435C245.937 113.548 245.937 121.838 245.937 129.306C245.937 136.774 245.937 144.482 245.937 152.43H217.006ZM237.494 90.5612V66.4098H319.654V90.5612H237.494Z" fill="#ECF1F6" fill-opacity="0.4"/>
<path d="M407.476 152.43C407.476 144.482 407.476 136.774 407.476 129.306C407.476 121.838 407.476 113.548 407.476 104.435V59.3185C407.476 49.9319 407.476 41.4361 407.476 33.831C407.476 26.2258 407.476 18.3809 407.476 10.2962L418.492 31.0561H399.651C391.758 31.0561 384.723 31.0561 378.545 31.0561C372.436 31.0561 366.636 31.0561 361.145 31.0561V5.87695H482.429V31.0561C476.938 31.0561 471.138 31.0561 465.029 31.0561C458.92 31.0561 451.885 31.0561 443.923 31.0561H425.082L436.201 10.2962C436.201 18.3809 436.201 26.2258 436.201 33.831C436.201 41.4361 436.201 49.9319 436.201 59.3185V104.435C436.201 113.548 436.201 121.838 436.201 129.306C436.201 136.774 436.201 144.482 436.201 152.43H407.476Z" fill="#ECF1F6" fill-opacity="0.4"/>
<path d="M503.958 152.43C503.958 144.482 503.958 136.774 503.958 129.306C503.958 121.838 503.958 113.548 503.958 104.435V54.8993C503.958 45.5127 503.958 37.0169 503.958 29.4118C503.958 21.8066 503.958 13.9617 503.958 5.87695H532.168C532.168 13.9617 532.168 21.8409 532.168 29.5145C532.168 37.1197 532.168 45.6498 532.168 55.1048V104.333H534.227L560.687 65.9987C567.345 56.4066 574.071 46.6775 580.867 36.8114C587.73 26.9452 594.869 16.6338 602.282 5.87695H626.785C626.785 13.9617 626.785 21.8066 626.785 29.4118C626.785 37.0169 626.785 45.5127 626.785 54.8993V104.435C626.785 113.548 626.785 121.838 626.785 129.306C626.785 136.774 626.785 144.482 626.785 152.43H598.575C598.575 144.414 598.575 136.672 598.575 129.204C598.575 121.735 598.575 113.445 598.575 104.333V53.8716H596.619L569.953 92.2056C561.854 103.853 554.407 114.541 547.612 124.27C540.885 134 534.433 143.386 528.256 152.43H503.958Z" fill="#ECF1F6" fill-opacity="0.4"/>
</g>
</svg>
