<svg width="705" height="159" viewBox="0 0 705 159" fill="none" xmlns="http://www.w3.org/2000/svg">
<mask id="mask0_10034_6812" style="mask-type:alpha" maskUnits="userSpaceOnUse" x="0" y="0" width="705" height="159">
<rect width="705" height="159" fill="#D9D9D9"/>
</mask>
<g mask="url(#mask0_10034_6812)">
<path d="M109.13 159C104.595 159 100.096 158.785 95.6327 158.355C91.2416 157.925 86.9585 157.28 82.7833 156.42C78.6802 155.632 74.757 154.592 71.0137 153.302C67.3425 151.94 63.9592 150.364 60.8638 148.572L62.6994 120.943C66.0828 123.452 69.5021 125.53 72.9573 127.178C76.4846 128.827 80.0119 130.153 83.5392 131.156C87.1384 132.16 90.7737 132.912 94.445 133.414C98.1162 133.844 101.787 134.059 105.459 134.059C118.2 134.059 128.494 131.909 136.34 127.609C144.259 123.308 150.054 117.396 153.725 109.87C157.396 102.273 159.232 93.6369 159.232 83.9615V74.6085C159.232 66.6531 157.972 59.6295 155.452 53.5375C153.005 47.4456 149.55 42.357 145.087 38.2718C140.695 34.1149 135.477 30.9973 129.43 28.9189C123.383 26.7688 116.796 25.6937 109.67 25.6937C104.775 25.6937 99.7359 26.1954 94.5529 27.1988C89.442 28.1305 84.187 29.6356 78.7882 31.714C73.4612 33.7208 67.9904 36.3726 62.3755 39.6694L60 11.9331C62.8794 10.428 66.2267 8.95876 70.0419 7.52536C73.9291 6.09196 78.1403 4.8019 82.6754 3.65518C87.2824 2.50845 92.0694 1.61258 97.0364 0.967552C102.075 0.322517 107.186 0 112.369 0C124.535 0 135.369 1.97093 144.871 5.91279C154.445 9.78297 162.543 15.3016 169.166 22.4686C175.788 29.5639 180.827 37.9851 184.283 47.7323C187.81 57.4794 189.573 68.1224 189.573 79.6613C189.573 95.2853 186.442 109.046 180.179 120.943C173.989 132.84 164.883 142.158 152.861 148.895C140.911 155.632 126.334 159 109.13 159ZM87.9663 91.0568V67.4057C94.445 67.4057 101.14 67.4057 108.05 67.4057C114.961 67.4057 123.203 67.4057 132.777 67.4057H164.847V91.0568H132.885C123.599 91.0568 115.501 91.0568 108.59 91.0568C101.679 91.0568 94.8049 91.0568 87.9663 91.0568Z" fill="#ECF1F6" fill-opacity="0.4"/>
<path d="M206.828 156.312C207.908 148.214 208.952 140.151 209.959 132.124C210.967 124.025 212.047 115.281 213.199 105.893L219.569 54.7201C220.793 45.403 221.909 36.6592 222.917 28.4889C223.925 20.2468 224.968 11.7539 226.048 3.01014H256.606C260.421 12.4706 264.056 21.5727 267.512 30.3164C270.967 38.9885 274.422 47.6248 277.877 56.2252L298.285 107.29H300.337L320.205 56.3327C323.66 47.6606 327.043 39.0602 330.355 30.5314C333.738 21.931 337.265 12.7573 340.937 3.01014H371.17C372.25 11.6822 373.294 20.1393 374.302 28.3813C375.382 36.5517 376.497 45.3671 377.649 54.8276L384.128 106.215C385.351 115.532 386.467 124.168 387.475 132.124C388.483 140.007 389.491 148.07 390.498 156.312H361.776C360.337 144.63 358.969 133.521 357.673 122.986C356.377 112.45 355.154 102.596 354.002 93.4219L349.143 53.86H347.091L331.65 96.4321C327.907 106.824 324.128 117.145 320.313 127.394C316.57 137.642 313.078 147.282 309.839 156.312H289.647C287.487 150.507 285.076 144.272 282.413 137.606C279.821 130.87 277.158 124.025 274.422 117.073C271.687 110.049 268.987 103.205 266.324 96.5396L249.695 53.86H247.644L242.893 93.2069C241.741 102.452 240.517 112.379 239.221 122.986C237.926 133.521 236.594 144.63 235.226 156.312H206.828Z" fill="#ECF1F6" fill-opacity="0.4"/>
<path d="M407.756 156.312C410.564 148.07 413.515 139.398 416.61 130.296C419.706 121.194 422.621 112.558 425.357 104.387L443.281 51.8174C446.52 42.2853 449.436 33.7208 452.027 26.1237C454.691 18.455 457.318 10.7505 459.91 3.01014H498.998C501.661 11.0372 504.289 18.8492 506.88 26.4463C509.471 34.0433 512.351 42.5003 515.518 51.8174L533.227 104.495C536.106 112.952 539.057 121.66 542.081 130.619C545.104 139.577 547.984 148.142 550.719 156.312H519.513C516.922 147.927 514.259 139.291 511.523 130.404C508.788 121.517 506.196 113.131 503.749 105.247L480.317 28.9189H477.942L454.295 104.387C451.703 112.629 449.004 121.266 446.196 130.296C443.461 139.255 440.762 147.927 438.098 156.312H407.756ZM441.985 122.126L445.009 99.3347H516.922L519.405 122.126H441.985Z" fill="#ECF1F6" fill-opacity="0.4"/>
<path d="M575.011 158.57C572.779 158.57 570.656 158.462 568.64 158.247C566.624 158.104 564.753 157.889 563.025 157.602C561.369 157.316 559.822 156.993 558.382 156.635L559.786 131.371C561.298 131.658 562.665 131.873 563.889 132.016C565.113 132.16 566.193 132.231 567.128 132.231C572.815 132.231 577.242 129.83 580.41 125.028C583.649 120.155 586.06 112.701 587.644 102.667C589.228 92.5619 590.416 79.7329 591.207 64.1805C591.783 54.1467 592.359 44.0054 592.935 33.7566C593.511 23.4361 594.087 13.1873 594.663 3.01014H702.101C702.101 11.4672 702.101 19.6734 702.101 27.6288C702.101 35.5842 702.101 44.4713 702.101 54.2901V106.108C702.101 115.64 702.101 124.312 702.101 132.124C702.101 139.936 702.101 147.999 702.101 156.312H671.867C671.867 147.999 671.867 139.936 671.867 132.124C671.867 124.312 671.867 115.64 671.867 106.108V58.9128C671.867 49.094 671.867 40.2069 671.867 32.2515C671.867 24.2961 671.867 16.0899 671.867 7.63287L686.768 28.2738H606.432L622.953 9.13793C622.161 20.0318 621.369 30.8898 620.577 41.712C619.858 52.5342 619.102 63.8222 618.31 75.5761C617.374 89.4084 616.258 101.521 614.963 111.913C613.739 122.305 611.723 130.977 608.916 137.929C606.108 144.809 602.005 149.97 596.606 153.41C591.279 156.85 584.081 158.57 575.011 158.57Z" fill="#ECF1F6" fill-opacity="0.4"/>
</g>
</svg>
