<svg width="508" height="159" viewBox="0 0 508 159" fill="none" xmlns="http://www.w3.org/2000/svg">
<g clip-path="url(#clip0_4030_883)">
<path d="M49.1299 159C44.5949 159 40.0958 158.785 35.6327 158.355C31.2416 157.925 26.9585 157.28 22.7833 156.42C18.6802 155.632 14.757 154.592 11.0137 153.302C7.3425 151.941 3.95919 150.364 0.863823 148.572L2.69945 120.943C6.08276 123.452 9.50206 125.53 12.9573 127.178C16.4846 128.827 20.0119 130.153 23.5392 131.156C27.1384 132.16 30.7737 132.912 34.445 133.414C38.1162 133.844 41.7874 134.059 45.4587 134.059C58.2001 134.059 68.494 131.909 76.3404 127.609C84.2588 123.308 90.0536 117.396 93.7248 109.87C97.3961 102.273 99.2317 93.6369 99.2317 83.9615V74.6085C99.2317 66.6531 97.9719 59.6295 95.4525 53.5375C93.005 47.4456 89.5497 42.357 85.0866 38.2718C80.6955 34.1149 75.4766 30.9973 69.4298 28.9189C63.383 26.7688 56.7964 25.6937 49.6698 25.6937C44.7748 25.6937 39.7359 26.1954 34.5529 27.1988C29.442 28.1305 24.187 29.6356 18.7882 31.714C13.4612 33.7208 7.99036 36.3726 2.37551 39.6694L0 11.9331C2.87941 10.428 6.22673 8.95876 10.0419 7.52536C13.9291 6.09196 18.1403 4.8019 22.6754 3.65518C27.2824 2.50845 32.0694 1.61258 37.0364 0.967552C42.0754 0.322517 47.1863 0 52.3693 0C64.5348 0 75.3686 1.97093 84.8706 5.91279C94.4447 9.78297 102.543 15.3016 109.166 22.4686C115.788 29.5639 120.827 37.9851 124.283 47.7323C127.81 57.4794 129.573 68.1224 129.573 79.6613C129.573 95.2853 126.442 109.046 120.179 120.943C113.989 132.84 104.883 142.158 92.861 148.895C80.9114 155.632 66.3344 159 49.1299 159ZM27.9663 91.0568V67.4057C34.445 67.4057 41.1396 67.4057 48.0502 67.4057C54.9608 67.4057 63.2031 67.4057 72.7771 67.4057H104.847V91.0568H72.8851C63.599 91.0568 55.5006 91.0568 48.5901 91.0568C41.6795 91.0568 34.8049 91.0568 27.9663 91.0568Z" fill="#ECF1F6"/>
<path d="M146.828 156.312C147.908 148.214 148.952 140.151 149.959 132.124C150.967 124.025 152.047 115.281 153.199 105.893L159.569 54.7201C160.793 45.403 161.909 36.6592 162.917 28.4889C163.925 20.2468 164.968 11.7539 166.048 3.01014H196.606C200.421 12.4706 204.056 21.5727 207.512 30.3164C210.967 38.9885 214.422 47.6248 217.877 56.2252L238.285 107.29H240.337L260.205 56.3327C263.66 47.6606 267.043 39.0602 270.355 30.5314C273.738 21.931 277.265 12.7573 280.937 3.01014H311.17C312.25 11.6822 313.294 20.1393 314.302 28.3813C315.382 36.5517 316.497 45.3671 317.649 54.8276L324.128 106.215C325.352 115.532 326.467 124.168 327.475 132.124C328.483 140.007 329.491 148.07 330.498 156.312H301.776C300.337 144.63 298.969 133.521 297.673 122.986C296.377 112.45 295.154 102.596 294.002 93.4219L289.143 53.86H287.091L271.65 96.4321C267.907 106.824 264.128 117.145 260.313 127.394C256.57 137.642 253.078 147.282 249.839 156.312H229.647C227.487 150.507 225.076 144.272 222.413 137.606C219.821 130.87 217.158 124.025 214.422 117.073C211.687 110.049 208.987 103.205 206.324 96.5396L189.695 53.86H187.644L182.893 93.2069C181.741 102.452 180.517 112.379 179.221 122.986C177.926 133.521 176.594 144.63 175.226 156.312H146.828Z" fill="#ECF1F6"/>
<path d="M347.756 156.312C350.564 148.07 353.515 139.398 356.61 130.296C359.706 121.194 362.621 112.558 365.357 104.387L383.281 51.8174C386.52 42.2853 389.436 33.7208 392.027 26.1237C394.691 18.455 397.318 10.7505 399.91 3.01014H438.998C441.661 11.0372 444.289 18.8492 446.88 26.4463C449.471 34.0433 452.351 42.5003 455.518 51.8174L473.227 104.495C476.106 112.952 479.057 121.66 482.081 130.619C485.104 139.577 487.984 148.142 490.719 156.312H459.513C456.922 147.927 454.259 139.291 451.523 130.404C448.788 121.517 446.196 113.131 443.749 105.247L420.317 28.9189H417.942L394.295 104.387C391.703 112.629 389.004 121.266 386.196 130.296C383.461 139.255 380.762 147.927 378.098 156.312H347.756ZM381.985 122.126L385.009 99.3347H456.922L459.405 122.126H381.985Z" fill="#ECF1F6"/>
<path d="M515.011 158.57C512.779 158.57 510.656 158.462 508.64 158.247C506.624 158.104 504.753 157.889 503.025 157.602C501.369 157.316 499.822 156.993 498.382 156.635L499.786 131.371C501.298 131.658 502.665 131.873 503.889 132.016C505.113 132.16 506.193 132.231 507.128 132.231C512.815 132.231 517.242 129.83 520.41 125.028C523.649 120.155 526.06 112.701 527.644 102.667C529.228 92.5619 530.416 79.7329 531.207 64.1805C531.783 54.1467 532.359 44.0054 532.935 33.7566C533.511 23.4361 534.087 13.1873 534.663 3.01014H642.101C642.101 11.4672 642.101 19.6734 642.101 27.6288C642.101 35.5842 642.101 44.4713 642.101 54.2901V106.108C642.101 115.64 642.101 124.312 642.101 132.124C642.101 139.936 642.101 147.999 642.101 156.312H611.867C611.867 147.999 611.867 139.936 611.867 132.124C611.867 124.312 611.867 115.64 611.867 106.108V58.9128C611.867 49.094 611.867 40.2069 611.867 32.2515C611.867 24.2961 611.867 16.0899 611.867 7.63287L626.768 28.2738H546.432L562.953 9.13793C562.161 20.0318 561.369 30.8898 560.577 41.712C559.858 52.5341 559.102 63.8222 558.31 75.5761C557.374 89.4084 556.258 101.521 554.963 111.913C553.739 122.305 551.723 130.977 548.916 137.929C546.108 144.809 542.005 149.97 536.606 153.41C531.279 156.85 524.081 158.57 515.011 158.57Z" fill="#ECF1F6"/>
</g>
<defs>
<clipPath id="clip0_4030_883">
<rect width="508" height="159" fill="white"/>
</clipPath>
</defs>
</svg>
