<svg width="508" height="152" viewBox="0 0 508 152" fill="none" xmlns="http://www.w3.org/2000/svg">
<g clip-path="url(#clip0_4030_869)">
<path d="M0 149.431C0 141.483 0 133.775 0 126.307C0 118.839 0 110.549 0 101.436V51.8999C0 42.5134 0 34.0176 0 26.4124C0 18.8073 0 10.9624 0 2.87762H122.033C122.033 10.9624 122.033 18.8073 122.033 26.4124C122.033 34.0176 122.033 42.5134 122.033 51.8999V101.436C122.033 110.549 122.033 118.839 122.033 126.307C122.033 133.775 122.033 141.483 122.033 149.431H93.046C93.046 141.483 93.046 133.775 93.046 126.307C93.046 118.839 93.046 110.549 93.046 101.436V56.3191C93.046 46.9326 93.046 38.4368 93.046 30.8316C93.046 23.2265 93.046 15.3816 93.046 7.29683L101.711 27.0291H20.3216L28.9866 7.29683C28.9866 15.3816 28.9866 23.2265 28.9866 30.8316C28.9866 38.4368 28.9866 46.9326 28.9866 56.3191V101.436C28.9866 110.549 28.9866 118.839 28.9866 126.307C28.9866 133.775 28.9866 141.483 28.9866 149.431H0Z" fill="#ECF1F6"/>
<path d="M222.731 152C209.734 152 198.421 149.979 188.793 145.936C179.234 141.894 171.326 136.344 165.068 129.287C158.878 122.23 154.236 114.146 151.142 105.033C148.116 95.9207 146.603 86.2944 146.603 76.1542C146.603 61.9716 149.457 49.1251 155.165 37.6146C160.873 26.0356 169.297 16.8889 180.438 10.1745C191.647 3.39148 205.47 0 221.906 0C234.422 0 245.391 1.95267 254.813 5.85802C264.234 9.76336 272.108 15.2103 278.435 22.1988C284.762 29.1873 289.507 37.272 292.671 46.453C295.834 55.634 297.416 65.5001 297.416 76.0514C297.416 90.5765 294.527 103.56 288.751 115.002C282.974 126.444 274.515 135.488 263.375 142.134C252.234 148.711 238.686 152 222.731 152ZM222.216 128.054C229.918 128.054 236.589 126.684 242.228 123.943C247.867 121.134 252.543 117.297 256.257 112.433C260.039 107.5 262.824 101.916 264.612 95.6809C266.469 89.446 267.398 82.9029 267.398 76.0514C267.398 68.7203 266.4 61.9031 264.406 55.5997C262.412 49.2964 259.489 43.7809 255.638 39.0534C251.856 34.2574 247.145 30.5576 241.506 27.954C235.935 25.282 229.505 23.9459 222.216 23.9459C214.72 23.9459 208.118 25.3162 202.41 28.0568C196.702 30.7974 191.922 34.6 188.071 39.4645C184.289 44.3291 181.435 49.913 179.509 56.2164C177.584 62.4512 176.621 69.0629 176.621 76.0514C176.621 83.0399 177.549 89.6516 179.406 95.8864C181.263 102.121 184.083 107.671 187.865 112.535C191.647 117.4 196.392 121.203 202.1 123.943C207.808 126.684 214.513 128.054 222.216 128.054Z" fill="#ECF1F6"/>
<path d="M408.603 149.431C403.376 142.716 398.459 136.413 393.851 130.521C389.313 124.628 384.842 118.873 380.441 113.255L358.16 84.787H348.463V61.9716H357.85L377.553 38.5396C382.16 32.9899 386.734 27.4744 391.272 21.9932C395.88 16.5121 401.175 10.1402 407.158 2.87762H440.787C434.047 10.6198 427.446 18.2249 420.981 25.693C414.586 33.1611 408.121 40.6635 401.588 48.2001L377.037 76.668L376.521 64.0271L403.857 98.8668C408.052 104.211 412.557 109.966 417.371 116.133C422.253 122.299 426.999 128.294 431.606 134.118C436.214 139.941 440.237 145.046 443.675 149.431H408.603ZM322.158 149.431C322.158 141.483 322.158 133.775 322.158 126.307C322.158 118.839 322.158 110.549 322.158 101.436V51.8999C322.158 42.5134 322.158 34.0176 322.158 26.4124C322.158 18.8073 322.158 10.9624 322.158 2.87762H351.042C351.042 10.9624 351.042 18.8073 351.042 26.4124C351.042 34.0176 351.042 42.5134 351.042 51.8999V101.436C351.042 110.549 351.042 118.839 351.042 126.307C351.042 133.775 351.042 141.483 351.042 149.431H322.158Z" fill="#ECF1F6"/>
<path d="M464.4 149.431C464.4 141.483 464.4 133.775 464.4 126.307C464.4 118.839 464.4 110.549 464.4 101.436V51.7972C464.4 42.4792 464.4 34.0176 464.4 26.4124C464.4 18.8073 464.4 10.9624 464.4 2.87762C470.245 2.87762 477.982 2.87762 487.61 2.87762C497.306 2.87762 508.447 2.87762 521.032 2.87762C532.723 2.87762 542.454 4.35069 550.225 7.29683C557.996 10.243 563.841 15.0047 567.761 21.5822C571.681 28.0911 573.641 36.7924 573.641 47.6863C573.641 57.0728 571.922 65.3973 568.483 72.6599C565.045 79.854 559.475 85.5064 551.772 89.6173C544.07 93.6597 533.72 95.6809 520.723 95.6809C517.422 95.6809 513.811 95.6809 509.891 95.6809C506.04 95.6809 502.258 95.6809 498.544 95.6809C494.899 95.6809 491.77 95.6809 489.157 95.6809V72.9682H514.43C521.307 72.9682 526.946 72.1118 531.348 70.3989C535.749 68.6861 538.981 66.014 541.044 62.3827C543.176 58.6829 544.242 53.8869 544.242 47.9946C544.242 43.1986 543.485 39.3617 541.973 36.4841C540.46 33.538 538.465 31.3113 535.99 29.8039C533.514 28.2966 530.797 27.2689 527.84 26.7208C524.883 26.1726 521.96 25.8986 519.072 25.8986H478.945L492.871 7.29683C492.871 15.3816 492.871 23.2608 492.871 30.9344C492.871 38.5396 492.871 47.0011 492.871 56.3191V101.436C492.871 110.549 492.871 118.839 492.871 126.307C492.871 133.775 492.871 141.483 492.871 149.431H464.4Z" fill="#ECF1F6"/>
</g>
<defs>
<clipPath id="clip0_4030_869">
<rect width="508" height="152" fill="white"/>
</clipPath>
</defs>
</svg>
