<svg width="508" height="157" viewBox="0 0 508 157" fill="none" xmlns="http://www.w3.org/2000/svg">
<g clip-path="url(#clip0_4030_905)">
<path d="M89.0393 154.346C83.6559 147.411 78.5912 140.9 73.8453 134.814C69.1702 128.728 64.5659 122.783 60.0325 116.98L37.082 87.5761H27.0943V64.0102H36.7633L57.0574 39.8073C61.8034 34.0751 66.5139 28.3782 71.189 22.7167C75.9349 17.0552 81.3892 10.4737 87.5518 2.97228H122.19C115.248 10.9691 108.448 18.8244 101.79 26.5382C95.202 34.252 88.5435 42.0011 81.8142 49.7857L56.5262 79.19L55.9949 66.1332L84.1517 102.119C88.4727 107.639 93.1123 113.584 98.0708 119.953C103.1 126.322 107.988 132.514 112.734 138.529C117.48 144.545 121.623 149.817 125.165 154.346H89.0393ZM0 154.346C0 146.137 0 138.176 0 130.462C0 122.748 0 114.185 0 104.773V53.6072C0 43.9119 0 35.1366 0 27.2813C0 19.426 0 11.323 0 2.97228H29.7506C29.7506 11.323 29.7506 19.426 29.7506 27.2813C29.7506 35.1366 29.7506 43.9119 29.7506 53.6072V104.773C29.7506 114.185 29.7506 122.748 29.7506 130.462C29.7506 138.176 29.7506 146.137 29.7506 154.346H0Z" fill="#ECF1F6"/>
<path d="M146.512 154.346C146.512 146.137 146.512 138.176 146.512 130.462C146.512 122.748 146.512 114.185 146.512 104.773V53.501C146.512 43.8765 146.512 35.1366 146.512 27.2813C146.512 19.426 146.512 11.323 146.512 2.97228C152.533 2.97228 160.502 2.97228 170.419 2.97228C180.406 2.97228 191.881 2.97228 204.844 2.97228C216.886 2.97228 226.909 4.49381 234.914 7.53686C242.918 10.5799 248.939 15.4983 252.977 22.2921C257.014 29.0151 259.033 38.0027 259.033 49.2549C259.033 58.9502 257.262 67.5486 253.72 75.05C250.179 82.4807 244.441 88.3191 236.507 92.5653C228.574 96.7406 217.913 98.8283 204.526 98.8283C201.125 98.8283 197.407 98.8283 193.369 98.8283C189.402 98.8283 185.506 98.8283 181.681 98.8283C177.927 98.8283 174.704 98.8283 172.012 98.8283V75.3685H198.044C205.128 75.3685 210.936 74.4839 215.469 72.7147C220.003 70.9455 223.332 68.1855 225.457 64.4348C227.653 60.6133 228.751 55.6595 228.751 49.5734C228.751 44.6196 227.972 40.6565 226.413 37.6842C224.855 34.6412 222.801 32.3412 220.251 30.7843C217.701 29.2274 214.903 28.1659 211.857 27.5997C208.811 27.0336 205.801 26.7505 202.825 26.7505H161.493L175.837 7.53686C175.837 15.8875 175.837 24.0259 175.837 31.952C175.837 39.8073 175.837 48.5472 175.837 58.1717V104.773C175.837 114.185 175.837 122.748 175.837 130.462C175.837 138.176 175.837 146.137 175.837 154.346H146.512Z" fill="#ECF1F6"/>
<path d="M259.865 154.346C262.627 146.208 265.531 137.645 268.577 128.657C271.623 119.67 274.492 111.142 277.184 103.074L294.822 51.1657C298.009 41.7534 300.878 33.2966 303.428 25.7951C306.049 18.2229 308.634 10.6153 311.184 2.97228H349.648C352.269 10.8984 354.854 18.6121 357.404 26.1136C359.954 33.6151 362.788 41.9658 365.904 51.1657L383.33 103.181C386.163 111.531 389.067 120.13 392.042 128.976C395.017 137.822 397.851 146.279 400.543 154.346H369.836C367.286 146.066 364.665 137.539 361.973 128.763C359.281 119.988 356.731 111.708 354.323 103.924L331.266 28.5551H328.929L305.659 103.074C303.109 111.213 300.453 119.74 297.69 128.657C294.999 137.503 292.342 146.066 289.721 154.346H259.865ZM293.547 120.59L296.522 98.0852H367.286L369.729 120.59H293.547Z" fill="#ECF1F6"/>
<path d="M487.077 157C474.893 157 463.914 155.125 454.138 151.374C444.363 147.552 436.04 142.174 429.169 135.239C422.298 128.233 417.021 119.953 413.338 110.399C409.725 100.774 407.919 90.1945 407.919 78.6592C407.919 63.444 411 49.9272 417.163 38.1089C423.396 26.2198 432.215 16.9137 443.62 10.1907C455.024 3.39689 468.589 0 484.314 0C489.202 0 494.018 0.318461 498.764 0.955382C503.581 1.59229 508.15 2.4769 512.471 3.6092C516.863 4.7415 520.9 6.01533 524.584 7.4307C528.338 8.77531 531.632 10.2261 534.465 11.783L532.128 39.595C526.673 36.1981 521.361 33.4735 516.19 31.4212C511.019 29.2982 506.025 27.7767 501.208 26.8567C496.462 25.9367 491.858 25.4767 487.395 25.4767C478.045 25.4767 469.687 27.5643 462.32 31.7397C455.024 35.915 449.286 41.9657 445.107 49.8918C440.928 57.8179 438.838 67.407 438.838 78.6592C438.838 85.9484 439.901 92.8483 442.026 99.359C444.222 105.799 447.48 111.496 451.801 116.45C456.122 121.403 461.505 125.296 467.951 128.126C474.468 130.886 482.047 132.266 490.689 132.266C494.089 132.266 497.525 132.054 500.996 131.629C504.467 131.134 507.938 130.391 511.408 129.4C514.879 128.41 518.315 127.065 521.715 125.366C525.115 123.668 528.48 121.616 531.809 119.21L533.615 146.703C530.64 148.472 527.311 150.029 523.627 151.374C519.944 152.648 516.083 153.709 512.046 154.558C508.079 155.408 503.971 156.009 499.721 156.363C495.471 156.788 491.256 157 487.077 157Z" fill="#ECF1F6"/>
</g>
<defs>
<clipPath id="clip0_4030_905">
<rect width="508" height="157" fill="white"/>
</clipPath>
</defs>
</svg>
