<svg width="705" height="159" viewBox="0 0 705 159" fill="none" xmlns="http://www.w3.org/2000/svg">
<mask id="mask0_10034_6812" style="mask-type:alpha" maskUnits="userSpaceOnUse" x="0" y="0" width="705" height="159">
<rect width="705" height="159" fill="#D9D9D9"/>
</mask>
<g mask="url(#mask0_10034_6812)">
<path d="M76.7903 158C74.537 158 72.3928 157.892 70.3576 157.675C68.3225 157.53 66.4326 157.313 64.6882 157.023C63.0164 156.734 61.4537 156.409 60 156.047L61.4174 130.549C62.9437 130.839 64.3248 131.056 65.5604 131.2C66.7961 131.345 67.8863 131.417 68.8312 131.417C74.5734 131.417 79.0435 128.994 82.2417 124.148C85.5125 119.229 87.9474 111.707 89.5465 101.58C91.1456 91.3808 92.3449 78.4331 93.1444 62.7367C93.7259 52.61 94.3074 42.3748 94.8889 32.0311C95.4704 21.6151 96.0518 11.2714 96.6333 1H205.116C205.116 9.53536 205.116 17.8176 205.116 25.8466C205.116 33.8756 205.116 42.845 205.116 52.7547V105.052C205.116 114.672 205.116 123.425 205.116 131.309C205.116 139.193 205.116 147.331 205.116 155.721H174.588C174.588 147.331 174.588 139.193 174.588 131.309C174.588 123.425 174.588 114.672 174.588 105.052V57.4202C174.588 47.5105 174.588 38.5411 174.588 30.5121C174.588 22.4831 174.588 14.2009 174.588 5.66553L189.634 26.4976H108.517L125.199 7.18452C124.399 18.1792 123.6 29.1378 122.8 40.0601C122.073 50.9825 121.31 62.375 120.51 74.2377C119.565 88.1981 118.439 100.422 117.131 110.911C115.895 121.399 113.86 130.152 111.025 137.168C108.19 144.112 104.047 149.32 98.5958 152.792C93.2171 156.264 85.9486 158 76.7903 158Z" fill="#ECF1F6" fill-opacity="0.4"/>
<path d="M227.327 155.721C230.162 147.403 233.142 138.651 236.267 129.464C239.393 120.278 242.336 111.562 245.098 103.316L263.197 50.2592C266.468 40.6388 269.412 31.9949 272.028 24.3276C274.718 16.5879 277.371 8.81203 279.987 1H319.455C322.145 9.10137 324.798 16.9857 327.414 24.6531C330.031 32.3204 332.938 40.8558 336.137 50.2592L354.017 103.424C356.925 111.96 359.905 120.748 362.957 129.79C366.01 138.832 368.918 147.475 371.68 155.721H340.171C337.554 147.258 334.865 138.542 332.103 129.573C329.341 120.604 326.724 112.141 324.253 104.184L300.594 27.1486H298.195L274.318 103.316C271.701 111.634 268.976 120.35 266.141 129.464C263.379 138.506 260.653 147.258 257.964 155.721H227.327ZM261.889 121.218L264.942 98.2163H337.554L340.062 121.218H261.889Z" fill="#ECF1F6" fill-opacity="0.4"/>
<path d="M484.956 155.721C479.432 148.633 474.235 141.978 469.365 135.757C464.568 129.537 459.843 123.461 455.192 117.529L431.642 87.4748H421.393V63.3877H431.314L452.139 38.6496C457.009 32.7906 461.842 26.9678 466.639 21.1811C471.509 15.3944 477.106 8.66736 483.43 1H518.973C511.85 9.17369 504.872 17.2027 498.039 25.0871C491.28 32.9714 484.447 40.892 477.542 48.8487L451.594 78.9033L451.048 65.5577L479.941 102.339C484.375 107.981 489.135 114.057 494.223 120.567C499.384 127.077 504.399 133.407 509.269 139.555C514.139 145.703 518.391 151.092 522.026 155.721H484.956ZM393.591 155.721C393.591 147.331 393.591 139.193 393.591 131.309C393.591 123.425 393.591 114.672 393.591 105.052V52.7547C393.591 42.845 393.591 33.8756 393.591 25.8466C393.591 17.8176 393.591 9.53536 393.591 1H424.119C424.119 9.53536 424.119 17.8176 424.119 25.8466C424.119 33.8756 424.119 42.845 424.119 52.7547V105.052C424.119 114.672 424.119 123.425 424.119 131.309C424.119 139.193 424.119 147.331 424.119 155.721H393.591Z" fill="#ECF1F6" fill-opacity="0.4"/>
<path d="M543.93 155.721C543.93 147.331 543.93 139.193 543.93 131.309C543.93 123.425 543.93 114.672 543.93 105.052V52.7547C543.93 42.845 543.93 33.8756 543.93 25.8466C543.93 17.8176 543.93 9.53536 543.93 1H573.803C573.803 9.53536 573.803 17.8537 573.803 25.9551C573.803 33.9841 573.803 42.9896 573.803 52.9717V104.943H575.984L604.004 64.4727C611.055 54.346 618.178 44.0746 625.374 33.6586C632.642 23.2426 640.201 12.3564 648.051 1H674C674 9.53536 674 17.8176 674 25.8466C674 33.8756 674 42.845 674 52.7547V105.052C674 114.672 674 123.425 674 131.309C674 139.193 674 147.331 674 155.721H644.126C644.126 147.258 644.126 139.085 644.126 131.2C644.126 123.316 644.126 114.564 644.126 104.943V51.6697H642.055L613.817 92.1403C605.24 104.437 597.353 115.721 590.158 125.992C583.035 136.264 576.202 146.173 569.66 155.721H543.93Z" fill="#ECF1F6" fill-opacity="0.4"/>
</g>
</svg>
