<svg width="79" height="61" viewBox="0 0 79 61" fill="none" xmlns="http://www.w3.org/2000/svg">
<g clip-path="url(#clip0_4030_792)">
<mask id="mask0_4030_792" style="mask-type:luminance" maskUnits="userSpaceOnUse" x="0" y="0" width="79" height="61">
<path d="M79 0H0V61H79V0Z" fill="white"/>
</mask>
<g mask="url(#mask0_4030_792)">
<path d="M39.344 48.7169H33.8234L37.4884 52.3022H39.344C39.8668 52.3022 40.2919 52.7244 40.2919 53.2433C40.2919 53.762 39.8666 54.1835 39.344 54.1835H37.4884V52.3022H33.8839V59.4817H37.4884V57.7622H39.344C41.8548 57.7622 43.8968 55.7349 43.8968 53.2433C43.8968 50.7515 41.8548 48.7169 39.344 48.7169ZM50.6997 48.4766C47.4856 48.4766 44.8699 51.0733 44.8699 54.2642C44.8699 57.455 47.4856 60.0517 50.6997 60.0517C53.9138 60.0517 56.5295 57.455 56.5295 54.2642C56.5295 51.0733 53.9138 48.4766 50.6997 48.4766ZM50.6997 56.473C49.4711 56.473 48.4749 55.4805 48.4749 54.2642C48.4749 53.048 49.4711 52.0554 50.6997 52.0554C51.9284 52.0554 52.9247 53.048 52.9247 54.2642C52.9247 55.4805 51.9284 56.473 50.6997 56.473ZM31.9616 48.7169V59.4817H28.3597V51.7317H24.6722V59.4817H21.0703V48.7169H31.9616Z" fill="#FDC300"/>
<path d="M64.3501 34.9036V45.7526H60.5815V41.7064H56.9654V45.7526H53.1946V34.9036H56.9654V38.6427H60.5815V34.9036H64.3501ZM3.2561 34.9027L3.11308 39.1796C3.09327 39.8633 3.04707 40.488 2.97666 41.0363C2.90626 41.5714 2.77864 41.9996 2.59382 42.3097C2.36499 42.692 1.98435 42.8143 1.4299 42.6963L1.09766 42.6265V45.7239L1.19227 45.7479C1.48269 45.82 1.76213 45.8702 2.02176 45.903C2.27919 45.9336 2.52782 45.9488 2.75665 45.9488C3.51352 45.9488 4.14499 45.7763 4.62904 45.4399C5.1109 45.1035 5.48715 44.6775 5.75117 44.055C6.01081 43.4435 6.19563 42.7051 6.30344 41.8598C6.41125 41.021 6.48166 40.0752 6.51246 39.0507L6.54546 37.9302H8.76111V45.75H12.5587V34.9027H3.2561ZM17.9876 42.8165V41.5762H23.0871V38.9249H17.9876V37.8363H23.7126V34.9036H14.2113V45.7492H23.9111V42.8165H17.9876ZM35.5748 34.9034L32.3114 38.5346L29.0481 34.9034H25.0665V45.7502H28.8404V40.6175H28.8649L28.8755 40.628L32.3009 43.9657L35.7685 40.5826L35.772 40.5895V40.6351L35.7825 45.7502H39.5529V34.9034H35.5748ZM65.6156 40.0304V45.7502H69.21V40.0304C69.21 39.0274 70.0514 38.2096 71.0617 38.2096C72.072 38.2096 72.8993 39.0274 72.8993 40.0304V42.1553H69.2523L72.8219 45.7502H76.5253V40.0304C76.5253 37.0423 74.0716 34.6133 71.0617 34.6133C68.0553 34.6133 65.6156 37.0423 65.6156 40.0304ZM46.2839 34.6133C43.2739 34.6133 40.8202 37.0423 40.8202 40.0304V45.7502H44.5236L48.0933 42.1553H44.4463V40.0304C44.4463 39.0274 45.27 38.2096 46.2839 38.2096C47.2977 38.2096 48.1356 39.0274 48.1356 40.0304V45.7502H51.73V40.0304C51.73 37.0423 49.2903 34.6133 46.2839 34.6133Z" fill="#21282B"/>
<path d="M44.4345 5.53125L38.7994 11.0629L43.9971 16.165V22.5324H33.6016V29.3481H51.9934V12.9512L44.4345 5.53125Z" fill="#BF8900"/>
<path d="M38.8036 0L25.6094 12.9515V29.3482H33.6059V22.5324V16.1651L38.8036 11.063L44.4386 5.5316L38.8036 0Z" fill="#FDC300"/>
<path d="M38.7969 11.0629L44.4319 5.53125L39.8407 12.0875L38.7969 11.0629Z" fill="#815F00"/>
<path d="M33.6016 22.5312V29.347L35.0955 22.5312H33.6016Z" fill="#815F00"/>
</g>
</g>
<defs>
<clipPath id="clip0_4030_792">
<rect width="79" height="61" fill="white"/>
</clipPath>
</defs>
</svg>
