<svg width="121" height="61" viewBox="0 0 121 61" fill="none" xmlns="http://www.w3.org/2000/svg">
<g clip-path="url(#clip0_4030_771)">
<path d="M0 22.4493C0 14.5935 0 10.6627 1.53609 7.6638C2.88514 5.02639 5.03907 2.88029 7.69184 1.53051C10.7016 0 14.6411 0 22.5313 0H98.4687C106.353 0 110.298 0 113.308 1.53051C115.955 2.87464 118.109 5.02074 119.464 7.6638C121 10.6627 121 14.5935 121 22.4493V38.5507C121 46.4065 121 50.3373 119.464 53.3362C118.115 55.9736 115.961 58.1194 113.308 59.4694C110.298 61 106.353 61 98.4687 61H22.5313C14.6467 61 10.7016 61 7.69184 59.4694C5.04474 58.1251 2.89081 55.9792 1.53609 53.3362C0 50.3317 0 46.4065 0 38.5451V22.4437V22.4493Z" fill="#D60000"/>
<path d="M48.509 39.5044C49.0021 39.5044 49.6483 39.6625 50.1528 39.9732C50.6515 40.2781 51.054 40.713 51.3487 41.2778C51.6435 41.8425 51.7965 42.4863 51.7965 43.2205C51.7965 43.9547 51.6491 44.6098 51.3487 45.1746C51.054 45.7394 50.6515 46.1743 50.1528 46.4792C49.654 46.7842 49.1041 46.9367 48.509 46.9367C47.9138 46.9367 47.6077 46.8406 47.1996 46.643C46.7915 46.451 46.4797 46.1912 46.27 45.8693H46.202V49.4442H44.4108V39.6512H46.1057V40.6791H46.1736C46.3947 40.3176 46.7178 40.0296 47.1316 39.8207C47.5567 39.606 48.0159 39.5044 48.509 39.5044ZM56.2064 44.4122H56.2745L58.0994 39.6851H59.8963L57.085 46.7447C56.7902 47.4619 56.5125 48.0097 56.2517 48.3881C56.0024 48.7665 55.7133 49.032 55.3789 49.19C55.0445 49.3538 54.625 49.4386 54.1036 49.4386H53.3553V47.7781H54.0752C54.3359 47.7781 54.5457 47.7104 54.71 47.5692C54.8858 47.4393 55.0387 47.219 55.1691 46.9084L55.3789 46.4397L52.1253 39.6851H54.0752L56.2064 44.4122ZM74.6 39.5383C75.2855 39.5383 75.9035 39.6908 76.4592 40.007C77.0256 40.3233 77.4679 40.7751 77.7911 41.3624C78.1256 41.9441 78.2901 42.6219 78.2901 43.3956V43.7966H72.6954C72.7294 43.9999 72.7861 44.1806 72.8655 44.35C73.0979 44.7284 73.4382 45.0334 73.8458 45.2197C74.1123 45.3383 74.3958 45.4005 74.6793 45.4118H74.9232C75.0819 45.3948 75.2345 45.3666 75.3875 45.3214C75.8979 45.1633 76.3344 44.8301 76.618 44.3783L77.9385 45.1972C77.4566 45.9709 76.7143 46.5413 75.8412 46.8068C75.3365 46.9593 74.8098 47.0044 74.2994 46.9423C73.7041 46.9028 73.1603 46.7446 72.6614 46.4679C72.0887 46.146 71.6356 45.7055 71.3011 45.1407C70.9666 44.5703 70.8021 43.9378 70.8021 43.2488C70.8021 42.5597 70.9666 41.9329 71.3011 41.3681C71.6413 40.792 72.1 40.3459 72.6727 40.0239C73.2567 39.7021 73.9139 39.5383 74.6 39.5383ZM33.0857 39.4931C33.7885 39.4931 34.6784 39.719 35.3076 40.1708C35.523 40.3233 35.7157 40.4984 35.8801 40.6847L34.6388 41.9216C34.497 41.673 34.293 41.4754 34.0152 41.3286C33.7489 41.1817 33.4371 41.1083 33.0857 41.1083C32.5132 41.1083 32.0427 41.3003 31.6799 41.69C31.3285 42.0684 31.1528 42.5767 31.1528 43.2149C31.1528 43.8531 31.3285 44.367 31.6799 44.7511C32.0427 45.1294 32.5075 45.3214 33.0857 45.3214C33.6638 45.3214 33.7489 45.2537 34.0152 45.1125C34.2817 44.9656 34.4914 44.7623 34.6388 44.5025L34.6445 44.4969L35.8801 45.7281C35.71 45.9144 35.5174 46.0838 35.2963 46.242C34.6671 46.6938 33.9302 46.9197 33.0857 46.9197C32.2411 46.9197 31.7423 46.7559 31.1698 46.434C30.5973 46.1121 30.1382 45.6659 29.8094 45.1012C29.475 44.5308 29.3106 43.8982 29.3106 43.2036C29.3106 42.5089 29.475 41.882 29.8094 41.3229C30.1439 40.7525 30.5973 40.3007 31.1698 39.9788C31.7423 39.6569 32.3828 39.4931 33.0857 39.4931ZM65.3265 43.7231H65.3946L67.7754 39.6908H69.7481V46.8125H67.9796V42.1418H67.9115L65.9389 45.4683H64.7714L62.7988 42.1418H62.7307V46.8125H60.9452V39.6908H62.9746L65.3265 43.7231ZM81.3111 42.4355H84.4285V39.6908H86.2084V46.8125H84.4285V44.0281H81.3111V46.8125H79.5199V39.6908H81.3111V42.4355ZM93.685 41.2947H91.3324V46.8125H89.5526V41.2947H87.2176V39.6851H93.685V41.2947ZM96.6096 42.0063H98.0719C98.9791 42.0063 99.676 42.2322 100.158 42.684C100.651 43.1301 100.895 43.7006 100.895 44.4009C100.895 45.1012 100.651 45.6942 100.158 46.146C99.676 46.5865 98.9791 46.8125 98.0719 46.8125H94.8184V39.6908H96.6096V42.0063ZM103.485 46.8125H101.705V39.6908H103.485V46.8125ZM14.5959 44.5477H14.6639L17.6114 39.6569H19.754V46.7785H17.9741V41.899H17.9061L14.9586 46.7785H12.8161V39.6569H14.5959V44.5477ZM23.1832 42.3959H26.3008V39.6512H28.0806V46.7729H26.3008V43.9886H23.1832V46.7729H21.3864V39.6512H23.1832V42.3959ZM43.1241 41.2552H40.7718V46.7729H38.992V41.2552H36.6567V39.6456H43.1241V41.2552ZM96.5812 45.3666H97.9869V45.3723C98.3327 45.3723 98.5879 45.2876 98.7637 45.1238C98.9508 44.9487 99.0415 44.7059 99.0415 44.4009C99.0415 44.0959 98.9508 43.8756 98.7637 43.7063C98.5879 43.5312 98.3271 43.4408 97.9869 43.4408H96.5812V45.3666ZM48.0725 41.0744C47.5 41.0744 47.0409 41.2664 46.7121 41.6449C46.3777 42.0232 46.2133 42.5428 46.2133 43.2092C46.2133 43.8756 46.3777 44.4009 46.7121 44.7906C47.0466 45.169 47.5 45.3609 48.0725 45.3609C48.645 45.3609 49.1042 45.169 49.4329 44.7906C49.7787 44.4122 49.9487 43.8869 49.9487 43.2092C49.9487 42.5315 49.7787 42.0119 49.4329 41.6449C49.0985 41.2664 48.645 41.0744 48.0725 41.0744ZM74.6113 41.0687C74.135 41.0687 73.7268 41.1986 73.3928 41.4585L73.3871 41.4528C73.0526 41.7126 72.8258 42.0684 72.7067 42.5202H76.4422C76.3344 42.0797 76.1133 41.7295 75.7788 41.4698C75.4499 41.2043 75.0876 41.0687 74.6113 41.0687ZM51.7795 18.1281C53.2703 18.1281 54.6193 18.4726 55.8323 19.156C57.0623 19.8393 58.0257 20.8221 58.7344 22.1097C59.4602 23.3747 59.8225 24.8544 59.8225 26.5431V27.4185H47.6021C47.6814 27.859 47.8117 28.26 47.9761 28.6214C48.4749 29.4516 49.2175 30.1236 50.1131 30.5247C50.6855 30.7844 51.2977 30.92 51.9156 30.9426C52.1083 30.9426 52.2896 30.937 52.4654 30.92V30.9313C52.8055 30.903 53.1456 30.8466 53.48 30.7449C54.591 30.4061 55.5433 29.6775 56.1554 28.6948L59.035 30.4738C57.9917 32.1512 56.3651 33.3993 54.4663 33.9753C53.3497 34.3142 52.1763 34.4045 51.0313 34.2577C49.773 34.1617 48.6109 33.8229 47.5454 33.2356C46.2983 32.5296 45.3064 31.5638 44.5809 30.3383C43.8554 29.0958 43.4925 27.7178 43.4925 26.2099C43.4925 24.702 43.8554 23.3352 44.5809 22.1097C45.3234 20.8616 46.321 19.8902 47.5737 19.1842C48.8434 18.4783 50.2888 18.1281 51.7795 18.1281ZM37.3992 18.0943C38.9353 18.0943 40.8682 18.5856 42.2399 19.5739C42.7103 19.9128 43.1241 20.2855 43.4812 20.6865L40.7831 23.3748C40.4827 22.8326 40.0292 22.3977 39.4228 22.0758C38.8389 21.7539 38.1644 21.5958 37.3935 21.5958C36.1408 21.5958 35.1262 22.0193 34.3384 22.8608C33.5731 23.6854 33.1877 24.7923 33.1877 26.176C33.1877 27.5596 33.5675 28.6779 34.3384 29.525C35.1262 30.3496 36.1408 30.7618 37.3935 30.7618C38.6462 30.7618 38.8332 30.6093 39.4228 30.31C40.0066 29.9881 40.46 29.5476 40.7831 28.9828H40.7945L43.4812 31.6598C43.1185 32.0665 42.6933 32.4392 42.2115 32.7781C40.8398 33.7664 39.2357 34.2577 37.3992 34.2577C35.5627 34.2577 34.4744 33.9076 33.2217 33.2016C31.9691 32.4956 30.9828 31.5356 30.2572 30.3044C29.5317 29.0619 29.1689 27.6839 29.1689 26.176C29.1689 24.668 29.5317 23.3014 30.2572 22.0758C30.9828 20.8277 31.9691 19.8563 33.2217 19.1504C34.4744 18.4444 35.8631 18.0943 37.3992 18.0943ZM95.4138 24.9504C96.1106 20.6808 100.147 17.7779 104.438 18.4726C108.723 19.1673 111.636 23.194 110.939 27.4636C110.242 31.7332 106.206 34.6361 101.915 33.9415C97.6302 33.2468 94.7164 29.2256 95.4138 24.9504ZM18.745 12.6895C20.1337 12.6895 21.3354 12.9153 22.3557 13.3615C23.393 13.8077 24.1922 14.4402 24.742 15.2535C25.3145 16.0441 25.5979 16.9534 25.5979 17.97C25.5979 18.9866 25.3428 19.8507 24.8327 20.6244C24.3225 21.3755 23.648 21.9685 22.8148 22.3921V22.5389C24.4076 22.7423 25.6376 23.324 26.5162 24.2784C27.3948 25.2159 27.8312 26.4019 27.8312 27.8477C27.8312 29.2935 27.5138 30.1181 26.8846 31.0499C26.2724 31.9874 25.3768 32.716 24.1922 33.2468C23.0075 33.7777 21.6131 34.0375 20.0033 34.0375H12.8047V12.6895H18.745ZM17.0218 30.4061H19.8163C20.9783 30.4061 21.8739 30.1745 22.5087 29.7058C23.1436 29.2201 23.4553 28.4972 23.4553 27.5427C23.4553 26.5882 23.1265 25.9049 22.4747 25.4361C21.8399 24.9505 20.9329 24.702 19.754 24.702H17.0218V30.4061ZM101.252 23.1376C100.918 23.1376 100.6 23.2109 100.311 23.3578C100.022 23.499 99.7951 23.691 99.642 23.9395H99.5909V23.2561H98.1683V30.1349H99.676V27.6557H99.727C99.8744 27.8759 100.084 28.0509 100.356 28.1752C100.634 28.3051 100.929 28.3672 101.246 28.3672C101.564 28.3672 102.029 28.2599 102.38 28.051C102.737 27.842 103.015 27.5314 103.224 27.1361C103.434 26.7351 103.542 26.2776 103.542 25.758C103.542 25.2385 103.434 24.7754 103.224 24.38C103.015 23.9847 102.737 23.6741 102.38 23.4651C102.034 23.2505 101.654 23.1489 101.246 23.1489L101.252 23.1376ZM105.775 28.0058L105.719 28.1527C105.634 28.3447 105.537 28.4915 105.418 28.5875C105.305 28.6835 105.157 28.7343 104.982 28.7343H104.398V30.1349H105.038C105.424 30.1349 105.741 30.0728 105.985 29.9542C106.229 29.8299 106.45 29.621 106.642 29.3273C106.841 29.0393 107.062 28.6101 107.294 28.0453L109.261 23.2618H107.771L106.552 26.368H106.501L105.084 23.2618H103.457L105.775 28.0058ZM100.855 24.4421C101.206 24.4421 101.479 24.5608 101.688 24.798C101.892 25.0295 102 25.3458 102 25.7524C102 26.159 101.898 26.481 101.688 26.7182C101.479 26.9497 101.206 27.0626 100.855 27.0626C100.504 27.0626 100.209 26.9441 99.9935 26.7182C99.7837 26.4866 99.6817 26.1647 99.6817 25.7524C99.6817 25.3401 99.7837 25.0182 99.9935 24.7867C100.209 24.5551 100.504 24.4421 100.855 24.4421ZM51.8079 21.4828C50.7593 21.4828 49.8694 21.7595 49.1438 22.3243V22.33C48.4126 22.8948 47.9195 23.6684 47.6588 24.6511H55.7983C55.5546 23.6854 55.0728 22.9229 54.3473 22.3582C53.6444 21.7765 52.8565 21.4828 51.8079 21.4828ZM17.0275 21.3812H18.2575C19.2381 21.3812 19.9807 21.1496 20.4908 20.6809C21.0009 20.1952 21.256 19.5626 21.256 18.7889C21.256 18.0152 21.0009 17.4165 20.4908 16.9873C19.9807 16.5412 19.2551 16.3153 18.3199 16.3153H17.0275V21.3812Z" fill="white"/>
</g>
<defs>
<clipPath id="clip0_4030_771">
<rect width="121" height="61" fill="white"/>
</clipPath>
</defs>
</svg>
