<svg width="258" height="49" viewBox="0 0 258 49" fill="none" xmlns="http://www.w3.org/2000/svg">
<path d="M16.6081 38.8013H21.7132V9.74609H14.2755C6.79779 9.74609 2.87901 13.5445 2.87901 19.1498C2.87901 23.6208 5.02501 26.2586 8.87714 28.9755L2.19922 38.8013H7.73083L15.1685 27.8017L12.596 26.0872C9.46362 24.0033 7.9441 22.3679 7.9441 18.8596C7.9441 15.7602 10.1434 13.6764 14.3288 13.6764H16.6081V38.8013ZM115.177 39.2101C117.51 39.2101 119.149 38.8013 120.376 37.9176V33.8686C119.11 34.7391 117.59 35.2798 115.484 35.2798C111.885 35.2798 110.406 32.5234 110.406 28.1842C110.406 23.6208 112.232 21.2864 115.524 21.2864C117.47 21.2864 119.363 21.9458 120.376 22.5789V18.3585C119.323 17.765 117.47 17.3561 114.977 17.3561C108.553 17.3561 105.207 21.9063 105.207 28.3029C105.207 35.3326 108.459 39.2101 115.177 39.2101ZM83.7472 37.3769V33.3147C82.1877 34.3698 79.5618 35.2798 77.1092 35.2798C73.4304 35.2798 72.0442 33.5785 71.8309 30.057H83.9604V27.4324C83.9604 20.1126 80.7081 17.3561 75.6697 17.3561C69.5516 17.3561 66.6325 21.9854 66.6325 28.3425C66.6325 35.6623 70.2714 39.2101 76.696 39.2101C79.895 39.2101 82.2676 38.3792 83.7472 37.3769ZM99.8088 38.8013H105.5L97.4362 27.6303L104.541 17.765H99.4623L92.3712 27.6303V17.765H87.3327V38.8013H92.3712V28.6326L99.8088 38.8013ZM65.4062 34.871H63.1669V17.765H48.5048V19.5718C48.5048 24.7023 48.1716 31.3495 46.3988 34.871H44.826V43.602H49.4778V38.8013H60.7543V43.602H65.4062V34.871ZM37.6948 17.765V26.0872H30.9769V17.765H25.9385V38.8013H30.9769V30.0175H37.6948V38.8013H42.7199V17.765H37.6948ZM75.5897 21.2864C78.0823 21.2864 78.842 23.3307 78.842 25.9685V26.3773H71.8309C71.9642 23.0405 73.1771 21.2864 75.5897 21.2864ZM58.1418 34.871H51.0374C52.4369 31.6925 52.8235 25.9685 52.8235 22.3283V21.6953H58.1418V34.871ZM142.516 38.8013H146.994L152.912 17.1451V38.8013H157.817V9.74609H150.966L145.008 31.521L139.01 9.74609H132.212V38.8013H136.611V17.1451L142.516 38.8013ZM177.931 24.4517C177.931 19.3608 175.305 17.4352 169.987 17.4352C166.641 17.4352 164.029 18.4772 162.509 19.3608V23.5021C163.856 22.4866 166.815 21.4051 169.401 21.4051C171.8 21.4051 172.906 22.236 172.906 24.5045V25.6651H172.093C164.402 25.6651 160.99 28.1842 160.99 32.4442C160.99 36.7042 163.602 39.0914 167.494 39.0914C170.454 39.0914 171.72 38.1286 172.693 37.1263H172.906C172.946 37.667 173.106 38.3792 173.279 38.8013H178.184C178.011 37.0867 177.931 35.3722 177.931 33.6576V24.4517ZM172.906 33.7763C172.266 34.6995 171.08 35.4513 169.307 35.4513C167.201 35.4513 166.135 34.2775 166.135 32.4838C166.135 30.0966 167.868 29.2261 172.186 29.2261H172.906V33.7763ZM186.635 17.765H181.983V44.855H187.008V36.335C188.288 38.2078 190.141 39.2101 192.3 39.2101C197.192 39.2101 200.577 35.3326 200.577 28.2633C200.577 21.2336 197.285 17.3561 192.553 17.3561C190.181 17.3561 188.235 18.4376 186.888 20.4819L186.635 17.765ZM191.034 35.2798C188.368 35.2798 187.008 33.1564 187.008 28.3029C187.008 23.4098 188.448 21.2864 191.287 21.2864C194.033 21.2864 195.379 23.4098 195.379 28.2633C195.379 33.1564 193.94 35.2798 191.034 35.2798ZM216.426 38.8013H222.131L214.053 27.6303L221.158 17.765H216.079L208.988 27.6303V17.765H203.963V38.8013H208.988V28.6326L216.426 38.8013ZM239.032 37.3769V33.3147C237.459 34.3698 234.847 35.2798 232.394 35.2798C228.715 35.2798 227.329 33.5785 227.116 30.057H239.245V27.4324C239.245 20.1126 235.98 17.3561 230.955 17.3561C224.837 17.3561 221.918 21.9854 221.918 28.3425C221.918 35.6623 225.543 39.2101 231.968 39.2101C235.18 39.2101 237.553 38.3792 239.032 37.3769ZM230.875 21.2864C233.367 21.2864 234.127 23.3307 234.127 25.9685V26.3773H227.116C227.236 23.0405 228.462 21.2864 230.875 21.2864ZM257.16 21.6953V17.765H240.298V21.6953H246.217V38.8013H251.242V21.6953H257.16Z" fill="#B0C2C8"/>
</svg>
