<svg width="139" height="61" viewBox="0 0 139 61" fill="none" xmlns="http://www.w3.org/2000/svg">
<path d="M139 0H0V61H139V0Z" fill="#005BFF"/>
<path d="M80.1317 20.334C72.0023 20.334 65.4141 24.8829 65.4141 30.5007C65.4141 36.1184 72.0023 40.6673 80.1317 40.6673C88.2611 40.6673 94.8494 36.1184 94.8494 30.5007C94.8494 24.8829 88.2611 20.334 80.1317 20.334ZM80.1317 35.932C74.5195 35.932 70.3199 33.0734 70.3199 30.5131C70.3199 27.9528 74.5195 25.0942 80.1317 25.0942C85.7439 25.0942 89.9435 27.9528 89.9435 30.5131C89.9435 33.0734 85.7568 35.932 80.1317 35.932Z" fill="white"/>
<path d="M31.8937 20.334C26.0238 20.334 21.2708 24.8801 21.2578 30.4944C21.2578 36.1088 26.0109 40.6549 31.8807 40.6673C37.7506 40.6673 42.5036 36.1212 42.5166 30.5069C42.5166 24.8801 37.7636 20.334 31.8937 20.334ZM37.5558 30.4944C37.5558 33.4879 35.0234 35.91 31.8937 35.9225C28.764 35.9225 26.2186 33.5003 26.2186 30.5069C26.2186 27.5134 28.751 25.0788 31.8807 25.0788C35.0105 25.0788 37.5558 27.501 37.5558 30.4944Z" fill="white"/>
<path d="M62.0791 35.7076H53.5379L64.4349 21.4795C64.7902 21.0109 64.4612 20.334 63.8558 20.334H48.1947C46.6417 20.334 45.3125 21.7399 45.6415 23.328C45.8784 24.4996 46.9839 25.2936 48.1947 25.2936H55.2093L44.2991 39.5348C43.9438 40.0034 44.2728 40.6673 44.865 40.6673H61.987C63.1977 40.6673 64.3032 39.8732 64.5401 38.7017C64.8691 37.1005 63.6321 35.7076 62.0791 35.7076Z" fill="white"/>
<path d="M118.558 22.8201V39.9509C118.558 40.107 118.504 40.2631 118.395 40.3932C118.137 40.7054 117.661 40.7574 117.335 40.5102L103.309 29.8572V38.1819C103.309 39.5867 102.099 40.7054 100.632 40.6663C99.2181 40.6273 98.1172 39.4696 98.1172 38.1169V21.0511C98.1172 20.882 98.1715 20.7259 98.2803 20.5959C98.5385 20.2967 99.0142 20.2447 99.3268 20.4918L113.353 31.1449V22.8852C113.353 21.5324 114.454 20.3877 115.854 20.3357C117.335 20.2837 118.558 21.4153 118.558 22.8201Z" fill="white"/>
</svg>
