<svg width="238" height="36" viewBox="0 0 238 36" fill="none" xmlns="http://www.w3.org/2000/svg">
<g clip-path="url(#clip0_4030_780)">
<path d="M100.341 10.5939C97.6276 10.5939 95.2 11.4088 93.1532 12.751V0.23968H87.3936V23.2969C87.3936 30.2956 93.2008 35.9521 100.293 35.9521C107.386 35.9521 113.288 30.3435 113.288 23.249C113.288 16.1545 107.576 10.5939 100.341 10.5939ZM70.5432 10.9774C64.1648 11.6005 58.9288 17.0173 58.9288 23.4887C58.9288 30.2956 64.8788 36.0479 71.8284 36.0479C78.778 36.0479 84.728 30.3435 84.728 23.4887C84.728 20.5646 83.6808 17.9281 81.9196 15.8189L69.2104 0.287617H61.7848L70.5432 10.9774ZM26.1324 24.9268L20.8488 11.5047H16.8028L11.5668 24.9268L6.2832 11.5047H0L9.2344 35.1851H13.2804L18.8496 21.0919L24.4188 35.1851H28.4648L37.6516 11.5047H31.416L26.1324 24.9268ZM128.901 10.6418C121.713 10.6418 115.906 16.1065 115.906 23.0573C115.906 29.9601 120.999 36.0479 128.568 36.0479C133.09 36.0479 136.755 33.8908 139.373 30.2477L134.898 26.6525C133.613 28.9534 131.09 30.2956 128.615 30.2956C125.378 30.2956 122.189 28.0426 121.951 24.735H140.753V23.0093C140.706 15.723 135.803 10.6418 128.901 10.6418ZM202.205 10.6418C195.017 10.6418 189.258 16.1065 189.258 23.3449C189.258 30.1518 194.351 36 201.872 36C206.394 36 210.059 33.8429 212.677 30.1997L208.726 26.8921C207.346 29.0013 204.823 30.2477 201.776 30.2477C198.778 30.2477 195.493 27.9947 195.255 24.6871H213.962V22.7217C213.962 15.723 209.107 10.6418 202.205 10.6418ZM222.292 18.4075C222.292 16.9214 224.339 15.771 227.004 15.771C229.67 15.771 232.621 17.0652 234.525 19.1744L238 15.004C234.668 12.1278 231.336 10.6418 227.147 10.6418C221.911 10.6418 216.532 12.9907 216.532 18.4075C216.532 25.0706 222.387 25.5499 227.147 25.9334C229.813 26.1252 232.193 26.3169 232.193 28.0426C232.193 29.9121 229.48 30.775 227.147 30.775C224.101 30.775 221.197 29.3848 219.246 27.036L215.533 30.9188C218.484 34.466 222.768 36 226.957 36C232.193 36 237.952 33.5553 237.952 27.9467C237.952 21.6192 232.05 20.996 227.528 20.5646C224.624 20.229 222.292 19.9893 222.292 18.4075ZM149.416 16.8735V11.5047H143.657V35.1372H149.416V25.1185C150.178 19.5579 154.7 17.3049 159.936 17.3049V11.5047H159.365C154.938 11.5047 151.701 13.0866 149.416 16.8735ZM167.647 16.8735V11.5047H161.888V35.1372H167.647V25.1185C168.409 18.8389 173.93 17.3049 178.167 17.3049V11.5047H177.548C173.169 11.5047 169.932 13.0386 167.647 16.8735ZM50.2656 35.1372H56.0252V0.287617H50.2656V35.1372ZM71.8284 30.3435C67.8776 30.3435 64.6408 27.2277 64.6408 23.3449C64.6408 19.4621 67.83 16.2983 71.7808 16.2983C75.684 16.2983 79.016 19.4141 79.016 23.3449C79.016 27.2756 75.8268 30.3435 71.8284 30.3435ZM100.341 30.3435C96.4376 30.3435 93.1532 27.2756 93.1532 23.2969C93.1532 19.3182 96.2472 16.2983 100.341 16.2983C104.434 16.2983 107.576 19.4141 107.576 23.2969C107.576 27.1798 104.292 30.3435 100.341 30.3435ZM40.3172 35.1372H46.0768V11.5047H40.3172V35.1372ZM180.594 35.1372H186.354V11.5047H180.594V35.1372ZM43.1256 0C40.7932 0 38.8416 1.91744 38.8416 4.31425C38.8416 6.75899 40.8884 8.43675 43.1256 8.43675C45.6008 8.43675 47.5048 6.3755 47.5048 4.21838C47.5048 2.01332 45.5056 0 43.1256 0ZM183.45 0C181.118 0 179.119 1.91744 179.119 4.31425C179.119 6.71105 181.023 8.43675 183.546 8.43675C186.068 8.43675 187.782 6.75899 187.782 4.41012C187.782 2.06125 185.83 0 183.45 0ZM195.922 19.9893C196.874 17.6405 198.92 16.2983 201.919 16.2983C204.918 16.2983 206.774 17.7364 207.536 19.9893H195.922ZM122.57 19.9893C123.522 17.6405 125.569 16.2983 128.52 16.2983C131.519 16.2983 133.47 17.7364 134.232 19.9893C134.28 19.9893 122.57 19.9893 122.57 19.9893Z" fill="#E313BF"/>
</g>
<defs>
<clipPath id="clip0_4030_780">
<rect width="238" height="36" fill="white"/>
</clipPath>
</defs>
</svg>
