<svg width="238" height="61" viewBox="0 0 238 61" fill="none" xmlns="http://www.w3.org/2000/svg">
<mask id="mask0_10039_6958" style="mask-type:alpha" maskUnits="userSpaceOnUse" x="0" y="0" width="238" height="61">
<rect width="238" height="61" fill="#D9D9D9"/>
</mask>
<g mask="url(#mask0_10039_6958)">
<g clip-path="url(#clip0_10039_6958)">
<mask id="mask1_10039_6958" style="mask-type:luminance" maskUnits="userSpaceOnUse" x="0" y="25" width="238" height="36">
<path d="M238 25H0V61H238V25Z" fill="white"/>
</mask>
<g mask="url(#mask1_10039_6958)">
<path d="M100.341 35.5939C97.6276 35.5939 95.2 36.4088 93.1532 37.751V25.2397H87.3936V48.2969C87.3936 55.2956 93.2008 60.9521 100.293 60.9521C107.386 60.9521 113.288 55.3435 113.288 48.249C113.288 41.1545 107.576 35.5939 100.341 35.5939ZM70.5432 35.9774C64.1648 36.6005 58.9288 42.0173 58.9288 48.4887C58.9288 55.2956 64.8788 61.0479 71.8284 61.0479C78.778 61.0479 84.728 55.3435 84.728 48.4887C84.728 45.5646 83.6808 42.9281 81.9196 40.8189L69.2104 25.2876H61.7848L70.5432 35.9774ZM26.1324 49.9268L20.8488 36.5047H16.8028L11.5668 49.9268L6.2832 36.5047H0L9.2344 60.1851H13.2804L18.8496 46.0919L24.4188 60.1851H28.4648L37.6516 36.5047H31.416L26.1324 49.9268ZM128.901 35.6418C121.713 35.6418 115.906 41.1065 115.906 48.0573C115.906 54.9601 120.999 61.0479 128.568 61.0479C133.09 61.0479 136.755 58.8908 139.373 55.2477L134.898 51.6525C133.613 53.9534 131.09 55.2956 128.615 55.2956C125.378 55.2956 122.189 53.0426 121.951 49.735H140.753V48.0093C140.706 40.723 135.803 35.6418 128.901 35.6418ZM202.205 35.6418C195.017 35.6418 189.258 41.1065 189.258 48.3449C189.258 55.1518 194.351 61 201.872 61C206.394 61 210.059 58.8429 212.677 55.1997L208.726 51.8921C207.346 54.0013 204.823 55.2477 201.776 55.2477C198.778 55.2477 195.493 52.9947 195.255 49.6871H213.962V47.7217C213.962 40.723 209.107 35.6418 202.205 35.6418ZM222.292 43.4075C222.292 41.9214 224.339 40.771 227.004 40.771C229.67 40.771 232.621 42.0652 234.525 44.1744L238 40.004C234.668 37.1278 231.336 35.6418 227.147 35.6418C221.911 35.6418 216.532 37.9907 216.532 43.4075C216.532 50.0706 222.387 50.5499 227.147 50.9334C229.813 51.1252 232.193 51.3169 232.193 53.0426C232.193 54.9121 229.48 55.775 227.147 55.775C224.101 55.775 221.197 54.3848 219.246 52.036L215.533 55.9188C218.484 59.466 222.768 61 226.957 61C232.193 61 237.952 58.5553 237.952 52.9467C237.952 46.6192 232.05 45.996 227.528 45.5646C224.624 45.229 222.292 44.9893 222.292 43.4075ZM149.416 41.8735V36.5047H143.657V60.1372H149.416V50.1185C150.178 44.5579 154.7 42.3049 159.936 42.3049V36.5047H159.365C154.938 36.5047 151.701 38.0866 149.416 41.8735ZM167.647 41.8735V36.5047H161.888V60.1372H167.647V50.1185C168.409 43.8389 173.93 42.3049 178.167 42.3049V36.5047H177.548C173.169 36.5047 169.932 38.0386 167.647 41.8735ZM50.2656 60.1372H56.0252V25.2876H50.2656V60.1372ZM71.8284 55.3435C67.8776 55.3435 64.6408 52.2277 64.6408 48.3449C64.6408 44.4621 67.83 41.2983 71.7808 41.2983C75.684 41.2983 79.016 44.4141 79.016 48.3449C79.016 52.2756 75.8268 55.3435 71.8284 55.3435ZM100.341 55.3435C96.4376 55.3435 93.1532 52.2756 93.1532 48.2969C93.1532 44.3182 96.2472 41.2983 100.341 41.2983C104.434 41.2983 107.576 44.4141 107.576 48.2969C107.576 52.1798 104.292 55.3435 100.341 55.3435ZM40.3172 60.1372H46.0768V36.5047H40.3172V60.1372ZM180.594 60.1372H186.354V36.5047H180.594V60.1372ZM43.1256 25C40.7932 25 38.8416 26.9174 38.8416 29.3142C38.8416 31.759 40.8884 33.4368 43.1256 33.4368C45.6008 33.4368 47.5048 31.3755 47.5048 29.2184C47.5048 27.0133 45.5056 25 43.1256 25ZM183.45 25C181.118 25 179.119 26.9174 179.119 29.3142C179.119 31.7111 181.023 33.4368 183.546 33.4368C186.068 33.4368 187.782 31.759 187.782 29.4101C187.782 27.0612 185.83 25 183.45 25ZM195.922 44.9893C196.874 42.6405 198.92 41.2983 201.919 41.2983C204.918 41.2983 206.774 42.7364 207.536 44.9893H195.922ZM122.57 44.9893C123.522 42.6405 125.569 41.2983 128.52 41.2983C131.519 41.2983 133.47 42.7364 134.232 44.9893C134.28 44.9893 122.57 44.9893 122.57 44.9893Z" fill="#E313BF"/>
</g>
</g>
</g>
<defs>
<clipPath id="clip0_10039_6958">
<rect width="238" height="36" fill="white" transform="translate(0 25)"/>
</clipPath>
</defs>
</svg>
