<svg width="256" height="61" viewBox="0 0 256 61" fill="none" xmlns="http://www.w3.org/2000/svg">
<mask id="mask0_10039_6958" style="mask-type:alpha" maskUnits="userSpaceOnUse" x="0" y="0" width="256" height="61">
<rect width="256" height="61" fill="#D9D9D9"/>
</mask>
<g mask="url(#mask0_10039_6958)">
<path d="M14.6081 50.8013H19.7132V21.7461H12.2755C4.79779 21.7461 0.879009 25.5445 0.879009 31.1498C0.879009 35.6208 3.02501 38.2586 6.87714 40.9755L0.199219 50.8013H5.73083L13.1685 39.8017L10.596 38.0872C7.46362 36.0033 5.9441 34.3679 5.9441 30.8596C5.9441 27.7602 8.1434 25.6764 12.3288 25.6764H14.6081V50.8013ZM113.177 51.2101C115.51 51.2101 117.149 50.8013 118.376 49.9176V45.8686C117.11 46.7391 115.59 47.2798 113.484 47.2798C109.885 47.2798 108.406 44.5234 108.406 40.1842C108.406 35.6208 110.232 33.2864 113.524 33.2864C115.47 33.2864 117.363 33.9458 118.376 34.5789V30.3585C117.323 29.765 115.47 29.3561 112.977 29.3561C106.553 29.3561 103.207 33.9063 103.207 40.3029C103.207 47.3326 106.459 51.2101 113.177 51.2101ZM81.7472 49.3769V45.3147C80.1877 46.3698 77.5618 47.2798 75.1092 47.2798C71.4304 47.2798 70.0442 45.5785 69.8309 42.057H81.9604V39.4324C81.9604 32.1126 78.7081 29.3561 73.6697 29.3561C67.5516 29.3561 64.6325 33.9854 64.6325 40.3425C64.6325 47.6623 68.2714 51.2101 74.696 51.2101C77.895 51.2101 80.2676 50.3792 81.7472 49.3769ZM97.8088 50.8013H103.5L95.4362 39.6303L102.541 29.765H97.4623L90.3712 39.6303V29.765H85.3327V50.8013H90.3712V40.6326L97.8088 50.8013ZM63.4062 46.871H61.1669V29.765H46.5048V31.5718C46.5048 36.7023 46.1716 43.3495 44.3988 46.871H42.826V55.602H47.4778V50.8013H58.7543V55.602H63.4062V46.871ZM35.6948 29.765V38.0872H28.9769V29.765H23.9385V50.8013H28.9769V42.0175H35.6948V50.8013H40.7199V29.765H35.6948ZM73.5897 33.2864C76.0823 33.2864 76.842 35.3307 76.842 37.9685V38.3773H69.8309C69.9642 35.0405 71.1771 33.2864 73.5897 33.2864ZM56.1418 46.871H49.0374C50.4369 43.6925 50.8235 37.9685 50.8235 34.3283V33.6953H56.1418V46.871ZM140.516 50.8013H144.994L150.912 29.1451V50.8013H155.817V21.7461H148.966L143.008 43.521L137.01 21.7461H130.212V50.8013H134.611V29.1451L140.516 50.8013ZM175.931 36.4517C175.931 31.3608 173.305 29.4352 167.987 29.4352C164.641 29.4352 162.029 30.4772 160.509 31.3608V35.5021C161.856 34.4866 164.815 33.4051 167.401 33.4051C169.8 33.4051 170.906 34.236 170.906 36.5045V37.6651H170.093C162.402 37.6651 158.99 40.1842 158.99 44.4442C158.99 48.7042 161.602 51.0914 165.494 51.0914C168.454 51.0914 169.72 50.1286 170.693 49.1263H170.906C170.946 49.667 171.106 50.3792 171.279 50.8013H176.184C176.011 49.0867 175.931 47.3722 175.931 45.6576V36.4517ZM170.906 45.7763C170.266 46.6995 169.08 47.4513 167.307 47.4513C165.201 47.4513 164.135 46.2775 164.135 44.4838C164.135 42.0966 165.868 41.2261 170.186 41.2261H170.906V45.7763ZM184.635 29.765H179.983V56.855H185.008V48.335C186.288 50.2078 188.141 51.2101 190.3 51.2101C195.192 51.2101 198.577 47.3326 198.577 40.2633C198.577 33.2336 195.285 29.3561 190.553 29.3561C188.181 29.3561 186.235 30.4376 184.888 32.4819L184.635 29.765ZM189.034 47.2798C186.368 47.2798 185.008 45.1564 185.008 40.3029C185.008 35.4098 186.448 33.2864 189.287 33.2864C192.033 33.2864 193.379 35.4098 193.379 40.2633C193.379 45.1564 191.94 47.2798 189.034 47.2798ZM214.426 50.8013H220.131L212.053 39.6303L219.158 29.765H214.079L206.988 39.6303V29.765H201.963V50.8013H206.988V40.6326L214.426 50.8013ZM237.032 49.3769V45.3147C235.459 46.3698 232.847 47.2798 230.394 47.2798C226.715 47.2798 225.329 45.5785 225.116 42.057H237.245V39.4324C237.245 32.1126 233.98 29.3561 228.955 29.3561C222.837 29.3561 219.918 33.9854 219.918 40.3425C219.918 47.6623 223.543 51.2101 229.968 51.2101C233.18 51.2101 235.553 50.3792 237.032 49.3769ZM228.875 33.2864C231.367 33.2864 232.127 35.3307 232.127 37.9685V38.3773H225.116C225.236 35.0405 226.462 33.2864 228.875 33.2864ZM255.16 33.6953V29.765H238.298V33.6953H244.217V50.8013H249.242V33.6953H255.16Z" fill="#B0C2C8"/>
</g>
</svg>
