<svg width="204" height="45" viewBox="0 0 204 45" fill="none" xmlns="http://www.w3.org/2000/svg">
<g clip-path="url(#clip0_4030_782)">
<path fill-rule="evenodd" clip-rule="evenodd" d="M36.7968 13.673C37.0437 14.9004 37.3325 15.8443 37.6707 16.5081C38.0047 17.1622 38.5739 17.49 39.3749 17.49L37.2509 22.6865C36.4144 24.7186 35.5278 27.8057 34.568 31.9257C33.6238 36.0632 33.3237 39.0034 33.6711 40.7651C34.0136 42.504 34.819 43.6409 36.0743 44.1862C37.3241 44.7183 38.5233 44.9888 39.6834 44.9888C41.4516 44.9888 43.4885 44.7909 45.7917 44.3735C48.0884 43.9668 49.8194 43.5406 50.9843 43.0988C51.531 42.8956 51.8714 42.5692 52.0362 42.1396C52.1871 41.7148 52.1322 40.8287 51.8678 39.4881C51.7261 38.7784 51.4111 38.4233 50.8968 38.4233C50.1886 38.4233 49.3751 38.5805 48.4667 38.8993C47.5549 39.2097 46.6313 39.463 45.6977 39.6483C44.7599 39.8491 43.2837 39.9411 41.2628 39.9411C40.7497 39.9411 40.4096 39.8811 40.2376 39.7603C40.0706 39.6483 39.954 39.437 39.8928 39.1337C39.7314 38.3197 39.8928 36.9011 40.3714 34.8668C40.8409 32.8271 41.3257 31.1484 41.8069 29.8151L45.9176 29.7119C47.6619 29.6694 48.8241 29.6224 49.4126 29.5512C50.0017 29.4841 50.3772 29.3406 50.5352 29.1207C50.6924 28.8914 50.7495 28.4841 50.6869 27.8885C50.6406 27.3367 50.6343 26.9281 50.655 26.6571C50.6612 26.5888 50.6763 26.4918 50.7 26.3801C50.7197 26.248 50.7293 26.1406 50.7099 26.0439C50.5554 25.2671 49.521 24.8748 47.6132 24.8748C46.1381 24.8748 44.5061 24.9755 42.7118 25.1895C43.2155 23.5263 43.9261 21.5372 44.8477 19.2251C45.2973 18.0603 45.6658 17.282 45.9428 16.879C46.2187 16.4699 46.6083 16.224 47.1123 16.1163C47.6168 16.0124 48.5869 15.9632 50.0392 15.9632C50.4355 15.9632 51.7145 16.048 53.8922 16.224C53.9724 16.224 54.1225 16.2364 54.3444 16.2524C54.5594 16.2691 54.7263 16.2779 54.8259 16.2779C55.4616 16.2779 55.7355 16.074 55.6521 15.6604C55.5964 15.3849 55.3244 14.8416 54.8357 14.0384C53.9647 12.5975 53.2321 11.6884 52.6223 11.2947C52.0137 10.9024 51.1359 10.707 49.9917 10.707C47.4496 10.707 44.5584 10.9024 41.3173 11.2947C38.0675 11.6887 36.5639 12.476 36.7968 13.673Z" fill="#ED1C24"/>
<path fill-rule="evenodd" clip-rule="evenodd" d="M157.792 41.8626C158.333 41.0355 158.784 40.3893 159.142 39.9285C159.517 39.4542 160.228 38.5583 161.257 37.2309C162.295 35.9092 163.318 34.6035 164.327 33.3303C165.328 32.0583 166.291 30.8751 167.196 29.7681C168.117 28.668 169.134 27.4724 170.258 26.1853L168.896 32.1027C168.404 34.3215 168.085 35.7955 167.945 36.5224C167.813 37.2469 167.719 37.9862 167.668 38.7295C167.619 39.4829 167.647 40.1489 167.762 40.7334C167.909 41.4866 168.335 42.1857 169.015 42.82C169.703 43.4673 170.447 43.9747 171.263 44.3597C172.081 44.7439 172.703 44.9351 173.139 44.9351C173.725 44.9351 174.102 44.4456 174.253 43.458C174.401 42.473 174.576 40.429 174.759 37.3247C174.96 34.2315 175.274 31.2056 175.721 28.2603C176.163 25.3087 176.897 22.247 177.935 19.0759C180.112 17.2107 181.11 15.8298 180.935 14.9245C180.82 14.3467 180.433 13.6465 179.779 12.8191C179.114 11.9934 178.474 11.5813 177.855 11.5813C177.263 11.5813 176.068 12.4481 174.253 14.1891C172.437 15.9332 170.44 18.0087 168.249 20.4284C166.07 22.8523 164.071 25.1279 162.254 27.2675C160.431 29.3972 159.331 30.7425 158.933 31.2796C159.556 28.3633 160.117 25.9658 160.613 24.0952C161.12 22.2295 161.644 20.426 162.181 18.668C162.725 16.9151 163.056 15.7698 163.2 15.2333C163.332 14.692 163.365 14.2535 163.3 13.9204C163.247 13.6463 162.922 13.2392 162.345 12.7019C161.77 12.1625 161.144 11.6754 160.475 11.2377C159.811 10.8014 159.346 10.5781 159.078 10.5781C158.607 10.5781 158.179 11.0313 157.791 11.9289C157.402 12.8289 156.991 14.1554 156.581 15.9086C156.161 17.6546 155.938 18.5703 155.917 18.6446C153.669 27.1691 152.275 32.9086 151.73 35.8574C151.187 38.8028 150.966 40.5522 151.073 41.1231C151.163 41.5381 151.73 42.1308 152.8 42.871C153.856 43.6103 154.726 43.9812 155.41 43.9812C155.854 43.9812 156.223 43.8377 156.526 43.5449C156.821 43.2522 157.243 42.6936 157.792 41.8626Z" fill="#ED1C24"/>
<path fill-rule="evenodd" clip-rule="evenodd" d="M203.019 14.4028C202.433 13.8858 201.817 13.4109 201.156 12.9808C200.494 12.55 200.083 12.3349 199.912 12.3349C199.386 12.3349 198.763 13.1475 198.059 14.7509C197.355 16.3639 196.707 18.1059 196.129 19.9823C195.544 21.8594 195.136 23.2289 194.922 24.0732L193.297 24.5529C192.769 24.7311 192.001 24.8999 190.995 25.0878C190.001 25.2774 189.273 25.3715 188.835 25.3715C188.209 25.3715 187.82 24.9801 187.671 24.2222C187.575 23.7329 187.713 22.8177 188.064 21.4771C188.43 20.1299 188.813 18.9488 189.21 17.9218C189.528 17.1885 189.797 16.5469 190.043 16.0325C190.271 15.505 190.442 15.1022 190.532 14.8092C190.629 14.5169 190.653 14.243 190.606 14.0109C190.561 13.7819 190.269 13.3813 189.717 12.8129C189.177 12.2501 188.6 11.7293 187.984 11.2689C187.374 10.8107 186.937 10.5781 186.679 10.5781C186.24 10.5781 185.569 11.5813 184.661 13.5766C183.746 15.5717 182.964 17.7255 182.32 20.0539C181.662 22.3723 181.451 24.0563 181.65 25.0785C181.867 26.1786 182.511 27.3422 183.575 28.5949C184.647 29.8464 185.689 30.4708 186.696 30.4708C187.238 30.4708 188.371 30.2423 190.103 29.7924C191.829 29.3478 193.147 28.9679 194.067 28.6589C193.906 29.1847 193.602 30.4433 193.157 32.4148C192.706 34.3869 192.329 36.2404 192.029 37.9628C191.72 39.6887 191.616 40.8187 191.72 41.3428C191.872 42.1053 192.576 42.7708 193.823 43.3477C194.454 43.6411 195.066 43.9788 195.64 44.3568C196.227 44.7271 196.597 44.9184 196.762 44.9184C197.25 44.9184 197.6 44.586 197.786 43.9317C197.971 43.2605 198.108 42.1938 198.198 40.7317C198.286 39.2665 198.334 38.4754 198.35 38.3338C198.763 35.0386 199.144 32.4387 199.48 30.5245C199.818 28.6145 200.193 26.9484 200.615 25.5059C201.034 24.0732 201.68 22.1132 202.542 19.6423C202.841 18.7666 203.175 17.9313 203.518 17.1436C203.867 16.3637 204.025 15.8897 203.998 15.7276C203.922 15.3732 203.597 14.9279 203.019 14.4028Z" fill="#ED1C24"/>
<path fill-rule="evenodd" clip-rule="evenodd" d="M34.5976 8.08901C34.6307 8.01236 34.6665 7.90133 34.6962 7.84688C35.4207 5.78925 36.5645 7.19523 37.1882 7.08802C38.1712 6.78404 38.7338 5.90888 38.941 4.67172C39.0691 3.93101 39.1447 2.41088 38.7474 1.77881C38.5083 1.39723 37.6651 0.758712 36.1814 0.474794C32.9143 -0.156561 27.1486 -0.148203 22.1611 0.439931C18.4562 0.885747 13.5973 1.93379 7.14862 4.30351C4.94476 5.11348 1.49924 5.5476 0.478756 8.18453C-0.3479 10.314 -0.0341255 11.4614 0.886087 12.0008C2.91434 13.1859 7.89155 11.4256 10.1403 10.715C10.2024 10.7649 10.2681 10.8148 10.3624 10.8876C9.53719 15.5337 7.71403 21.1201 7.15653 26.2636C6.01274 29.6219 3.80985 37.9561 5.64835 41.2526C9.44171 43.5521 11.7566 37.0329 11.4702 36.8133C12.4307 33.9416 15.4377 21.3611 15.7932 17.9576C15.8782 17.1009 15.9506 16.4136 16.0837 15.5246C16.3402 13.796 16.3721 12.0761 16.665 10.4521C16.7454 9.99932 17.0064 9.62537 17.3789 9.32331C19.0301 7.97559 22.9043 7.95529 23.5637 7.95529C24.0768 7.8316 25.5044 7.61407 26.642 7.25111C27.1445 7.09255 27.1488 7.8156 27.0128 8.65399C26.8766 9.48688 26.6036 10.4361 26.5419 10.73C26.3982 11.428 26.2586 12.0257 26.0931 12.7616C25.8863 13.6836 25.4586 15.5647 24.4782 19.7624C22.257 29.8932 20.5397 38.9041 22.4305 43.7947C22.8848 44.4564 24.4249 45.1637 24.8704 44.9662C26.0103 44.7563 26.83 44.2622 27.4218 43.5915C28.4572 42.4183 28.7803 40.6986 28.8667 38.9996C29.0226 35.8882 29.4645 31.1232 30.1791 26.4212C30.6534 23.3007 32.1517 16.3568 33.3799 11.8392C33.8475 10.1237 34.2922 8.7815 34.5976 8.08901Z" fill="#ED1C24"/>
<path fill-rule="evenodd" clip-rule="evenodd" d="M65.2502 44.9898C65.6662 44.9898 65.9438 44.6782 66.0779 44.0573C66.2031 43.4367 66.4924 41.6174 66.9333 38.6075C67.3756 35.6076 67.9766 32.3754 68.7382 28.9053C69.4994 25.4424 70.6098 21.3377 72.0789 16.5791C72.6352 16.4268 73.691 16.3171 75.2303 16.2321C76.7714 16.1519 77.9077 16.0036 78.6387 15.794C79.3662 15.5712 79.657 15.1115 79.5138 14.4066C79.4178 13.9073 79.1235 13.3459 78.6336 12.7535C78.1418 12.1503 77.4742 11.6381 76.6202 11.2186C75.7741 10.7906 74.8201 10.5781 73.7658 10.5781C73.4921 10.5781 73.0728 10.6099 72.5112 10.6777C71.8899 10.7443 70.9397 10.8086 69.6704 10.8819C68.3873 10.9475 67.4337 11.0137 66.8021 11.0698C63.1735 11.3411 60.6319 11.6436 59.1628 11.98C57.6976 12.3096 57.0374 12.8731 57.1945 13.674C57.6695 16.0707 58.6665 17.2649 60.2015 17.2649C60.4405 17.2649 62.1514 17.1328 65.3313 16.8704C64.9581 18.2836 64.4245 20.3863 63.7284 23.1914C63.0425 26.0071 62.4248 28.6305 61.8832 31.0716C61.3252 33.5101 60.8696 35.7757 60.5028 37.8601C60.1248 39.955 59.9991 41.2776 60.1111 41.8435C60.2181 42.3791 60.6065 42.877 61.2803 43.3708C61.9597 43.8496 62.7036 44.2388 63.5228 44.5399C64.3439 44.8418 64.9254 44.9898 65.2502 44.9898Z" fill="#ED1C24"/>
<path fill-rule="evenodd" clip-rule="evenodd" d="M119.667 27.0456C119.276 29.3256 118.63 31.4463 117.741 33.4387C116.84 35.4311 115.853 37.0291 114.779 38.24C113.701 39.459 112.722 40.0691 111.847 40.0691C111.474 40.0691 111.08 39.7967 110.656 39.2467C110.238 38.6975 109.934 37.9511 109.743 37.0167C109.308 34.8005 109.283 32.4747 109.67 30.0794C110.054 27.6748 110.692 25.4778 111.576 23.4662C112.47 21.4695 113.451 19.8548 114.52 18.6241C115.591 17.3943 116.529 16.7818 117.345 16.7818C118.374 16.7818 119.145 18.0901 119.666 20.7137C120.05 22.6644 120.051 24.7745 119.667 27.0456ZM124.35 16.709C123.773 15.404 123.182 14.4002 122.599 13.6945C122.014 12.998 121.559 12.6453 121.262 12.6453C121.092 12.6453 120.732 12.7812 120.193 13.0692C119.655 13.3462 119.263 13.5685 119.04 13.7249C118.386 12.9639 117.621 12.2494 116.743 11.577C115.875 10.9091 115.162 10.5781 114.632 10.5781C113.817 10.5781 112.645 11.283 111.138 12.6995C109.632 14.1172 108.181 16.0296 106.777 18.423C105.379 20.8295 104.346 23.5823 103.676 26.691C103.002 29.8043 102.994 32.9907 103.64 36.2404C104.02 38.1832 104.745 39.8143 105.79 41.1332C106.839 42.4553 108.008 43.4219 109.283 44.0456C110.56 44.6782 111.735 44.99 112.808 44.99C115.334 44.99 117.763 43.8642 120.09 41.6169C122.412 39.3628 124.127 36.3906 125.232 32.7073C126.339 29.0323 126.509 25.2106 125.727 21.2591C125.386 19.5393 124.93 18.019 124.35 16.709ZM144.367 20.6817C143.632 21.6593 142.633 22.5674 141.365 23.4146C140.102 24.2714 138.776 24.9419 137.386 25.4224C138.143 21.2366 138.437 18.68 138.257 17.7637C138.154 17.2491 137.806 16.7415 137.221 16.24C138.408 15.878 139.734 15.7008 141.199 15.7008C142.358 15.7008 143.287 15.916 143.989 16.3716C144.682 16.8198 145.092 17.3798 145.223 18.0519C145.382 18.8376 145.092 19.7137 144.367 20.6817ZM141.879 35.0753C141.075 36.2003 139.937 37.1234 138.475 37.8434C137.009 38.5779 135.473 38.9337 133.874 38.9337C134.553 36.6456 135.078 34.88 135.46 33.6603C135.83 32.4305 136.158 31.2223 136.419 29.9949C137.426 29.7017 138.352 29.552 139.201 29.552C141.294 29.552 142.484 30.2974 142.776 31.7588C142.987 32.8391 142.692 33.9485 141.879 35.0753ZM149.486 23.3077C150.603 21.5614 150.98 19.738 150.603 17.854C150.183 15.7059 148.953 13.961 146.911 12.6109C144.884 11.2589 142.383 10.5784 139.435 10.5784C138.149 10.5784 136.392 10.7756 134.18 11.1682C132.056 11.5338 130.481 11.9048 129.445 12.2738C128.419 12.6455 127.983 13.2272 128.145 14.0262C128.311 14.8675 128.724 15.7059 129.393 16.5535C130.057 17.3922 130.937 17.9058 132.041 18.1014C131.587 22.0196 131.043 25.3505 130.384 28.1013C129.727 30.8574 129.103 33.0043 128.504 34.5534C127.908 36.0909 127.412 37.4305 127.017 38.5516C126.618 39.667 126.498 40.6329 126.661 41.4517C126.706 41.6802 127.041 42.09 127.669 42.6724C128.297 43.2452 128.971 43.7796 129.685 44.2627C130.401 44.7417 130.917 44.9903 131.24 44.9903C131.717 44.9903 132.074 44.7771 132.323 44.3546C132.578 43.9253 132.851 43.1605 133.142 42.0353C134.856 44.0127 136.518 44.9903 138.14 44.9903C139.681 44.9903 141.356 44.2751 143.154 42.8204C144.948 41.3672 146.395 39.6295 147.484 37.6184C148.573 35.5935 148.967 33.805 148.659 32.261C148.497 31.4424 148.109 30.5835 147.499 29.7017C146.89 28.8103 146.019 28.0333 144.884 27.3475C146.828 26.3885 148.361 25.0508 149.486 23.3077ZM95.5764 21.8358C94.6241 23.0729 93.3747 24.2368 91.8402 25.3362C90.2883 26.4245 88.843 27.1832 87.4833 27.5896C87.6627 26.1791 88.0264 24.1661 88.5827 21.5387C88.9104 19.9756 89.1642 18.9376 89.3487 18.4142C89.5147 17.8845 89.7975 17.5144 90.171 17.299C90.5527 17.0782 91.1987 16.9385 92.1254 16.8719C92.3658 16.8415 92.7345 16.82 93.2286 16.82C95.3291 16.82 96.4981 17.4459 96.7471 18.7017C96.9203 19.5599 96.529 20.6091 95.5764 21.8358ZM100.904 14.6726C99.8882 13.4997 98.5208 12.5195 96.7675 11.7408C95.0307 10.9626 93.0401 10.5784 90.7906 10.5784C89.5032 10.5784 88.149 10.7173 86.7176 10.9958C85.2821 11.2644 84.0891 11.6777 83.1293 12.2114C82.1681 12.7516 81.7543 13.3655 81.891 14.0725C82.3274 16.2539 83.125 17.6178 84.3026 18.1467C83.2128 22.7181 82.3377 26.2541 81.6979 28.7487C81.0601 31.25 80.3932 33.7646 79.7102 36.3161C79.0234 38.8525 78.6223 40.4426 78.5012 41.0572C78.3913 41.6795 78.3663 42.1924 78.4419 42.5845C78.5621 43.1855 78.8161 43.5779 79.2175 43.7682C79.6063 43.9602 80.2677 44.1526 81.1836 44.3539C81.6471 44.4599 82.1448 44.5906 82.6553 44.7529C83.1632 44.9084 83.5158 44.9896 83.7094 44.9896C84.275 44.9896 84.7018 44.6777 84.9765 44.0655C85.2415 43.4527 85.4702 42.5088 85.6568 41.2475C85.8389 39.9827 86.0795 38.2863 86.3897 36.1666C86.6981 34.0533 87.1084 31.9957 87.5961 29.9942C89.0862 32.192 90.3142 33.2899 91.2786 33.2899C92.4149 33.2899 93.992 32.3484 95.991 30.4634C97.9983 28.5782 99.7015 26.4379 101.105 24.0393C102.507 21.6412 103.064 19.6993 102.763 18.1947C102.539 17.0326 101.914 15.8572 100.904 14.6726Z" fill="#ED1C24"/>
</g>
<defs>
<clipPath id="clip0_4030_782">
<rect width="204" height="45" fill="white"/>
</clipPath>
</defs>
</svg>
