<svg width="204" height="61" viewBox="0 0 204 61" fill="none" xmlns="http://www.w3.org/2000/svg">
<mask id="mask0_10039_6958" style="mask-type:alpha" maskUnits="userSpaceOnUse" x="0" y="0" width="204" height="61">
<rect width="204" height="61" fill="#D9D9D9"/>
</mask>
<g mask="url(#mask0_10039_6958)">
<g clip-path="url(#clip0_10039_6958)">
<mask id="mask1_10039_6958" style="mask-type:luminance" maskUnits="userSpaceOnUse" x="0" y="16" width="204" height="45">
<path d="M204 16H0V61H204V16Z" fill="white"/>
</mask>
<g mask="url(#mask1_10039_6958)">
<path fill-rule="evenodd" clip-rule="evenodd" d="M36.7968 29.673C37.0437 30.9004 37.3325 31.8443 37.6707 32.5081C38.0047 33.1622 38.5739 33.49 39.3749 33.49L37.2509 38.6865C36.4144 40.7186 35.5278 43.8057 34.568 47.9257C33.6238 52.0632 33.3237 55.0034 33.6711 56.7651C34.0136 58.504 34.819 59.6409 36.0743 60.1862C37.3241 60.7183 38.5233 60.9888 39.6834 60.9888C41.4516 60.9888 43.4885 60.7909 45.7917 60.3735C48.0884 59.9668 49.8194 59.5406 50.9843 59.0988C51.531 58.8956 51.8714 58.5692 52.0362 58.1396C52.1871 57.7148 52.1322 56.8287 51.8678 55.4881C51.7261 54.7784 51.4111 54.4233 50.8968 54.4233C50.1886 54.4233 49.3751 54.5805 48.4667 54.8993C47.5549 55.2097 46.6313 55.463 45.6977 55.6483C44.7599 55.8491 43.2837 55.9411 41.2628 55.9411C40.7497 55.9411 40.4096 55.8811 40.2376 55.7603C40.0706 55.6483 39.954 55.437 39.8928 55.1337C39.7314 54.3197 39.8928 52.9011 40.3714 50.8668C40.8409 48.8271 41.3257 47.1484 41.8069 45.8151L45.9176 45.7119C47.6619 45.6694 48.8241 45.6224 49.4126 45.5512C50.0017 45.4841 50.3772 45.3406 50.5352 45.1207C50.6924 44.8914 50.7495 44.4841 50.6869 43.8885C50.6406 43.3367 50.6343 42.9281 50.655 42.6571C50.6612 42.5888 50.6763 42.4918 50.7 42.3801C50.7197 42.248 50.7293 42.1406 50.7099 42.0439C50.5554 41.2671 49.521 40.8748 47.6132 40.8748C46.1381 40.8748 44.5061 40.9755 42.7118 41.1895C43.2155 39.5263 43.9261 37.5372 44.8477 35.2251C45.2973 34.0603 45.6658 33.282 45.9428 32.879C46.2187 32.4699 46.6083 32.224 47.1123 32.1163C47.6168 32.0124 48.5869 31.9632 50.0392 31.9632C50.4355 31.9632 51.7145 32.048 53.8922 32.224C53.9724 32.224 54.1225 32.2364 54.3444 32.2524C54.5594 32.2691 54.7263 32.2779 54.8259 32.2779C55.4616 32.2779 55.7355 32.074 55.6521 31.6604C55.5964 31.3849 55.3244 30.8416 54.8357 30.0384C53.9647 28.5975 53.2321 27.6884 52.6223 27.2947C52.0137 26.9024 51.1359 26.707 49.9917 26.707C47.4496 26.707 44.5584 26.9024 41.3173 27.2947C38.0675 27.6887 36.5639 28.476 36.7968 29.673Z" fill="#ED1C24"/>
<path fill-rule="evenodd" clip-rule="evenodd" d="M157.792 57.8626C158.333 57.0355 158.784 56.3893 159.142 55.9285C159.517 55.4542 160.228 54.5583 161.257 53.2309C162.295 51.9092 163.318 50.6035 164.327 49.3303C165.328 48.0583 166.291 46.8751 167.196 45.7681C168.117 44.668 169.134 43.4724 170.258 42.1853L168.896 48.1027C168.404 50.3215 168.085 51.7955 167.945 52.5224C167.813 53.2469 167.719 53.9862 167.668 54.7295C167.619 55.4829 167.647 56.1489 167.762 56.7334C167.909 57.4866 168.335 58.1857 169.015 58.82C169.703 59.4673 170.447 59.9747 171.263 60.3597C172.081 60.7439 172.703 60.9351 173.139 60.9351C173.725 60.9351 174.102 60.4456 174.253 59.458C174.401 58.473 174.576 56.429 174.759 53.3247C174.96 50.2315 175.274 47.2056 175.721 44.2603C176.163 41.3087 176.897 38.247 177.935 35.0759C180.112 33.2107 181.11 31.8298 180.935 30.9245C180.82 30.3467 180.433 29.6465 179.779 28.8191C179.114 27.9934 178.474 27.5813 177.855 27.5813C177.263 27.5813 176.068 28.4481 174.253 30.1891C172.437 31.9332 170.44 34.0087 168.249 36.4284C166.07 38.8523 164.071 41.1279 162.254 43.2675C160.431 45.3972 159.331 46.7425 158.933 47.2796C159.556 44.3633 160.117 41.9658 160.613 40.0952C161.12 38.2295 161.644 36.426 162.181 34.668C162.725 32.9151 163.056 31.7698 163.2 31.2333C163.332 30.692 163.365 30.2535 163.3 29.9204C163.247 29.6463 162.922 29.2392 162.345 28.7019C161.77 28.1625 161.144 27.6754 160.475 27.2377C159.811 26.8014 159.346 26.5781 159.078 26.5781C158.607 26.5781 158.179 27.0313 157.791 27.9289C157.402 28.8289 156.991 30.1554 156.581 31.9086C156.161 33.6546 155.938 34.5703 155.917 34.6446C153.669 43.1691 152.275 48.9086 151.73 51.8574C151.187 54.8028 150.966 56.5522 151.073 57.1231C151.163 57.5381 151.73 58.1308 152.8 58.871C153.856 59.6103 154.726 59.9812 155.41 59.9812C155.854 59.9812 156.223 59.8377 156.526 59.5449C156.821 59.2522 157.243 58.6936 157.792 57.8626Z" fill="#ED1C24"/>
<path fill-rule="evenodd" clip-rule="evenodd" d="M203.019 30.4028C202.433 29.8858 201.817 29.4109 201.156 28.9808C200.494 28.55 200.083 28.3349 199.912 28.3349C199.386 28.3349 198.763 29.1475 198.059 30.7509C197.355 32.3639 196.707 34.1059 196.129 35.9823C195.544 37.8594 195.136 39.2289 194.922 40.0732L193.297 40.5529C192.769 40.7311 192.001 40.8999 190.995 41.0878C190.001 41.2774 189.273 41.3715 188.835 41.3715C188.209 41.3715 187.82 40.9801 187.671 40.2222C187.575 39.7329 187.713 38.8177 188.064 37.4771C188.43 36.1299 188.813 34.9488 189.21 33.9218C189.528 33.1885 189.797 32.5469 190.043 32.0325C190.271 31.505 190.442 31.1022 190.532 30.8092C190.629 30.5169 190.653 30.243 190.606 30.0109C190.561 29.7819 190.269 29.3813 189.717 28.8129C189.177 28.2501 188.6 27.7293 187.984 27.2689C187.374 26.8107 186.937 26.5781 186.679 26.5781C186.24 26.5781 185.569 27.5813 184.661 29.5766C183.746 31.5717 182.964 33.7255 182.32 36.0539C181.662 38.3723 181.451 40.0563 181.65 41.0785C181.867 42.1786 182.511 43.3422 183.575 44.5949C184.647 45.8464 185.689 46.4708 186.696 46.4708C187.238 46.4708 188.371 46.2423 190.103 45.7924C191.829 45.3478 193.147 44.9679 194.067 44.6589C193.906 45.1847 193.602 46.4433 193.157 48.4148C192.706 50.3869 192.329 52.2404 192.029 53.9628C191.72 55.6887 191.616 56.8187 191.72 57.3428C191.872 58.1053 192.576 58.7708 193.823 59.3477C194.454 59.6411 195.066 59.9788 195.64 60.3568C196.227 60.7271 196.597 60.9184 196.762 60.9184C197.25 60.9184 197.6 60.586 197.786 59.9317C197.971 59.2605 198.108 58.1938 198.198 56.7317C198.286 55.2665 198.334 54.4754 198.35 54.3338C198.763 51.0386 199.144 48.4387 199.48 46.5245C199.818 44.6145 200.193 42.9484 200.615 41.5059C201.034 40.0732 201.68 38.1132 202.542 35.6423C202.841 34.7666 203.175 33.9313 203.518 33.1436C203.867 32.3637 204.025 31.8897 203.998 31.7276C203.922 31.3732 203.597 30.9279 203.019 30.4028Z" fill="#ED1C24"/>
<path fill-rule="evenodd" clip-rule="evenodd" d="M34.5976 24.089C34.6307 24.0124 34.6665 23.9013 34.6962 23.8469C35.4207 21.7892 36.5645 23.1952 37.1882 23.088C38.1712 22.784 38.7338 21.9089 38.941 20.6717C39.0691 19.931 39.1447 18.4109 38.7474 17.7788C38.5083 17.3972 37.6651 16.7587 36.1814 16.4748C32.9143 15.8434 27.1486 15.8518 22.1611 16.4399C18.4562 16.8857 13.5973 17.9338 7.14862 20.3035C4.94476 21.1135 1.49924 21.5476 0.478756 24.1845C-0.3479 26.314 -0.0341254 27.4614 0.886087 28.0008C2.91434 29.1859 7.89155 27.4256 10.1403 26.715C10.2024 26.7649 10.2681 26.8148 10.3624 26.8876C9.53719 31.5337 7.71403 37.1201 7.15653 42.2636C6.01274 45.6219 3.80985 53.9561 5.64835 57.2526C9.44171 59.5521 11.7566 53.0329 11.4702 52.8133C12.4307 49.9416 15.4377 37.3611 15.7932 33.9576C15.8782 33.1009 15.9506 32.4136 16.0837 31.5246C16.3402 29.796 16.3721 28.0761 16.665 26.4521C16.7454 25.9993 17.0064 25.6254 17.3789 25.3233C19.0301 23.9756 22.9043 23.9553 23.5637 23.9553C24.0768 23.8316 25.5044 23.6141 26.642 23.2511C27.1445 23.0926 27.1488 23.8156 27.0128 24.654C26.8766 25.4869 26.6036 26.4361 26.5419 26.73C26.3982 27.428 26.2586 28.0257 26.0931 28.7616C25.8863 29.6836 25.4586 31.5647 24.4782 35.7624C22.257 45.8932 20.5397 54.9041 22.4305 59.7947C22.8848 60.4564 24.4249 61.1637 24.8704 60.9662C26.0103 60.7563 26.83 60.2622 27.4218 59.5915C28.4572 58.4183 28.7803 56.6986 28.8667 54.9996C29.0226 51.8882 29.4645 47.1232 30.1791 42.4212C30.6534 39.3007 32.1517 32.3568 33.3799 27.8392C33.8475 26.1237 34.2922 24.7815 34.5976 24.089Z" fill="#ED1C24"/>
<path fill-rule="evenodd" clip-rule="evenodd" d="M65.2502 60.9898C65.6662 60.9898 65.9438 60.6782 66.0779 60.0573C66.2031 59.4367 66.4924 57.6174 66.9333 54.6075C67.3756 51.6076 67.9766 48.3754 68.7382 44.9053C69.4994 41.4424 70.6098 37.3377 72.0789 32.5791C72.6352 32.4268 73.691 32.3171 75.2303 32.2321C76.7714 32.1519 77.9077 32.0036 78.6387 31.794C79.3662 31.5712 79.657 31.1115 79.5138 30.4066C79.4178 29.9073 79.1235 29.3459 78.6336 28.7535C78.1418 28.1503 77.4742 27.6381 76.6202 27.2186C75.7741 26.7906 74.8201 26.5781 73.7658 26.5781C73.4921 26.5781 73.0728 26.6099 72.5112 26.6777C71.8899 26.7443 70.9397 26.8086 69.6704 26.8819C68.3873 26.9475 67.4337 27.0137 66.8021 27.0698C63.1735 27.3411 60.6319 27.6436 59.1628 27.98C57.6976 28.3096 57.0374 28.8731 57.1945 29.674C57.6695 32.0707 58.6665 33.2649 60.2015 33.2649C60.4405 33.2649 62.1514 33.1328 65.3313 32.8704C64.9581 34.2836 64.4245 36.3863 63.7284 39.1914C63.0425 42.0071 62.4248 44.6305 61.8832 47.0716C61.3252 49.5101 60.8696 51.7757 60.5028 53.8601C60.1248 55.955 59.9991 57.2776 60.1111 57.8435C60.2181 58.3791 60.6065 58.877 61.2803 59.3708C61.9597 59.8496 62.7036 60.2388 63.5228 60.5399C64.3439 60.8418 64.9254 60.9898 65.2502 60.9898Z" fill="#ED1C24"/>
<path fill-rule="evenodd" clip-rule="evenodd" d="M119.667 43.0456C119.276 45.3256 118.63 47.4463 117.741 49.4387C116.84 51.4311 115.853 53.0291 114.779 54.24C113.701 55.459 112.722 56.0691 111.847 56.0691C111.474 56.0691 111.08 55.7967 110.656 55.2467C110.238 54.6975 109.934 53.9511 109.743 53.0167C109.308 50.8005 109.283 48.4747 109.67 46.0794C110.054 43.6748 110.692 41.4778 111.576 39.4662C112.47 37.4695 113.451 35.8548 114.52 34.6241C115.591 33.3943 116.529 32.7818 117.345 32.7818C118.374 32.7818 119.145 34.0901 119.666 36.7137C120.05 38.6644 120.051 40.7745 119.667 43.0456ZM124.35 32.709C123.773 31.404 123.182 30.4002 122.599 29.6945C122.014 28.998 121.559 28.6453 121.262 28.6453C121.092 28.6453 120.732 28.7812 120.193 29.0692C119.655 29.3462 119.263 29.5685 119.04 29.7249C118.386 28.9639 117.621 28.2494 116.743 27.577C115.875 26.9091 115.162 26.5781 114.632 26.5781C113.817 26.5781 112.645 27.283 111.138 28.6995C109.632 30.1172 108.181 32.0296 106.777 34.423C105.379 36.8295 104.346 39.5823 103.676 42.691C103.002 45.8043 102.994 48.9907 103.64 52.2404C104.02 54.1832 104.745 55.8143 105.79 57.1332C106.839 58.4553 108.008 59.4219 109.283 60.0456C110.56 60.6782 111.735 60.99 112.808 60.99C115.334 60.99 117.763 59.8642 120.09 57.6169C122.412 55.3628 124.127 52.3906 125.232 48.7073C126.339 45.0323 126.509 41.2106 125.727 37.2591C125.386 35.5393 124.93 34.019 124.35 32.709ZM144.367 36.6817C143.632 37.6593 142.633 38.5674 141.365 39.4146C140.102 40.2714 138.776 40.9419 137.386 41.4224C138.143 37.2366 138.437 34.68 138.257 33.7637C138.154 33.2491 137.806 32.7415 137.221 32.24C138.408 31.878 139.734 31.7008 141.199 31.7008C142.358 31.7008 143.287 31.916 143.989 32.3716C144.682 32.8198 145.092 33.3798 145.223 34.0519C145.382 34.8376 145.092 35.7137 144.367 36.6817ZM141.879 51.0753C141.075 52.2003 139.937 53.1234 138.475 53.8434C137.009 54.5779 135.473 54.9337 133.874 54.9337C134.553 52.6456 135.078 50.88 135.46 49.6603C135.83 48.4305 136.158 47.2223 136.419 45.9949C137.426 45.7017 138.352 45.552 139.201 45.552C141.294 45.552 142.484 46.2974 142.776 47.7588C142.987 48.8391 142.692 49.9485 141.879 51.0753ZM149.486 39.3077C150.603 37.5614 150.98 35.738 150.603 33.854C150.183 31.7059 148.953 29.961 146.911 28.6109C144.884 27.2589 142.383 26.5784 139.435 26.5784C138.149 26.5784 136.392 26.7756 134.18 27.1682C132.056 27.5338 130.481 27.9048 129.445 28.2738C128.419 28.6455 127.983 29.2272 128.145 30.0262C128.311 30.8675 128.724 31.7059 129.393 32.5535C130.057 33.3922 130.937 33.9058 132.041 34.1014C131.587 38.0196 131.043 41.3505 130.384 44.1013C129.727 46.8574 129.103 49.0043 128.504 50.5534C127.908 52.0909 127.412 53.4305 127.017 54.5516C126.618 55.667 126.498 56.6329 126.661 57.4517C126.706 57.6802 127.041 58.09 127.669 58.6724C128.297 59.2452 128.971 59.7796 129.685 60.2627C130.401 60.7417 130.917 60.9903 131.24 60.9903C131.717 60.9903 132.074 60.7771 132.323 60.3546C132.578 59.9253 132.851 59.1605 133.142 58.0353C134.856 60.0127 136.518 60.9903 138.14 60.9903C139.681 60.9903 141.356 60.2751 143.154 58.8204C144.948 57.3672 146.395 55.6295 147.484 53.6184C148.573 51.5935 148.967 49.805 148.659 48.261C148.497 47.4424 148.109 46.5835 147.499 45.7017C146.89 44.8103 146.019 44.0333 144.884 43.3475C146.828 42.3885 148.361 41.0508 149.486 39.3077ZM95.5764 37.8358C94.6241 39.0729 93.3747 40.2368 91.8402 41.3362C90.2883 42.4245 88.843 43.1832 87.4833 43.5896C87.6627 42.1791 88.0264 40.1661 88.5827 37.5387C88.9104 35.9756 89.1642 34.9376 89.3487 34.4142C89.5147 33.8845 89.7975 33.5144 90.171 33.299C90.5527 33.0782 91.1987 32.9385 92.1254 32.8719C92.3658 32.8415 92.7345 32.82 93.2286 32.82C95.3291 32.82 96.4981 33.4459 96.7471 34.7017C96.9203 35.5599 96.529 36.6091 95.5764 37.8358ZM100.904 30.6726C99.8882 29.4997 98.5208 28.5195 96.7675 27.7408C95.0307 26.9626 93.0401 26.5784 90.7906 26.5784C89.5032 26.5784 88.149 26.7173 86.7176 26.9958C85.2821 27.2644 84.0891 27.6777 83.1293 28.2114C82.1681 28.7516 81.7543 29.3655 81.891 30.0725C82.3274 32.2539 83.125 33.6178 84.3026 34.1467C83.2128 38.7181 82.3377 42.2541 81.6979 44.7487C81.0601 47.25 80.3932 49.7646 79.7102 52.3161C79.0234 54.8525 78.6223 56.4426 78.5012 57.0572C78.3913 57.6795 78.3663 58.1924 78.4419 58.5845C78.5621 59.1855 78.8161 59.5779 79.2175 59.7682C79.6063 59.9602 80.2677 60.1526 81.1836 60.3539C81.6471 60.4599 82.1448 60.5906 82.6553 60.7529C83.1632 60.9084 83.5158 60.9896 83.7094 60.9896C84.275 60.9896 84.7018 60.6777 84.9765 60.0655C85.2415 59.4527 85.4702 58.5088 85.6568 57.2475C85.8389 55.9827 86.0795 54.2863 86.3897 52.1666C86.6981 50.0533 87.1084 47.9957 87.5961 45.9942C89.0862 48.192 90.3142 49.2899 91.2786 49.2899C92.4149 49.2899 93.992 48.3484 95.991 46.4634C97.9983 44.5782 99.7015 42.4379 101.105 40.0393C102.507 37.6412 103.064 35.6993 102.763 34.1947C102.539 33.0326 101.914 31.8572 100.904 30.6726Z" fill="#ED1C24"/>
</g>
</g>
</g>
<defs>
<clipPath id="clip0_10039_6958">
<rect width="204" height="45" fill="white" transform="translate(0 16)"/>
</clipPath>
</defs>
</svg>
