<svg width="353" height="246" viewBox="0 0 353 246" fill="none" xmlns="http://www.w3.org/2000/svg">
<path d="M0 242.726V221.681L78.9897 135.16C88.2597 125.027 95.8939 116.219 101.892 108.736C107.89 101.175 112.331 94.0818 115.213 87.4563C118.173 80.7529 119.653 73.7376 119.653 66.4107C119.653 57.9924 117.628 50.7044 113.577 44.5466C109.604 38.3888 104.151 33.634 97.2181 30.2823C90.2851 26.9306 82.4952 25.2548 73.8484 25.2548C64.6563 25.2548 56.6327 27.1645 49.7776 30.9838C43.0003 34.7253 37.7421 39.9867 34.003 46.7681C30.3417 53.5494 28.5111 61.5 28.5111 70.6198H0.934789C0.934789 56.5894 4.1676 44.2738 10.6332 33.673C17.0989 23.0722 25.9015 14.8099 37.041 8.88593C48.2585 2.96198 60.8392 0 74.7832 0C88.805 0 101.23 2.96198 112.058 8.88593C122.886 14.8099 131.377 22.7994 137.531 32.8546C143.685 42.9097 146.762 54.0951 146.762 66.4107C146.762 75.2186 145.165 83.8318 141.971 92.25C138.855 100.59 133.402 109.905 125.612 120.194C117.9 130.405 107.189 142.876 93.479 157.608L39.7286 215.133V217.004H150.969V242.726H0Z" fill="#9FBBCA"/>
<path d="M274.01 246C260.3 246 247.953 243.272 236.969 237.816C225.985 232.359 217.183 224.876 210.561 215.367C203.94 205.857 200.318 195.023 199.694 182.863H227.738C228.829 193.698 233.736 202.662 242.461 209.755C251.264 216.77 261.78 220.278 274.01 220.278C283.826 220.278 292.55 217.978 300.184 213.379C307.896 208.78 313.934 202.467 318.296 194.438C322.736 186.332 324.956 177.173 324.956 166.962C324.956 156.517 322.658 147.202 318.062 139.018C313.544 130.756 307.312 124.247 299.366 119.492C291.421 114.738 282.345 112.321 272.141 112.243C264.818 112.165 257.301 113.296 249.589 115.634C241.877 117.894 235.528 120.817 230.543 124.403L203.434 121.129L217.923 3.27377H342.25V28.9962H242.227L233.814 99.616H235.216C240.124 95.7186 246.278 92.4838 253.679 89.9116C261.079 87.3394 268.791 86.0532 276.815 86.0532C291.46 86.0532 304.508 89.5608 315.959 96.5761C327.488 103.513 336.524 113.023 343.068 125.105C349.689 137.186 353 150.983 353 166.494C353 181.772 349.572 195.413 342.717 207.416C335.94 219.342 326.592 228.774 314.674 235.711C302.755 242.57 289.201 246 274.01 246Z" fill="#9FBBCA"/>
</svg>
