<svg width="659" height="276" viewBox="0 0 659 276" fill="none" xmlns="http://www.w3.org/2000/svg">
<path d="M99.7586 3.67301V272.327H67.2058V37.7795H65.6306L0 81.3308V48.2738L67.2058 3.67301H99.7586Z" fill="white"/>
<path d="M259.483 276C241.456 276 225.53 272.808 211.703 266.424C197.965 259.952 187.245 251.076 179.544 239.795C171.844 228.426 168.037 215.483 168.125 200.966C168.037 189.597 170.269 179.103 174.819 169.483C179.369 159.776 185.582 151.686 193.458 145.215C201.421 138.656 210.303 134.502 220.104 132.753V131.179C207.241 127.856 197.002 120.641 189.389 109.534C181.776 98.3403 178.013 85.616 178.101 71.3612C178.013 57.7186 181.47 45.519 188.47 34.7624C195.471 24.0057 205.097 15.5228 217.348 9.31369C229.686 3.10456 243.731 0 259.483 0C275.059 0 288.973 3.10456 301.224 9.31369C313.475 15.5228 323.101 24.0057 330.101 34.7624C337.189 45.519 340.777 57.7186 340.865 71.3612C340.777 85.616 336.883 98.3403 329.182 109.534C321.569 120.641 311.462 127.856 298.861 131.179V132.753C308.574 134.502 317.325 138.656 325.113 145.215C332.901 151.686 339.114 159.776 343.752 169.483C348.39 179.103 350.753 189.597 350.84 200.966C350.753 215.483 346.815 228.426 339.027 239.795C331.326 251.076 320.607 259.952 306.868 266.424C293.217 272.808 277.422 276 259.483 276ZM259.483 247.141C271.646 247.141 282.147 245.173 290.985 241.238C299.824 237.302 306.649 231.749 311.462 224.578C316.275 217.407 318.725 209.011 318.813 199.392C318.725 189.247 316.1 180.283 310.937 172.5C305.774 164.717 298.73 158.595 289.804 154.135C280.966 149.675 270.859 147.445 259.483 147.445C248.019 147.445 237.781 149.675 228.767 154.135C219.842 158.595 212.797 164.717 207.634 172.5C202.559 180.283 200.065 189.247 200.152 199.392C200.065 209.011 202.384 217.407 207.109 224.578C211.922 231.749 218.792 237.302 227.717 241.238C236.643 245.173 247.232 247.141 259.483 247.141ZM259.483 119.635C269.108 119.635 277.64 117.711 285.079 113.863C292.604 110.015 298.511 104.637 302.799 97.7281C307.087 90.8194 309.274 82.73 309.362 73.4601C309.274 64.365 307.13 56.4506 302.93 49.7167C298.73 42.8954 292.91 37.6483 285.472 33.9753C278.034 30.2148 269.371 28.3346 259.483 28.3346C249.419 28.3346 240.625 30.2148 233.099 33.9753C225.573 37.6483 219.754 42.8954 215.641 49.7167C211.528 56.4506 209.516 64.365 209.603 73.4601C209.516 82.73 211.572 90.8194 215.773 97.7281C220.06 104.637 225.967 110.015 233.493 113.863C241.018 117.711 249.682 119.635 259.483 119.635Z" fill="white"/>
<path d="M412.25 274.426C405.774 274.426 400.217 272.108 395.58 267.473C390.942 262.838 388.623 257.285 388.623 250.814C388.623 244.342 390.942 238.789 395.58 234.154C400.217 229.519 405.774 227.202 412.25 227.202C418.725 227.202 424.282 229.519 428.92 234.154C433.558 238.789 435.877 244.342 435.877 250.814C435.877 255.099 434.783 259.034 432.595 262.62C430.495 266.205 427.651 269.091 424.063 271.278C420.563 273.376 416.625 274.426 412.25 274.426Z" fill="white"/>
<path d="M565.542 276C545.765 276 528.92 270.622 515.006 259.865C501.093 249.021 490.46 233.323 483.11 212.772C475.759 192.133 472.084 167.209 472.084 138C472.084 108.966 475.759 84.173 483.11 63.6217C490.548 42.9829 501.224 27.2414 515.138 16.3973C529.139 5.46578 545.94 0 565.542 0C585.144 0 601.901 5.46578 615.815 16.3973C629.816 27.2414 640.492 42.9829 647.843 63.6217C655.281 84.173 659 108.966 659 138C659 167.209 655.325 192.133 647.974 212.772C640.623 233.323 629.991 249.021 616.078 259.865C602.164 270.622 585.319 276 565.542 276ZM565.542 247.141C585.144 247.141 600.37 237.696 611.221 218.806C622.072 199.916 627.497 172.981 627.497 138C627.497 114.738 625.003 94.9297 620.015 78.576C615.115 62.2224 608.027 49.7605 598.751 41.1901C589.563 32.6198 578.493 28.3346 565.542 28.3346C546.115 28.3346 530.933 37.9106 519.994 57.0627C509.056 76.1274 503.587 103.106 503.587 138C503.587 161.262 506.037 181.027 510.937 197.293C515.838 213.559 522.882 225.933 532.07 234.416C541.346 242.899 552.503 247.141 565.542 247.141Z" fill="white"/>
</svg>
