<svg width="648" height="277" viewBox="0 0 648 277" fill="none" xmlns="http://www.w3.org/2000/svg">
<g clip-path="url(#clip0_4030_818)">
<path d="M234.077 -7.1673V273.167H200.115V28.4221H198.472L130 73.8669V39.3726L200.115 -7.1673H234.077Z" fill="white"/>
<path d="M323.501 273.167L448.941 25.1369V22.9468H304.329V-7.1673H483.998V24.5894L359.106 273.167H323.501Z" fill="white"/>
<path d="M620.496 277C599.864 277 582.289 271.388 567.773 260.164C553.257 248.848 542.165 232.468 534.496 211.023C526.827 189.487 522.993 163.479 522.993 133C522.993 102.703 526.827 76.8327 534.496 55.3878C542.256 33.8517 553.394 17.4259 567.91 6.11026C582.518 -5.29658 600.046 -11 620.496 -11C640.947 -11 658.43 -5.29658 672.946 6.11026C687.553 17.4259 698.691 33.8517 706.36 55.3878C714.12 76.8327 718 102.703 718 133C718 163.479 714.166 189.487 706.497 211.023C698.828 232.468 687.736 248.848 673.22 260.164C658.704 271.388 641.129 277 620.496 277ZM620.496 246.886C640.947 246.886 656.832 237.03 668.153 217.319C679.473 197.608 685.134 169.502 685.134 133C685.134 108.726 682.532 88.057 677.328 70.9924C672.215 53.9278 664.82 40.924 655.143 31.981C645.557 23.038 634.008 18.5665 620.496 18.5665C600.229 18.5665 584.389 28.5589 572.977 48.5437C561.565 68.4373 555.859 96.5894 555.859 133C555.859 157.274 558.416 177.897 563.528 194.871C568.641 211.844 575.99 224.757 585.576 233.608C595.253 242.46 606.893 246.886 620.496 246.886Z" fill="white"/>
</g>
<defs>
<clipPath id="clip0_4030_818">
<rect width="648" height="277" fill="white"/>
</clipPath>
</defs>
</svg>
