<svg width="616" height="482" viewBox="0 0 616 482" fill="none" xmlns="http://www.w3.org/2000/svg">
<path d="M513.738 121.571C514.172 121.483 514.531 121.501 515.664 121.618C516.719 122.051 516.917 122.168 517.146 122.437C517.298 122.614 517.485 122.897 517.768 123.436C518.042 123.959 518.367 124.646 518.822 125.605C519.407 127.333 519.966 129.072 520.504 130.818L520.507 130.826L520.509 130.834C520.812 131.781 521.115 132.728 521.427 133.703V133.704C542.454 202.207 526.194 276.155 493.649 338.396C479.879 364.101 462.805 387.881 444.061 410.248L444.059 410.25C443.504 410.915 442.949 411.58 442.377 412.265C435.372 420.636 428.249 428.647 420.453 436.245L420.439 436.259C418.027 438.671 415.825 441.135 413.65 443.729C409.242 448.865 404.257 453.339 399.133 457.943L399.132 457.944C396.886 459.967 394.676 462.019 392.486 464.092L390.304 466.17C389.11 467.307 389.109 467.307 387.89 468.469L387.889 468.47C386.33 469.957 384.778 471.45 383.231 472.95C379.653 476.347 376.881 478.77 372.568 480.22C371.153 478.587 369.752 476.94 368.356 475.284L368.349 475.275L365.679 472.154C364.679 470.594 364.326 470.019 364.161 469.537C364.035 469.169 364.015 468.847 364.03 467.784C365.243 465.53 366.539 464.309 368.756 462.502L368.764 462.496L368.771 462.489C370.083 461.391 370.084 461.391 371.42 460.271C372.35 459.496 373.28 458.72 374.238 457.921L374.26 457.903C393.517 441.237 393.554 441.202 410.974 422.697L411.022 422.643C412.861 420.486 414.822 418.504 416.888 416.479L416.892 416.476C457.291 376.615 489.867 322.088 505.396 267.764C505.698 266.718 506 265.671 506.312 264.594L506.314 264.584C519.036 219.418 518.006 171.887 502.188 127.739C503.917 126.719 505.655 125.711 507.399 124.709L507.408 124.704C508.551 124.037 509.694 123.37 510.87 122.684C512.56 121.95 513.209 121.68 513.738 121.571Z" stroke="#DCF1FE" stroke-width="3"/>
<path d="M98.3008 121.695C103.25 123.288 107.789 125.416 112.481 127.82C112.397 128.065 112.312 128.312 112.227 128.562L112.225 128.568C106.996 143.965 102.695 159.787 100.846 176.059C100.713 177.191 100.579 178.324 100.442 179.491L100.44 179.517C92.9525 254.295 125.593 327.947 171.069 385.244L171.078 385.256L171.088 385.268C172.552 387.039 174.021 388.806 175.494 390.569V390.57C176.322 391.604 177.151 392.638 178.005 393.703L178.006 393.704C183.822 400.944 189.908 407.831 196.22 414.607C198.706 417.284 201.11 420.029 203.511 422.812L203.516 422.818C207.982 427.943 212.698 432.759 217.486 437.52V437.521C218.283 438.322 219.081 439.123 219.901 439.948L219.905 439.953C224.631 444.669 229.485 449.161 234.537 453.521V453.521C237.939 456.471 241.252 459.52 244.583 462.592L244.585 462.594C245.228 463.185 245.871 463.776 246.533 464.385C247.836 465.583 249.138 466.782 250.439 467.981C249.083 471.566 247.556 474.213 244.936 477.119L244.93 477.125C244.288 477.845 243.647 478.565 242.986 479.307C242.68 479.641 242.373 479.975 242.062 480.313C240.543 479.994 239.394 479.566 238.356 478.978C237.128 478.281 235.982 477.324 234.522 475.912L234.516 475.905L232.071 473.572C231.246 472.769 230.412 471.958 229.562 471.13L229.556 471.123C227.914 469.544 226.271 467.966 224.627 466.391C223.805 465.602 222.983 464.813 222.137 464L222.13 463.994L222.124 463.988C219.737 461.749 217.301 459.6 214.835 457.476H214.836C209.621 452.957 204.737 448.128 199.833 443.197L199.827 443.192L197.226 440.604C192.364 435.734 187.716 430.748 183.227 425.538L183.226 425.536C181.522 423.564 179.773 421.641 178.021 419.736L176.269 417.837C143.233 381.115 116.591 337.342 100.153 290.825L100.151 290.82L99.0996 287.874C81.5402 237.941 75.2293 173.893 96.8721 124.501C97.346 123.571 97.8195 122.64 98.3008 121.695Z" stroke="#DCF1FE" stroke-width="3"/>
<path d="M223.804 324.308C229.421 326.932 233.972 331.547 237.773 337.029C241.781 342.809 244.882 349.444 247.499 355.482C253.965 372.286 251.379 390.691 244.204 407.043C239.508 416.438 232.64 426.491 224.156 432.48C222.616 432.437 221.563 432.253 220.627 431.89C219.607 431.494 218.617 430.847 217.232 429.73C204.532 415.271 198.955 399.088 199.399 379.874C201.004 358.608 209.667 340.117 223.804 324.308Z" stroke="#DCF1FE" stroke-width="3"/>
<path d="M389.171 324.275C394.247 326.686 398.283 331.194 401.646 336.56C405.187 342.208 407.874 348.628 410.237 354.194C417.27 374.624 416.938 394.85 407.747 414.299C404.01 421.557 399.464 426.931 393.345 432.274C382.027 427.898 375.667 416.74 369.831 405.756C362.633 389.608 361.489 371.935 367.338 355.223C372.198 342.909 379.571 333.466 389.171 324.275Z" stroke="#DCF1FE" stroke-width="3"/>
<path d="M445.968 186.436C464.359 192.431 478.737 207.226 488.268 223.957L488.728 224.772C491.607 230.158 493.898 235.468 495.307 241.322L495.308 241.326C495.519 242.197 495.731 243.067 495.948 243.963C498.231 257.866 497.514 274.21 490.042 286.09C473.296 283.244 459.173 273.142 449.071 259.45C438.568 243.384 435.583 227.936 438.298 208.876C440.081 200.889 442.336 193.618 445.968 186.436Z" stroke="#DCF1FE" stroke-width="3"/>
<path d="M514.091 347.386C536.271 335.187 561.11 332.657 585.135 340.354C584.426 353.602 575.824 367.063 566.463 376.552C552.004 389.186 535.297 394.916 516.17 393.978C505.911 393.282 495.592 391.123 486.519 386.457C490.866 369.8 499.383 356.773 514.091 347.386Z" stroke="#DCF1FE" stroke-width="3"/>
<path d="M197.851 256.023C207.956 268.346 211.94 285.544 210.843 301.418C208.596 319.617 200.791 335.919 186.539 347.681C182.327 350.66 177.998 353.364 173.516 355.966H173.515C171.508 357.133 171.475 357.153 169.494 358.306C167.979 358.897 167.374 359.124 166.864 359.229C166.439 359.315 166.074 359.316 165.088 359.281C163.244 358.359 162 356.799 160.969 354.8C160.428 353.751 159.962 352.614 159.496 351.417C159.046 350.261 158.584 349.017 158.083 347.845C151.596 330.326 153.393 312.097 160.887 295.149L161.248 294.343C169.15 277.937 181.542 264.146 197.851 256.023Z" stroke="#DCF1FE" stroke-width="3"/>
<path d="M437.865 95.2979C457.393 100.059 473.799 111.783 485.936 127.932C496.122 144.419 500.777 161.883 496.892 181.056C496.175 183.436 495.419 185.726 494.521 187.995C480.091 188.908 465.703 180.395 454.358 171.349C441.631 159.451 434.495 143.986 433.237 126.635C433.012 115.52 434.815 105.926 437.865 95.2979Z" stroke="#DCF1FE" stroke-width="3"/>
<path d="M541.018 274.368C557.446 257.681 581.123 248.698 604.437 249.602C605.327 268.083 601.007 286.032 588.86 300.137C575.093 314.62 559.263 322.443 539.15 323.651C533.649 323.706 528.61 323.536 523.386 322.471C522.672 303.995 528.61 288.234 541.018 274.368Z" stroke="#DCF1FE" stroke-width="3"/>
<path d="M176.71 96.1338C182.252 115.653 183.411 133.915 174.938 152.681C165.49 169.293 151 180.2 133.081 186.778C128.783 187.779 124.515 188.496 120.138 188.995C114.208 171.741 115.721 153.824 123.384 137.204C132.637 120.077 146.416 108.143 163.903 99.7324L163.906 99.7305C164.662 99.3644 165.418 98.9981 166.197 98.6211C170.006 96.8765 172.901 95.9558 176.71 96.1338Z" stroke="#DCF1FE" stroke-width="3"/>
<path d="M10.2598 249.721C20.8918 250.133 30.7209 250.852 40.6885 254.376L40.6963 254.378C41.854 254.781 43.0119 255.183 44.2041 255.598C61.8127 262.305 77.0711 275.002 85.3799 291.946C89.8058 302.37 91.3513 311.411 91.2539 322.589C77.2451 326.793 59.3812 322.791 46.3662 316.662C29.5538 307.639 18.2158 294.431 12.6201 276.045C10.5266 267.222 9.94693 258.764 10.2598 249.721Z" stroke="#DCF1FE" stroke-width="3"/>
<path d="M168.062 187.296C169.903 188.479 171.157 190.568 172.136 193.21C173.192 196.062 173.762 199.013 174.586 201.839V201.84C178.907 217.99 178.798 234.709 171.738 249.861C161.644 266.806 147.854 280.966 128.541 286.218C127.121 286.155 126.516 286.121 125.937 286.005C125.402 285.898 124.874 285.718 123.747 285.308C123.126 284.216 122.824 283.666 122.563 283.058C122.263 282.356 122.011 281.564 121.449 279.783L121.446 279.773L121.443 279.765L120.312 276.337C115.055 257.443 118.318 238.957 127.607 221.799C131.368 215.454 137.658 206.83 145.036 199.775C152.349 192.784 160.458 187.6 168.062 187.296Z" stroke="#DCF1FE" stroke-width="3"/>
<path d="M580.427 67.7656C589.959 77.1428 592.724 91.527 593.957 105.012C594.601 124.536 587.421 140.177 574.205 154.336C570.568 157.824 565.986 162.044 561.021 165.394C556.316 168.569 551.434 170.846 546.81 171.11C545.8 169.197 544.798 167.278 543.803 165.354L543.8 165.348C543.167 164.138 542.535 162.928 541.884 161.682C535.371 146.93 535.564 128.154 541.084 113.03C541.552 111.925 542.021 110.82 542.503 109.682L542.505 109.678C542.95 108.618 543.396 107.558 543.854 106.466C548.295 96.8606 554.729 88.661 562.523 81.4229L562.529 81.417C563.749 80.2709 563.754 80.2672 564.99 79.1055C569.954 74.544 574.635 70.8506 580.427 67.7656Z" stroke="#DCF1FE" stroke-width="3"/>
<path d="M29.5859 341.416C53.4616 330.959 85.7341 336.253 106.356 351.654C117.225 360.642 125.677 372.486 128.233 386.339C108.994 394.786 90.9552 396.847 70.458 390.611C53.0062 383.941 41.1806 371.39 33.1221 354.623C31.1615 350.094 30.0131 346.15 29.5859 341.416Z" stroke="#DCF1FE" stroke-width="3"/>
<path d="M84.6523 418.237C113.155 407.426 143.979 406.256 169.006 425.329C176.478 431.642 184.025 439.517 187.147 448.615C187.123 450.013 187.104 450.59 186.993 451.142C186.887 451.672 186.693 452.199 186.221 453.402C182.089 456.315 177.415 458.141 172.494 460.177L172.489 460.179C171.516 460.586 170.542 460.991 169.541 461.41C154.173 466.626 134.461 465.437 119.72 458.989H119.719C118.286 458.364 118.275 458.358 116.835 457.729C101.993 450.308 91.2496 436.85 84.6523 421.683V418.237Z" stroke="#DCF1FE" stroke-width="3"/>
<path d="M415.924 256.015C433.718 262.851 445.501 278.95 454.182 295.712C461.869 312.833 462.379 331.114 455.948 348.741C454.39 352.412 452.612 355.749 450.518 359.124C442.387 356.881 436.199 353.037 429.349 347.688L429.339 347.682L429.33 347.674L426.52 345.55C412.992 334.539 405.511 318.373 403.622 301.106C402.92 284.052 407.777 270.781 415.924 256.015Z" stroke="#DCF1FE" stroke-width="3"/>
<path d="M32.4004 68.7773C37.5745 69.7031 42.6193 72.5858 47.3125 76.3672C52.2734 80.3643 56.7229 85.268 60.3857 89.6338C74.0319 108.851 78.586 126.429 76.8682 149.652C75.3052 157.468 72.2075 164.289 67.9746 171.074C62.4087 170.572 57.3012 168.108 52.5225 164.707C47.4838 161.121 42.9279 156.583 38.6475 152.385L38.6338 152.371C37.962 151.728 37.2904 151.086 36.5986 150.424C25.0694 138.294 20.4621 121.869 20.7383 105.352C21.8309 92.107 25.9343 80.3777 32.4004 68.7773Z" stroke="#DCF1FE" stroke-width="3"/>
<path d="M446.109 424.403C471.459 406.78 501.836 405.913 529.896 418.124C528.025 430.62 519.048 442.067 509.106 449.998C492.83 462.078 474.997 466.152 454.89 463.317C444.96 461.411 436.258 457.676 427.646 452.405C429.295 441.319 437.19 431.505 446.109 424.403Z" stroke="#DCF1FE" stroke-width="3"/>
<path d="M610.709 157.321C615.528 174.65 614.476 193.925 606.502 209.966C596.838 227.123 582.22 237.701 563.481 243.427C557.71 245.015 552.871 245.861 547.162 245.548C543.493 226.777 544.988 209.013 555.541 192.67C561.895 183.927 568.81 175.93 577.874 170.316L577.886 170.31L577.897 170.302C578.973 169.608 580.048 168.914 581.155 168.2C590.386 162.501 600.141 157.21 610.709 157.321Z" stroke="#DCF1FE" stroke-width="3"/>
<path d="M139.767 1.50488C150.106 22.7383 152.274 45.5302 145.666 68.3916C143.182 75.0134 139.933 80.8192 135.871 86.6611L135.857 86.6807C135.344 87.445 134.83 88.2096 134.302 88.9961C131.652 92.4884 127.58 96.5353 123.04 99.875C118.778 103.01 114.238 105.422 110.179 106.258C97.5918 89.0956 94.5279 69.9291 97.1309 48.9072C100.844 31.7682 112.034 17.51 126.562 7.86426C132.002 4.54157 134.585 2.96977 136.334 2.19727C137.635 1.62238 138.386 1.52261 139.767 1.50488Z" stroke="#DCF1FE" stroke-width="3"/>
<path d="M3.93457 157.466C19.0855 159.098 33.6881 167.057 44.9785 177.341L44.9883 177.35C46.3599 178.579 46.3691 178.588 47.749 179.824H47.75C54.0798 185.798 58.6277 191.971 62.6406 199.702L62.6445 199.71L62.6494 199.719C63.1119 200.583 63.5746 201.446 64.0508 202.336C70.8525 216.147 70.4837 230.565 67.5234 245.534C49.8217 246.385 34.3025 238.514 20.8457 226.972C8.72628 215.364 2.24956 201.897 1.56055 185.157C1.37876 175.417 1.45932 166.613 3.93457 157.466Z" stroke="#DCF1FE" stroke-width="3"/>
<path d="M474.771 1.66016C487.788 4.1472 499.374 15.1362 507.299 25.8145C517.876 41.8639 519.947 59.1425 517.551 78.0879C515.555 87.1402 511.796 96.678 506.567 104.284C505.071 104.898 504.086 105.145 503.161 105.158C502.176 105.172 501.115 104.925 499.426 104.305C482.431 93.8449 472.177 80.0061 467.05 60.7881C462.787 41.0523 465.046 19.2818 474.771 1.66016Z" stroke="#DCF1FE" stroke-width="3"/>
</svg>
