<svg width="612" height="272" viewBox="0 0 612 272" fill="none" xmlns="http://www.w3.org/2000/svg">
<path d="M88.5802 0.0121186C99.4585 0.0983025 110.337 2.16665 121.215 6.21716C132.093 10.2677 142.022 16.9898 151.001 26.3836C159.98 35.6911 167.189 48.4029 172.628 64.5187C178.067 80.6346 180.787 100.844 180.787 125.147C180.787 148.675 178.542 169.574 174.052 187.844C169.649 206.028 163.26 221.369 154.886 233.865C146.598 246.361 136.496 255.841 124.582 262.305C112.754 268.768 99.3722 272 84.4361 272C69.5864 272 56.3339 269.07 44.6786 263.21C33.1097 257.263 23.6128 249.033 16.1879 238.519C8.84939 227.918 4.1441 215.637 2.07205 201.676H33.6708C36.5199 213.828 42.1749 223.868 50.6358 231.796C59.183 239.639 70.4498 243.56 84.4361 243.56C104.898 243.56 121.042 234.64 132.87 216.801C144.785 198.961 150.742 173.753 150.742 141.177H148.67C143.835 148.416 138.094 154.664 131.446 159.921C124.798 165.178 117.416 169.229 109.301 172.073C101.185 174.917 92.5517 176.339 83.4001 176.339C68.2051 176.339 54.2619 172.59 41.5705 165.092C28.9656 157.508 18.8643 147.123 11.2668 133.938C3.75559 120.666 0 105.498 0 88.434C0 72.232 3.62609 57.4088 10.8783 43.9645C18.2168 30.4341 28.4907 19.6614 41.7 11.6466C54.9957 3.63174 70.6224 -0.246418 88.5802 0.0121186ZM88.5802 28.4519C77.702 28.4519 67.9029 31.1666 59.183 36.5961C50.5494 41.9393 43.6858 49.1785 38.592 58.3137C33.5845 67.3627 31.0808 77.4028 31.0808 88.434C31.0808 99.4652 33.4982 109.505 38.333 118.554C43.2541 127.517 49.9451 134.67 58.406 140.013C66.9532 145.271 76.6659 147.899 87.5442 147.899C95.7461 147.899 103.387 146.305 110.466 143.116C117.546 139.841 123.719 135.403 128.985 129.801C134.338 124.113 138.525 117.693 141.547 110.54C144.569 103.3 146.08 95.7594 146.08 87.9169C146.08 77.5752 143.576 67.8798 138.568 58.8308C133.647 49.7818 126.827 42.4564 118.107 36.8546C109.473 31.2528 99.6312 28.4519 88.5802 28.4519Z" fill="white"/>
<path d="M316.15 0.0121186C327.028 0.0983025 337.906 2.16665 348.785 6.21716C359.663 10.2677 369.591 16.9898 378.57 26.3836C387.549 35.6911 394.758 48.4029 400.197 64.5187C405.637 80.6346 408.356 100.844 408.356 125.147C408.356 148.675 406.111 169.574 401.622 187.844C397.219 206.028 390.83 221.369 382.455 233.865C374.167 246.361 364.066 255.841 352.152 262.305C340.324 268.768 326.942 272 312.006 272C297.156 272 283.904 269.07 272.248 263.21C260.679 257.263 251.182 249.033 243.757 238.519C236.419 227.918 231.714 215.637 229.642 201.676H261.24C264.09 213.828 269.744 223.868 278.205 231.796C286.753 239.639 298.019 243.56 312.006 243.56C332.467 243.56 348.612 234.64 360.44 216.801C372.354 198.961 378.311 173.753 378.311 141.177H376.239C371.405 148.416 365.663 154.664 359.015 159.921C352.368 165.178 344.986 169.229 336.87 172.073C328.755 174.917 320.121 176.339 310.97 176.339C295.775 176.339 281.831 172.59 269.14 165.092C256.535 157.508 246.434 147.123 238.836 133.938C231.325 120.666 227.57 105.498 227.57 88.434C227.57 72.232 231.196 57.4088 238.448 43.9645C245.786 30.4341 256.06 19.6614 269.27 11.6466C282.565 3.63174 298.192 -0.246418 316.15 0.0121186ZM316.15 28.4519C305.272 28.4519 295.472 31.1666 286.753 36.5961C278.119 41.9393 271.255 49.1785 266.162 58.3137C261.154 67.3627 258.65 77.4028 258.65 88.434C258.65 99.4652 261.068 109.505 265.903 118.554C270.824 127.517 277.515 134.67 285.976 140.013C294.523 145.271 304.236 147.899 315.114 147.899C323.316 147.899 330.956 146.305 338.036 143.116C345.115 139.841 351.288 135.403 356.555 129.801C361.908 124.113 366.095 117.693 369.117 110.54C372.138 103.3 373.649 95.7594 373.649 87.9169C373.649 77.5752 371.146 67.8798 366.138 58.8308C361.217 49.7818 354.396 42.4564 345.677 36.8546C337.043 31.2528 327.201 28.4519 316.15 28.4519Z" fill="white"/>
<path d="M472.816 270.449C466.428 270.449 460.945 268.165 456.369 263.597C451.794 259.03 449.506 253.557 449.506 247.18C449.506 240.802 451.794 235.33 456.369 230.762C460.945 226.195 466.428 223.911 472.816 223.911C479.205 223.911 484.688 226.195 489.263 230.762C493.839 235.33 496.127 240.802 496.127 247.18C496.127 251.403 495.048 255.281 492.889 258.814C490.817 262.348 488.011 265.192 484.472 267.346C481.018 269.415 477.133 270.449 472.816 270.449Z" fill="white"/>
<path d="M612 3.63173V268.38H579.883V37.2424H578.329L513.578 80.1606V47.5841L579.883 3.63173H612Z" fill="white"/>
</svg>
