<svg width="213" height="213" viewBox="0 0 213 213" fill="none" xmlns="http://www.w3.org/2000/svg">
<path d="M106.525 0H106.393C69.8066 0.230759 39.3172 28.0892 35.7957 64.5068C34.0764 83.8401 38.4364 96.3157 47.0834 112.578C49.7582 117.308 52.815 121.813 56.2211 126.046C58.5612 129.113 60.7664 132.01 62.7295 135.106C67.1561 142.103 69.948 150.011 70.8938 158.237C65.9503 161.13 63.2462 166.723 64.0474 172.393C64.8485 178.064 68.9989 182.688 74.5502 184.097V198.8C74.5615 203.671 77.0722 208.195 81.1999 210.782C81.4095 210.923 81.6322 211.042 81.8678 211.136C83.9625 212.342 86.3335 212.984 88.7499 213H124.251C132.094 213 138.451 206.643 138.451 198.8V184.097C144.028 182.693 148.196 178.045 148.984 172.347C149.773 166.65 147.023 161.045 142.036 158.18C142.993 149.974 145.785 142.089 150.202 135.106C152.165 132.01 154.368 129.113 156.708 126.046C160.114 121.813 163.171 117.308 165.846 112.578C174.49 96.319 178.853 83.8434 177.139 64.5068C173.612 28.0843 143.116 0.225884 106.525 0ZM83.5351 203.578C82.3277 202.279 81.6549 200.573 81.65 198.8V184.6H115.819L83.5351 203.578ZM131.351 198.8C131.351 202.721 128.172 205.9 124.251 205.9H93.5991L129.831 184.6H131.351V198.8ZM134.9 177.501H78.1009C74.1796 177.501 71.001 174.322 71.001 170.401C71.001 166.479 74.1796 163.301 78.1009 163.301H134.9C138.821 163.301 142 166.479 142 170.401C142 174.322 138.821 177.501 134.9 177.501ZM92.3007 92.3002H81.65C77.7288 92.3002 74.5502 89.1216 74.5502 85.2003C74.5502 81.2791 77.7288 78.1004 81.65 78.1004H85.2008C89.1221 78.1004 92.3007 81.2791 92.3007 85.2003V92.3002ZM106.5 99.4001H113.6V156.199H99.4006V99.4001H106.5ZM159.565 109.24C157.071 113.632 154.222 117.812 151.047 121.74C148.721 124.793 146.318 127.949 144.191 131.303C139.413 138.855 136.315 147.346 135.11 156.199H120.7V99.4001H131.351C139.193 99.4001 145.551 93.0429 145.551 85.2003C145.551 77.3578 139.193 71.0005 131.351 71.0005H127.8C119.958 71.0005 113.6 77.3578 113.6 85.2003V92.3002H99.4006V85.2003C99.4006 77.3578 93.0433 71.0005 85.2008 71.0005H81.65C73.8075 71.0005 67.4503 77.3578 67.4503 85.2003C67.4503 93.0429 73.8075 99.4001 81.65 99.4001H92.3007V156.199H77.81C76.6026 147.346 73.5052 138.855 68.7243 131.303C66.5955 127.949 64.1953 124.793 61.8698 121.74C58.6944 117.812 55.8457 113.632 53.3496 109.24C45.1642 93.8473 41.2803 82.8001 42.8631 65.1357C45.8646 32.2542 73.4386 7.08364 106.457 7.08364C139.475 7.08364 167.047 32.2542 170.048 65.1357C171.622 82.8034 167.752 93.8521 159.565 109.24ZM120.7 92.3002V85.2003C120.7 81.2791 123.879 78.1004 127.8 78.1004H131.351C135.272 78.1004 138.451 81.2791 138.451 85.2003C138.451 89.1216 135.272 92.3002 131.351 92.3002H120.7Z" fill="#DCF1FE"/>
<path d="M106.465 14.1992C77.3165 14.6737 53.0803 36.7794 49.9358 65.7624C49.7636 67.7157 51.2066 69.4383 53.1583 69.6122H53.4752C55.318 69.6187 56.8602 68.213 57.0243 66.3767C59.7902 41.0387 80.9794 21.7184 106.465 21.2991C108.427 21.2991 110.016 19.7098 110.016 17.75C110.016 15.7885 108.427 14.1992 106.465 14.1992Z" fill="#DCF1FE"/>
<path d="M0 71C0 72.9598 1.58931 74.5491 3.55076 74.5491H21.2997C23.2611 74.5491 24.8504 72.9598 24.8504 71C24.8504 69.0385 23.2611 67.4492 21.2997 67.4492H3.55076C1.58931 67.4492 0 69.0385 0 71Z" fill="#DCF1FE"/>
<path d="M30.939 110.527L15.5675 119.403C14.4609 120.032 13.7751 121.206 13.7734 122.481C13.7702 123.755 14.4495 124.931 15.5545 125.567C16.6596 126.2 18.0197 126.195 19.1183 125.55L34.4897 116.676C36.1733 115.689 36.7437 113.528 35.7687 111.838C34.7936 110.148 32.6355 109.563 30.939 110.527Z" fill="#DCF1FE"/>
<path d="M177.211 111.825C176.231 113.523 176.811 115.694 178.509 116.674L193.881 125.548C195.577 126.514 197.734 125.927 198.71 124.237C199.685 122.549 199.115 120.387 197.431 119.401L182.06 110.525C180.362 109.545 178.191 110.127 177.211 111.825Z" fill="#DCF1FE"/>
<path d="M209.448 67.4492H191.699C189.738 67.4492 188.148 69.0385 188.148 71C188.148 72.9598 189.738 74.5491 191.699 74.5491H209.448C211.41 74.5491 212.999 72.9598 212.999 71C212.999 69.0385 211.41 67.4492 209.448 67.4492Z" fill="#DCF1FE"/>
<path d="M198.727 17.7506C197.747 16.0524 195.576 15.4706 193.878 16.4505L178.507 25.325C177.4 25.9555 176.714 27.1304 176.711 28.4045C176.709 29.6785 177.389 30.8551 178.494 31.4905C179.597 32.1242 180.957 32.1194 182.057 31.4742L197.429 22.5998C199.125 21.6182 199.707 19.4471 198.727 17.7506Z" fill="#DCF1FE"/>
<path d="M34.4896 25.3249L19.1181 16.4504C17.4215 15.4867 15.2651 16.0718 14.2884 17.7618C13.3134 19.4519 13.8838 21.6116 15.5674 22.5996L30.9388 31.4741C32.0373 32.1192 33.3975 32.1241 34.5026 31.4903C35.6076 30.8549 36.2869 29.6784 36.2853 28.4043C36.282 27.1303 35.5962 25.9554 34.4896 25.3249Z" fill="#DCF1FE"/>
</svg>
