<svg width="371" height="556" viewBox="0 0 371 556" fill="none" xmlns="http://www.w3.org/2000/svg">
<path d="M89.4141 2H281.591" stroke="#DCF1FE" stroke-width="4" stroke-linecap="round" stroke-linejoin="round"/>
<path d="M35.1523 340.09H335.849" stroke="#DCF1FE" stroke-width="4" stroke-linecap="round" stroke-linejoin="round"/>
<path d="M95.2891 430.84H275.707" stroke="#DCF1FE" stroke-width="4" stroke-linecap="round" stroke-linejoin="round"/>
<path d="M125.361 7.33789V158.588L20.1171 370.338C9.51346 388.812 3.95334 409.778 4.00029 431.111C4.04725 452.443 9.69962 473.384 20.3845 491.811C31.0693 510.238 46.4068 525.495 64.8423 536.037C83.2779 546.579 104.156 552.03 125.361 551.838H245.639C266.844 552.03 287.722 546.579 306.158 536.037C324.593 525.495 339.931 510.238 350.616 491.811C361.3 473.384 366.953 452.443 367 431.111C367.047 409.778 361.487 388.812 350.883 370.338L245.639 158.588V7.33789" stroke="#DCF1FE" stroke-width="8" stroke-linecap="round" stroke-linejoin="round"/>
</svg>
