<svg width="345" height="312" viewBox="0 0 345 312" fill="none" xmlns="http://www.w3.org/2000/svg">
<path fill-rule="evenodd" clip-rule="evenodd" d="M315.82 3.41963C318.887 2.04509 322.179 4.83602 321.325 8.08638L265.328 221.177C264.985 222.484 265.324 223.876 266.231 224.878L338.577 304.828C340.904 307.399 339.079 311.511 335.611 311.511H4.00742C1.79829 311.511 0.00740985 309.721 0.00740985 307.511V29.2713C0.00740985 26.1069 3.50773 24.1955 6.16981 25.9061L110.967 93.248C112.104 93.9785 113.532 94.0857 114.765 93.5331L315.82 3.41963Z" fill="#9FBBCA"/>
<path fill-rule="evenodd" clip-rule="evenodd" d="M279.386 46.4C282.453 45.0255 285.745 47.8164 284.891 51.0668L238.464 227.73C238.121 229.037 238.461 230.429 239.367 231.431L305.784 304.828C308.111 307.4 306.286 311.512 302.818 311.512H4.00739C1.79826 311.512 0.00738477 309.721 0.00738477 307.512V58.1769C0.00738477 55.0125 3.50766 53.1011 6.16975 54.8117L108.898 120.823C110.035 121.553 111.464 121.66 112.697 121.108L279.386 46.4Z" fill="white"/>
<path opacity="0.78" fill-rule="evenodd" clip-rule="evenodd" d="M242.941 89.3769C246.008 88.0023 249.3 90.7933 248.446 94.0436L211.592 234.288C211.249 235.595 211.588 236.987 212.495 237.989L272.979 304.827C275.306 307.399 273.481 311.511 270.013 311.511H4.00162C1.79249 311.511 0.00161427 309.721 0.00161427 307.511V87.0791C0.00161427 83.9147 3.50199 82.0033 6.16407 83.714L106.824 148.4C107.96 149.13 109.389 149.237 110.622 148.685L242.941 89.3769Z" fill="#9FBBCA"/>
<path opacity="0.3" fill-rule="evenodd" clip-rule="evenodd" d="M224.724 110.868C227.791 109.494 231.082 112.285 230.228 115.535L198.157 237.564C197.813 238.871 198.153 240.263 199.06 241.265L256.58 304.827C258.907 307.399 257.083 311.511 253.614 311.511H3.99967C1.79053 311.511 -0.0003306 309.72 -0.0003306 307.511V233.189C-0.0003306 231.989 0.537903 230.853 1.46604 230.093L5.56082 226.742C6.60589 225.886 7.14873 224.561 7.00423 223.218L-0.0003306 158.128V101.536C-0.0003306 98.3715 3.49991 96.4601 6.162 98.1706L105.786 162.185C106.923 162.916 108.351 163.023 109.584 162.47L224.724 110.868Z" fill="white"/>
<path opacity="0.8" fill-rule="evenodd" clip-rule="evenodd" d="M206.507 132.356C209.574 130.982 212.866 133.773 212.012 137.023L184.728 240.837C184.385 242.144 184.724 243.536 185.631 244.538L240.186 304.827C242.513 307.399 240.688 311.511 237.22 311.511H4.00454C1.7954 311.511 0.0045494 309.72 0.0045494 307.511V248.893C0.0045494 247.693 0.543251 246.557 1.47208 245.797L18.3564 231.987C19.4022 231.132 19.9455 229.806 19.801 228.463L8.3188 121.744C7.95929 118.403 11.6308 116.134 14.4582 117.951L104.758 175.974C105.895 176.704 107.323 176.811 108.556 176.259L206.507 132.356Z" fill="#9FBBCA"/>
</svg>
