<svg width="25" height="37" viewBox="0 0 25 37" fill="none" xmlns="http://www.w3.org/2000/svg">
<path d="M2.5 22.5H22.5" stroke="#CD1719" stroke-linecap="round" stroke-linejoin="round"/>
<path d="M6.5 28.5H18.5" stroke="#CD1719" stroke-linecap="round" stroke-linejoin="round"/>
<path d="M6.5 0.5H18.5" stroke="#031D5E" stroke-linecap="round" stroke-linejoin="round"/>
<path d="M8.52385 0.5V10.4999L1.56559 24.4998C0.864526 25.7212 0.496915 27.1074 0.50002 28.5178C0.503124 29.9282 0.876835 31.3127 1.58327 32.531C2.28971 33.7493 3.30376 34.758 4.52263 35.455C5.74151 36.152 7.12189 36.5124 8.52385 36.4997H16.4761C17.8781 36.5124 19.2585 36.152 20.4774 35.455C21.6962 34.758 22.7103 33.7493 23.4167 32.531C24.1232 31.3127 24.4969 29.9282 24.5 28.5178C24.5031 27.1074 24.1355 25.7212 23.4344 24.4998L16.4761 10.4999V0.5" stroke="#031D5E" stroke-linecap="round" stroke-linejoin="round"/>
</svg>
