<svg width="36" height="42" viewBox="0 0 36 42" fill="none" xmlns="http://www.w3.org/2000/svg">
<path d="M18.25 9.66797L20.5675 14.2758L25.75 15.0192L22 18.6038L22.885 23.668L18.25 21.2758L13.615 23.668L14.5 18.6038L10.75 15.0192L15.9325 14.2758L18.25 9.66797Z" stroke="#CD1719" stroke-width="1.5" stroke-linecap="round" stroke-linejoin="round"/>
<path d="M1.75863 7.28393L17.5192 0.824677C17.7641 0.72432 18.0387 0.725119 18.283 0.826897L33.7608 7.27557C34.0848 7.41057 34.3162 7.71292 34.3631 8.0608C37.0643 28.1026 24.9728 38.2209 18.2273 40.9456C18.014 41.0318 17.7773 41.0323 17.56 40.9567C1.18463 35.2548 -0.236731 17.0111 1.1592 8.03132C1.21195 7.69198 1.44086 7.41416 1.75863 7.28393Z" stroke="#031D5E" stroke-width="1.5" stroke-linecap="round"/>
</svg>
