<svg width="40" height="41" viewBox="0 0 40 41" fill="none" xmlns="http://www.w3.org/2000/svg">
<rect x="0.5" y="0.5" width="31.2388" height="37.209" rx="1.5" stroke="#031D5E"/>
<line x1="4.17969" y1="4.87305" x2="28.0603" y2="4.87305" stroke="#031D5E"/>
<line x1="4.17969" y1="9.05273" x2="28.0603" y2="9.05273" stroke="#031D5E"/>
<line x1="4.17969" y1="13.2305" x2="28.0603" y2="13.2305" stroke="#031D5E"/>
<line x1="4.17969" y1="22.1875" x2="19.7021" y2="22.1875" stroke="#031D5E"/>
<line x1="4.17969" y1="25.7695" x2="19.7021" y2="25.7695" stroke="#031D5E"/>
<line x1="4.17969" y1="30.5449" x2="19.7021" y2="30.5449" stroke="#031D5E"/>
<line x1="4.17969" y1="34.127" x2="19.7021" y2="34.127" stroke="#031D5E"/>
<path d="M27 38.4867V32.3377C27 31.8041 27.419 31.3645 27.952 31.3388L33.952 31.0504C34.5225 31.023 35 31.4781 35 32.0492V38.4867C35 39.3912 33.8947 39.831 33.2734 39.1737L31.7266 37.5378C31.3321 37.1205 30.6679 37.1205 30.2734 37.5378L28.7266 39.1737C28.1053 39.831 27 39.3912 27 38.4867Z" fill="white" stroke="#CD1719"/>
<circle cx="31.0451" cy="25.0744" r="8.45522" fill="white" stroke="#CD1719"/>
</svg>
