<svg width="49" height="59" viewBox="0 0 49 59" fill="none" xmlns="http://www.w3.org/2000/svg">
<path d="M31.7012 15.0996C31.9468 14.8558 32.3018 14.7614 32.6387 14.8477V14.8467C32.9306 14.9225 33.1689 15.1297 33.2891 15.4023L33.333 15.5234C33.405 15.7717 34.2704 18.8152 34.5146 22.626C34.7594 26.4461 34.3775 31.003 31.9854 34.2969C29.9865 37.0482 26.9031 38.5178 22.792 38.6475H22.7598C22.2322 38.6473 21.7974 38.2285 21.7803 37.6973C21.7628 37.1563 22.1881 36.7034 22.7295 36.6865C26.1727 36.5775 28.7621 35.3936 30.3955 33.1475C32.0257 30.9059 32.5606 27.8931 32.6064 25.0391C32.6523 22.1816 32.2082 19.4606 31.8574 17.7822L31.8115 17.5635L31.626 17.6885C29.4779 19.1392 27.0852 19.5572 24.8945 19.9365C21.923 20.4525 19.2769 20.9045 17.585 23.7803C14.8948 28.35 16.275 32.032 17.2783 33.7529L17.4014 33.9629L17.5342 33.7588C21.2152 28.1149 26.1494 24.2548 26.457 24.0176H26.458C26.8862 23.6867 27.5014 23.7666 27.833 24.1953C28.1636 24.6237 28.0847 25.2399 27.6562 25.5713C27.5981 25.6163 24.8981 27.7295 22.0586 31.042C19.222 34.3511 16.2289 38.8768 15.6123 43.7471C15.5495 44.2421 15.127 44.6044 14.6406 44.6045C14.5987 44.6045 14.5579 44.6023 14.5176 44.5967H14.5156C13.9785 44.5286 13.5981 44.038 13.666 43.501C14.0076 40.8048 14.9854 38.2343 16.2588 35.8916L16.3047 35.8086L16.248 35.7314C15.215 34.3144 12.122 29.193 15.8945 22.7852C18.0398 19.1393 21.3184 18.5657 24.5596 18.0039C27.1537 17.5545 29.6561 17.1237 31.7012 15.1006V15.0996Z" fill="#CD1719" stroke="white" stroke-width="0.3"/>
<path d="M21.9268 0.367188C22.3498 0.0274115 22.9673 0.0937148 23.3066 0.515625L27.4482 5.65723C27.611 5.85956 27.6871 6.11852 27.6592 6.37793C27.6312 6.63726 27.5025 6.87386 27.2998 7.03711L22.1572 11.1777C21.9757 11.3238 21.7584 11.3955 21.542 11.3955C21.255 11.3954 20.9708 11.2698 20.7773 11.0293C20.438 10.6071 20.5047 9.98948 20.9268 9.64941L23.7197 7.40039L24.0635 7.12305L23.6221 7.13281C12.7383 7.38265 3.43819 15.6829 2.24219 26.7891C1.19679 36.4986 6.52514 45.591 15.5 49.415C15.9987 49.6274 16.2307 50.204 16.0186 50.7021C15.8592 51.0753 15.4959 51.2988 15.1143 51.2988C14.9865 51.2988 14.8561 51.274 14.7314 51.2207H14.7305C4.9551 47.0556 -0.847194 37.1532 0.291992 26.5781C1.61782 14.2673 12.0878 5.11263 24.2129 5.15918L24.5283 5.16016L24.3301 4.91504L21.7783 1.74707C21.4382 1.32494 21.5048 0.707356 21.9268 0.367188Z" fill="#031D5E" stroke="white" stroke-width="0.3"/>
<path d="M32.042 7.50977C32.2483 7.00979 32.8229 6.77258 33.3232 6.97852V6.97754C43.0939 11.0182 49.1274 21.1928 47.9951 31.7178C46.6715 43.9982 36.2442 53.1363 24.1602 53.1377C24.149 53.1377 24.1367 53.1374 24.1211 53.1367C24.1066 53.1361 24.0881 53.1348 24.0693 53.1348H23.7559L23.9531 53.3789L26.5068 56.5488V56.5498C26.8254 56.9448 26.7875 57.5121 26.4336 57.8623L26.3584 57.9287C26.176 58.0743 25.959 58.1454 25.7432 58.1455C25.457 58.1455 25.1728 58.0211 24.9785 57.7803L20.8359 52.6387C20.6726 52.4357 20.5962 52.1765 20.624 51.918C20.6519 51.6594 20.7823 51.4223 20.9854 51.2588L26.1279 47.1182C26.551 46.7784 27.1678 46.844 27.5078 47.2666C27.8472 47.6895 27.7806 48.3057 27.3584 48.6465L24.5664 50.8945L24.2217 51.1719L24.6641 51.1611C35.5429 50.9065 44.8466 42.6127 46.0439 31.5078C47.0839 21.8422 41.5453 12.5023 32.5732 8.79199C32.0725 8.58436 31.835 8.01034 32.042 7.50977Z" fill="#031D5E" stroke="white" stroke-width="0.3"/>
</svg>
