<svg width="40" height="35" viewBox="0 0 40 35" fill="none" xmlns="http://www.w3.org/2000/svg">
<path d="M30.8632 34H6.54296C5.3219 34 4.33203 33.0101 4.33203 31.7891C4.33203 30.568 5.3219 29.5781 6.54296 29.5781H30.8632C32.0843 29.5781 33.0741 30.568 33.0741 31.7891C33.0741 33.0101 32.0843 34 30.8632 34Z" stroke="#031D5E" stroke-width="1.3" stroke-linecap="round"/>
<path d="M7.73828 29.0254V22.9457C7.82714 21.2878 8.27991 21.287 12.1601 21.2871" stroke="#031D5E" stroke-width="1.3" stroke-linecap="round"/>
<path d="M29.8477 29.0254V23.7053C29.8477 21.2871 28.899 21.2871 26.7472 21.2871L22.6621 21.2871" stroke="#031D5E" stroke-width="1.3" stroke-linecap="round"/>
<rect x="0.91071" y="6.1386" width="8.64919" height="26.9509" rx="4.32459" transform="rotate(-37.1891 0.91071 6.1386)" stroke="#031D5E" stroke-width="1.3" stroke-linecap="round"/>
<circle cx="6.63281" cy="6.91601" r="1.56093" stroke="#CD1719" stroke-width="1.3" stroke-linecap="round"/>
<circle cx="17.6875" cy="21.2871" r="1.56093" stroke="#CD1719" stroke-width="1.3" stroke-linecap="round"/>
<path d="M6.63281 2.49414H24.3203C25.5413 2.49414 26.5312 3.48401 26.5312 4.70507V8.02146C26.5312 9.24253 25.5413 10.2324 24.3203 10.2324H15.4765" stroke="#031D5E" stroke-width="1.3" stroke-linecap="round"/>
<path d="M26.5312 4.70508H30.4004" stroke="#031D5E" stroke-width="1.3" stroke-linecap="round"/>
<path d="M26.5312 8.02148H30.4004" stroke="#031D5E" stroke-width="1.3" stroke-linecap="round"/>
<circle cx="34.8223" cy="6.36327" r="4.32459" stroke="#031D5E" stroke-width="1.3" stroke-linecap="round"/>
<circle cx="34.8223" cy="6.36327" r="2.11366" stroke="#CD1719" stroke-width="1.3" stroke-linecap="round"/>
<path d="M32.6094 10.2324V12.0803C32.6094 12.6667 32.8423 13.229 33.2569 13.6437L34.8203 15.207M34.8203 15.207L36.3837 13.6437C36.7983 13.229 37.0312 12.6667 37.0312 12.0803V10.2324M34.8203 15.207V17.9707" stroke="#031D5E" stroke-width="1.3" stroke-linecap="round"/>
</svg>
