<svg width="41" height="37" viewBox="0 0 41 37" fill="none" xmlns="http://www.w3.org/2000/svg">
<path d="M6.3434 35C5.75582 35.413 4.98786 35.6411 4 35.5C1.2 35.1 0.5 33 0.5 32V2.5C0.5 1.39543 1.39543 0.5 2.5 0.5H10.2396C10.7294 0.5 11.2022 0.679757 11.5683 1.00518L14.9317 3.99482C15.2978 4.32024 15.7706 4.5 16.2604 4.5H31.5C32.6046 4.5 33.5 5.39543 33.5 6.5V9.5M6.3434 35C7.42126 34.2424 7.89213 32.8629 8 32V11.5C8 10.3954 8.89543 9.5 10 9.5H33.5M6.3434 35L37.9703 35.4698C39.0864 35.4864 40 34.5941 40 33.4779C40 29.092 40 18.534 40 11.4959C40 10.3913 39.1046 9.5 38 9.5H33.5" stroke="#031D5E"/>
<circle cx="24" cy="22.5" r="9" stroke="#CD1719"/>
<circle cx="24" cy="19.5" r="2" stroke="#CD1719"/>
<path d="M23.5 22.5H24.5C26.433 22.5 28 24.067 28 26V27.5H20V26C20 24.067 21.567 22.5 23.5 22.5Z" stroke="#CD1719"/>
</svg>
