<svg width="55" height="42" viewBox="0 0 55 42" fill="none" xmlns="http://www.w3.org/2000/svg">
<path d="M0.75 11.25L9.74518 20.2452C10.0716 20.5716 10.2677 21.0023 10.361 21.4544C10.746 23.3204 12.0427 26.528 15.0856 28.6382C15.1938 28.7132 15.2969 28.7969 15.39 28.89L26.9162 40.4162C27.1357 40.6357 27.4018 40.8075 27.7041 40.8785C29.2264 41.2358 31.3364 41.0091 30.25 37.75M30.25 37.75L22.75 30.25M30.25 37.75C32.0833 39.0833 35.25 39.25 35.25 35.75M35.25 35.75L26.25 26.75M35.25 35.75C37.0159 37.0744 38.0022 37.6192 38.8972 35.6636C39.1541 35.1024 39.0498 34.4496 38.7074 33.9361L38.25 33.25M29.25 24.25L38.25 33.25M38.25 33.25C39.7158 34.2272 42.614 32.3397 40.8791 28.9871C40.7974 28.8292 40.6863 28.6863 40.5606 28.5606L28.25 16.25M28.75 10.75L21.8914 9.83552C21.4744 9.77993 21.0856 9.59427 20.7802 9.30497L11.75 0.75" stroke="#031D5E" stroke-width="1.5" stroke-linecap="round"/>
<path d="M43.2505 0.75L34.2293 9.77124C33.9188 10.0818 33.5147 10.2814 33.0794 10.3395L26.96 11.1554C26.5013 11.2166 26.0779 11.4349 25.7622 11.7732L19.5879 18.3886C19.3663 18.626 19.2005 18.9123 19.1382 19.2309C18.7881 21.0233 19.0667 23.4463 22.4555 21.8915C22.6509 21.8019 22.828 21.6725 22.98 21.5205L28.25 16.25M40.75 28.25C41.7106 27.6096 43.8706 25.3391 45.1031 21.2613C45.2038 20.9282 45.3795 20.6205 45.6256 20.3744L54.25 11.75" stroke="#CD1719" stroke-width="1.5" stroke-linecap="round"/>
</svg>
