<svg width="37" height="54" viewBox="0 0 37 54" fill="none" xmlns="http://www.w3.org/2000/svg">
<path d="M20.6711 0.75C13.2105 11.7955 5.75 26.5227 5.75 37.5682C5.75 41.4741 7.32204 45.22 10.1203 47.9819C12.9185 50.7438 16.7137 52.2955 20.6711 52.2955C24.6284 52.2955 28.4236 50.7438 31.2218 47.9819C34.0201 45.22 35.5921 41.4741 35.5921 37.5682C35.5921 26.5227 28.1316 11.7955 20.6711 0.75Z" stroke="#031D5E" stroke-width="1.5" stroke-linecap="round" stroke-linejoin="round"/>
<path d="M9.75 13.75C5.25 20.4123 0.75 29.2955 0.75 35.9578C0.75 38.3137 1.69821 40.5732 3.38604 42.2391C5.07387 43.905 7.36305 44.8409 9.75 44.8409C12.1369 44.8409 14.4261 43.905 16.114 42.2391C17.8018 40.5732 18.75 38.3137 18.75 35.9578C18.75 29.2955 14.25 20.4123 9.75 13.75Z" fill="white" stroke="#DB1317" stroke-width="1.5" stroke-linecap="round" stroke-linejoin="round"/>
</svg>
