<svg width="34" height="34" viewBox="0 0 34 34" fill="none" xmlns="http://www.w3.org/2000/svg">
<mask id="path-1-inside-1_6024_8187" fill="white">
<rect x="16.1758" y="2.68359" width="8.94737" height="28.6026" rx="1" transform="rotate(30.1975 16.1758 2.68359)"/>
</mask>
<rect x="16.1758" y="2.68359" width="8.94737" height="28.6026" rx="1" transform="rotate(30.1975 16.1758 2.68359)" stroke="#CD1719" stroke-width="2.6" mask="url(#path-1-inside-1_6024_8187)"/>
<path d="M13.1797 10.2559L18.5929 13.4061" stroke="#CD1719" stroke-width="1.3" stroke-linecap="round"/>
<path d="M8.90625 17.6016L14.3195 20.7518" stroke="#CD1719" stroke-width="1.3" stroke-linecap="round"/>
<mask id="path-4-inside-2_6024_8187" fill="white">
<rect x="27.7539" y="10.7363" width="8.94737" height="28.6026" rx="1" transform="rotate(57.6971 27.7539 10.7363)"/>
</mask>
<rect x="27.7539" y="10.7363" width="8.94737" height="28.6026" rx="1" transform="rotate(57.6971 27.7539 10.7363)" fill="white" stroke="#CD1719" stroke-width="2.6" mask="url(#path-4-inside-2_6024_8187)"/>
<path d="M20.8086 16.5508L24.1556 21.8446" stroke="#CD1719" stroke-width="1.3" stroke-linecap="round"/>
<path d="M13.625 21.0938L16.972 26.3876" stroke="#CD1719" stroke-width="1.3" stroke-linecap="round"/>
<mask id="path-7-inside-3_6024_8187" fill="white">
<rect width="8.94737" height="34" rx="1"/>
</mask>
<rect width="8.94737" height="34" rx="1" fill="white" stroke="#031D5E" stroke-width="2.6" mask="url(#path-7-inside-3_6024_8187)"/>
<path d="M1.34375 8.72266H7.60691" stroke="#031D5E" stroke-width="1.3" stroke-linecap="round"/>
<path d="M1.34375 16.7773H7.60691" stroke="#031D5E" stroke-width="1.3" stroke-linecap="round"/>
<mask id="path-10-inside-4_6024_8187" fill="white">
<rect x="34" y="25.0527" width="8.94737" height="34" rx="1" transform="rotate(90 34 25.0527)"/>
</mask>
<rect x="34" y="25.0527" width="8.94737" height="34" rx="1" transform="rotate(90 34 25.0527)" fill="white" stroke="#031D5E" stroke-width="2.6" mask="url(#path-10-inside-4_6024_8187)"/>
<path d="M25.9492 25.9473V33.1052" stroke="#031D5E" stroke-width="1.3" stroke-linecap="round"/>
<path d="M17 25.9473V33.1052" stroke="#031D5E" stroke-width="1.3" stroke-linecap="round"/>
<path d="M8.94922 25.9473V33.1052" stroke="#031D5E" stroke-width="1.3" stroke-linecap="round"/>
<circle cx="4.92023" cy="29.9749" r="0.692105" stroke="#CD1719" stroke-width="1.3"/>
</svg>
