<svg width="37" height="43" viewBox="0 0 37 43" fill="none" xmlns="http://www.w3.org/2000/svg">
<path d="M17.75 0.75H23.3764C24.2039 0.75 24.946 1.25966 25.2431 2.03204L27.25 7.25V18.25C27.25 19.3546 26.3546 20.25 25.25 20.25H10.25C9.14543 20.25 8.25 19.3546 8.25 18.25V7.25L10.2569 2.03204C10.554 1.25966 11.2961 0.75 12.1236 0.75H17.75ZM8.25 7.25H17.75M27.25 7.25H17.75M17.75 7.25V0.75M14.25 10.25H21.75" stroke="#CD1719" stroke-width="1.5" stroke-linecap="round"/>
<path d="M23.75 32.2502L17.6353 31.6665L12.9436 28.1275C12.815 28.0305 12.6764 27.9451 12.5215 27.9006C11.2902 27.5467 9.00415 28.0737 5.25 29.4815L1.93772 30.9536C1.21546 31.2746 0.75 31.9908 0.75 32.7812V38.8052C0.75 40.3902 2.50578 41.3454 3.8365 40.4843L8.29087 37.6021C8.88523 37.2175 9.63861 37.1758 10.2718 37.4924L17.2875 41.0002C17.8884 41.3007 18.6001 41.2794 19.1819 40.9434L35.0405 31.7875C35.1797 31.7071 35.3133 31.6137 35.412 31.4869C36.2197 30.4496 35.7196 28.5839 33.9007 28.471C33.58 28.4511 33.2706 28.5732 33.0015 28.7488L31.8789 29.4815L24.5721 34.2502M31.8789 29.4815C31.8359 28.6481 31.25 26.7503 28.25 28.4815M28.25 28.4815L23.75 32.2502M28.25 28.4815C28.25 28.4815 27.7727 26.2861 25.8857 26.9311C25.7954 26.962 25.7085 27.0055 25.6259 27.0532L17.6353 31.6665M23.75 32.2502C25.1748 32.8835 24.7951 35.0205 23.4679 35.4313C23.3261 35.4752 23.1802 35.4766 23.0321 35.4661C21.5284 35.3596 12.75 34.7272 12.75 34.4815" stroke="#031D5E" stroke-width="1.5" stroke-linecap="round"/>
</svg>
