<svg width="61" height="56" viewBox="0 0 61 56" fill="none" xmlns="http://www.w3.org/2000/svg">
<path d="M11.25 19.75C14.2876 19.75 16.75 17.2876 16.75 14.25C16.75 11.2124 14.2876 8.75 11.25 8.75C8.21243 8.75 5.75 11.2124 5.75 14.25C5.75 17.2876 8.21243 19.75 11.25 19.75Z" stroke="#031D5E" stroke-width="1.5" stroke-linecap="round" stroke-linejoin="round"/>
<path d="M48.25 19.75C45.2124 19.75 42.75 17.2876 42.75 14.25C42.75 11.2124 45.2124 8.75 48.25 8.75C51.2876 8.75 53.75 11.2124 53.75 14.25C53.75 17.2876 51.2876 19.75 48.25 19.75Z" stroke="#031D5E" stroke-width="1.5" stroke-linecap="round" stroke-linejoin="round"/>
<path d="M0.75 31.75C0.75 26.95 6.25 23.75 11.75 23.75" stroke="#031D5E" stroke-width="1.5" stroke-linecap="round" stroke-linejoin="round"/>
<path d="M59.75 31.75C59.75 26.95 54.25 23.75 48.75 23.75" stroke="#031D5E" stroke-width="1.5" stroke-linecap="round" stroke-linejoin="round"/>
<path d="M25.14 27.3516V35.6815L18.1984 48.1764C17.8725 48.8455 17.72 49.5858 17.7549 50.3293C17.7897 51.0727 18.0108 51.7955 18.3977 52.4312C18.7847 53.067 19.3252 53.5953 19.9696 53.9677C20.614 54.3402 21.3416 54.5447 22.0857 54.5626H39.3008C40.0449 54.5447 40.7725 54.3402 41.4169 53.9677C42.0613 53.5953 42.6018 53.067 42.9887 52.4312C43.3757 51.7955 43.5968 51.0727 43.6316 50.3293C43.6665 49.5858 43.514 48.8455 43.1881 48.1764L36.2465 35.6815V27.3516" stroke="#031D5E" stroke-width="1.5" stroke-linecap="round" stroke-linejoin="round"/>
<path d="M22.3633 46.7871H39.0231" stroke="#DB1317" stroke-width="1.5" stroke-linecap="round" stroke-linejoin="round"/>
<path d="M21.3516 26.75H39.3516" stroke="#031D5E" stroke-width="1.5" stroke-linecap="round" stroke-linejoin="round"/>
<path d="M30.25 11.75C33.2876 11.75 35.75 9.28757 35.75 6.25C35.75 3.21243 33.2876 0.75 30.25 0.75C27.2124 0.75 24.75 3.21243 24.75 6.25C24.75 9.28757 27.2124 11.75 30.25 11.75Z" stroke="#DB1317" stroke-width="1.5" stroke-linecap="round" stroke-linejoin="round"/>
<path d="M17.75 23.75C17.75 19.35 22.25 15.75 29.75 15.75C37.25 15.75 41.75 19.35 41.75 23.75" stroke="#DB1317" stroke-width="1.5" stroke-linecap="round" stroke-linejoin="round"/>
</svg>
