<svg width="55" height="53" viewBox="0 0 55 53" fill="none" xmlns="http://www.w3.org/2000/svg">
<path d="M0.5 21.5V1.5C0.5 0.947715 0.947715 0.5 1.5 0.5H30C30.5523 0.5 31 0.947715 31 1.5V21.5C31 22.0523 30.5523 22.5 30 22.5H22H15.5C14.9477 22.5 14.5 22.9477 14.5 23.5V26.7068C14.5 27.58 13.4594 28.0337 12.8195 27.4396L7.78776 22.7672C7.6028 22.5955 7.35972 22.5 7.10731 22.5H1.5C0.947715 22.5 0.5 22.0523 0.5 21.5Z" stroke="#031D5E"/>
<path d="M54.5 30.5L54.4996 10.5C54.4996 9.9477 54.0519 9.5 53.4996 9.5H27C26.4477 9.5 26 9.94772 26 10.5V30.5C26 31.0523 26.4477 31.5 27 31.5H28.4996H34.9996C35.5519 31.5 35.9996 31.9477 35.9996 32.5V35.7068C35.9996 36.58 37.0402 37.0337 37.68 36.4396L42.7118 31.7672C42.8968 31.5955 43.1399 31.5 43.3923 31.5H53.5C54.0523 31.5 54.5 31.0523 54.5 30.5Z" fill="white" stroke="#031D5E"/>
<path d="M5.99949 45C3.59873 45 2.33025 43.5 1.99723 43C-0.504217 38.5 1.99962 34.5 5.99949 34C7.99808 33.7502 8.75446 34.2716 10.0004 34.2128M5.99949 45C8.47475 45 13.6695 43.9795 18.2198 46.989C19.2811 47.6909 20.9995 47.0152 20.9995 45.7429V36.5M5.99949 45V50.9368C5.99949 51.2974 6.13554 51.6531 6.4233 51.8704C7.68813 52.8255 9.08458 52.6186 9.79214 51.795C9.94655 51.6153 10.0004 51.3754 10.0004 51.1384V34.2128M10.0004 34.2128C13.4041 34.0524 16.1396 33.0158 18.0931 31.8548C19.1869 31.2047 20.9995 31.9852 20.9995 33.2577V36.5M20.9995 36.5C22.1665 36.5 24.4981 36.6 24.4981 39C24.4981 42 21.9995 42.1667 20.9995 42" stroke="#031D5E"/>
<path d="M27.5 36.0002L31 35.0625" stroke="#CD1719" stroke-linecap="round"/>
<path d="M27.5 39.5H31.5" stroke="#CD1719" stroke-linecap="round"/>
<path d="M27 42.5L31 44" stroke="#CD1719" stroke-linecap="round"/>
<path d="M14.5 5L11 18.0623" stroke="#CD1719" stroke-linecap="round"/>
<path d="M20 5L16.5 18.0623" stroke="#CD1719" stroke-linecap="round"/>
<path d="M9.5 9H23" stroke="#CD1719" stroke-linecap="round"/>
<path d="M8.5 14.5H22" stroke="#CD1719" stroke-linecap="round"/>
<path d="M36 18.9993V17.4993C36 16.947 35.5523 16.4993 35 16.4993H33.5C32.9477 16.4993 32.5 16.947 32.5 17.4993V26.4993C32.5 27.0516 32.9477 27.4993 33.5 27.4993H35C35.5523 27.4993 36 27.0516 36 26.4993V25.9993M36 18.9993C37.3709 18.5424 39.9111 16.8325 40.0329 13.4882C40.0529 12.9406 40.4482 12.431 40.9835 12.5482C42.1438 12.802 43.2525 13.8278 42.4966 16.5814C42.3077 17.2695 42.7864 17.9993 43.5 17.9993H45.5C46.0523 17.9993 46.5 18.447 46.5 18.9993V26.4993C46.5 27.0516 46.0523 27.4993 45.5 27.4993H38.777C38.5957 27.4993 38.4179 27.4501 38.2625 27.3568L36 25.9993M36 18.9993V25.9993" stroke="#CD1719"/>
</svg>
