<svg width="41" height="31" viewBox="0 0 41 31" fill="none" xmlns="http://www.w3.org/2000/svg">
<path d="M3.54297 19.75C4.32868 14.8286 8.61083 4.74946 19.4537 3.80454C30.2965 2.85963 36.543 14.4339 36.543 19.75" stroke="#031D5E" stroke-width="1.5" stroke-linecap="round"/>
<path d="M14.7078 3.31825L16.2033 18.9427C16.3015 19.9688 17.1636 20.75 18.1944 20.75H22.4442C23.4994 20.75 24.3731 19.9289 24.4403 18.8759L25.467 2.78685C25.5137 2.05422 25.1572 1.33228 24.4536 1.12291C22.2222 0.458947 18.7377 0.797277 16.2413 1.24379C15.261 1.41913 14.6129 2.32693 14.7078 3.31825Z" fill="white" stroke="#CD1719" stroke-width="1.5" stroke-linecap="round"/>
<path d="M2.94303 19.75H37.1264C38.1605 19.75 39.024 20.5383 39.1181 21.5681L39.3407 24.0054C39.4487 25.1889 38.5071 26.205 37.3188 26.187L30.0884 26.078L28.3154 28.8325C27.9473 29.4044 27.3138 29.75 26.6336 29.75H13.4988C12.7934 29.75 12.1402 29.3785 11.7797 28.7722L9.99751 25.775L2.72046 25.6652C1.549 25.6475 0.643535 24.6312 0.760637 23.4655L0.95305 21.5501C1.05572 20.5281 1.91588 19.75 2.94303 19.75Z" fill="white"/>
<path d="M30.0884 26.078L9.99751 25.775L2.72046 25.6652C1.549 25.6475 0.643535 24.6312 0.760637 23.4655L0.95305 21.5501C1.05572 20.5281 1.91588 19.75 2.94303 19.75H37.1264C38.1605 19.75 39.024 20.5383 39.1181 21.5681L39.3407 24.0054C39.4487 25.1889 38.5071 26.205 37.3188 26.187L30.0884 26.078ZM9.99751 25.775L11.7797 28.7722C12.1402 29.3785 12.7934 29.75 13.4988 29.75H26.6336C27.3138 29.75 27.9473 29.4044 28.3154 28.8325L30.0884 26.078" stroke="#031D5E" stroke-width="1.5" stroke-linecap="round"/>
</svg>
