<svg width="39" height="32" viewBox="0 0 39 32" fill="none" xmlns="http://www.w3.org/2000/svg">
<path d="M33.8571 10.8007C33.6164 5.76144 27.7737 3.95524 23.5141 3.52289C22.6733 3.43755 22.2896 4.48514 22.8826 5.08726C25.692 7.93981 28.3812 12.5685 26.349 18.8192C26.2324 19.1777 25.8923 19.4144 25.5152 19.4144H24.1802C23.4559 19.4144 23.0288 20.227 23.4395 20.8236L29.9884 30.3369C30.3456 30.8558 31.1119 30.8561 31.4695 30.3374L38.0281 20.8241C38.4394 20.2275 38.0124 19.4144 37.2878 19.4144H34.7564C34.2598 19.4144 33.8571 19.0118 33.8571 18.5151V10.8007Z" fill="white" stroke="#CD1719"/>
<circle cx="14.6635" cy="14.6635" r="14.1635" fill="white" stroke="#031D5E"/>
<circle cx="14.6668" cy="14.6629" r="9.79567" stroke="#031D5E"/>
</svg>
