<svg width="38" height="38" viewBox="0 0 38 38" fill="none" xmlns="http://www.w3.org/2000/svg">
<path d="M12.668 26.918L19.0013 33.2513L25.3346 26.918" stroke="#CD1719" stroke-width="1.5" stroke-linecap="round" stroke-linejoin="round"/>
<path d="M19 19V33.25" stroke="#CD1719" stroke-width="1.5" stroke-linecap="round" stroke-linejoin="round"/>
<path d="M33.0612 28.6414C34.4377 27.6734 35.47 26.292 36.0082 24.6976C36.5464 23.1031 36.5626 21.3787 36.0543 19.7745C35.546 18.1703 34.5398 16.7697 33.1816 15.7761C31.8234 14.7826 30.184 14.2476 28.5012 14.2489H26.5062C26.03 12.393 25.139 10.6694 23.9002 9.20771C22.6614 7.74603 21.1072 6.58441 19.3546 5.81031C17.6019 5.03621 15.6965 4.66979 13.7818 4.73865C11.867 4.80751 9.99282 5.30985 8.3003 6.20784C6.60778 7.10584 5.14103 8.37609 4.01047 9.92298C2.87991 11.4699 2.11501 13.2531 1.77334 15.1384C1.43167 17.0236 1.52214 18.9619 2.03794 20.8071C2.55375 22.6524 3.48144 24.3566 4.75118 25.7914" stroke="#031D5E" stroke-width="1.5" stroke-linecap="round" stroke-linejoin="round"/>
</svg>
