<svg width="49" height="49" viewBox="0 0 49 49" fill="none" xmlns="http://www.w3.org/2000/svg">
<path d="M26.5417 38.7917C17.521 38.7917 10.2083 31.479 10.2083 22.4583C10.2083 13.4377 17.521 6.125 26.5417 6.125C35.5623 6.125 42.875 13.4377 42.875 22.4583C42.875 31.479 35.5623 38.7917 26.5417 38.7917Z" stroke="#031D5E" stroke-linecap="round" stroke-linejoin="round"/>
<path d="M6.12656 42.8754L15.0078 33.9941" stroke="#031D5E" stroke-linecap="round" stroke-linejoin="round"/>
<path d="M16 22C16 22 20 14 27 14C34 14 38 22 38 22C38 22 34 30 27 30C20 30 16 22 16 22Z" stroke="#CD1719" stroke-linecap="round" stroke-linejoin="round"/>
<path d="M27 25C28.6569 25 30 23.6569 30 22C30 20.3431 28.6569 19 27 19C25.3431 19 24 20.3431 24 22C24 23.6569 25.3431 25 27 25Z" stroke="#CD1719" stroke-linecap="round" stroke-linejoin="round"/>
</svg>
