<svg width="46" height="53" viewBox="0 0 46 53" fill="none" xmlns="http://www.w3.org/2000/svg">
<path d="M22.6071 35.3568C27.6368 35.3568 31.7142 31.2794 31.7142 26.2497C31.7142 21.22 27.6368 17.1426 22.6071 17.1426C17.5774 17.1426 13.5 21.22 13.5 26.2497C13.5 31.2794 17.5774 35.3568 22.6071 35.3568Z" stroke="#DB1317" stroke-width="1.5" stroke-linecap="round" stroke-linejoin="round"/>
<path d="M22.6094 0.75V8.0357" stroke="#132B68" stroke-width="1.5" stroke-linecap="round" stroke-linejoin="round"/>
<path d="M10.4047 38.4531L5.30469 43.5531" stroke="#132B68" stroke-width="1.5" stroke-linecap="round" stroke-linejoin="round"/>
<path d="M39.9125 43.5531L34.8125 38.4531" stroke="#132B68" stroke-width="1.5" stroke-linecap="round" stroke-linejoin="round"/>
<path d="M22.6071 48.1068C34.6784 48.1068 44.4642 38.321 44.4642 26.2497C44.4642 14.1783 34.6784 4.39258 22.6071 4.39258C10.5358 4.39258 0.75 14.1783 0.75 26.2497C0.75 38.321 10.5358 48.1068 22.6071 48.1068Z" stroke="#132B68" stroke-width="1.5" stroke-linecap="round" stroke-linejoin="round"/>
<path d="M22.6094 44.4648V51.7505" stroke="#DB1317" stroke-width="1.5" stroke-linecap="round" stroke-linejoin="round"/>
<path d="M39.9125 8.94727L34.8125 14.0473" stroke="#DB1317" stroke-width="1.5" stroke-linecap="round" stroke-linejoin="round"/>
<path d="M10.4047 14.0473L5.30469 8.94727" stroke="#DB1317" stroke-width="1.5" stroke-linecap="round" stroke-linejoin="round"/>
</svg>
