<svg width="36" height="53" viewBox="0 0 36 53" fill="none" xmlns="http://www.w3.org/2000/svg">
<path d="M8.75 0.75H26.75" stroke="#031D5E" stroke-width="1.5" stroke-linecap="round" stroke-linejoin="round"/>
<path d="M3.66797 32.416H31.8324" stroke="#DB1317" stroke-width="1.5" stroke-linecap="round" stroke-linejoin="round"/>
<path d="M9.30078 40.916H26.1994" stroke="#DB1317" stroke-width="1.5" stroke-linecap="round" stroke-linejoin="round"/>
<path d="M12.1171 1.25V15.4167L2.25959 35.25C1.26641 36.9804 0.745629 38.9441 0.750028 40.9422C0.754426 42.9403 1.28385 44.9017 2.28463 46.6277C3.28542 48.3536 4.72199 49.7827 6.44873 50.77C8.17548 51.7574 10.131 52.268 12.1171 52.25H23.3829C25.369 52.268 27.3245 51.7574 29.0513 50.77C30.778 49.7827 32.2146 48.3536 33.2154 46.6277C34.2162 44.9017 34.7456 42.9403 34.75 40.9422C34.7544 38.9441 34.2336 36.9804 33.2404 35.25L23.3829 15.4167V1.25" stroke="#031D5E" stroke-width="1.5" stroke-linecap="round" stroke-linejoin="round"/>
</svg>
