<svg width="32" height="36" viewBox="0 0 32 36" fill="none" xmlns="http://www.w3.org/2000/svg">
<path d="M2.03418 13.873C15.7546 19.2671 6.39976 21.6414 9.51803 27.0355C10.7008 29.0816 13.8836 28.2342 14.5073 25.8368C15.1309 23.4395 11.1395 18.2851 15.1309 16.8467C18.2492 15.7229 15.1392 23.8974 17.6255 25.2375C18.9177 25.9339 19.8707 26.4362 21.3675 24.0388C22.8642 21.6414 19.1843 20.1434 20.7438 18.6447C22.6148 16.8467 30.0986 20.6043 30.0986 17.6076" stroke="#CD1719" stroke-width="1.5" stroke-linecap="round"/>
<path d="M9.05251 3.43421C6.71381 3.73246 1.78127 6.11842 0.760742 13.2763L4.89435 33.1571C5.08726 34.0849 5.90482 34.75 6.85247 34.75H25.2366C26.2058 34.75 27.0355 34.0551 27.2056 33.1009L30.7387 13.2763C30.9513 10.6915 29.7181 5.16404 23.0847 3.73246M0.760742 13.2763H30.7387M9.05251 3.43421V2.75C9.05251 1.64543 9.94794 0.75 11.0525 0.75H21.0847C22.1893 0.75 23.0847 1.64543 23.0847 2.75V4.11842C23.0847 5.22299 22.1893 6.11842 21.0847 6.11842H11.0525C9.94794 6.11842 9.05251 5.22299 9.05251 4.11842V3.43421Z" stroke="#031D5E" stroke-width="1.5"/>
</svg>
