<svg width="32" height="32" viewBox="0 0 32 32" fill="none" xmlns="http://www.w3.org/2000/svg">
<mask id="mask0_4030_3261" style="mask-type:alpha" maskUnits="userSpaceOnUse" x="0" y="0" width="32" height="32">
<circle cx="16" cy="16" r="16" fill="#D9D9D9"/>
</mask>
<g mask="url(#mask0_4030_3261)">
<path d="M7.27798 23.7554C6.88696 22.9733 3.07768 23.0536 0.914199 23.2103C0.757365 23.2216 0.6773 23.4017 0.771647 23.5275L2.03925 25.2176C2.08088 25.2731 2.14709 25.3032 2.21614 25.2967C4.14116 25.1135 7.68387 24.5671 7.27798 23.7554Z" stroke="#031D5E" stroke-linecap="round"/>
<path d="M5.7234 3.06871C9.34364 2.72392 16.791 1.82748 17.6185 1M4.17188 4.62024C8.30929 4.62024 17.515 3.99962 21.2387 1.51718" stroke="#031D5E" stroke-linecap="round"/>
<path d="M12 11L30.6184 16.5888" stroke="#031D5E" stroke-linecap="round"/>
<path d="M2.61868 6.17102C6.92849 6.17102 17.2031 5.44697 23.8229 2.55078M0.549978 8.7569C5.20457 8.7569 16.6859 7.82598 25.3744 4.10231M-0.484375 11.3428C2.32916 11.6065 7.16955 11.6551 12.445 10.9258C17.5133 10.2251 22.9832 8.80646 27.4432 6.17102" stroke="#CD1719" stroke-linecap="round"/>
<path d="M29.5132 9.27539L24.3458 11.1544C24.1697 11.2185 24.1704 11.4677 24.3468 11.5307L31.0647 13.93" stroke="#031D5E" stroke-linecap="round"/>
<path d="M-1 14.4472C5.20612 13.93 20.2042 14.1369 30.5478 19.1018" stroke="#CD1719" stroke-linecap="round"/>
<path d="M-1 15.998C5.20612 15.8256 20.1008 16.7221 30.0306 21.687M-1 18.0667C4.86133 17.7219 19.0664 18.377 28.9962 23.7556M-0.482824 19.6182C4.10255 19.2785 14.9116 19.7085 21.9565 24.0725C22.0926 24.1568 22.0753 24.3573 21.9277 24.4193C18.1439 26.0112 10.1353 28.9274 5.72329 28.9274" stroke="#CD1719" stroke-linecap="round"/>
<path d="M0.0351562 21.1699C3.483 21.3423 11.413 22.1008 15.5504 23.7558C19.6879 25.4108 9.68912 26.8589 4.17257 27.376" stroke="#CD1719" stroke-linecap="round"/>
<path d="M28.4792 24.2734C26.0657 24.7906 20.3078 26.549 16.5842 29.4452C12.8605 32.3414 8.48173 30.6519 6.75781 29.4452M13.9983 30.9967C16.067 31.3415 21.3422 31.1002 25.8933 27.3765" stroke="#031D5E" stroke-linecap="round"/>
</g>
</svg>
