<svg width="26" height="30" viewBox="0 0 26 30" fill="none" xmlns="http://www.w3.org/2000/svg">
<path d="M1.75781 11.75C12.5134 16.2715 5.18003 18.2617 7.62448 22.7833C8.55168 24.4983 11.0467 23.788 11.5356 21.7785C12.0245 19.7689 8.89559 15.4483 12.0245 14.2426C14.4689 13.3006 12.0309 20.1528 13.98 21.2761C14.993 21.8598 15.74 22.2809 16.9134 20.2713C18.0867 18.2617 15.202 17.006 16.4245 15.7498C17.8911 14.2426 23.7578 17.3924 23.7578 14.8804" stroke="#CD1719" stroke-width="1.5" stroke-linecap="round"/>
<path d="M0.757812 11.25L3.94315 27.6317C4.12589 28.5715 4.949 29.25 5.90638 29.25H19.5636C20.5412 29.25 21.3756 28.5432 21.5363 27.5788L24.2578 11.25M0.757812 11.25C1.55781 5.25 5.42448 3.25 7.25781 3M0.757812 11.25H24.2578M24.2578 11.25C24.4245 9.08333 23.4578 4.45 18.2578 3.25M18.2578 3.25V2.75C18.2578 1.64543 17.3624 0.75 16.2578 0.75H9.25781C8.15324 0.75 7.25781 1.64543 7.25781 2.75V3M18.2578 3.25C18.2578 4.35457 17.3624 5.25 16.2578 5.25H9.25781C8.15324 5.25 7.25781 4.35457 7.25781 3.25V3" stroke="#031D5E" stroke-width="1.5"/>
</svg>
