<svg width="27" height="30" viewBox="0 0 27 30" fill="none" xmlns="http://www.w3.org/2000/svg">
<path d="M5.25 3.25H16.4216C16.952 3.25 17.4607 3.46071 17.8358 3.83579L25.6642 11.6642C26.0393 12.0393 26.25 12.548 26.25 13.0784V27.25C26.25 28.3546 25.3546 29.25 24.25 29.25H2.75C1.64543 29.25 0.75 28.3546 0.75 27.25V5.25C0.75 4.14543 1.64543 3.25 2.75 3.25H5.25ZM5.25 3.25V2.75C5.25 1.64543 6.14543 0.75 7.25 0.75H10.25C11.3546 0.75 12.25 1.64543 12.25 2.75" stroke="#031D5E" stroke-width="1.5"/>
<path d="M19.0035 15.1074L15.6097 11.9964C14.8685 11.317 14.8433 10.1567 15.5543 9.4457C16.2229 8.7771 17.2995 8.7537 17.9965 9.39264L21.3903 12.5036C22.1315 13.183 22.1567 14.3433 21.4457 15.0543C20.7771 15.7229 19.7005 15.7463 19.0035 15.1074Z" stroke="#CD1719" stroke-width="1.5"/>
</svg>
