<svg width="32" height="31" viewBox="0 0 32 31" fill="none" xmlns="http://www.w3.org/2000/svg">
<path d="M15.4277 17.9316C15.5368 17.6186 15.9798 17.6187 16.0889 17.9316L18.5752 25.0957L18.584 25.1201L18.5938 25.1426L18.6475 25.2656L18.7871 25.623C19.5799 27.6565 18.0801 29.8514 15.8975 29.8516H15.6191C13.5045 29.8516 12.0308 27.7918 12.6611 25.8145L12.7285 25.623L12.8682 25.2656C12.8821 25.23 12.8946 25.2046 12.9238 25.1377L12.9336 25.1143L12.9424 25.0908L15.4277 17.9326V17.9316Z" stroke="#031D5E" stroke-width="1.3"/>
<path d="M13.1182 17.6924C13.4135 17.5406 13.7344 17.8474 13.5967 18.1494L10.4512 25.0488L10.4404 25.0713L10.4316 25.0947L10.3857 25.2217L10.2402 25.5762C9.41013 27.5948 6.8098 28.1472 5.23047 26.6406L5.0293 26.4492C3.49934 24.9895 3.85481 22.4819 5.67578 21.4863L5.85645 21.3945L6.2041 21.2324C6.23879 21.2162 6.26563 21.206 6.33301 21.1777L6.35645 21.168L6.37891 21.1562L13.1182 17.6924Z" stroke="#031D5E" stroke-width="1.3"/>
<path d="M0.662109 15.6416C0.740099 13.5285 2.85295 12.1312 4.80566 12.834L4.99414 12.9092L5.3457 13.0615H5.34668C5.38169 13.0767 5.40696 13.0904 5.47266 13.1221L5.49512 13.1328L5.51855 13.1416L12.5801 15.8896C12.8895 16.01 12.8731 16.4536 12.5557 16.5508L5.30566 18.7715L5.28125 18.7783L5.25781 18.7871L5.13281 18.8369L4.77051 18.9629C2.7093 19.6799 0.572206 18.1009 0.652344 15.9199L0.662109 15.6416Z" stroke="#031D5E" stroke-width="1.3"/>
<path d="M4.49316 5.68164C5.90519 4.10749 8.42268 4.3851 9.47363 6.1748L9.57031 6.35254L9.74316 6.69531C9.76043 6.72949 9.77147 6.75579 9.80176 6.82227L9.8125 6.8457L9.82422 6.86719L13.4941 13.4971C13.6549 13.7876 13.3579 14.1186 13.0518 13.9902L6.05859 11.0566L6.03613 11.0479L6.0127 11.0391L5.88477 10.9971H5.88379L5.52539 10.8623C3.48233 10.0946 2.85033 7.51353 4.30762 5.88867L4.49316 5.68164Z" stroke="#031D5E" stroke-width="1.3"/>
<path d="M15.6182 0.650391H15.8965C18.0113 0.650391 19.4854 2.70996 18.8545 4.6875L18.7871 4.87793L18.6475 5.23535C18.6336 5.27099 18.621 5.29648 18.5918 5.36328L18.582 5.38672L18.5732 5.41113L16.0879 12.5693C15.9788 12.8826 15.5357 12.8826 15.4268 12.5693L12.9404 5.40527L12.9326 5.38184L12.9219 5.3584L12.8682 5.23535L12.7285 4.87793C11.9359 2.84451 13.4356 0.65062 15.6182 0.650391Z" stroke="#031D5E" stroke-width="1.3"/>
<path d="M21.7412 6.39941C22.693 4.4354 25.3222 4.04246 26.8066 5.64258L26.9951 5.84668C28.4796 7.44705 27.891 10.0391 25.8613 10.8408L25.5049 10.9824H25.5039C25.4686 10.9963 25.4414 11.0045 25.373 11.0283L25.3486 11.0371L25.3252 11.0469L18.3877 14.0928H18.3867C18.0829 14.2258 17.782 13.9013 17.9375 13.6084L21.499 6.91309L21.5107 6.8916L21.5205 6.86816C21.5538 6.7921 21.5577 6.77927 21.5742 6.74512L21.7412 6.39941Z" stroke="#031D5E" stroke-width="1.3"/>
<path d="M26.4453 12.874C28.4729 12.0669 30.6773 13.5501 30.6934 15.7324L30.6953 16.0107C30.7104 18.1254 28.6616 19.6146 26.6797 18.998L26.4883 18.9316L26.1299 18.7949C26.0941 18.7813 26.0682 18.769 26.001 18.7402L25.9785 18.7305L25.9541 18.7217L18.7783 16.2881C18.464 16.1815 18.4608 15.7382 18.7734 15.627L25.9199 13.0889L25.9434 13.0811L25.9658 13.0703L26.0889 13.0156L26.4453 12.873V12.874Z" stroke="#031D5E" stroke-width="1.3"/>
<path d="M17.5645 18.1787C17.3988 17.8911 17.6889 17.5558 17.9971 17.6787L25.04 20.4912L25.0625 20.501L25.0869 20.5078C25.166 20.5326 25.1792 20.5351 25.2148 20.5479L25.5762 20.6768C27.6322 21.4094 28.3082 23.9793 26.8789 25.6289L26.6973 25.8398C25.2676 27.4894 22.6259 27.1856 21.6084 25.2549H21.6094L21.4307 24.916L21.4297 24.915C21.4119 24.8813 21.4005 24.8548 21.3691 24.7891L21.3584 24.7666L21.3457 24.7441L17.5645 18.1787Z" stroke="#031D5E" stroke-width="1.3"/>
<circle cx="16" cy="16" r="2.35" fill="white" stroke="#CD1719" stroke-width="1.3"/>
</svg>
