<svg width="28" height="42" viewBox="0 0 28 42" fill="none" xmlns="http://www.w3.org/2000/svg">
<path d="M3.18867 16.1678C5.60064 12.2133 8.08115 11.3886 9 11.2266H19C28.734 13.6576 27.1361 33.6714 27.4807 36.5887C27.7564 38.9225 25.0113 40.4784 23.6043 40.9646C18.9526 40.9916 8.75343 41.0294 5.16992 40.9646C1.58642 40.8997 0.57569 38.0203 0.518266 36.5887C0.40341 31.4294 0.776692 20.1223 3.18867 16.1678Z" stroke="#0D1387"/>
<rect x="8" y="5.38086" width="12" height="5.83333" rx="0.5" stroke="#0D1387"/>
<path d="M10.5 0.5H17.5C18.3284 0.5 19 1.17157 19 2V5.35742H9V2L9.00781 1.84668C9.08461 1.09028 9.72334 0.5 10.5 0.5Z" stroke="#0D1387"/>
<path d="M11.4697 22.4512H4.89418C2.36919 29.5064 3.8421 35.1527 4.89418 37.094H20.5V30.2718C15.5202 29.2734 12.4048 24.6421 11.4697 22.4512Z" stroke="#CD1719"/>
<path d="M15.1693 14.2115C16.0515 13.7765 17.242 13.9457 18.5168 14.7536C19.7806 15.5547 21.0405 16.9377 21.9652 18.7252C22.8898 20.5126 23.2821 22.3234 23.1922 23.7917C23.1015 25.2727 22.5343 26.3084 21.6521 26.7433C20.7699 27.1781 19.5793 27.009 18.3046 26.2011C17.0408 25.4001 15.7818 24.0166 14.8571 22.2292C13.9324 20.4417 13.5393 18.6314 13.6292 17.1631C13.7198 15.682 14.2872 14.6465 15.1693 14.2115Z" stroke="#CD1719"/>
</svg>
