<svg width="42" height="44" viewBox="0 0 42 44" fill="none" xmlns="http://www.w3.org/2000/svg">
<path d="M11.1282 16.3918L1.9566 25.2025C0.840531 26.2747 0.702612 28.0121 1.63555 29.2469L2.4045 30.2646C2.87875 30.8923 3.74212 31.0763 4.43101 30.6963C5.85486 29.9111 7.3949 31.5267 6.54247 32.9113L6.4482 33.0645C6.03906 33.7291 6.15855 34.5904 6.73314 35.1185L11.9195 39.8855C13.887 41.694 16.9289 41.6355 18.8255 39.7528L26.9231 31.7146M26.9231 31.7146L11.9499 17.1485C10.315 15.558 10.3018 12.936 11.9206 11.3291C13.4808 9.78031 15.9878 9.74645 17.5893 11.2526L18.043 11.6792C19.9646 13.4863 22.9938 13.3697 24.7707 11.4201L31.9942 3.49482C33.7453 1.57357 36.7305 1.4586 38.6242 3.23947C40.4911 4.99517 40.5879 7.92959 38.8408 9.80453L31.8369 17.3208C30.0735 19.2133 30.0535 22.141 31.7909 24.0573L32.1703 24.4758C33.8256 26.3016 33.6681 29.1284 31.8202 30.759L30.6143 31.823C29.5473 32.7645 27.933 32.7171 26.9231 31.7146Z" stroke="#0D1387" stroke-width="1.5"/>
<circle cx="35.5371" cy="8.06636" r="1.04487" stroke="#CD1719" stroke-width="1.5"/>
</svg>
