<svg width="30" height="43" viewBox="0 0 30 43" fill="none" xmlns="http://www.w3.org/2000/svg">
<path d="M12.5 6H9C8.44772 6 8 5.55228 8 5V2.5C8 1.94772 8.44772 1.5 9 1.5H23.4933C23.8118 1.5 24.1113 1.65176 24.2997 1.90864L28.333 7.40864C28.8174 8.06916 28.3457 9 27.5266 9H24.5M12.5 6L15.5 9M12.5 6C10.6667 8 7.1 12.2 7.5 13C7.9 13.8 12 10 14 8M15.5 9H24.5M15.5 9V15M24.5 15C25.8333 21.6667 28.5 35.5 28.5 37.5C28.5 39.3905 26.7129 40.8343 25.6727 41.409C25.5595 41.4715 25.4371 41.5049 25.3081 41.5146C20.9018 41.8466 11.9709 42.2884 10 41.5C8.09269 40.7371 7.24642 38.7009 7.02752 37.6465C7.00731 37.5492 7.00668 37.4499 7.01982 37.3514L8.89545 23.2842C8.95672 22.8246 9.32787 22.4734 9.7835 22.3877C13.1137 21.7609 14.8782 19.4541 15.4325 18.1672C15.48 18.057 15.5 17.9386 15.5 17.8187V15M24.5 15V9M24.5 15H15.5" stroke="#0D1387"/>
<path d="M4.5 1.49998L0.5 0.5M5 3.49998H0.5M5 5.49998L0.5 6.70575" stroke="#CD1719" stroke-linecap="round"/>
</svg>
