<svg width="39" height="42" viewBox="0 0 39 42" fill="none" xmlns="http://www.w3.org/2000/svg">
<path d="M4.17586 6.57931V4.5C4.17586 2.29086 5.96672 0.5 8.17586 0.5H34.1069C36.316 0.5 38.1069 2.29086 38.1069 4.5V8.65862C38.1069 10.8678 36.316 12.6586 34.1069 12.6586H8.17586C5.96672 12.6586 4.17586 10.8678 4.17586 8.65862V6.57931ZM4.17586 6.57931C2.14574 6.57931 0.5 8.22505 0.5 10.2552V12.9824C0.5 14.7928 1.71599 16.3775 3.46472 16.8461L17.7685 20.6788C19.2576 21.0778 20.2931 22.4273 20.2931 23.969M20.2931 23.969C19.2 23.969 18.3138 24.8551 18.3138 25.9483V38.9552C18.3138 40.3606 19.4532 41.5 20.8586 41.5C22.2641 41.5 23.4034 40.3606 23.4034 38.9552V27.0793C23.4034 25.3615 22.0109 23.969 20.2931 23.969Z" stroke="#0D1387" stroke-linecap="round"/>
<path d="M8.41797 5.02344H34.4318" stroke="#CD1719" stroke-linecap="round"/>
<path d="M26.7969 12.9414V16.9" stroke="#CD1719" stroke-linecap="round"/>
<path d="M29.9062 12.9414V19.7276" stroke="#CD1719" stroke-linecap="round"/>
<path d="M33.3008 12.9414V24.2518" stroke="#CD1719" stroke-linecap="round"/>
</svg>
