<svg width="33" height="33" viewBox="0 0 33 33" fill="none" xmlns="http://www.w3.org/2000/svg">
<path d="M0.355469 8.48233L1.15497 7.7566M8.73642 0.363281L1.15497 7.7566M1.15497 7.7566L5.75576 12.2273M5.75576 12.2273L0.355469 17.6347M5.75576 12.2273L10.9661 7.29411M18.3364 0.363281L10.9661 7.29411M10.9661 7.29411L15.7506 11.9434M15.7506 11.9434L4.16928 23.0643M15.7506 11.9434L23.207 4.78241M27.6317 0.363281L23.207 4.78241M0.355469 26.9347L4.16928 23.0643M4.16928 23.0643L8.88186 27.6437M8.88186 27.6437L5.07928 31.3633M8.88186 27.6437L20.1927 16.6526M32.3555 4.93947L27.9196 9.14407M27.9196 9.14407L23.207 4.78241M27.9196 9.14407L20.1927 16.6526M20.1927 16.6526L24.4762 20.8605M24.4762 20.8605L32.3555 13.0585M24.4762 20.8605L19.9179 25.4854M14.0698 31.3633L19.9179 25.4854M19.9179 25.4854L24.7935 30.2645M24.7935 30.2645L32.3555 22.949M24.7935 30.2645L23.5174 31.3633" stroke="#CD1719"/>
<rect x="0.855469" y="0.863281" width="31" height="31" stroke="#0D1387"/>
</svg>
