<svg width="40" height="42" viewBox="0 0 40 42" fill="none" xmlns="http://www.w3.org/2000/svg">
<path d="M9.33594 30.8961C10.3803 30.8547 10.8552 29.7043 11.4691 28.8597C11.9672 28.1742 15.7 31.8058 18.5245 34.781C19.4282 35.7329 19.1511 37.2761 17.9856 37.8798L16.4564 38.6719" stroke="#CD1719"/>
<path d="M26.4929 11.1035C26.6036 12.1164 26.4075 14.3289 25.0573 16.4115C24.4681 17.3203 24.4149 18.5476 25.1518 19.3414L30.6246 25.2374C31.3585 26.0279 32.5779 26.072 33.1787 25.1761C33.9262 24.0616 34.7337 22.4281 35.1385 20.3574" stroke="#CD1719"/>
<path d="M16.1378 20.293C15.0713 21.289 14.6714 24.0428 17.6041 24.5115C19.5371 24.7459 22.4698 23.1639 20.137 20.293" stroke="#0D1387" stroke-linecap="round"/>
<path d="M2.86855 28.0684C1.07728 29.5214 -1.41843 34.4304 2.86855 34.4304C7.57818 34.4304 4.76046 29.5411 2.86855 28.0684Z" stroke="#CD1719"/>
<path d="M20.19 8.57001C20.2565 8.63928 20.3594 8.88357 20.2295 9.48737C20.1077 10.0533 19.8084 10.7953 19.324 11.6655C18.358 13.4004 16.7018 15.5602 14.4567 17.7037C12.2012 19.8571 9.96658 21.5851 8.18618 22.64C7.29261 23.1694 6.53719 23.5152 5.9648 23.6689C5.67841 23.7458 5.46317 23.7671 5.31238 23.7547C5.16557 23.7425 5.11307 23.7019 5.09493 23.6831C5.07695 23.6643 5.03976 23.6114 5.03384 23.467C5.02773 23.3176 5.05839 23.105 5.14746 22.8236C5.32554 22.2613 5.70364 21.525 6.27235 20.6584C7.40543 18.9319 9.23219 16.7821 11.4876 14.6288C13.7539 12.4651 15.8289 10.7145 17.4498 9.63913C18.2641 9.09889 18.936 8.74881 19.4422 8.59164C19.9816 8.42428 20.1487 8.52714 20.19 8.57001Z" fill="white" stroke="#CD1719"/>
<path d="M9.27572 13.372C14.6345 7.46271 18.8388 6.08205 20.7497 6.10852C21.1253 6.11372 21.4599 6.30984 21.7261 6.57486L37.9922 22.766C38.4224 23.1943 38.6466 23.7976 38.5214 24.3916C37.5475 29.0126 33.3049 32.9414 30.6442 35.2852C24.8709 40.3711 21.6774 41.6496 20.0991 41.4866C19.7982 41.4555 19.5408 41.2773 19.3283 41.062L2.99156 24.5044C2.77835 24.2883 2.60714 24.0231 2.62444 23.72C2.69957 22.4035 4.06705 19.1156 9.27572 13.372ZM9.27572 13.372V5.74203C9.27572 -1.15546 18.2925 -1.33861 18.2925 5.74203V21.9786" stroke="#0D1387"/>
</svg>
