<svg width="38" height="38" viewBox="0 0 38 38" fill="none" xmlns="http://www.w3.org/2000/svg">
<path d="M31.5058 26.1764C31.4213 26.1764 31.3361 26.1511 31.2617 26.0987C30.7973 25.7702 30.2906 25.5084 29.7544 25.3218L21.3091 22.3823C21.1394 22.3232 21.0254 22.1636 21.0254 21.9837V19.4183C21.0254 19.1852 21.2145 18.9961 21.4476 18.9961C21.6807 18.9961 21.8698 19.1844 21.8698 19.4183V21.6848L30.0322 24.5255C30.6436 24.7383 31.2221 25.0364 31.7507 25.4105C31.9407 25.5456 31.9863 25.8091 31.8512 25.9991C31.7684 26.1139 31.6375 26.1764 31.5058 26.1764Z" fill="#3A3B55"/>
<path d="M14.7645 26.6764C14.5128 26.6764 14.2612 26.6063 14.0408 26.467L9.6049 23.6642C9.40814 23.5401 9.34903 23.2792 9.47317 23.0816C9.59814 22.8848 9.85823 22.8257 10.0558 22.9498L14.4917 25.7526C14.6623 25.8606 14.881 25.8573 15.0482 25.7458L21.2118 21.6317C21.406 21.5025 21.6678 21.554 21.797 21.7482C21.9262 21.9424 21.8747 22.2042 21.6805 22.3334L15.5169 26.4475C15.2897 26.6004 15.0271 26.6764 14.7645 26.6764Z" fill="#3A3B55"/>
<path d="M20.3169 26.6779C20.0543 26.6779 19.7917 26.6019 19.5645 26.4499L13.4009 22.3357C13.2067 22.2065 13.1543 21.9439 13.2844 21.7505C13.4136 21.5563 13.6762 21.5039 13.8696 21.634L20.0332 25.7481C20.2012 25.8604 20.4199 25.863 20.5897 25.7549L25.0255 22.9522C25.2231 22.8272 25.4832 22.8863 25.6082 23.0839C25.7332 23.2807 25.6741 23.5416 25.4765 23.6666L21.0406 26.4693C20.8202 26.6078 20.5686 26.6779 20.3169 26.6779Z" fill="#3A3B55"/>
<path d="M17.5413 21.544C16.9451 21.544 16.3608 21.4351 15.8043 21.2198C14.2623 20.6236 12.9534 19.5883 12.0186 18.2245C11.0838 16.8607 10.5898 15.2664 10.5898 13.613V11.8363C10.5898 11.6032 10.779 11.4141 11.0121 11.4141C11.2451 11.4141 11.4343 11.6032 11.4343 11.8363V13.613C11.4343 16.6108 13.3132 19.351 16.1091 20.431C16.5677 20.6084 17.049 20.6987 17.5413 20.6987C18.0336 20.6987 18.515 20.6084 18.9735 20.431C18.9777 20.4294 18.9828 20.4277 18.987 20.426C19.7842 20.1161 20.5121 19.6744 21.1522 19.1146C21.1572 19.1095 21.1623 19.1044 21.1682 19.1002C22.7456 17.7128 23.65 15.7131 23.65 13.6122V11.8363C23.65 11.6032 23.8392 11.4141 24.0722 11.4141C24.3053 11.4141 24.4945 11.6032 24.4945 11.8363V13.6122C24.4945 15.9487 23.4921 18.173 21.7424 19.72C21.7374 19.7251 21.7323 19.7302 21.7264 19.7352C21.0044 20.3711 20.181 20.871 19.2792 21.2198C19.2741 21.2214 19.269 21.2231 19.2648 21.2248C18.7117 21.4368 18.1324 21.544 17.5413 21.544Z" fill="#3A3B55"/>
<path d="M25.023 11.5294C24.79 11.5294 24.6008 11.3403 24.6008 11.1072V8.9471C24.6008 5.80155 22.0413 3.24288 18.8957 3.24288H16.1901C13.0446 3.24288 10.4851 5.80155 10.4851 8.9471V11.1072C10.4851 11.3403 10.2959 11.5294 10.0628 11.5294C9.82978 11.5294 9.64062 11.3403 9.64062 11.1072V8.9471C9.64062 5.33626 12.5784 2.39844 16.1901 2.39844H18.8957C22.5074 2.39844 25.4452 5.33626 25.4452 8.9471V11.1072C25.4452 11.3403 25.2561 11.5294 25.023 11.5294Z" fill="#3A3B55"/>
<path d="M25.4194 12.259H9.6646C9.37073 12.259 9.1174 12.0698 9.0338 11.7878C8.9502 11.5074 9.05829 11.2119 9.30318 11.0523C10.6923 10.1462 13.8218 9.25023 17.121 9.29245C17.4006 9.29583 17.6843 9.29583 17.963 9.29245C21.2588 9.25023 24.3926 10.1462 25.7808 11.0523C26.0257 11.2119 26.1338 11.5074 26.0502 11.7878C25.9666 12.069 25.7133 12.259 25.4194 12.259ZM10.4035 11.4145H24.6805C23.3598 10.8032 20.8754 10.1006 17.9739 10.1361C17.6877 10.1394 17.3972 10.1394 17.1101 10.1361C14.2102 10.0997 11.7242 10.8023 10.4035 11.4145Z" fill="#3A3B55"/>
<path d="M17.5414 35.6037C17.3083 35.6037 17.1191 35.4145 17.1191 35.1815V24.5921C17.1191 24.3591 17.3083 24.1699 17.5414 24.1699C17.7744 24.1699 17.9636 24.3591 17.9636 24.5921V35.1815C17.9636 35.4154 17.7744 35.6037 17.5414 35.6037Z" fill="#3A3B55"/>
<path d="M5.65855 35.6038C5.42548 35.6038 5.23633 35.4147 5.23633 35.1816V30.9847C5.23633 30.7517 5.42548 30.5625 5.65855 30.5625C5.89162 30.5625 6.08077 30.7517 6.08077 30.9847V35.1816C6.08077 35.4155 5.89162 35.6038 5.65855 35.6038Z" fill="#3A3B55"/>
<path d="M14.3187 31.1374H12.2836C12.0505 31.1374 11.8613 30.9483 11.8613 30.7152C11.8613 30.4821 12.0505 30.293 12.2836 30.293H14.3187C14.5517 30.293 14.7409 30.4821 14.7409 30.7152C14.7409 30.9483 14.5517 31.1374 14.3187 31.1374Z" fill="#3A3B55"/>
<path d="M30.2989 29.4377C30.2068 29.4377 30.1148 29.4158 30.0304 29.3719C29.8378 29.2714 29.7188 29.0746 29.7188 28.8576V25.7551C29.7188 25.522 29.9079 25.3329 30.141 25.3329C30.374 25.3329 30.5632 25.522 30.5632 25.7551V28.3509L31.0631 28.003C31.2624 27.8662 31.5275 27.8654 31.7243 28.0013L32.2268 28.3509V25.7543C32.2268 25.5212 32.4159 25.332 32.649 25.332C32.882 25.332 33.0712 25.5212 33.0712 25.7543V28.8567C33.0712 29.0738 32.9521 29.2705 32.7596 29.371C32.5671 29.4715 32.3374 29.4563 32.1592 29.333L31.395 28.801L30.6308 29.333C30.5311 29.4023 30.4154 29.4377 30.2989 29.4377Z" fill="#3A3B55"/>
<path d="M28.6744 32.198H27.5961C27.363 32.198 27.1738 32.0088 27.1738 31.7757C27.1738 31.5427 27.363 31.3535 27.5961 31.3535H28.6744C28.9075 31.3535 29.0966 31.5427 29.0966 31.7757C29.0966 32.0088 28.9083 32.198 28.6744 32.198Z" fill="#3A3B55"/>
<path d="M28.6744 33.8444H27.5961C27.363 33.8444 27.1738 33.6553 27.1738 33.4222C27.1738 33.1892 27.363 33 27.5961 33H28.6744C28.9075 33 29.0966 33.1892 29.0966 33.4222C29.0966 33.6553 28.9083 33.8444 28.6744 33.8444Z" fill="#3A3B55"/>
<path d="M36.3581 35.6029H1.7789C1.03072 35.6029 0.421875 34.9941 0.421875 34.2459V31.0379C0.421875 28.1068 2.28219 25.489 5.05112 24.5247L13.2135 21.684V19.4183C13.2135 19.1852 13.4027 18.9961 13.6357 18.9961C13.8688 18.9961 14.058 19.1852 14.058 19.4183V21.9846C14.058 22.1754 13.9313 22.3367 13.7573 22.3891L5.32894 25.3227C2.89863 26.1688 1.26632 28.4657 1.26632 31.0379V34.2459C1.26632 34.5288 1.49601 34.7585 1.7789 34.7585H25.2114V26.5513C25.2114 25.8792 25.7586 25.3328 26.4308 25.3328H36.3589C37.0311 25.3328 37.5783 25.88 37.5783 26.5513V34.3844C37.5774 35.0566 37.0302 35.6029 36.3581 35.6029ZM26.0558 34.7585H36.3589C36.5658 34.7585 36.7338 34.5905 36.7338 34.3844V26.5513C36.7338 26.3444 36.5658 26.1773 36.3589 26.1773H26.4299C26.223 26.1773 26.055 26.3453 26.055 26.5513V34.7585H26.0558Z" fill="#3A3B55"/>
</svg>
