<svg width="26" height="32" viewBox="0 0 26 32" fill="none" xmlns="http://www.w3.org/2000/svg">
<path d="M15.75 0.75H3.75C2.95435 0.75 2.19129 1.06607 1.62868 1.62868C1.06607 2.19129 0.75 2.95435 0.75 3.75V27.75C0.75 28.5456 1.06607 29.3087 1.62868 29.8713C2.19129 30.4339 2.95435 30.75 3.75 30.75H21.75C22.5456 30.75 23.3087 30.4339 23.8713 29.8713C24.4339 29.3087 24.75 28.5456 24.75 27.75V9.75L15.75 0.75Z" stroke="#031D5E" stroke-width="1.5" stroke-linecap="round" stroke-linejoin="round"/>
<path d="M15.75 0.75V9.75H24.75" stroke="#031D5E" stroke-width="1.5" stroke-linecap="round" stroke-linejoin="round"/>
<path d="M18.75 17.25H6.75" stroke="#CD1719" stroke-width="1.5" stroke-linecap="round" stroke-linejoin="round"/>
<path d="M18.75 23.25H6.75" stroke="#CD1719" stroke-width="1.5" stroke-linecap="round" stroke-linejoin="round"/>
<path d="M9.75 11.25H8.25H6.75" stroke="#CD1719" stroke-width="1.5" stroke-linecap="round" stroke-linejoin="round"/>
</svg>
