<svg width="38" height="38" viewBox="0 0 38 38" fill="none" xmlns="http://www.w3.org/2000/svg">
<g clip-path="url(#clip0_4158_1235)">
<path d="M36.7021 14.4369H33.8065C33.7203 14.4369 33.6359 14.4107 33.5649 14.3609L19.0008 4.20729L4.43668 14.3609C4.36575 14.4099 4.28131 14.4369 4.19517 14.4369H1.29957C0.915351 14.4369 0.579262 14.1903 0.464417 13.8238C0.349573 13.4573 0.48384 13.063 0.798817 12.8426L18.5718 0.451201C18.8277 0.271334 19.1739 0.271334 19.4306 0.452045L37.2028 12.8426C37.5186 13.0621 37.6529 13.4565 37.5372 13.823C37.4224 14.1903 37.0863 14.4369 36.7021 14.4369ZM33.939 13.5924H36.7021C36.7156 13.5924 36.7249 13.5924 36.7316 13.5705C36.7384 13.5485 36.7308 13.5435 36.7198 13.5359L19.0008 1.18165L1.28184 13.535C1.27086 13.5426 1.26326 13.5485 1.27002 13.5705C1.27677 13.5924 1.28691 13.5924 1.29957 13.5924H4.06259L18.7593 3.34596C18.9046 3.24462 19.0971 3.24462 19.2423 3.34596L33.939 13.5924Z" fill="#3A3B55"/>
<path d="M33.1061 37.6813H4.89655C4.27757 37.6813 3.77344 37.178 3.77344 36.559V14.014C3.77344 13.781 3.96259 13.5918 4.19566 13.5918C4.42873 13.5918 4.61788 13.781 4.61788 14.014V36.559C4.61788 36.7127 4.74286 36.8368 4.89655 36.8368H33.1061C33.2598 36.8368 33.3847 36.7118 33.3847 36.559V14.014C33.3847 13.781 33.5739 13.5918 33.8069 13.5918C34.04 13.5918 34.2292 13.781 34.2292 14.014V36.559C34.2292 37.178 33.725 37.6813 33.1061 37.6813Z" fill="#3A3B55"/>
<path d="M29.7582 37.6823C29.5251 37.6823 29.3359 37.4932 29.3359 37.2601V20.8128C29.3359 20.5798 29.5251 20.3906 29.7582 20.3906C29.9912 20.3906 30.1804 20.5798 30.1804 20.8128V37.2592C30.1804 37.4932 29.9912 37.6823 29.7582 37.6823Z" fill="#3A3B55"/>
<path d="M8.24449 37.6823C8.01142 37.6823 7.82227 37.4932 7.82227 37.2601V20.8128C7.82227 20.5798 8.01142 20.3906 8.24449 20.3906C8.47755 20.3906 8.66671 20.5798 8.66671 20.8128V37.2592C8.66671 37.4932 8.4784 37.6823 8.24449 37.6823Z" fill="#3A3B55"/>
<path d="M30.6677 21.2361H7.33571C6.94642 21.2361 6.62891 20.9194 6.62891 20.5293V18.9705C6.62891 18.5812 6.94557 18.2637 7.33571 18.2637H30.6669C31.0562 18.2637 31.3737 18.5803 31.3737 18.9705V20.5293C31.3737 20.9194 31.057 21.2361 30.6677 21.2361ZM7.47419 20.3917H30.5301V19.109H7.47419V20.3917Z" fill="#3A3B55"/>
<path d="M15.9352 15.2494H12.2956C11.9536 15.2494 11.6758 14.9715 11.6758 14.6295V12.8503C11.6758 12.5083 11.9536 12.2305 12.2956 12.2305H15.9352C16.2772 12.2305 16.555 12.5083 16.555 12.8503V14.6295C16.555 14.9715 16.2772 15.2494 15.9352 15.2494ZM12.5202 14.4049H15.7114V13.0749H12.5202V14.4049Z" fill="#3A3B55"/>
<path d="M25.7047 15.2494H22.0651C21.7231 15.2494 21.4453 14.9715 21.4453 14.6295V12.8503C21.4453 12.5083 21.7231 12.2305 22.0651 12.2305H25.7047C26.0467 12.2305 26.3245 12.5083 26.3245 12.8503V14.6295C26.3245 14.9715 26.0467 15.2494 25.7047 15.2494ZM22.2898 14.4049H25.4809V13.0749H22.2898V14.4049Z" fill="#3A3B55"/>
<path d="M16.3297 34.4435H14.8511C14.4745 34.4435 14.168 34.137 14.168 33.7603V30.8343C14.168 30.6013 14.3571 30.4121 14.5902 30.4121C14.8233 30.4121 15.0124 30.6013 15.0124 30.8343V33.599H16.1693V30.8343C16.1693 30.6013 16.3585 30.4121 16.5915 30.4121C16.8246 30.4121 17.0137 30.6013 17.0137 30.8343V33.7603C17.0129 34.137 16.7064 34.4435 16.3297 34.4435Z" fill="#3A3B55"/>
<path d="M25.8243 37.6836C25.5912 37.6836 25.4021 37.4945 25.4021 37.2614V31.3266C25.4021 31.2878 25.3708 31.2566 25.332 31.2566H12.6704C12.6315 31.2566 12.6003 31.2878 12.6003 31.3266V37.2614C12.6003 37.4945 12.4111 37.6836 12.1781 37.6836C11.945 37.6836 11.7559 37.4945 11.7559 37.2614V31.3266C11.7559 30.8225 12.1663 30.4121 12.6704 30.4121H25.3311C25.8353 30.4121 26.2457 30.8225 26.2457 31.3266V37.2614C26.2465 37.4945 26.0574 37.6836 25.8243 37.6836Z" fill="#3A3B55"/>
<path d="M23.152 34.4435H21.6734C21.2968 34.4435 20.9902 34.137 20.9902 33.7603V30.8343C20.9902 30.6013 21.1794 30.4121 21.4125 30.4121C21.6455 30.4121 21.8347 30.6013 21.8347 30.8343V33.599H22.9916V30.8343C22.9916 30.6013 23.1807 30.4121 23.4138 30.4121C23.6469 30.4121 23.836 30.6013 23.836 30.8343V33.7603C23.836 34.137 23.5295 34.4435 23.152 34.4435Z" fill="#3A3B55"/>
<path d="M22.4125 31.2559C22.1794 31.2559 21.9902 31.0667 21.9902 30.8337V24.8989C21.9902 24.8601 21.959 24.8288 21.9201 24.8288H16.0825C16.0437 24.8288 16.0124 24.8601 16.0124 24.8989V30.8337C16.0124 31.0667 15.8233 31.2559 15.5902 31.2559C15.3571 31.2559 15.168 31.0667 15.168 30.8337V24.8989C15.168 24.3948 15.5784 23.9844 16.0825 23.9844H21.9201C22.4243 23.9844 22.8347 24.3948 22.8347 24.8989V30.8337C22.8347 31.0667 22.6455 31.2559 22.4125 31.2559Z" fill="#3A3B55"/>
<path d="M19.7399 28.0158H18.2613C17.8847 28.0158 17.5781 27.7092 17.5781 27.3326V24.4066C17.5781 24.1735 17.7673 23.9844 18.0003 23.9844C18.2334 23.9844 18.4226 24.1735 18.4226 24.4066V27.1713H19.5795V24.4066C19.5795 24.1735 19.7686 23.9844 20.0017 23.9844C20.2347 23.9844 20.4239 24.1735 20.4239 24.4066V27.3326C20.4231 27.7092 20.1165 28.0158 19.7399 28.0158Z" fill="#3A3B55"/>
<path d="M19.0003 37.6828C18.7673 37.6828 18.5781 37.4936 18.5781 37.2606V30.8343C18.5781 30.6013 18.7673 30.4121 19.0003 30.4121C19.2334 30.4121 19.4226 30.6013 19.4226 30.8343V37.2606C19.4226 37.4936 19.2334 37.6828 19.0003 37.6828Z" fill="#3A3B55"/>
</g>
<defs>
<clipPath id="clip0_4158_1235">
<rect width="38" height="38" fill="white"/>
</clipPath>
</defs>
</svg>
