<svg width="39" height="36" viewBox="0 0 39 36" fill="none" xmlns="http://www.w3.org/2000/svg">
<path d="M18.7235 8.50636L17.3267 11.2999C17.069 11.8154 16.43 12.0069 15.9312 11.7182L12.6445 9.81532C12.1629 9.53645 12.0016 8.91795 12.2857 8.43936L16.8513 0.75M16.8513 0.75H22.6974C23.0523 0.75 23.3806 0.938107 23.5601 1.24428L27.3613 7.72869C27.6203 8.17061 28.1715 8.34531 28.6378 8.13334L28.6716 8.11799C29.4665 7.75667 30.3102 8.51623 30.0341 9.34459L28.6058 13.6295C28.4575 14.0741 28.0204 14.3562 27.5542 14.3079L22.8754 13.8239C22.2113 13.7552 22.0484 12.8617 22.6456 12.5631C22.986 12.393 23.1154 11.9732 22.9299 11.6409L16.8513 0.75Z" stroke="#CD1719" stroke-width="1.5" stroke-linecap="round"/>
<path d="M28.6643 21.4597L26.9078 18.8771C26.5837 18.4005 26.7284 17.7494 27.2239 17.455L30.4888 15.515C30.9673 15.2307 31.5858 15.3918 31.8649 15.8734L36.3479 23.6112M36.3479 23.6112L33.4946 28.7137C33.3214 29.0235 32.997 29.2182 32.6422 29.2254L25.1273 29.3783C24.6151 29.3887 24.1937 29.7845 24.1511 30.295L24.148 30.3319C24.0754 31.2021 23.0007 31.5678 22.4124 30.9225L19.3696 27.5845C19.0539 27.2381 19.0211 26.7189 19.2907 26.3356L21.9967 22.4882C22.3808 21.942 23.2401 22.236 23.2093 22.9029C23.1917 23.283 23.4949 23.6009 23.8754 23.6012L36.3479 23.6112Z" stroke="#031D5E" stroke-width="1.5" stroke-linecap="round"/>
<path d="M12.7052 24.283L15.8237 24.1107C16.3992 24.0789 16.8823 24.5388 16.8789 25.1151L16.8563 28.9128C16.853 29.4694 16.3959 29.9162 15.8394 29.9067L6.89803 29.755M6.89803 29.755L3.99907 24.6783C3.82308 24.3701 3.82362 23.9917 4.0005 23.6841L7.74657 17.1676C8.00186 16.7235 7.88029 16.1583 7.46497 15.8585L7.43489 15.8368C6.72695 15.3256 6.96816 14.2163 7.82442 14.0453L12.2537 13.1609C12.7133 13.0691 13.175 13.3088 13.3643 13.7376L15.2641 18.0406C15.5337 18.6514 14.8386 19.2359 14.2832 18.8653C13.9666 18.6542 13.5379 18.75 13.3413 19.0758L6.89803 29.755Z" stroke="#031D5E" stroke-width="1.5" stroke-linecap="round"/>
</svg>
