<svg width="38" height="33" viewBox="0 0 38 33" fill="none" xmlns="http://www.w3.org/2000/svg">
<path d="M17.9367 15.5234L4.73498 24.7646C1.845 24.7646 -1.04426 27.4038 1.84554 30.7054C3.15491 32.2013 6.46544 32.6857 7.78585 28.7251L20.9875 19.484" stroke="#CD1719" stroke-width="1.3" stroke-linecap="round"/>
<mask id="path-2-inside-1_4030_2686" fill="white">
<rect x="12.0859" y="10.1777" width="17.1622" height="5.28068" rx="1" transform="rotate(-36.3718 12.0859 10.1777)"/>
</mask>
<rect x="12.0859" y="10.1777" width="17.1622" height="5.28068" rx="1" transform="rotate(-36.3718 12.0859 10.1777)" stroke="#031D5E" stroke-width="2.6" mask="url(#path-2-inside-1_4030_2686)"/>
<mask id="path-3-inside-2_4030_2686" fill="white">
<rect x="20.6992" y="21.8711" width="17.1622" height="5.28068" rx="1" transform="rotate(-36.3718 20.6992 21.8711)"/>
</mask>
<rect x="20.6992" y="21.8711" width="17.1622" height="5.28068" rx="1" transform="rotate(-36.3718 20.6992 21.8711)" stroke="#031D5E" stroke-width="2.6" mask="url(#path-3-inside-2_4030_2686)"/>
<path d="M17.3555 12.8789L23.6186 21.3828" stroke="#031D5E" stroke-width="1.3"/>
<path d="M26.9219 5.83398L33.185 14.3378" stroke="#031D5E" stroke-width="1.3"/>
</svg>
