<svg width="54" height="54" viewBox="0 0 54 54" fill="none" xmlns="http://www.w3.org/2000/svg">
<path d="M0.75 25.5794V52.7506M0.75 25.5794L23.3483 2.98107C24.0806 2.24876 25.2508 2.19662 26.0454 2.86091L53.2185 25.5794M0.75 25.5794L9.6509 30.1888L26.9842 39.165M0.75 52.7506H51.2185C52.323 52.7506 53.2185 51.8551 53.2185 50.7506V25.5794M0.75 52.7506L26.9842 39.165M53.2185 25.5794L26.9842 39.165" stroke="#031D5E" stroke-width="1.5"/>
<path d="M9.18359 0.75V29.6855L27.2228 39.1644L44.7872 29.6855V0.75H9.18359Z" fill="white" stroke="#031D5E" stroke-width="1.5"/>
<path d="M21.7681 6.37109H14.8672C14.3149 6.37109 13.8672 6.81881 13.8672 7.3711V17.0828C13.8672 17.6351 14.3149 18.0828 14.8672 18.0828H21.7681C22.3204 18.0828 22.7681 17.6351 22.7681 17.0828V7.37109C22.7681 6.81881 22.3204 6.37109 21.7681 6.37109Z" stroke="#031D5E" stroke-width="1.5"/>
<path d="M26.0469 8.71484H40.1009" stroke="#DB1317" stroke-width="1.5" stroke-linecap="round"/>
<path d="M26.0469 13.8672H40.1009" stroke="#DB1317" stroke-width="1.5" stroke-linecap="round"/>
<path d="M13.8672 22.2988L41.0384 22.2988" stroke="#DB1317" stroke-width="1.5" stroke-linecap="round"/>
<path d="M13.8672 27.9219L41.0384 27.9219" stroke="#DB1317" stroke-width="1.5" stroke-linecap="round"/>
</svg>
