<svg width="18" height="13" viewBox="0 0 18 13" fill="none" xmlns="http://www.w3.org/2000/svg">
<g clip-path="url(#clip0_4030_7281)">
<path d="M1.05 6.87761C0.983333 6.69801 0.983333 6.50044 1.05 6.32084C1.69933 4.7464 2.80153 3.40022 4.21686 2.45295C5.63219 1.50569 7.29692 1 9 1C10.7031 1 12.3678 1.50569 13.7831 2.45295C15.1985 3.40022 16.3007 4.7464 16.95 6.32084C17.0167 6.50044 17.0167 6.69801 16.95 6.87761C16.3007 8.45205 15.1985 9.79823 13.7831 10.7455C12.3678 11.6928 10.7031 12.1984 9 12.1984C7.29692 12.1984 5.63219 11.6928 4.21686 10.7455C2.80153 9.79823 1.69933 8.45205 1.05 6.87761Z" stroke="white" stroke-linecap="round" stroke-linejoin="round"/>
<path d="M9 8.9991C10.3254 8.9991 11.3999 7.92464 11.3999 6.59922C11.3999 5.27381 10.3254 4.19934 9 4.19934C7.67458 4.19934 6.60012 5.27381 6.60012 6.59922C6.60012 7.92464 7.67458 8.9991 9 8.9991Z" stroke="white" stroke-linecap="round" stroke-linejoin="round"/>
</g>
<defs>
<clipPath id="clip0_4030_7281">
<rect width="18" height="13" fill="white"/>
</clipPath>
</defs>
</svg>
