<svg width="53" height="54" viewBox="0 0 53 54" fill="none" xmlns="http://www.w3.org/2000/svg">
<circle cx="21.1102" cy="21.1102" r="20.3602" fill="white" stroke="#031D5E" stroke-width="1.5"/>
<circle cx="21.2023" cy="15.2707" r="4.63983" stroke="#DB1317" stroke-width="1.5"/>
<path d="M19.4053 22.8477H23.7168C27.8124 22.8477 31.1761 25.9749 31.5537 29.9717H11.5684C11.946 25.9749 15.3097 22.8477 19.4053 22.8477Z" stroke="#DB1317" stroke-width="1.5"/>
<path d="M31.4414 39.0771L33.0217 41.2896C33.3738 41.7825 34.0798 41.8517 34.5208 41.4366L40.5722 35.7412C40.983 35.3546 40.9928 34.7048 40.5939 34.3059L38.6278 32.3398" stroke="#031D5E" stroke-width="1.5" stroke-linecap="round"/>
<path d="M36.3828 39.9741L47.3558 52.2133C47.7388 52.6404 48.4018 52.6585 48.8075 52.2528L51.3831 49.6773C51.7786 49.2817 51.7728 48.6386 51.3701 48.2503L39.5269 36.8301" stroke="#031D5E" stroke-width="1.5" stroke-linecap="round"/>
</svg>
