<svg width="49" height="54" viewBox="0 0 49 54" fill="none" xmlns="http://www.w3.org/2000/svg">
<path d="M37.6879 34.1017V51.75C37.6879 52.3023 37.2402 52.75 36.6879 52.75H1.75C1.19772 52.75 0.75 52.3023 0.75 51.75V1.75C0.75 1.19772 1.19772 0.75 1.75 0.75H29.081M29.081 0.75L38.7638 10.4328M29.081 0.75V9.43276C29.081 9.98504 29.5287 10.4328 30.081 10.4328H38.7638M38.7638 10.4328V19.7569" stroke="#031D5E" stroke-width="1.5"/>
<path d="M5.76953 10.791H17.604" stroke="#DB1317" stroke-width="1.5" stroke-linecap="round"/>
<path d="M5.76953 23.3438H17.604" stroke="#DB1317" stroke-width="1.5" stroke-linecap="round"/>
<path d="M5.76953 29.7988H17.604" stroke="#DB1317" stroke-width="1.5" stroke-linecap="round"/>
<path d="M5.76953 16.8887H25.8523" stroke="#DB1317" stroke-width="1.5" stroke-linecap="round"/>
<path d="M8.19383 42.1954C8.26453 42.1954 8.33524 42.1954 9.14943 41.8595C9.96362 41.5237 11.5192 40.852 12.5149 40.3822C13.9253 39.7169 14.371 39.2332 14.4781 38.8417C14.5356 38.6315 14.5145 38.3794 14.2671 38.1989C13.6241 37.7299 12.0602 37.803 10.3488 37.9268C9.01262 38.0234 8.12634 38.8711 7.41338 39.7598C6.47659 40.9274 6.55152 42.4407 6.55098 43.4199C6.55038 44.5142 7.40213 45.6536 8.50718 46.6344C8.99556 47.0678 9.40012 47.297 8.84036 47.4244C6.80855 47.8872 5.37094 47.5519 5.86856 47.5166C6.6542 47.4608 7.58211 47.1256 8.72037 46.4153C9.4346 45.9696 10.2829 45.1393 10.8619 44.4559C11.441 43.7724 11.6884 43.2067 11.8159 42.986C11.891 42.856 12.0495 43.0878 12.3339 43.106C12.7678 43.1338 13.1561 42.7332 13.4057 42.3234C13.6216 41.969 13.6575 41.6255 13.7105 41.4819C13.7838 41.2836 14.0849 42.2618 14.334 43.2592C14.6538 44.2566 15.2248 45.2261 15.8671 45.9578C16.1204 46.2299 16.2265 46.3006 16.3357 46.3735" stroke="#DB1317" stroke-width="1.5" stroke-linecap="round"/>
<path d="M26.0007 39.6166L41.4568 15.9173C41.7544 15.461 42.3625 15.3268 42.8244 15.6156L46.866 18.1416C47.3408 18.4383 47.4795 19.0669 47.1737 19.5358L31.7477 43.189C31.6463 43.3444 31.5037 43.4686 31.3359 43.5476L27.0134 45.5817C26.3282 45.9041 25.5471 45.3775 25.5891 44.6214L25.8399 40.1074C25.8496 39.9326 25.9051 39.7633 26.0007 39.6166Z" stroke="#031D5E" stroke-width="1.5"/>
<path d="M25.8516 39.8398L31.5895 43.1525" stroke="#031D5E" stroke-width="1.5"/>
</svg>
