<svg width="53" height="53" viewBox="0 0 53 53" fill="none" xmlns="http://www.w3.org/2000/svg">
<mask id="path-1-inside-1_4313_116" fill="white">
<path d="M36.1338 0C27.0885 0 19.7559 7.33265 19.7559 16.3779C19.7559 25.4232 27.0885 32.7559 36.1338 32.7559C37.0138 32.7559 37.8773 32.6854 38.7197 32.5518L44.8096 37.4023L46.0039 29.4473C49.9568 26.4573 52.5117 21.7164 52.5117 16.3779C52.5117 7.33268 45.179 3.60804e-05 36.1338 0Z"/>
</mask>
<path d="M36.1338 0C27.0885 0 19.7559 7.33265 19.7559 16.3779C19.7559 25.4232 27.0885 32.7559 36.1338 32.7559C37.0138 32.7559 37.8773 32.6854 38.7197 32.5518L44.8096 37.4023L46.0039 29.4473C49.9568 26.4573 52.5117 21.7164 52.5117 16.3779C52.5117 7.33268 45.179 3.60804e-05 36.1338 0Z" fill="white"/>
<path d="M36.1338 0V-1.5H36.1338L36.1338 0ZM19.7559 16.3779H18.2559V16.3779L19.7559 16.3779ZM36.1338 32.7559L36.1338 34.2559H36.1338V32.7559ZM38.7197 32.5518L38.4847 31.0703L39.1374 30.9667L39.6543 31.3785L38.7197 32.5518ZM44.8096 37.4023L46.2929 37.625L45.9072 40.1943L43.875 38.5756L44.8096 37.4023ZM46.0039 29.4473L44.5205 29.2246L44.6113 28.6198L45.099 28.251L46.0039 29.4473ZM52.5117 16.3779L54.0117 16.3779V16.3779H52.5117ZM36.1338 0V1.5C27.9169 1.5 21.2559 8.16107 21.2559 16.3779L19.7559 16.3779L18.2559 16.3779C18.2559 6.50423 26.2601 -1.5 36.1338 -1.5V0ZM19.7559 16.3779H21.2559C21.2559 24.5948 27.9169 31.2559 36.1338 31.2559V32.7559V34.2559C26.26 34.2559 18.2559 26.2517 18.2559 16.3779H19.7559ZM36.1338 32.7559L36.1338 31.2559C36.9335 31.2559 37.7185 31.1918 38.4847 31.0703L38.7197 32.5518L38.9547 34.0332C38.0362 34.179 37.094 34.2559 36.1338 34.2559L36.1338 32.7559ZM38.7197 32.5518L39.6543 31.3785L45.7441 36.229L44.8096 37.4023L43.875 38.5756L37.7852 33.7251L38.7197 32.5518ZM44.8096 37.4023L43.3262 37.1796L44.5205 29.2246L46.0039 29.4473L47.4873 29.67L46.2929 37.625L44.8096 37.4023ZM46.0039 29.4473L45.099 28.251C48.6934 25.5321 51.0117 21.2262 51.0117 16.3779H52.5117H54.0117C54.0117 22.2065 51.2202 27.3824 46.9088 30.6436L46.0039 29.4473ZM52.5117 16.3779L51.0117 16.3779C51.0117 8.1611 44.3506 1.50003 36.1338 1.5L36.1338 0L36.1338 -1.5C46.0075 -1.49996 54.0117 6.50425 54.0117 16.3779L52.5117 16.3779Z" fill="#031D5E" mask="url(#path-1-inside-1_4313_116)"/>
<mask id="path-3-inside-2_4313_116" fill="white">
<path d="M16.3779 15.5977C25.4232 15.5977 32.7558 22.9303 32.7559 31.9756C32.7559 41.0209 25.4232 48.3535 16.3779 48.3535C15.498 48.3535 14.6344 48.283 13.792 48.1494L7.70215 53L6.50781 45.0449C2.55492 42.0549 0 37.314 0 31.9756C4.72723e-05 22.9303 7.33269 15.5977 16.3779 15.5977Z"/>
</mask>
<path d="M16.3779 15.5977C25.4232 15.5977 32.7558 22.9303 32.7559 31.9756C32.7559 41.0209 25.4232 48.3535 16.3779 48.3535C15.498 48.3535 14.6344 48.283 13.792 48.1494L7.70215 53L6.50781 45.0449C2.55492 42.0549 0 37.314 0 31.9756C4.72723e-05 22.9303 7.33269 15.5977 16.3779 15.5977Z" fill="white"/>
<path d="M16.3779 15.5977V14.0977H16.3779L16.3779 15.5977ZM32.7559 31.9756H34.2559V31.9756L32.7559 31.9756ZM16.3779 48.3535L16.3779 49.8535H16.3779V48.3535ZM13.792 48.1494L14.027 46.6679L13.3743 46.5644L12.8575 46.9761L13.792 48.1494ZM7.70215 53L6.21877 53.2227L6.60451 55.7919L8.63669 54.1733L7.70215 53ZM6.50781 45.0449L7.99119 44.8222L7.9004 44.2175L7.41271 43.8486L6.50781 45.0449ZM0 31.9756L-1.5 31.9756V31.9756H0ZM16.3779 15.5977V17.0977C24.5948 17.0977 31.2558 23.7587 31.2559 31.9756L32.7559 31.9756L34.2559 31.9756C34.2558 22.1019 26.2517 14.0977 16.3779 14.0977V15.5977ZM32.7559 31.9756H31.2559C31.2559 40.1925 24.5948 46.8535 16.3779 46.8535V48.3535V49.8535C26.2517 49.8535 34.2559 41.8493 34.2559 31.9756H32.7559ZM16.3779 48.3535L16.3779 46.8535C15.5782 46.8535 14.7932 46.7895 14.027 46.6679L13.792 48.1494L13.557 49.6309C14.4756 49.7766 15.4177 49.8535 16.3779 49.8535L16.3779 48.3535ZM13.792 48.1494L12.8575 46.9761L6.76761 51.8267L7.70215 53L8.63669 54.1733L14.7265 49.3227L13.792 48.1494ZM7.70215 53L9.18552 52.7773L7.99119 44.8222L6.50781 45.0449L5.02444 45.2676L6.21877 53.2227L7.70215 53ZM6.50781 45.0449L7.41271 43.8486C3.81829 41.1298 1.5 36.8239 1.5 31.9756H0H-1.5C-1.5 37.8041 1.29156 42.9801 5.60291 46.2412L6.50781 45.0449ZM0 31.9756L1.5 31.9756C1.50004 23.7588 8.16112 17.0977 16.3779 17.0977L16.3779 15.5977L16.3779 14.0977C6.50426 14.0977 -1.49995 22.1019 -1.5 31.9756L0 31.9756Z" fill="#031D5E" mask="url(#path-3-inside-2_4313_116)"/>
<path d="M14.0388 27.8359H12.3594C10.7025 27.8359 9.35938 29.179 9.35938 30.8359V30.9635M14.0388 27.8359H18.8982M14.0388 27.8359C14.0388 26.8198 14.8625 25.9961 15.8786 25.9961H17.0584C18.0745 25.9961 18.8982 26.8198 18.8982 27.8359M18.8982 27.8359H20.3977C22.0545 27.8359 23.3977 29.179 23.3977 30.8359V30.9635M9.35938 30.9635V34.9546C9.35938 36.6115 10.7025 37.9546 12.3594 37.9546H20.3977C22.0545 37.9546 23.3977 36.6115 23.3977 34.9546V30.9635M9.35938 30.9635L14.9387 32.4917M23.3977 30.9635L17.8183 32.4917M14.9387 32.4917L15.586 32.669C16.1048 32.8111 16.6522 32.8111 17.171 32.669L17.8183 32.4917M14.9387 32.4917C14.7587 33.5154 14.7947 35.5629 16.3785 35.5629C17.9623 35.5629 17.9983 33.5154 17.8183 32.4917" stroke="#DB1317" stroke-width="1.5"/>
<circle cx="31.9752" cy="16.3776" r="0.779905" fill="#DB1317"/>
<circle cx="36.1354" cy="16.3776" r="0.779905" fill="#DB1317"/>
<circle cx="40.2955" cy="16.3776" r="0.779905" fill="#DB1317"/>
</svg>
