<svg width="30" height="30" viewBox="0 0 30 30" fill="none" xmlns="http://www.w3.org/2000/svg">
<path d="M23.7617 15H26.4008" stroke="black" stroke-width="1.5"/>
<path d="M3.59961 15H18.1355" stroke="black" stroke-width="1.5"/>
<path d="M12.4414 7.48633H26.4008" stroke="black" stroke-width="1.5"/>
<path d="M3.59961 7.48633H6.82461" stroke="black" stroke-width="1.5"/>
<path d="M16.4062 22.5137H26.4" stroke="black" stroke-width="1.5"/>
<path d="M3.59961 22.5137H10.7809" stroke="black" stroke-width="1.5"/>
<path d="M9.63281 10.1523C11.1861 10.1523 12.4453 8.89314 12.4453 7.33984C12.4453 5.78654 11.1861 4.52734 9.63281 4.52734C8.07951 4.52734 6.82031 5.78654 6.82031 7.33984C6.82031 8.89314 8.07951 10.1523 9.63281 10.1523Z" stroke="black" stroke-width="1.5"/>
<path d="M20.9492 17.8125C22.5025 17.8125 23.7617 16.5533 23.7617 15C23.7617 13.4467 22.5025 12.1875 20.9492 12.1875C19.3959 12.1875 18.1367 13.4467 18.1367 15C18.1367 16.5533 19.3959 17.8125 20.9492 17.8125Z" stroke="black" stroke-width="1.5"/>
<path d="M13.5938 25.3262C15.1471 25.3262 16.4062 24.067 16.4062 22.5137C16.4062 20.9604 15.1471 19.7012 13.5938 19.7012C12.0404 19.7012 10.7812 20.9604 10.7812 22.5137C10.7812 24.067 12.0404 25.3262 13.5938 25.3262Z" stroke="black" stroke-width="1.5"/>
</svg>
