<svg width="13" height="16" viewBox="0 0 13 16" fill="none" xmlns="http://www.w3.org/2000/svg">
<path d="M11.75 6.35007C11.75 9.84521 7.94194 13.4853 6.66319 14.6095C6.54406 14.7007 6.39905 14.75 6.25 14.75C6.10095 14.75 5.95594 14.7007 5.83681 14.6095C4.55806 13.4853 0.75 9.84521 0.75 6.35007C0.75 4.86484 1.32946 3.44044 2.36091 2.39022C3.39236 1.34001 4.79131 0.75 6.25 0.75C7.70869 0.75 9.10764 1.34001 10.1391 2.39022C11.1705 3.44044 11.75 4.86484 11.75 6.35007Z" stroke="#0D1387" stroke-width="1.5" stroke-linecap="round" stroke-linejoin="round"/>
<path d="M6.25 8.4501C7.38909 8.4501 8.3125 7.50988 8.3125 6.35007C8.3125 5.19026 7.38909 4.25004 6.25 4.25004C5.11091 4.25004 4.1875 5.19026 4.1875 6.35007C4.1875 7.50988 5.11091 8.4501 6.25 8.4501Z" stroke="#0D1387" stroke-width="1.5" stroke-linecap="round" stroke-linejoin="round"/>
</svg>
