<svg width="43" height="43" viewBox="0 0 43 43" fill="none" xmlns="http://www.w3.org/2000/svg">
<path fill-rule="evenodd" clip-rule="evenodd" d="M18.5869 15.8618C22.3606 15.1192 27.0031 16.2089 32.0791 21.1255L31.8936 21.3159L32.082 21.5073C27.0828 26.4272 22.4282 27.5151 18.6309 26.7729C14.8687 26.0375 12.0501 23.5249 10.6484 21.4282L10.8154 21.3159L10.6504 21.2036C12.0705 19.1129 14.8471 16.5979 18.5869 15.8618ZM30.8281 21.3208C26.16 17.0341 22.0349 16.2028 18.7803 16.8432C15.6229 17.4647 13.188 19.489 11.7998 21.3188C13.1736 23.1434 15.6404 25.1695 18.8223 25.7915C22.1014 26.4324 26.2339 25.5997 30.8281 21.3208Z" fill="#CD1719"/>
<circle cx="21.1212" cy="21.4844" r="4.50006" stroke="#CD1719"/>
<circle cx="21.1211" cy="21.4844" r="2.50004" stroke="#CD1719"/>
<path d="M32.2148 0.650391H40.6485C41.2008 0.650391 41.6485 1.09811 41.6485 1.65039V9.72119" stroke="#031D5E" stroke-width="1.3"/>
<path d="M10.082 0.650391H1.6484C1.09612 0.650391 0.648403 1.09811 0.648403 1.65039V9.72119" stroke="#031D5E" stroke-width="1.3"/>
<path d="M10.8086 7.18164H8.18028C7.62799 7.18164 7.18028 7.62936 7.18028 8.18164V10.81" stroke="#031D5E" stroke-width="1.3"/>
<path d="M31.125 7.18164H33.7533C34.3056 7.18164 34.7533 7.62936 34.7533 8.18164V10.81" stroke="#031D5E" stroke-width="1.3"/>
<path d="M32.2148 41.6504H40.6485C41.2008 41.6504 41.6485 41.2027 41.6485 40.6504V32.5796" stroke="#031D5E" stroke-width="1.3"/>
<path d="M10.082 41.6504H1.6484C1.09612 41.6504 0.648403 41.2027 0.648403 40.6504V32.5796" stroke="#031D5E" stroke-width="1.3"/>
<path d="M10.8086 34.7559H8.18028C7.62799 34.7559 7.18028 34.3081 7.18028 33.7559V31.1275" stroke="#031D5E" stroke-width="1.3"/>
<path d="M31.125 34.7559H33.7533C34.3056 34.7559 34.7533 34.3081 34.7533 33.7559V31.1275" stroke="#031D5E" stroke-width="1.3"/>
</svg>
