<svg width="70" height="43" viewBox="0 0 70 43" fill="none" xmlns="http://www.w3.org/2000/svg">
<path d="M21.1484 26.6504C24.186 26.6504 26.6484 24.188 26.6484 21.1504C26.6484 18.1128 24.186 15.6504 21.1484 15.6504C18.1109 15.6504 15.6484 18.1128 15.6484 21.1504C15.6484 24.188 18.1109 26.6504 21.1484 26.6504Z" stroke="#031D5E" stroke-width="1.3" stroke-linecap="round" stroke-linejoin="round"/>
<path d="M34.9393 26.7413C34.6913 27.3034 34.6173 27.9269 34.7269 28.5315C34.8365 29.136 35.1247 29.6939 35.5543 30.1331L35.6662 30.2449C36.0127 30.5911 36.2876 31.0022 36.4752 31.4547C36.6628 31.9071 36.7593 32.3922 36.7593 32.882C36.7593 33.3718 36.6628 33.8568 36.4752 34.3093C36.2876 34.7618 36.0127 35.1729 35.6662 35.519C35.32 35.8656 34.9089 36.1405 34.4564 36.3281C34.004 36.5156 33.5189 36.6122 33.0291 36.6122C32.5393 36.6122 32.0543 36.5156 31.6018 36.3281C31.1493 36.1405 30.7382 35.8656 30.3921 35.519L30.2803 35.4072C29.841 34.9776 29.2832 34.6894 28.6786 34.5797C28.0741 34.4701 27.4505 34.5441 26.8884 34.7922C26.3372 35.0284 25.8671 35.4207 25.536 35.9207C25.2049 36.4207 25.0272 37.0066 25.0248 37.6063V37.9231C25.0248 38.9117 24.6321 39.8597 23.9331 40.5587C23.2341 41.2577 22.2861 41.6504 21.2975 41.6504C20.309 41.6504 19.3609 41.2577 18.6619 40.5587C17.963 39.8597 17.5703 38.9117 17.5703 37.9231V37.7554C17.5558 37.1385 17.3562 36.5403 16.9972 36.0384C16.6383 35.5366 16.1366 35.1543 15.5575 34.9413C14.9954 34.6932 14.3719 34.6192 13.7673 34.7288C13.1628 34.8385 12.6049 35.1267 12.1657 35.5563L12.0539 35.6681C11.7077 36.0147 11.2967 36.2896 10.8442 36.4772C10.3917 36.6647 9.90667 36.7613 9.41685 36.7613C8.92703 36.7613 8.44201 36.6647 7.98952 36.4772C7.53704 36.2896 7.12596 36.0147 6.7798 35.6681C6.43325 35.322 6.15833 34.9109 5.97076 34.4584C5.78319 34.0059 5.68664 33.5209 5.68664 33.0311C5.68664 32.5413 5.78319 32.0562 5.97076 31.6038C6.15833 31.1513 6.43325 30.7402 6.7798 30.394L6.89162 30.2822C7.32126 29.843 7.60947 29.2851 7.71908 28.6806C7.8287 28.076 7.7547 27.4525 7.50662 26.8904C7.27038 26.3392 6.87812 25.8691 6.37812 25.538C5.87813 25.2068 5.29222 25.0291 4.69253 25.0268H4.37571C3.38718 25.0268 2.43913 24.6341 1.74013 23.9351C1.04113 23.2361 0.648438 22.288 0.648438 21.2995C0.648438 20.3109 1.04113 19.3629 1.74013 18.6639C2.43913 17.9649 3.38718 17.5722 4.37571 17.5722H4.54344C5.16029 17.5578 5.75854 17.3581 6.2604 16.9992C6.76227 16.6402 7.14454 16.1386 7.35753 15.5595C7.60561 14.9974 7.67961 14.3738 7.56999 13.7693C7.46037 13.1647 7.17217 12.6069 6.74253 12.1677L6.63071 12.0558C6.28416 11.7097 6.00924 11.2986 5.82167 10.8461C5.6341 10.3936 5.53755 9.90862 5.53755 9.4188C5.53755 8.92898 5.6341 8.44396 5.82167 7.99148C6.00924 7.53899 6.28416 7.12792 6.63071 6.78175C6.97687 6.43521 7.38795 6.16029 7.84043 5.97271C8.29292 5.78514 8.77793 5.68859 9.26776 5.68859C9.75758 5.68859 10.2426 5.78514 10.6951 5.97271C11.1476 6.16029 11.5586 6.43521 11.9048 6.78175L12.0166 6.89357C12.4558 7.32321 13.0137 7.61142 13.6182 7.72104C14.2228 7.83065 14.8463 7.75665 15.4084 7.50857H15.5575C16.1087 7.27233 16.5788 6.88007 16.91 6.38008C17.2411 5.88008 17.4188 5.29418 17.4212 4.69448V4.37766C17.4212 3.38913 17.8139 2.44108 18.5129 1.74208C19.2119 1.04308 20.1599 0.650391 21.1484 0.650391C22.137 0.650391 23.085 1.04308 23.784 1.74208C24.483 2.44108 24.8757 3.38913 24.8757 4.37766V4.54539C24.8781 5.14508 25.0558 5.73099 25.3869 6.23099C25.718 6.73098 26.1881 7.12324 26.7393 7.35948C27.3014 7.60756 27.925 7.68156 28.5295 7.57194C29.1341 7.46233 29.6919 7.17412 30.1312 6.74448L30.243 6.63266C30.5891 6.28611 31.0002 6.0112 31.4527 5.82362C31.9052 5.63605 32.3902 5.5395 32.88 5.5395C33.3699 5.5395 33.8549 5.63605 34.3074 5.82362C34.7598 6.0112 35.1709 6.28611 35.5171 6.63266C35.8636 6.97883 36.1385 7.3899 36.3261 7.84239C36.5137 8.29487 36.6102 8.77989 36.6102 9.26971C36.6102 9.75953 36.5137 10.2445 36.3261 10.697C36.1385 11.1495 35.8636 11.5606 35.5171 11.9068L35.4053 12.0186C34.9756 12.4578 34.6874 13.0156 34.5778 13.6202C34.4682 14.2248 34.5422 14.8483 34.7903 15.4104V15.5595C35.0265 16.1107 35.4188 16.5808 35.9188 16.9119C36.4187 17.243 37.0047 17.4207 37.6043 17.4231H37.9212C38.9097 17.4231 39.8577 17.8158 40.5567 18.5148C41.2557 19.2138 41.6484 20.1619 41.6484 21.1504C41.6484 22.1389 41.2557 23.087 40.5567 23.786C39.8577 24.485 38.9097 24.8777 37.9212 24.8777H37.7534C37.1537 24.8801 36.5678 25.0578 36.0678 25.3889C35.5679 25.72 35.1756 26.1901 34.9393 26.7413Z" stroke="#031D5E" stroke-width="1.3" stroke-linecap="round" stroke-linejoin="round"/>
<path d="M57.6484 23.6504C59.3053 23.6504 60.6484 22.3072 60.6484 20.6504C60.6484 18.9935 59.3053 17.6504 57.6484 17.6504C55.9916 17.6504 54.6484 18.9935 54.6484 20.6504C54.6484 22.3072 55.9916 23.6504 57.6484 23.6504Z" stroke="#CD1719" stroke-linecap="round" stroke-linejoin="round"/>
<path d="M65.0484 23.6504C64.9153 23.952 64.8756 24.2866 64.9344 24.611C64.9933 24.9354 65.1479 25.2347 65.3784 25.4704L65.4384 25.5304C65.6244 25.7161 65.7719 25.9367 65.8726 26.1795C65.9732 26.4223 66.025 26.6826 66.025 26.9454C66.025 27.2082 65.9732 27.4685 65.8726 27.7113C65.7719 27.9541 65.6244 28.1746 65.4384 28.3604C65.2527 28.5463 65.0321 28.6939 64.7893 28.7945C64.5465 28.8952 64.2863 28.947 64.0234 28.947C63.7606 28.947 63.5004 28.8952 63.2576 28.7945C63.0148 28.6939 62.7942 28.5463 62.6084 28.3604L62.5484 28.3004C62.3128 28.0699 62.0134 27.9152 61.689 27.8564C61.3646 27.7976 61.0301 27.8373 60.7284 27.9704C60.4327 28.0972 60.1804 28.3076 60.0027 28.5759C59.8251 28.8442 59.7297 29.1586 59.7284 29.4804V29.6504C59.7284 30.1808 59.5177 30.6895 59.1427 31.0646C58.7676 31.4397 58.2589 31.6504 57.7284 31.6504C57.198 31.6504 56.6893 31.4397 56.3142 31.0646C55.9392 30.6895 55.7284 30.1808 55.7284 29.6504V29.5604C55.7207 29.2294 55.6136 28.9084 55.4209 28.6391C55.2283 28.3698 54.9592 28.1647 54.6484 28.0504C54.3468 27.9173 54.0122 27.8776 53.6878 27.9364C53.3635 27.9952 53.0641 28.1499 52.8284 28.3804L52.7684 28.4404C52.5827 28.6263 52.3621 28.7739 52.1193 28.8745C51.8765 28.9752 51.6163 29.027 51.3534 29.027C51.0906 29.027 50.8304 28.9752 50.5876 28.8745C50.3448 28.7739 50.1242 28.6263 49.9384 28.4404C49.7525 28.2546 49.605 28.0341 49.5043 27.7913C49.4037 27.5485 49.3519 27.2882 49.3519 27.0254C49.3519 26.7626 49.4037 26.5023 49.5043 26.2595C49.605 26.0167 49.7525 25.7961 49.9384 25.6104L49.9984 25.5504C50.229 25.3147 50.3836 25.0154 50.4424 24.691C50.5013 24.3666 50.4616 24.032 50.3284 23.7304C50.2017 23.4346 49.9912 23.1824 49.7229 23.0047C49.4546 22.827 49.1402 22.7317 48.8184 22.7304H48.6484C48.118 22.7304 47.6093 22.5197 47.2342 22.1446C46.8592 21.7695 46.6484 21.2608 46.6484 20.7304C46.6484 20.2 46.8592 19.6913 47.2342 19.3162C47.6093 18.9411 48.118 18.7304 48.6484 18.7304H48.7384C49.0694 18.7226 49.3904 18.6155 49.6597 18.4229C49.929 18.2303 50.1342 17.9611 50.2484 17.6504C50.3816 17.3488 50.4213 17.0142 50.3624 16.6898C50.3036 16.3654 50.149 16.0661 49.9184 15.8304L49.8584 15.7704C49.6725 15.5846 49.525 15.3641 49.4243 15.1213C49.3237 14.8785 49.2719 14.6182 49.2719 14.3554C49.2719 14.0926 49.3237 13.8323 49.4243 13.5895C49.525 13.3467 49.6725 13.1261 49.8584 12.9404C50.0442 12.7544 50.2648 12.6069 50.5076 12.5063C50.7504 12.4056 51.0106 12.3538 51.2734 12.3538C51.5363 12.3538 51.7965 12.4056 52.0393 12.5063C52.2821 12.6069 52.5027 12.7544 52.6884 12.9404L52.7484 13.0004C52.9841 13.2309 53.2835 13.3856 53.6078 13.4444C53.9322 13.5032 54.2668 13.4635 54.5684 13.3304H54.6484C54.9442 13.2036 55.1965 12.9931 55.3741 12.7249C55.5518 12.4566 55.6472 12.1422 55.6484 11.8204V11.6504C55.6484 11.12 55.8592 10.6112 56.2342 10.2362C56.6093 9.8611 57.118 9.65039 57.6484 9.65039C58.1789 9.65039 58.6876 9.8611 59.0627 10.2362C59.4377 10.6112 59.6484 11.12 59.6484 11.6504V11.7404C59.6497 12.0622 59.7451 12.3766 59.9227 12.6449C60.1004 12.9131 60.3527 13.1236 60.6484 13.2504C60.9501 13.3835 61.2846 13.4232 61.609 13.3644C61.9334 13.3056 62.2328 13.1509 62.4684 12.9204L62.5284 12.8604C62.7142 12.6744 62.9348 12.5269 63.1776 12.4263C63.4204 12.3256 63.6806 12.2738 63.9434 12.2738C64.2063 12.2738 64.4665 12.3256 64.7093 12.4263C64.9521 12.5269 65.1727 12.6744 65.3584 12.8604C65.5444 13.0461 65.6919 13.2667 65.7926 13.5095C65.8932 13.7523 65.945 14.0126 65.945 14.2754C65.945 14.5382 65.8932 14.7985 65.7926 15.0413C65.6919 15.2841 65.5444 15.5046 65.3584 15.6904L65.2984 15.7504C65.0679 15.9861 64.9133 16.2854 64.8544 16.6098C64.7956 16.9342 64.8353 17.2688 64.9684 17.5704V17.6504C65.0952 17.9462 65.3057 18.1984 65.574 18.3761C65.8423 18.5538 66.1567 18.6491 66.4784 18.6504H66.6484C67.1789 18.6504 67.6876 18.8611 68.0627 19.2362C68.4377 19.6113 68.6484 20.12 68.6484 20.6504C68.6484 21.1808 68.4377 21.6895 68.0627 22.0646C67.6876 22.4397 67.1789 22.6504 66.6484 22.6504H66.5584C66.2367 22.6517 65.9223 22.747 65.654 22.9247C65.3857 23.1024 65.1752 23.3546 65.0484 23.6504Z" stroke="#CD1719" stroke-linecap="round" stroke-linejoin="round"/>
</svg>
