<svg width="63" height="58" viewBox="0 0 63 58" fill="none" xmlns="http://www.w3.org/2000/svg">
<path d="M4.85389 46.8924L37.2088 11.8924C37.5874 11.4829 38.1197 11.25 38.6774 11.25H52.3128C54.0359 11.25 54.9524 13.2836 53.8113 14.5746L22.8733 49.5746C22.4937 50.0041 21.9481 50.25 21.3749 50.25H6.3225C4.5783 50.25 3.66989 48.1731 4.85389 46.8924Z" stroke="#031D5E" stroke-width="1.5" stroke-linecap="round"/>
<path d="M1.28988 14.7294C1.00236 14.4312 0.527568 14.4226 0.229398 14.7101C-0.0687709 14.9976 -0.0774036 15.4724 0.210117 15.7706L0.75 15.25L1.28988 14.7294ZM41.2364 57.9999C41.6505 58.0074 41.9923 57.6778 41.9999 57.2636L42.1226 50.5148C42.1301 50.1006 41.8005 49.7588 41.3863 49.7512C40.9722 49.7437 40.6304 50.0733 40.6228 50.4875L40.5138 56.4865L34.5148 56.3774C34.1006 56.3699 33.7588 56.6995 33.7512 57.1137C33.7437 57.5278 34.0733 57.8696 34.4875 57.8772L41.2364 57.9999ZM0.75 15.25L0.210117 15.7706L40.7101 57.7706L41.25 57.25L41.7899 56.7294L1.28988 14.7294L0.75 15.25Z" fill="#CD1719"/>
<path d="M11.7989 7.23894C11.5167 6.93578 11.0421 6.91883 10.7389 7.20108C10.4358 7.48333 10.4188 7.9579 10.7011 8.26106L11.25 7.75L11.7989 7.23894ZM51.7232 51.9995C52.1372 52.0143 52.4847 51.6907 52.4995 51.2768L52.7404 44.5311C52.7552 44.1171 52.4316 43.7696 52.0177 43.7548C51.6037 43.74 51.2562 44.0636 51.2414 44.4775L51.0272 50.4737L45.0311 50.2596C44.6171 50.2448 44.2696 50.5684 44.2548 50.9823C44.24 51.3963 44.5636 51.7438 44.9775 51.7586L51.7232 51.9995ZM11.25 7.75L10.7011 8.26106L51.2011 51.7611L51.75 51.25L52.2989 50.7389L11.7989 7.23894L11.25 7.75Z" fill="#CD1719"/>
<path d="M21.2898 0.229281C21.0022 -0.0688258 20.5274 -0.0773551 20.2293 0.21023C19.9312 0.497815 19.9226 0.972613 20.2102 1.27072L20.75 0.75L21.2898 0.229281ZM61.7365 43.9999C62.1507 44.0073 62.4924 43.6776 62.4999 43.2635L62.6211 36.5146C62.6286 36.1004 62.2989 35.7586 61.8847 35.7512C61.4706 35.7438 61.1288 36.0735 61.1214 36.4876L61.0136 42.4866L55.0146 42.3789C54.6004 42.3714 54.2586 42.7011 54.2512 43.1153C54.2438 43.5294 54.5735 43.8712 54.9876 43.8786L61.7365 43.9999ZM20.75 0.75L20.2102 1.27072L61.2102 43.7707L61.75 43.25L62.2898 42.7293L21.2898 0.229281L20.75 0.75Z" fill="#CD1719"/>
<path d="M21.125 49.0391L9.83094 46.9214C8.27979 46.6306 7.66083 44.7419 8.73898 43.5894L20.75 30.75L37.624 12.4296C38.0212 11.9984 38.5875 11.7632 39.1733 11.7861L50.315 12.2216C50.7838 12.24 51.2313 12.4225 51.5791 12.7374L51.7737 12.9135C52.5901 13.6526 52.6554 14.9125 51.9199 15.7321L35.75 33.75L23.0017 48.3869C22.536 48.9216 21.822 49.1697 21.125 49.0391Z" fill="#F9FCFF"/>
<path d="M15.2961 29.236L14.7821 28.6898L13.6898 29.7179L14.2039 30.264L14.75 29.75L15.2961 29.236ZM22.2038 38.764C22.4877 39.0657 22.9624 39.08 23.264 38.7962C23.5657 38.5123 23.58 38.0376 23.2962 37.736L22.75 38.25L22.2038 38.764ZM14.75 29.75L14.2039 30.264L22.2038 38.764L22.75 38.25L23.2962 37.736L15.2961 29.236L14.75 29.75Z" fill="#CD1719"/>
<path d="M24.2961 20.736L23.7821 20.1898L22.6898 21.2179L23.2039 21.764L23.75 21.25L24.2961 20.736ZM31.2038 30.264C31.4877 30.5657 31.9624 30.58 32.264 30.2962C32.5657 30.0123 32.58 29.5376 32.2962 29.236L31.75 29.75L31.2038 30.264ZM23.75 21.25L23.2039 21.764L31.2038 30.264L31.75 29.75L32.2962 29.236L24.2961 20.736L23.75 21.25Z" fill="#CD1719"/>
<path d="M33.2961 12.736L32.7821 12.1898L31.6898 13.2179L32.2039 13.764L32.75 13.25L33.2961 12.736ZM40.2038 22.264C40.4877 22.5657 40.9624 22.58 41.264 22.2962C41.5657 22.0123 41.58 21.5376 41.2962 21.236L40.75 21.75L40.2038 22.264ZM32.75 13.25L32.2039 13.764L40.2038 22.264L40.75 21.75L41.2962 21.236L33.2961 12.736L32.75 13.25Z" fill="#CD1719"/>
</svg>
