<svg width="48" height="56" viewBox="0 0 48 56" fill="none" xmlns="http://www.w3.org/2000/svg">
<path d="M24.9386 20.2638C19.3086 8.5776 16.1018 1.76758 16.1018 1.76758L2.80884 30.2826C-2.10483 40.7676 1.39502 55.7676 17.4517 54.9442C22.0679 54.7074 27.0799 51.6577 29.7828 46.6036" stroke="#031D5E" stroke-width="1.5" stroke-linecap="round"/>
<path d="M19.9531 23.9382C21.9512 23.5 22.8251 24.9419 24.8574 27.2501C27.1723 29.8792 29.7621 25.9351 31.9414 24.6206C33.0312 23.9632 34.7812 22.3605 38.4805 26.5675C40.213 28.5393 44.4917 28.4078 46.9579 25.2526" stroke="#CD1719" stroke-width="1.5" stroke-linecap="round"/>
<path d="M19.9531 31.6452C21.9512 31.207 22.8251 32.6489 24.8574 34.9571C27.1723 37.5862 29.7621 33.6421 31.9414 32.3276C33.0312 31.6703 34.7812 30.0675 38.4805 34.2745C40.213 36.2463 44.4917 36.1149 46.9579 32.9596" stroke="#CD1719" stroke-width="1.5" stroke-linecap="round"/>
<path d="M19.9531 39.3523C21.9512 38.914 22.8251 40.356 24.8574 42.6642C27.1723 45.2932 29.7621 41.3491 31.9414 40.0347C33.0312 39.3773 34.7812 37.7745 38.4805 41.9816C40.213 43.9534 44.4917 43.8219 46.9579 40.6666" stroke="#CD1719" stroke-width="1.5" stroke-linecap="round"/>
</svg>
