<svg width="26" height="26" viewBox="0 0 26 26" fill="none" xmlns="http://www.w3.org/2000/svg">
<path d="M13 0C20.1797 0 26 5.8203 26 13C26 20.1797 20.1797 26 13 26C5.8203 26 0 20.1797 0 13C2.57703e-07 5.8203 5.8203 2.57711e-07 13 0ZM19.3887 8.91016C19.6067 8.03521 19.0551 7.63818 18.4834 7.89746L5.96094 12.7266C5.10628 13.0694 5.11095 13.5463 5.80469 13.7588L9.01855 14.7617L16.458 10.0684C16.8092 9.85543 17.1315 9.96939 16.8672 10.2041L10.8389 15.6445L10.6182 18.958C10.943 18.9579 11.0862 18.8091 11.2676 18.6328L12.8291 17.1152L16.0781 19.5146C16.6759 19.8444 17.1069 19.6739 17.2559 18.96L19.3887 8.91016Z" fill="#A3ADB8"/>
</svg>
