<svg width="26" height="26" viewBox="0 0 26 26" fill="none" xmlns="http://www.w3.org/2000/svg">
<path d="M13 0C20.1797 0 26 5.8203 26 13C26 20.1797 20.1797 26 13 26C5.8203 26 0 20.1797 0 13C2.57703e-07 5.8203 5.8203 2.57711e-07 13 0ZM12.7344 9.53516C11.9904 9.52783 11.3606 9.53789 11.0039 9.70898C10.7669 9.82281 10.584 10.0768 10.6953 10.0918C10.833 10.1098 11.1451 10.1745 11.3105 10.3955C11.5241 10.6812 11.5166 11.3213 11.5166 11.3213C11.5177 11.3365 11.6379 13.0868 11.2305 13.3057C10.9497 13.4561 10.5644 13.1491 9.73633 11.7451C9.31601 11.0322 8.99752 10.2447 8.99219 10.2314C8.99219 10.2314 8.92989 10.0828 8.81934 10.0029C8.68983 9.90949 8.51082 9.87876 8.5 9.87695L6.51855 9.88965C6.51855 9.88965 6.22052 9.89726 6.11133 10.0244C6.01617 10.1351 6.10166 10.3626 6.10449 10.3701C6.10449 10.3701 7.65552 13.933 9.41211 15.7285C11.0085 17.3593 12.8185 17.2684 12.8506 17.2666H13.6797C13.6797 17.2666 13.9304 17.2387 14.0586 17.1035C14.1756 16.9796 14.1719 16.7461 14.1719 16.7461C14.1717 16.7309 14.1596 15.6543 14.6719 15.4941C15.1805 15.3357 15.8342 16.5489 16.5273 17.0156C17.0509 17.3683 17.4482 17.291 17.4482 17.291L19.2998 17.2666C19.2998 17.2666 20.2687 17.2076 19.8096 16.46C19.7716 16.3987 19.5414 15.907 18.4326 14.8965C17.2709 13.8387 17.427 14.0094 18.8252 12.1797C19.6769 11.0654 20.0175 10.3848 19.9111 10.0938C19.8103 9.81598 19.1859 9.88938 19.1836 9.88965L17.0986 9.90137C17.094 9.90077 16.942 9.88203 16.8291 9.94824C16.7173 10.0142 16.6445 10.168 16.6445 10.168C16.6427 10.1729 16.3139 11.0321 15.875 11.7637C14.9465 13.3108 14.5757 13.3927 14.4238 13.2969C14.0705 13.0725 14.1582 12.397 14.1582 11.917C14.1582 10.4173 14.3906 9.79178 13.708 9.62988C13.4815 9.57596 13.3142 9.54115 12.7344 9.53516Z" fill="#A3ADB8"/>
</svg>
