<svg width="1752" height="673" viewBox="0 0 1752 673" fill="none" xmlns="http://www.w3.org/2000/svg">
<path d="M1199.31 672.139V0H0.00109863V672.139H1199.31Z" fill="#0040A1"/>
<path d="M1199.31 672.136V139.529H422.363V672.136H1199.31Z" fill="#161C99"/>
<path d="M775.902 139.53V0.939453H677.163V139.53H775.902Z" fill="#942D0F"/>
<path fill-rule="evenodd" clip-rule="evenodd" d="M889.908 32.213C849.534 229.483 675.066 377.801 465.872 377.801C256.679 377.801 82.2112 229.378 41.8368 32.213L27.5071 0.833984H890.117L889.908 32.213Z" fill="#052480"/>
<path d="M1752 672.141V0.943359H1199.21V672.141H1752Z" fill="#170063"/>
<path d="M1752 139.534V0.943359H1493.44V139.534H1752Z" fill="#1F2766"/>
<path fill-rule="evenodd" clip-rule="evenodd" d="M1651.27 147.898C1651.27 386.902 1457.46 580.72 1218.45 580.72C979.448 580.72 785.63 386.902 785.63 147.898C785.63 96.3318 794.73 46.7529 811.256 0.939453H1625.65C1642.17 46.8575 1651.27 96.3318 1651.27 147.898Z" fill="#052480"/>
<path fill-rule="evenodd" clip-rule="evenodd" d="M1625.65 0.943359C1641.34 44.351 1650.23 91.0012 1651.17 139.534H1493.44V0.943359H1625.65Z" fill="#0040A1"/>
<path fill-rule="evenodd" clip-rule="evenodd" d="M1493.54 482.089C1418.76 543.696 1322.95 580.619 1218.56 580.619C979.554 580.619 785.736 386.801 785.736 147.797C785.736 144.973 785.736 142.149 785.841 139.43H1493.54V482.089Z" fill="#0040A1"/>
<path fill-rule="evenodd" clip-rule="evenodd" d="M1493.44 482.088C1418.65 543.695 1322.84 580.618 1218.45 580.618C1211.97 580.618 1205.59 580.409 1199.21 580.2V139.533H1493.44V482.192V482.088Z" fill="#002287"/>
<path fill-rule="evenodd" clip-rule="evenodd" d="M785.837 139.53C786.779 90.9973 795.669 44.3471 811.359 0.939453H1199.31V139.53H785.837Z" fill="#0B0380"/>
<path d="M1493.54 139.534V0.943359H1199.31V139.534H1493.54Z" fill="#170063"/>
</svg>
