<svg width="75" height="27" viewBox="0 0 75 27" fill="none" xmlns="http://www.w3.org/2000/svg">
<g clip-path="url(#clip0_12191_6707)">
<path d="M12.7821 1.913C13.3058 1.913 13.7283 1.48591 13.7283 0.9565C13.7283 0.427088 13.3058 0 12.7821 0C12.2584 0 11.8359 0.427088 11.8359 0.9565C11.8359 1.48591 12.2584 1.913 12.7821 1.913Z" fill="#3A3B55"/>
<path d="M33.1074 16.4207H30.7617L33.9348 0L39.185 11.8606L44.4881 0L47.3399 16.4207H44.9942L43.4583 7.22046L39.0706 16.5719L34.7137 7.20267L33.1118 16.4207H33.1074Z" fill="#3A3B55"/>
<path d="M48.5586 0.155709H51.0583L55.0411 10.3791L59.1119 0L63.0463 10.3791L67.1656 0.169056H69.6653L62.9099 16.4162L58.9755 5.59664L54.9927 16.4162L48.5586 0.155709Z" fill="#3A3B55"/>
<path d="M72.6875 0H75.0024V16.4207H72.6875V0Z" fill="#3A3B55"/>
<path fill-rule="evenodd" clip-rule="evenodd" d="M32.6523 25.652C33.2112 25.652 33.5809 25.3939 33.6997 25.1893V25.5986H34.241V20.8027H33.6997V22.4399C33.4973 22.2353 33.176 22.0973 32.6875 22.0973C31.7589 22.0973 30.9844 22.8314 30.9844 23.8902C30.9844 24.9491 31.6753 25.6475 32.6567 25.6475L32.6523 25.652ZM33.6997 23.0939V24.4775C33.5633 24.7489 33.2288 25.127 32.7183 25.127C32.045 25.127 31.5521 24.6643 31.5521 23.8813C31.5521 23.0983 32.111 22.6179 32.7491 22.6179C33.1892 22.6179 33.4929 22.7869 33.6953 23.0939H33.6997Z" fill="#3A3B55"/>
<path fill-rule="evenodd" clip-rule="evenodd" d="M35.8946 21.0611C35.8946 20.8742 35.7405 20.7363 35.5557 20.7363C35.3532 20.7363 35.1992 20.8742 35.1992 21.0611C35.1992 21.2657 35.3532 21.4037 35.5557 21.4037C35.7405 21.4037 35.8946 21.2657 35.8946 21.0611ZM35.8109 22.1689H35.2696V25.5989H35.8109V22.1689Z" fill="#3A3B55"/>
<path fill-rule="evenodd" clip-rule="evenodd" d="M38.3912 26.9702C39.2538 26.9702 39.9095 26.4942 39.9095 25.333V22.1566H39.3506V22.4635C39.1966 22.2767 38.8445 22.0898 38.3384 22.0898C37.4098 22.0898 36.6484 22.7572 36.6484 23.8649C36.6484 24.9727 37.3218 25.64 38.3384 25.64C38.9105 25.64 39.1481 25.471 39.3682 25.2129V25.4176C39.3682 26.0493 39.0293 26.423 38.3736 26.423C37.8323 26.423 37.511 26.165 37.379 25.9114L36.8905 26.1338C37.0753 26.6455 37.6518 26.9702 38.3912 26.9702ZM39.3726 23.1131V24.4967C39.2538 24.8214 38.9149 25.1462 38.4264 25.1284C37.7003 25.1284 37.2294 24.6657 37.2294 23.8827C37.2294 23.0997 37.7883 22.6193 38.4264 22.6193C38.8841 22.6193 39.2186 22.8417 39.3726 23.1131Z" fill="#3A3B55"/>
<path fill-rule="evenodd" clip-rule="evenodd" d="M41.5664 21.0611C41.5664 20.8742 41.4124 20.7363 41.2276 20.7363C41.0251 20.7363 40.8711 20.8742 40.8711 21.0611C40.8711 21.2657 41.0251 21.4037 41.2276 21.4037C41.4124 21.4037 41.5664 21.2657 41.5664 21.0611ZM41.4828 22.1689H40.9415V25.5989H41.4828V22.1689Z" fill="#3A3B55"/>
<path d="M42.1607 22.1728H42.8692V21.3008H43.4105V22.1728H44.5767V22.7022H43.4105V24.2059C43.4105 24.8865 43.5953 25.109 44.0002 25.109C44.2379 25.109 44.4227 25.0067 44.6075 24.8687L44.8584 25.278C44.656 25.5005 44.3171 25.6384 43.8946 25.6384C43.2345 25.6384 42.8648 25.1935 42.8648 24.3393V22.7022H42.1562V22.1728H42.1607Z" fill="#3A3B55"/>
<path fill-rule="evenodd" clip-rule="evenodd" d="M46.7508 22.0826C46.2623 22.0826 45.721 22.2872 45.3997 22.5764L45.6682 22.9857C45.9894 22.7454 46.2931 22.612 46.6804 22.612C47.3889 22.612 47.5914 23.0213 47.5914 23.6352C47.4241 23.5863 47.0501 23.5329 46.7992 23.5329C45.8222 23.5329 45.1797 23.8399 45.1797 24.5917C45.1797 25.2235 45.6682 25.6327 46.4119 25.6327C47.0017 25.6327 47.3933 25.3747 47.5958 25.0855V25.5972H48.1371V23.4617C48.1371 22.5897 47.6662 22.0781 46.7508 22.0781V22.0826ZM47.5958 24.129V24.4716C47.477 24.743 47.1073 25.1389 46.5308 25.1389C46.0731 25.1389 45.7562 24.9343 45.7562 24.5739C45.7562 24.1646 46.1787 24.0267 46.8696 24.0267C47.1381 24.0267 47.4285 24.0757 47.5958 24.129Z" fill="#3A3B55"/>
<path d="M49.1133 20.7891H49.6546V25.6027H49.1133V20.7891Z" fill="#3A3B55"/>
<path fill-rule="evenodd" clip-rule="evenodd" d="M54.1141 22.0826C53.6256 22.0826 53.0843 22.2872 52.763 22.5764L53.0315 22.9857C53.3527 22.7454 53.6564 22.612 54.0437 22.612C54.7522 22.612 54.9547 23.0213 54.9547 23.6352C54.7874 23.5863 54.4133 23.5329 54.1625 23.5329C53.1855 23.5329 52.543 23.8399 52.543 24.5917C52.543 25.2235 53.0315 25.6327 53.7752 25.6327C54.3649 25.6327 54.7522 25.3747 54.9547 25.0855V25.5972H55.496V23.4617C55.496 22.5897 55.0251 22.0781 54.1097 22.0781L54.1141 22.0826ZM54.9591 24.129V24.4716C54.8402 24.743 54.4706 25.1389 53.894 25.1389C53.4408 25.1389 53.1195 24.9343 53.1195 24.5739C53.1195 24.1646 53.542 24.0267 54.2329 24.0267C54.5014 24.0267 54.7918 24.0757 54.9591 24.129Z" fill="#3A3B55"/>
<path fill-rule="evenodd" clip-rule="evenodd" d="M57.9771 26.9702C58.8397 26.9702 59.4954 26.4942 59.4954 25.333V22.1566H58.9365V22.4635C58.7825 22.2767 58.4304 22.0898 57.9243 22.0898C56.9957 22.0898 56.2344 22.7572 56.2344 23.8649C56.2344 24.9727 56.9121 25.64 57.9243 25.64C58.4964 25.64 58.7341 25.471 58.9541 25.2129V25.4176C58.9541 26.0493 58.6153 26.423 57.9595 26.423C57.4182 26.423 57.097 26.165 56.9649 25.9114L56.4764 26.1338C56.6613 26.6455 57.2378 26.9702 57.9771 26.9702ZM58.9409 23.1131V24.4967C58.8397 24.8214 58.5008 25.1462 57.9947 25.1284C57.2686 25.1284 56.7977 24.6657 56.7977 23.8827C56.7977 23.0997 57.3566 22.6193 57.9947 22.6193C58.4524 22.6193 58.7869 22.8417 58.9409 23.1131Z" fill="#3A3B55"/>
<path fill-rule="evenodd" clip-rule="evenodd" d="M62.0666 25.6695C62.6255 25.6695 63.0964 25.4293 63.4177 24.9533L63.0612 24.6285C62.8587 24.9177 62.4891 25.1401 62.0798 25.1401C61.3888 25.1401 60.8827 24.7664 60.8475 24.0635H63.5145C63.5497 23.9078 63.5497 23.7743 63.5497 23.6542C63.5497 22.6977 62.8719 22.1016 61.9786 22.1016C60.8475 22.1016 60.2578 22.8846 60.2578 23.8944C60.2578 24.9711 60.984 25.6695 62.0666 25.6695ZM62.9776 23.5697H60.8343C60.9179 23.0047 61.3228 22.5954 61.9478 22.6132C62.5551 22.6132 62.9424 22.9557 62.9776 23.5697Z" fill="#3A3B55"/>
<path d="M64.3125 22.1722H64.8538V22.6171C65.0739 22.2745 65.5315 22.1055 66.02 22.1055C66.9002 22.1055 67.3887 22.5681 67.3887 23.6581V25.6023H66.8474V23.7248C66.8474 22.973 66.5261 22.6304 65.8528 22.6304C65.4303 22.6304 65.043 22.9018 64.8582 23.3289V25.5978H64.3169V22.1678L64.3125 22.1722Z" fill="#3A3B55"/>
<path d="M71.3328 24.8882C71.0819 25.382 70.4702 25.6578 69.9333 25.6578C68.8507 25.6578 68.1289 24.9593 68.1289 23.8827C68.1289 22.8773 68.8374 22.0898 69.9025 22.0898C70.5098 22.0898 71.0511 22.3612 71.2711 22.7883L70.8487 23.0775C70.611 22.7527 70.325 22.6148 69.9025 22.6148C69.2115 22.6148 68.6878 23.1442 68.6878 23.8783C68.6878 24.6123 69.1939 25.1417 69.9729 25.1417C70.3778 25.1417 70.7166 24.9371 70.9191 24.6123L71.3416 24.8837L71.3328 24.8882Z" fill="#3A3B55"/>
<path d="M72.1964 26.4223C72.2448 26.44 72.28 26.4578 72.3328 26.4578C72.5837 26.4578 72.7553 26.2888 72.9929 25.7416L73.0942 25.4835L71.457 22.1914H72.0996L73.367 24.7851L74.3308 22.1914H74.9205L73.6355 25.5725C73.1778 26.7337 72.8257 27.005 72.3504 27.005C72.214 27.005 72.082 26.9695 71.9807 26.9205L72.2008 26.4267L72.1964 26.4223Z" fill="#3A3B55"/>
<path d="M21.0354 16.4028H24.7322L25.5771 14.9703H20.054L17.6379 21.7637L16.102 18.9654L13.4835 23.7968V3.12305H12.0664V26.7953H13.4835L16.102 21.7414L17.7216 25.1715L18.1088 24.1305L18.4477 23.2451" fill="#3A3B55"/>
<path d="M4.54172 13.5155H0.827368L0 14.9481H5.52312L7.93921 8.13689L9.45752 10.953L12.076 6.12156V26.7909H13.5107V3.12305H12.076L9.47512 8.17693L7.85559 4.74687L7.46831 5.7879H7.45071L7.12945 6.65987V6.67767" fill="#3A3B55"/>
</g>
<defs>
<clipPath id="clip0_12191_6707">
<rect width="75" height="27" fill="white"/>
</clipPath>
</defs>
</svg>
