<svg width="301" height="112" viewBox="0 0 301 112" fill="none" xmlns="http://www.w3.org/2000/svg">
<g clip-path="url(#clip0_4030_1092)">
<path fill-rule="evenodd" clip-rule="evenodd" d="M140.793 74.1303H138.501H124.043V111.283H132.506V99.3884H140.423H140.511H140.793C147.652 99.196 153.171 93.6161 153.171 86.7593C153.171 79.9025 147.67 74.3227 140.793 74.1303ZM140.493 91.797H132.524V81.7392H140.441C143.244 81.7392 145.501 83.9956 145.501 86.7593C145.501 89.523 143.262 91.762 140.493 91.7795V91.797ZM96.3775 59.6121H87.9141V0H96.3775V59.6121ZM105.017 89.2782L120.728 111.125H111.33L99.6748 94.893L95.1609 99.6333V89.8729L109.972 74.2002H119.37L105.017 89.2607V89.2782ZM248.561 89.2782L264.272 111.125H254.874L243.219 94.893L239.463 98.8462V111.51H231V0H239.463V89.0508L253.534 74.2002H262.932L248.579 89.2607L248.561 89.2782ZM301 74.3576V110.916H292.536V87.529L277.161 110.916H268.68V74.3576H277.161V98.8986L292.906 74.3576H301.017H301ZM175.493 73.553H166.818L150.632 111.143H159.342L163.168 102.275H179.179L183.005 111.143H191.697L175.511 73.553H175.493ZM176.216 95.4353H166.078L171.138 83.6808L176.199 95.4353H176.216ZM219.909 99.5284L226.433 104.933C222.801 109.254 217.317 112 211.199 112C200.249 112 191.362 103.184 191.362 92.3217C191.362 81.4593 200.249 72.6434 211.199 72.6434C217.141 72.6434 222.483 75.2322 226.116 79.3428L219.733 84.8877C217.652 82.5438 214.602 81.057 211.199 81.057C204.922 81.057 199.844 86.0946 199.844 92.3217C199.844 98.5488 204.922 103.586 211.199 103.586C214.69 103.586 217.828 102.012 219.909 99.5458V99.5284Z" fill="#0D1387"/>
<path fill-rule="evenodd" clip-rule="evenodd" d="M25.515 82.1937H35.5301V92.2515H25.515C22.7114 92.2515 20.4545 89.9951 20.4545 87.2314C20.4545 84.4677 22.7291 82.2112 25.515 82.2112M72.7517 87.2314C72.7517 84.4502 70.4772 82.2112 67.6913 82.2112H59.7744V92.269H67.7442C70.5125 92.234 72.7517 89.9951 72.7517 87.2489V87.2314ZM51.2933 111.143H59.7568V99.2132H67.6737H67.7266H68.0263C74.8853 99.0208 80.4041 93.4409 80.4041 86.5842C80.4041 79.7274 74.9029 74.1475 68.0263 73.9551H67.656H51.258V111.143H51.2933ZM11.7266 111.143H21.5654L29.6057 99.8604H35.5301V111.143H21.5654H43.9936V73.9551H25.3387C18.3915 74.0425 12.7845 79.6749 12.7845 86.5842C12.7845 91.9192 16.117 96.4845 20.8424 98.3387L11.7442 111.108V111.143H11.7266Z" fill="#FEFEFE"/>
<path fill-rule="evenodd" clip-rule="evenodd" d="M25.5139 82.1931H35.529V92.2509H25.5139C22.7103 92.2509 20.4358 89.9944 20.4358 87.2307C20.4358 84.467 22.7103 82.2106 25.5139 82.2106M72.7506 87.2307C72.7506 84.4495 70.4761 82.2106 67.6902 82.2106H59.7733V92.2683H67.7431C70.5113 92.2334 72.7506 89.9944 72.7506 87.2482V87.2307ZM0 59.5762V111.142H11.7254V111.107L20.8237 98.338C16.1159 96.4839 12.7657 91.9185 12.7657 86.5835C12.7657 79.6742 18.3728 74.0419 25.3199 73.9544H25.4962H43.9748V111.142H51.2746V73.9544H68.0252C74.8841 74.1468 80.403 79.7267 80.403 86.5835C80.403 93.4403 74.9018 99.0202 68.0252 99.2126H67.7254H67.6725H59.7557V111.142H87.8967V59.5762H0ZM29.6045 99.8598H35.529V111.142H21.5642L29.6045 99.8598Z" fill="#CD1719"/>
<path fill-rule="evenodd" clip-rule="evenodd" d="M0.582031 44.0961L3.36793 41.8046C4.40823 40.9475 4.81377 40.4928 4.81377 39.7931C4.81377 39.0934 4.3377 38.7086 3.68531 38.7086C3.03291 38.7086 2.59211 39.0759 1.97498 39.8281L0.687825 38.7786C1.51654 37.6591 2.30999 37.0469 3.80873 37.0469C5.53669 37.0469 6.70042 38.0614 6.70042 39.6532C6.70042 41.0525 5.9775 41.7522 4.49639 42.9066L3.13871 43.9561H6.78858V45.5479H0.582031V44.0786V44.0961Z" fill="#CD1719"/>
<path fill-rule="evenodd" clip-rule="evenodd" d="M8.10938 41.3692C8.10938 38.9379 9.62575 37.0312 11.8474 37.0312C14.0691 37.0312 15.5678 38.9204 15.5678 41.3692C15.5678 43.8181 14.0691 45.7072 11.8298 45.7072C9.59048 45.7072 8.10938 43.8181 8.10938 41.3692ZM13.6635 41.3692C13.6635 39.8474 12.923 38.693 11.8121 38.693C10.7013 38.693 9.99603 39.8124 9.99603 41.3692C9.99603 42.926 10.7189 44.0455 11.8474 44.0455C12.9759 44.0455 13.6635 42.926 13.6635 41.3692Z" fill="#CD1719"/>
<path fill-rule="evenodd" clip-rule="evenodd" d="M16.84 41.3673C16.84 38.9359 18.3564 37.0293 20.578 37.0293C22.7997 37.0293 24.2808 38.9184 24.2808 41.3673C24.2808 43.8161 22.7821 45.7052 20.5428 45.7052C18.3035 45.7052 16.8224 43.8161 16.84 41.3673ZM22.3942 41.3673C22.3942 39.8455 21.6536 38.691 20.5428 38.691C19.4319 38.691 18.7266 39.8105 18.7266 41.3673C18.7266 42.9065 19.4496 44.0435 20.578 44.0435C21.7065 44.0435 22.3942 42.924 22.3942 41.3673Z" fill="#CD1719"/>
<path fill-rule="evenodd" clip-rule="evenodd" d="M32.2335 40.5292V45.5494H31.1226V41.5262H29.6592V41.9111C29.6592 44.8672 29.1831 45.6193 28.0194 45.6193C27.843 45.6193 27.5786 45.5843 27.4375 45.5494L27.508 44.6398C27.508 44.6398 27.6138 44.6398 27.6844 44.6398C28.2838 44.6398 28.6189 44.255 28.6189 41.5612V40.5117H32.2335V40.5292Z" fill="#CD1719"/>
<path fill-rule="evenodd" clip-rule="evenodd" d="M33.4297 40.5293H37.2559V41.5263H34.5405V42.5409H36.9385V43.5204H34.5405V44.5699H37.2911V45.5669H33.4297V40.5293Z" fill="#CD1719"/>
<path fill-rule="evenodd" clip-rule="evenodd" d="M39.4637 41.5613H37.9297V40.5293H42.1262V41.5613H40.5745V45.5669H39.4637V41.5613Z" fill="#CD1719"/>
<path fill-rule="evenodd" clip-rule="evenodd" d="M37.6768 16.4951C37.1831 17.0548 36.707 17.2297 36.1428 17.3697C36.0194 17.4047 35.9136 17.4222 35.7901 17.4571C31.2763 18.6816 30.1831 21.2179 29.0546 23.8766C27.3267 27.8648 26.7977 31.4506 15.4778 32.4476C9.25362 32.9899 7.64909 32.5701 1.88334 35.5961C1.38964 35.8585 0.913571 36.1734 0.4375 36.5582C0.59619 36.3658 0.75488 36.1559 0.895938 35.946C6.78511 27.34 22.8833 34.4067 27.6793 23.2819C28.9488 20.3433 30.1655 17.4921 35.1554 16.0928C34.9262 14.6934 33.5861 13.0492 31.576 13.469C31.1176 13.5915 30.6592 13.8363 30.2536 14.1512C29.7775 14.536 29.3015 15.7779 28.9841 16.3901C29.4073 14.1512 29.6012 13.1891 30.042 12.1746C30.6944 10.6878 31.0294 10.338 32.9337 8.02906C28.7372 8.99111 26.8859 10.5129 24.9992 14.501C24.2587 16.0753 23.377 17.5096 22.1781 18.7865C22.0546 18.6816 21.9665 18.5241 21.9312 18.3492C19.0219 8.30893 9.95891 11.8773 3.31156 5.31783C3.85815 12.0347 7.57856 20.7456 14.4728 22.9845C18.0521 24.139 13.4325 29.439 10.9639 29.9638C12.7801 29.0192 16.0773 25.2235 12.9035 24.0341C8.4778 22.3723 5.49795 19.7311 3.55841 16.3726C1.40727 12.5944 0.560926 7.97658 0.455132 2.88647C0.455132 2.83399 0.455132 2.79901 0.455132 2.74653L0.578558 2.06435C0.649087 1.66204 1.037 1.38217 1.44254 1.45214C1.61886 1.48712 1.77755 1.57458 1.88334 1.71452C8.68939 8.51883 18.4577 7.18945 22.8304 16.3377C23.1126 15.7604 23.6415 15.1657 23.906 14.5885C25.5811 11.0376 26.9035 7.69671 31.6289 6.15743C31.6466 6.15743 31.6818 6.15743 31.6995 6.13994C32.5987 5.94753 35.5962 4.58317 35.8959 6.15743C36.0899 7.17196 34.7322 8.11652 34.0975 8.67625C33.0571 9.60332 31.576 11.0901 30.8355 12.8393C30.9236 12.8043 31.0118 12.7868 31.1 12.7518C31.77 12.5594 32.4929 12.5419 33.1806 12.6819C35.1906 13.1017 35.9841 15.7779 37.6592 16.4951" fill="#CD1719"/>
<path fill-rule="evenodd" clip-rule="evenodd" d="M40.3403 50.6565L39.5468 48.7674L38.7534 50.6565H40.3227H40.3403ZM40.7106 51.5136H38.4007L37.9599 52.5631H36.7786L38.9826 47.6479H40.1111L42.3327 52.5631H41.1337L40.6929 51.5136H40.7106ZM36.6199 48.575H35.033V52.5631H33.9045V48.575H32.3176V47.6479H36.6199V48.575ZM30.4486 47.6479H31.5947V52.5631H30.4486V47.6479ZM27.7156 51.7235C28.0153 51.7235 28.2446 51.6535 28.4209 51.5136C28.5796 51.3737 28.6677 51.1638 28.6677 50.8839C28.6677 50.3766 28.3504 50.1143 27.7156 50.1143H26.6753V51.7235H27.7156ZM27.9448 49.2572C28.5443 49.2572 29.0204 49.3971 29.3378 49.6595C29.6551 49.9219 29.8315 50.3242 29.8315 50.8489C29.8315 51.4087 29.6551 51.8285 29.3025 52.1258C28.9499 52.4232 28.4385 52.5631 27.8038 52.5631H25.5645V47.6479H26.7106V49.2572H27.9801H27.9448ZM24.3126 47.6479V52.5631H23.1665V48.575H20.9272V52.5631H19.7811V47.6479H24.2949H24.3126ZM16.1841 51.6885C16.4839 51.6885 16.7483 51.6186 16.9776 51.4961C17.2068 51.3562 17.4007 51.1813 17.5418 50.9364C17.6829 50.6915 17.7358 50.4291 17.7358 50.1143C17.7358 49.7994 17.6652 49.537 17.5418 49.2921C17.4007 49.0473 17.2244 48.8723 16.9776 48.7324C16.7483 48.5925 16.4839 48.54 16.1841 48.54C15.8844 48.54 15.6199 48.61 15.3907 48.7324C15.1614 48.8723 14.9675 49.0473 14.8264 49.2921C14.6854 49.537 14.6325 49.7994 14.6325 50.1143C14.6325 50.4291 14.703 50.6915 14.8264 50.9364C14.9675 51.1813 15.1438 51.3562 15.3907 51.4961C15.6199 51.6361 15.8844 51.6885 16.1841 51.6885ZM16.1841 52.6506C15.6728 52.6506 15.1967 52.5456 14.7912 52.3182C14.3856 52.0908 14.0506 51.7935 13.8214 51.4087C13.5922 51.0238 13.4688 50.5865 13.4688 50.0968C13.4688 49.607 13.5922 49.1872 13.8214 48.7849C14.0506 48.4001 14.3856 48.1027 14.7912 47.8753C15.1967 47.6479 15.6728 47.543 16.1841 47.543C16.6955 47.543 17.1539 47.6479 17.5771 47.8753C17.9826 48.1027 18.3176 48.4001 18.5468 48.7849C18.7761 49.1697 18.8995 49.607 18.8995 50.0968C18.8995 50.5865 18.7761 51.0063 18.5468 51.4087C18.3176 51.7935 17.9826 52.0908 17.5771 52.3182C17.1715 52.5456 16.6955 52.6506 16.1841 52.6506Z" fill="#CD1719"/>
</g>
<defs>
<clipPath id="clip0_4030_1092">
<rect width="301" height="112" fill="white"/>
</clipPath>
</defs>
</svg>
