<svg width="198" height="74" viewBox="0 0 198 74" fill="none" xmlns="http://www.w3.org/2000/svg">
<g clip-path="url(#clip0_12191_6681)">
<path fill-rule="evenodd" clip-rule="evenodd" d="M92.6124 48.9789H91.1046H81.5937V73.5262H87.161V65.6673H92.3688H92.4268H92.6124C97.1242 65.5402 100.755 61.8535 100.755 57.3231C100.755 52.7928 97.1358 49.106 92.6124 48.9789ZM92.4152 60.6516H87.1726V54.0062H92.3804C94.2246 54.0062 95.7092 55.4971 95.7092 57.3231C95.7092 59.1491 94.2362 60.6285 92.4152 60.64V60.6516ZM63.3955 39.3865H57.8281V0H63.3955V39.3865ZM69.0788 58.9874L79.4132 73.4221H73.2311L65.5644 62.6972L62.5952 65.8291V59.3803L72.338 49.0251H78.5201L69.0788 58.9758V58.9874ZM163.503 58.9874L173.838 73.4221H167.655L159.989 62.6972L157.518 65.3091V73.6764H151.951V0H157.518V58.8371L166.774 49.0251H172.956L163.515 58.9758L163.503 58.9874ZM197.997 49.1292V73.2835H192.43V57.8316L182.316 73.2835H176.737V49.1292H182.316V65.3437L192.674 49.1292H198.009H197.997ZM115.438 48.5975H109.732L99.0844 73.4337H104.814L107.331 67.5743H117.863L120.379 73.4337H126.098L115.45 48.5975H115.438ZM115.914 63.0554H109.245L112.574 55.2891L115.902 63.0554H115.914ZM144.655 65.7598L148.947 69.3309C146.558 72.1855 142.95 74 138.926 74C131.723 74 125.877 68.1752 125.877 60.9983C125.877 53.8213 131.723 47.9966 138.926 47.9966C142.834 47.9966 146.349 49.707 148.738 52.4229L144.539 56.0865C143.171 54.5379 141.164 53.5555 138.926 53.5555C134.797 53.5555 131.456 56.884 131.456 60.9983C131.456 65.1126 134.797 68.441 138.926 68.441C141.222 68.441 143.287 67.4009 144.655 65.7714V65.7598Z" fill="#0D1387"/>
<path fill-rule="evenodd" clip-rule="evenodd" d="M16.785 54.3067H23.373V60.952H16.785C14.9408 60.952 13.4562 59.4611 13.4562 57.6351C13.4562 55.8091 14.9524 54.3182 16.785 54.3182M47.8577 57.6351C47.8577 55.7975 46.3614 54.3182 44.5289 54.3182H39.3211V60.9635H44.5636C46.3846 60.9404 47.8577 59.4611 47.8577 57.6467V57.6351ZM33.7421 73.4336H39.3095V65.5517H44.5173H44.5521H44.7492C49.2611 65.4246 52.8915 61.7379 52.8915 57.2075C52.8915 52.6771 49.2727 48.9904 44.7492 48.8633H44.5057H33.7189V73.4336H33.7421ZM7.71484 73.4336H14.1869L19.4758 65.9793H23.373V73.4336H14.1869H28.9403V48.8633H16.669C12.0991 48.9211 8.41076 52.6424 8.41076 57.2075C8.41076 60.7324 10.6029 63.7488 13.7113 64.9739L7.72644 73.4105V73.4336H7.71484Z" fill="#FEFEFE"/>
<path fill-rule="evenodd" clip-rule="evenodd" d="M16.7832 54.3066H23.3712V60.9519H16.7832C14.939 60.9519 13.4428 59.461 13.4428 57.635C13.4428 55.809 14.939 54.3181 16.7832 54.3181M47.8559 57.635C47.8559 55.7974 46.3597 54.3181 44.5271 54.3181H39.3193V60.9635H44.5619C46.3829 60.9404 47.8559 59.461 47.8559 57.6466V57.635ZM0 39.3633V73.4336H7.71308V73.4104L13.698 64.9738C10.6011 63.7487 8.3974 60.7323 8.3974 57.2074C8.3974 52.6424 12.0858 48.921 16.6556 48.8632H16.7716H28.927V73.4336H33.7288V48.8632H44.7475C49.2593 48.9903 52.8897 52.677 52.8897 57.2074C52.8897 61.7378 49.2709 65.4245 44.7475 65.5516H44.5503H44.5155H39.3077V73.4336H57.8191V39.3633H0ZM19.4741 65.9792H23.3712V73.4336H14.1851L19.4741 65.9792Z" fill="#CD1719"/>
<path fill-rule="evenodd" clip-rule="evenodd" d="M0.382812 29.1341L2.21539 27.6201C2.89971 27.0538 3.16648 26.7533 3.16648 26.291C3.16648 25.8287 2.85332 25.5745 2.42417 25.5745C1.99502 25.5745 1.70505 25.8172 1.2991 26.3141L0.452404 25.6207C0.997539 24.8811 1.51948 24.4766 2.50536 24.4766C3.64202 24.4766 4.40753 25.1469 4.40753 26.1986C4.40753 27.1231 3.93199 27.5854 2.95771 28.3482L2.06461 29.0416H4.46553V30.0933H0.382812V29.1225V29.1341Z" fill="#CD1719"/>
<path fill-rule="evenodd" clip-rule="evenodd" d="M5.33594 27.333C5.33594 25.7265 6.33342 24.4668 7.79484 24.4668C9.25627 24.4668 10.2422 25.715 10.2422 27.333C10.2422 28.9509 9.25627 30.1991 7.78325 30.1991C6.31022 30.1991 5.33594 28.9509 5.33594 27.333ZM8.9895 27.333C8.9895 26.3275 8.50236 25.5647 7.77165 25.5647C7.04093 25.5647 6.57699 26.3044 6.57699 27.333C6.57699 28.3615 7.05253 29.1012 7.79484 29.1012C8.53716 29.1012 8.9895 28.3615 8.9895 27.333Z" fill="#CD1719"/>
<path fill-rule="evenodd" clip-rule="evenodd" d="M11.0782 27.333C11.0782 25.7265 12.0757 24.4668 13.5371 24.4668C14.9986 24.4668 15.9728 25.715 15.9728 27.333C15.9728 28.9509 14.987 30.1991 13.5139 30.1991C12.0409 30.1991 11.0666 28.9509 11.0782 27.333ZM14.7318 27.333C14.7318 26.3275 14.2446 25.5647 13.5139 25.5647C12.7832 25.5647 12.3193 26.3044 12.3193 27.333C12.3193 28.35 12.7948 29.1012 13.5371 29.1012C14.2794 29.1012 14.7318 28.3615 14.7318 27.333Z" fill="#CD1719"/>
<path fill-rule="evenodd" clip-rule="evenodd" d="M21.2017 26.7772V30.0941H20.471V27.4359H19.5083V27.6902C19.5083 29.6433 19.1951 30.1403 18.4296 30.1403C18.3136 30.1403 18.1397 30.1172 18.0469 30.0941L18.0933 29.4931C18.0933 29.4931 18.1629 29.4931 18.2093 29.4931C18.6036 29.4931 18.824 29.2388 18.824 27.4591V26.7656H21.2017V26.7772Z" fill="#CD1719"/>
<path fill-rule="evenodd" clip-rule="evenodd" d="M21.9922 26.7773H24.5091V27.4361H22.7229V28.1064H24.3003V28.7536H22.7229V29.447H24.5323V30.1058H21.9922V26.7773Z" fill="#CD1719"/>
<path fill-rule="evenodd" clip-rule="evenodd" d="M25.9583 27.4592H24.9492V26.7773H27.7097V27.4592H26.689V30.1058H25.9583V27.4592Z" fill="#CD1719"/>
<path fill-rule="evenodd" clip-rule="evenodd" d="M24.7853 10.8993C24.4606 11.2691 24.1474 11.3847 23.7763 11.4772C23.6951 11.5003 23.6255 11.5118 23.5443 11.5349C20.575 12.3439 19.8559 14.0197 19.1136 15.7764C17.977 18.4114 17.629 20.7806 10.1827 21.4394C6.08837 21.7976 5.0329 21.5203 1.24015 23.5196C0.915388 23.693 0.602225 23.901 0.289062 24.1553C0.39345 24.0282 0.497838 23.8895 0.590627 23.7508C4.46456 18.0647 15.0541 22.7338 18.2089 15.3835C19.044 13.4419 19.8443 11.5581 23.1267 10.6335C22.976 9.70893 22.0945 8.62256 20.7722 8.89993C20.4707 8.98083 20.1691 9.14263 19.9023 9.35066C19.5892 9.60492 19.276 10.4255 19.0672 10.83C19.3456 9.35066 19.4732 8.71502 19.7631 8.04471C20.1923 7.06236 20.4127 6.83122 21.6653 5.30568C18.9048 5.94132 17.687 6.94679 16.4459 9.5818C15.9588 10.6219 15.3789 11.5696 14.5902 12.4133C14.509 12.3439 14.451 12.2399 14.4278 12.1244C12.514 5.49059 6.55232 7.84824 2.17964 3.51433C2.53919 7.95225 4.9865 13.7077 9.52156 15.187C11.8761 15.9498 8.83724 19.4515 7.21344 19.7983C8.40809 19.1742 10.577 16.6663 8.48928 15.8804C5.57803 14.7825 3.61787 13.0374 2.34202 10.8184C0.926986 8.32208 0.370253 5.27101 0.300661 1.9079C0.300661 1.87323 0.300661 1.85011 0.300661 1.81544L0.381851 1.36472C0.428246 1.0989 0.683415 0.913989 0.950184 0.960217C1.06617 0.983331 1.17056 1.04112 1.24015 1.13357C5.71722 5.62928 12.1428 4.75094 15.0193 10.7953C15.2049 10.4139 15.5528 10.021 15.7268 9.63959C16.8287 7.2935 17.6986 5.0861 20.807 4.06907C20.8186 4.06907 20.8418 4.06907 20.8534 4.05752C21.4449 3.93039 23.4167 3.02894 23.6139 4.06907C23.7415 4.73938 22.8484 5.36347 22.4308 5.73329C21.7465 6.34582 20.7722 7.32817 20.2851 8.48388C20.3431 8.46076 20.4011 8.44921 20.4591 8.42609C20.8998 8.29897 21.3753 8.28741 21.8277 8.37986C23.1499 8.65723 23.6719 10.4255 24.7737 10.8993" fill="#CD1719"/>
<path fill-rule="evenodd" clip-rule="evenodd" d="M26.5396 33.4693L26.0176 32.2211L25.4957 33.4693H26.528H26.5396ZM26.7831 34.0356H25.2637L24.9738 34.729H24.1967L25.6465 31.4815H26.3888L27.8502 34.729H27.0615L26.7715 34.0356H26.7831ZM24.0923 32.094H23.0484V34.729H22.3061V32.094H21.2622V31.4815H24.0923V32.094ZM20.0328 31.4815H20.7867V34.729H20.0328V31.4815ZM18.235 34.1743C18.4321 34.1743 18.5829 34.128 18.6989 34.0356C18.8033 33.9431 18.8613 33.8044 18.8613 33.6195C18.8613 33.2844 18.6525 33.111 18.235 33.111H17.5506V34.1743H18.235ZM18.3857 32.5447C18.7801 32.5447 19.0933 32.6372 19.302 32.8105C19.5108 32.9839 19.6268 33.2497 19.6268 33.5964C19.6268 33.9662 19.5108 34.2436 19.2788 34.4401C19.0469 34.6365 18.7105 34.729 18.293 34.729H16.8199V31.4815H17.5738V32.5447H18.4089H18.3857ZM15.9964 31.4815V34.729H15.2425V32.094H13.7695V34.729H13.0156V31.4815H15.9848H15.9964ZM10.6495 34.1511C10.8466 34.1511 11.0206 34.1049 11.1714 34.024C11.3222 33.9316 11.4498 33.816 11.5426 33.6542C11.6354 33.4924 11.6701 33.319 11.6701 33.111C11.6701 32.903 11.6238 32.7296 11.5426 32.5678C11.4498 32.406 11.3338 32.2904 11.1714 32.198C11.0206 32.1055 10.8466 32.0709 10.6495 32.0709C10.4523 32.0709 10.2783 32.1171 10.1275 32.198C9.97675 32.2904 9.84916 32.406 9.75637 32.5678C9.66359 32.7296 9.62879 32.903 9.62879 33.111C9.62879 33.319 9.67518 33.4924 9.75637 33.6542C9.84916 33.816 9.96515 33.9316 10.1275 34.024C10.2783 34.1165 10.4523 34.1511 10.6495 34.1511ZM10.6495 34.7868C10.3131 34.7868 9.99995 34.7174 9.73318 34.5672C9.46641 34.417 9.24604 34.2205 9.09525 33.9662C8.94447 33.712 8.86328 33.423 8.86328 33.0994C8.86328 32.7758 8.94447 32.4985 9.09525 32.2327C9.24604 31.9784 9.46641 31.7819 9.73318 31.6317C9.99995 31.4815 10.3131 31.4121 10.6495 31.4121C10.9858 31.4121 11.2874 31.4815 11.5658 31.6317C11.8325 31.7819 12.0529 31.9784 12.2037 32.2327C12.3545 32.4869 12.4357 32.7758 12.4357 33.0994C12.4357 33.423 12.3545 33.7004 12.2037 33.9662C12.0529 34.2205 11.8325 34.417 11.5658 34.5672C11.299 34.7174 10.9858 34.7868 10.6495 34.7868Z" fill="#CD1719"/>
</g>
<defs>
<clipPath id="clip0_12191_6681">
<rect width="198" height="74" fill="white"/>
</clipPath>
</defs>
</svg>
