<svg width="1900" height="196" viewBox="0 0 1900 196" fill="none" xmlns="http://www.w3.org/2000/svg">
<mask id="mask0_10014_6915" style="mask-type:alpha" maskUnits="userSpaceOnUse" x="0" y="0" width="1900" height="196">
<rect width="1900" height="196" fill="#D9D9D9"/>
</mask>
<g mask="url(#mask0_10014_6915)">
<path d="M133 191.721C133 181.577 133 171.739 133 162.208C133 152.676 133 142.095 133 130.465V67.2407C133 55.2605 133 44.4172 133 34.7106C133 25.0041 133 14.9914 133 4.67275H253.832V36.8093C244.716 36.8093 234.942 36.8093 224.511 36.8093C214.08 36.8093 201.809 36.8093 187.696 36.8093H154.432L169.946 10.3131C169.946 20.6317 169.946 30.6444 169.946 40.3509C169.946 50.0575 169.946 60.9008 169.946 72.881V130.465C169.946 142.095 169.946 152.676 169.946 162.208C169.946 171.739 169.946 181.577 169.946 191.721H133Z" fill="#E3EAF2" fill-opacity="0.6"/>
<path d="M281.112 191.721C281.112 181.577 281.112 171.739 281.112 162.208C281.112 152.676 281.112 142.095 281.112 130.465V67.1095C281.112 55.2168 281.112 44.4172 281.112 34.7106C281.112 25.0041 281.112 14.9914 281.112 4.67275C288.563 4.67275 298.424 4.67275 310.695 4.67275C323.055 4.67275 337.255 4.67275 353.296 4.67275C368.197 4.67275 380.6 6.55286 390.505 10.3131C400.41 14.0733 407.86 20.1508 412.857 28.5456C417.853 36.8531 420.351 47.9588 420.351 61.8628C420.351 73.8429 418.16 84.4677 413.777 93.737C409.394 102.919 402.294 110.133 392.477 115.38C382.66 120.539 369.468 123.119 352.901 123.119C348.694 123.119 344.092 123.119 339.095 123.119C334.187 123.119 329.366 123.119 324.633 123.119C319.987 123.119 315.999 123.119 312.668 123.119V94.1305H344.881C353.646 94.1305 360.834 93.0374 366.444 90.8512C372.054 88.6651 376.173 85.2547 378.803 80.62C381.52 75.8979 382.879 69.7767 382.879 62.2563C382.879 56.135 381.915 51.238 379.986 47.5652C378.058 43.805 375.516 40.963 372.36 39.0392C369.205 37.1154 365.742 35.8037 361.973 35.1041C358.204 34.4046 354.479 34.0548 350.797 34.0548H299.651L317.401 10.3131C317.401 20.6317 317.401 30.6881 317.401 40.4821C317.401 50.1886 317.401 60.9883 317.401 72.881V130.465C317.401 142.095 317.401 152.676 317.401 162.208C317.401 171.739 317.401 181.577 317.401 191.721H281.112Z" fill="#E3EAF2" fill-opacity="0.6"/>
<path d="M470.859 191.721C474.54 183.763 478.309 175.631 482.166 167.323C486.111 159.016 490.186 150.271 494.394 141.089L453.635 58.4523C449.164 49.4454 444.913 40.8756 440.881 32.7431C436.849 24.5231 432.247 15.1663 427.075 4.67275H468.492C471.56 11.8434 474.321 18.2707 476.775 23.9547C479.23 29.5513 481.509 34.7981 483.612 39.6951C485.716 44.5921 487.82 49.4891 489.923 54.3861C492.115 59.1956 494.438 64.4424 496.892 70.1264L512.538 105.936H515.431L530.288 70.6511C532.743 64.7922 534.978 59.3705 536.994 54.3861C539.098 49.4016 541.158 44.4609 543.174 39.5639C545.277 34.5795 547.512 29.2889 549.879 23.6924C552.246 18.0958 554.919 11.7559 557.9 4.67275H597.607C592.26 16.0408 586.738 27.8461 581.04 40.0886C575.43 52.2436 570.215 63.4368 565.394 73.668L537.783 132.694C533.663 141.789 529.149 151.583 524.24 162.076C519.332 172.483 514.642 182.364 510.172 191.721H470.859Z" fill="#E3EAF2" fill-opacity="0.6"/>
<path d="M740.766 191.721C740.766 181.577 740.766 171.739 740.766 162.208C740.766 152.676 740.766 142.095 740.766 130.465V67.2407C740.766 55.2605 740.766 44.4172 740.766 34.7106C740.766 25.0041 740.766 14.9914 740.766 4.67275H777.712C777.712 14.9914 777.712 25.0041 777.712 34.7106C777.712 44.4172 777.712 55.2605 777.712 67.2407V130.465C777.712 142.095 777.712 152.676 777.712 162.208C777.712 171.739 777.712 181.577 777.712 191.721H740.766ZM621.249 191.721C621.249 181.577 621.249 171.739 621.249 162.208C621.249 152.676 621.249 142.095 621.249 130.465V67.2407C621.249 55.2605 621.249 44.4172 621.249 34.7106C621.249 25.0041 621.249 14.9914 621.249 4.67275H658.195C658.195 14.9914 658.195 25.0041 658.195 34.7106C658.195 44.4172 658.195 55.2605 658.195 67.2407V130.465C658.195 142.095 658.195 152.676 658.195 162.208C658.195 171.739 658.195 181.577 658.195 191.721H621.249ZM647.414 112.757V81.9317H752.336V112.757H647.414Z" fill="#E3EAF2" fill-opacity="0.6"/>
<path d="M861.861 191.721C861.861 181.577 861.861 171.739 861.861 162.208C861.861 152.676 861.861 142.095 861.861 130.465V72.881C861.861 60.9008 861.861 50.0575 861.861 40.3509C861.861 30.6444 861.861 20.6317 861.861 10.3131L875.929 36.8093H851.868C841.788 36.8093 832.803 36.8093 824.914 36.8093C817.113 36.8093 809.706 36.8093 802.694 36.8093V4.67275H957.579V36.8093C950.567 36.8093 943.16 36.8093 935.359 36.8093C927.557 36.8093 918.573 36.8093 908.405 36.8093H884.344L898.544 10.3131C898.544 20.6317 898.544 30.6444 898.544 40.3509C898.544 50.0575 898.544 60.9008 898.544 72.881V130.465C898.544 142.095 898.544 152.676 898.544 162.208C898.544 171.739 898.544 181.577 898.544 191.721H861.861Z" fill="#E3EAF2" fill-opacity="0.6"/>
<path d="M964.714 127.71V98.5903C972.252 98.5903 979.484 98.5903 986.409 98.5903C993.421 98.5903 999.995 98.5903 1006.13 98.5903C1012.27 98.5903 1018.84 98.5903 1025.85 98.5903C1032.87 98.5903 1040.1 98.5903 1047.55 98.5903V127.71C1040.1 127.71 1032.87 127.71 1025.85 127.71C1018.84 127.71 1012.27 127.71 1006.13 127.71C999.995 127.71 993.421 127.71 986.409 127.71C979.484 127.71 972.252 127.71 964.714 127.71Z" fill="#E3EAF2" fill-opacity="0.6"/>
<path d="M1131.38 195C1125.86 195 1120.38 194.738 1114.95 194.213C1109.6 193.688 1104.38 192.901 1099.3 191.852C1094.3 190.89 1089.53 189.622 1084.97 188.048C1080.5 186.387 1076.38 184.463 1072.61 182.277L1074.84 148.566C1078.96 151.627 1083.13 154.163 1087.34 156.174C1091.63 158.185 1095.93 159.803 1100.22 161.027C1104.6 162.251 1109.03 163.169 1113.5 163.782C1117.97 164.306 1122.44 164.569 1126.91 164.569C1142.43 164.569 1154.96 161.945 1164.51 156.698C1174.16 151.452 1181.21 144.237 1185.68 135.055C1190.15 125.786 1192.39 115.249 1192.39 103.444V92.0318C1192.39 82.3252 1190.86 73.7555 1187.79 66.3225C1184.81 58.8896 1180.6 52.6809 1175.16 47.6964C1169.82 42.6245 1163.46 38.8206 1156.1 36.2847C1148.74 33.6613 1140.72 32.3496 1132.04 32.3496C1126.08 32.3496 1119.94 32.9617 1113.63 34.1859C1107.41 35.3227 1101.01 37.1591 1094.44 39.6951C1087.95 42.1436 1081.29 45.3791 1074.45 49.4016L1071.56 15.5598C1075.06 13.7235 1079.14 11.9308 1083.79 10.1819C1088.52 8.43296 1093.65 6.85892 1099.17 5.45977C1104.78 4.06063 1110.61 2.96755 1116.66 2.18054C1122.79 1.39351 1129.01 1 1135.33 1C1150.14 1 1163.33 3.40478 1174.9 8.21434C1186.56 12.9365 1196.42 19.6698 1204.49 28.4145C1212.55 37.0717 1218.69 47.3466 1222.89 59.2394C1227.19 71.1321 1229.34 84.1179 1229.34 98.1968C1229.34 117.26 1225.52 134.05 1217.9 148.566C1210.36 163.082 1199.27 174.45 1184.63 182.67C1170.08 190.89 1152.33 195 1131.38 195ZM1105.61 112.101V83.2434C1113.5 83.2434 1121.65 83.2434 1130.07 83.2434C1138.48 83.2434 1148.52 83.2434 1160.18 83.2434H1199.23V112.101H1160.31C1149 112.101 1139.14 112.101 1130.72 112.101C1122.31 112.101 1113.94 112.101 1105.61 112.101Z" fill="#E3EAF2" fill-opacity="0.6"/>
<path d="M1247.72 191.721C1249.03 181.839 1250.3 172.002 1251.53 162.208C1252.76 152.326 1254.07 141.658 1255.47 130.202L1263.23 67.7654C1264.72 56.3973 1266.08 45.7289 1267.31 35.76C1268.53 25.7036 1269.81 15.3412 1271.12 4.67275H1308.33C1312.97 16.2157 1317.4 27.3214 1321.61 37.9899C1325.82 48.5709 1330.02 59.1082 1334.23 69.6018L1359.08 131.907H1361.58L1385.77 69.7329C1389.98 59.1519 1394.1 48.6583 1398.13 38.2522C1402.25 27.7586 1406.55 16.5655 1411.02 4.67275H1447.83C1449.15 15.2538 1450.42 25.5725 1451.64 35.6288C1452.96 45.5977 1454.32 56.3536 1455.72 67.8966L1463.61 130.596C1465.1 141.964 1466.46 152.501 1467.69 162.208C1468.91 171.827 1470.14 181.664 1471.37 191.721H1436.39C1434.64 177.467 1432.97 163.913 1431.4 151.058C1429.82 138.204 1428.33 126.18 1426.93 114.986L1421.01 66.716H1418.51L1399.71 118.659C1395.15 131.339 1390.55 143.931 1385.9 156.436C1381.35 168.941 1377.09 180.703 1373.15 191.721H1348.56C1345.93 184.638 1343 177.03 1339.75 168.897C1336.6 160.677 1333.35 152.326 1330.02 143.844C1326.69 135.274 1323.41 126.923 1320.16 118.79L1299.91 66.716H1297.42L1291.63 114.724C1290.23 126.005 1288.74 138.116 1287.16 151.058C1285.58 163.913 1283.96 177.467 1282.3 191.721H1247.72Z" fill="#E3EAF2" fill-opacity="0.6"/>
<path d="M1489.75 191.721C1493.17 181.664 1496.76 171.083 1500.53 159.978C1504.3 148.872 1507.85 138.335 1511.18 128.366L1533.01 64.2238C1536.95 52.5934 1540.5 42.1436 1543.66 32.8742C1546.9 23.5175 1550.1 14.117 1553.26 4.67275H1600.85C1604.1 14.4668 1607.3 23.9984 1610.45 33.2678C1613.61 42.5371 1617.11 52.8558 1620.97 64.2238L1642.53 128.497C1646.04 138.816 1649.63 149.44 1653.31 160.371C1657 171.302 1660.5 181.752 1663.83 191.721H1625.83C1622.68 181.49 1619.44 170.952 1616.11 160.109C1612.77 149.266 1609.62 139.034 1606.64 129.415L1578.11 36.2847H1575.21L1546.42 128.366C1543.26 138.422 1539.98 148.959 1536.56 159.978C1533.23 170.909 1529.94 181.49 1526.7 191.721H1489.75ZM1531.43 150.009L1535.11 122.201H1622.68L1625.7 150.009H1531.43Z" fill="#E3EAF2" fill-opacity="0.6"/>
<path d="M1690.78 194.475C1688.07 194.475 1685.48 194.344 1683.03 194.082C1680.57 193.907 1678.29 193.645 1676.19 193.295C1674.17 192.945 1672.29 192.551 1670.53 192.114L1672.24 161.289C1674.08 161.639 1675.75 161.902 1677.24 162.076C1678.73 162.251 1680.04 162.339 1681.18 162.339C1688.11 162.339 1693.5 159.409 1697.36 153.55C1701.3 147.604 1704.24 138.51 1706.17 126.267C1708.09 113.937 1709.54 98.2842 1710.51 79.3083C1711.21 67.0658 1711.91 54.6921 1712.61 42.1873C1713.31 29.595 1714.01 17.0902 1714.71 4.67275H1845.54C1845.54 14.9914 1845.54 25.0041 1845.54 34.7106C1845.54 44.4172 1845.54 55.2605 1845.54 67.2407V130.465C1845.54 142.095 1845.54 152.676 1845.54 162.208C1845.54 171.739 1845.54 181.577 1845.54 191.721H1808.72C1808.72 181.577 1808.72 171.739 1808.72 162.208C1808.72 152.676 1808.72 142.095 1808.72 130.465V72.881C1808.72 60.9008 1808.72 50.0575 1808.72 40.3509C1808.72 30.6444 1808.72 20.6317 1808.72 10.3131L1826.87 35.4976H1729.04L1749.16 12.1494C1748.2 25.4413 1747.23 38.6894 1746.27 51.8938C1745.39 65.0983 1744.47 78.8711 1743.51 93.2123C1742.37 110.089 1741.01 124.868 1739.43 137.548C1737.94 150.227 1735.49 160.808 1732.07 169.291C1728.65 177.686 1723.65 183.982 1717.08 188.179C1710.59 192.377 1701.83 194.475 1690.78 194.475Z" fill="#E3EAF2" fill-opacity="0.6"/>
<path d="M1954.37 191.721C1940.34 191.721 1927.59 191.721 1916.11 191.721C1904.71 191.721 1893.93 191.721 1883.76 191.721C1883.76 181.577 1883.76 171.739 1883.76 162.208C1883.76 152.676 1883.76 142.095 1883.76 130.465V67.2407C1883.76 55.2605 1883.76 44.4172 1883.76 34.7106C1883.76 25.0041 1883.76 14.9914 1883.76 4.67275H1920.05C1920.05 14.9914 1920.05 25.0041 1920.05 34.7106C1920.05 44.4172 1920.05 55.2605 1920.05 67.2407V124.562C1920.05 131.295 1920.05 137.766 1920.05 143.975C1920.05 150.096 1920.05 156.305 1920.05 162.601H1947.66C1956.43 162.601 1963.57 161.508 1969.09 159.322C1974.7 157.136 1978.82 153.682 1981.45 148.959C1984.17 144.237 1985.53 138.116 1985.53 130.596C1985.53 124.387 1984.56 119.403 1982.64 115.642C1980.79 111.882 1978.3 108.996 1975.14 106.985C1971.98 104.974 1968.52 103.618 1964.75 102.919C1960.98 102.132 1957.26 101.738 1953.58 101.738H1915.45V72.3563C1920.71 72.3563 1926.67 72.3563 1933.33 72.3563C1939.99 72.3563 1947.53 72.3563 1955.94 72.3563C1970.85 72.3563 1983.25 74.2364 1993.15 77.9966C2003.06 81.7568 2010.51 87.8781 2015.51 96.3604C2020.5 104.843 2023 116.167 2023 130.333C2023 142.401 2020.81 153.069 2016.43 162.339C2012.04 171.521 2004.86 178.735 1994.86 183.982C1984.87 189.141 1971.37 191.721 1954.37 191.721Z" fill="#E3EAF2" fill-opacity="0.6"/>
</g>
</svg>
