<svg width="1575" height="695" viewBox="0 0 1575 695" fill="none" xmlns="http://www.w3.org/2000/svg">
<path d="M685.192 695H462.664V150.674H384.22C358.338 150.674 336.059 153.728 317.381 159.836C298.704 165.719 284.296 174.994 274.157 187.664C264.284 200.107 259.348 216.283 259.348 236.191C259.348 255.874 264.284 271.824 274.157 284.041C284.296 296.257 298.704 305.194 317.381 310.85C336.059 316.279 358.338 318.994 384.22 318.994H550.715V465.596H339.394C277.225 465.596 222.661 456.886 175.7 439.465C128.74 422.045 92.186 396.254 66.0377 362.092C40.1563 327.931 27.2155 285.964 27.2155 236.191C27.2155 186.872 39.8895 144.565 65.2373 109.272C90.5851 73.9795 126.072 46.9442 171.698 28.1665C217.591 9.38884 270.821 0 331.389 0H685.192V695ZM204.917 376.006H441.852L241.738 695H0L204.917 376.006Z" fill="#E3EAF2"/>
<path d="M1295.64 695L1044.3 414.014H1013.08V695H790.552V0H1013.08V261.982H1041.9L1277.23 0H1557.39L1245.21 333.926L1575 695H1295.64Z" fill="#E3EAF2"/>
</svg>
