<svg width="761" height="159" viewBox="0 0 761 159" fill="none" xmlns="http://www.w3.org/2000/svg">
<mask id="mask0_10034_6800" style="mask-type:alpha" maskUnits="userSpaceOnUse" x="0" y="0" width="761" height="159">
<rect width="761" height="159" fill="#D9D9D9"/>
</mask>
<g mask="url(#mask0_10034_6800)">
<path d="M38 155.408C38 147.388 38 139.611 38 132.075C38 124.54 38 116.175 38 106.98V56.9974C38 47.5262 38 38.9538 38 31.2801C38 23.6063 38 15.6907 38 7.53302H132.898V31.9022C126.377 31.9022 119.336 31.9022 111.775 31.9022C104.283 31.9022 95.4383 31.9022 85.2409 31.9022H54.7528L66.6151 11.9921C66.6151 20.1497 66.6151 28.0654 66.6151 35.7391C66.6151 43.4128 66.6151 51.9852 66.6151 61.4564V106.98C66.6151 116.175 66.6151 124.54 66.6151 132.075C66.6151 139.611 66.6151 147.388 66.6151 155.408H38ZM59.3312 94.1215V70.6856H86.0733C95.2995 70.6856 103.242 70.6856 109.902 70.6856C116.631 70.6856 123.082 70.6856 129.256 70.6856V94.1215C122.666 94.1215 116.041 94.1215 109.382 94.1215C102.791 94.1215 94.9874 94.1215 85.9693 94.1215H59.3312Z" fill="#ECF1F6" fill-opacity="0.3"/>
<path d="M176.838 157.793C171.011 157.793 165.809 156.583 161.23 154.163C156.652 151.743 153.01 148.252 150.304 143.69C147.668 139.058 146.35 133.493 146.35 126.994C146.35 121.256 147.356 116.417 149.368 112.476C151.38 108.467 154.016 105.217 157.276 102.729C160.606 100.171 164.248 98.2004 168.202 96.8177C172.225 95.435 176.283 94.4326 180.376 93.8104L210.032 89.4551C210.24 84.6158 209.408 80.8826 207.535 78.2556C205.731 75.6286 203.13 73.8311 199.73 72.8633C196.331 71.8263 192.412 71.3078 187.972 71.3078C185.614 71.3078 183.047 71.5152 180.272 71.93C177.567 72.2756 174.688 72.8287 171.636 73.5892C168.653 74.3496 165.531 75.3175 162.271 76.4927C159.01 77.5989 155.681 78.9469 152.281 80.537L151.033 57.6196C153.599 56.6517 156.478 55.6838 159.669 54.716C162.93 53.7481 166.468 52.884 170.283 52.1235C174.098 51.2939 178.052 50.6717 182.145 50.2569C186.307 49.773 190.574 49.531 194.944 49.531C203.407 49.531 210.622 50.7754 216.587 53.2642C222.623 55.6838 227.236 59.5898 230.427 64.9822C233.618 70.3054 235.213 77.2532 235.213 85.8256C235.213 89.144 235.213 93.2574 235.213 98.1658C235.213 103.074 235.213 107.568 235.213 111.647V123.053C235.213 128.1 235.213 133.251 235.213 138.505C235.213 143.69 235.213 149.324 235.213 155.408H211.801L210.24 141.927H208.055C206.112 144.485 203.685 146.973 200.771 149.393C197.857 151.743 194.389 153.748 190.366 155.408C186.411 156.998 181.902 157.793 176.838 157.793ZM186.411 137.157C189.325 137.157 192.204 136.465 195.048 135.083C197.892 133.7 200.528 131.764 202.956 129.275C205.453 126.787 207.569 123.814 209.304 120.357V104.077C208.402 104.699 207.188 105.286 205.662 105.839C204.205 106.323 202.02 106.876 199.106 107.499C196.193 108.121 192.1 108.916 186.828 109.884C183.845 110.437 181.313 111.37 179.232 112.684C177.22 113.997 175.659 115.691 174.549 117.765C173.439 119.839 172.884 122.224 172.884 124.92C172.884 129.414 174.237 132.594 176.942 134.46C179.717 136.258 182.874 137.157 186.411 137.157Z" fill="#ECF1F6" fill-opacity="0.3"/>
<path d="M329.038 155.408C325.5 150.983 321.893 146.593 318.216 142.238C314.609 137.813 310.967 133.458 307.291 129.172L293.555 112.58H285.959V94.7437H294.284L306.146 79.7074C309.823 75.1446 313.465 70.5473 317.072 65.9155C320.748 61.2836 324.39 56.6863 327.998 52.1235H359.11C353.838 58.2763 348.566 64.4291 343.294 70.5819C338.021 76.7347 332.784 82.8529 327.581 88.9366L311.973 107.084L310.828 95.1585L329.662 118.076C335.073 124.298 340.449 130.554 345.791 136.845C351.202 143.067 356.578 149.255 361.919 155.408H329.038ZM261.923 155.408C261.923 147.941 261.923 140.717 261.923 133.734C261.923 126.752 261.923 118.975 261.923 110.402V53.0568C261.923 44.5535 261.923 36.1885 261.923 27.9617C261.923 19.7349 261.923 11.5773 261.923 3.48878L288.353 1C288.353 9.15764 288.353 17.5227 288.353 26.0951C288.353 34.6675 288.353 43.6548 288.353 53.0568V115.38C288.353 122.57 288.353 129.345 288.353 135.705C288.353 141.996 288.353 148.563 288.353 155.408H261.923Z" fill="#ECF1F6" fill-opacity="0.3"/>
<path d="M421.85 158C414.428 158 408.115 156.859 402.912 154.578C397.709 152.227 393.721 148.529 390.946 143.482C388.171 138.435 386.784 131.868 386.784 123.779C386.784 118.733 386.784 113.651 386.784 108.536C386.784 103.42 386.784 98.2004 386.784 92.8771C386.784 87.4848 386.784 81.9888 386.784 76.389C386.784 70.7893 386.784 64.9822 386.784 58.9676C386.784 51.4322 386.784 44.4844 386.784 38.1242C386.784 31.764 386.784 25.2655 386.784 18.6288L412.901 13.755C412.901 19.009 412.901 23.9866 412.901 28.6876C412.901 33.3195 412.901 38.055 412.901 42.8943C412.901 47.7336 412.901 53.0914 412.901 58.9676V115.898C412.901 122.604 414.185 127.685 416.751 131.142C419.387 134.529 423.55 136.223 429.238 136.223C431.597 136.223 434.129 135.808 436.834 134.979C439.609 134.149 442.21 132.87 444.638 131.142L446.407 152.815C444.673 153.921 442.488 154.854 439.852 155.615C437.285 156.375 434.441 156.963 431.319 157.378C428.197 157.793 425.041 158 421.85 158ZM368.99 72.1374V52.1235H445.679V72.1374C439.019 72.1374 432.325 72.1374 425.596 72.1374C418.867 72.1374 412.346 72.1374 406.034 72.1374H368.99Z" fill="#ECF1F6" fill-opacity="0.3"/>
<path d="M495.723 158C485.109 158 477.166 154.924 471.894 148.771C466.691 142.549 464.09 133.389 464.09 121.291C464.09 116.728 464.09 112.753 464.09 109.365C464.09 105.978 464.09 102.521 464.09 98.9954C464.09 92.3587 464.09 86.4478 464.09 81.2629C464.09 76.0779 464.09 71.1695 464.09 66.5376C464.09 61.9058 464.09 57.1011 464.09 52.1235L490.52 51.2939C490.52 58.6911 490.52 66.0192 490.52 73.2781C490.52 80.4679 490.52 88.0033 490.52 95.8844V113.721C490.52 120.496 491.664 125.611 493.954 129.068C496.312 132.525 500.509 134.253 506.544 134.253C509.943 134.253 513.065 133.562 515.909 132.179C518.823 130.727 521.459 128.826 523.817 126.476C526.176 124.056 528.326 121.36 530.269 118.387V95.8844C530.269 88.0033 530.269 80.6061 530.269 73.6929C530.269 66.7105 530.269 59.5207 530.269 52.1235H556.699C556.699 59.5207 556.699 66.8487 556.699 74.1077C556.699 81.2974 556.699 89.5934 556.699 98.9954V110.402C556.699 118.975 556.699 126.752 556.699 133.734C556.699 140.717 556.699 147.941 556.699 155.408H534.223L533.182 138.297H530.789C528.5 141.616 525.69 144.796 522.361 147.838C519.031 150.81 515.146 153.264 510.706 155.2C506.267 157.067 501.272 158 495.723 158Z" fill="#ECF1F6" fill-opacity="0.3"/>
<path d="M584.046 155.408C584.046 147.941 584.046 140.717 584.046 133.734C584.046 126.752 584.046 118.975 584.046 110.402V100.032C584.046 92.2204 584.046 84.3047 584.046 76.2853C584.046 68.266 584.046 60.212 584.046 52.1235L606.521 50.7754L607.562 70.4782H609.851C612.626 64.6019 615.713 60.1775 619.112 57.2048C622.511 54.1629 625.98 52.1235 629.518 51.0865C633.125 49.9804 636.489 49.4273 639.611 49.4273C641.276 49.4273 643.079 49.5656 645.022 49.8421C647.033 50.1187 648.906 50.6026 650.641 51.2939L648.247 77.1149C645.75 76.7693 643.461 76.5273 641.38 76.389C639.368 76.1816 637.114 76.0779 634.616 76.0779C632.674 76.0779 630.593 76.3199 628.373 76.8038C626.153 77.2878 623.968 78.2556 621.817 79.7074C619.667 81.09 617.621 83.1295 615.678 85.8256C613.736 88.5218 612.002 92.0476 610.476 96.4029V111.75C610.476 119.631 610.476 127.029 610.476 133.942C610.476 140.786 610.476 147.941 610.476 155.408H584.046Z" fill="#ECF1F6" fill-opacity="0.3"/>
<path d="M691.625 157.793C685.798 157.793 680.595 156.583 676.017 154.163C671.439 151.743 667.797 148.252 665.091 143.69C662.455 139.058 661.137 133.493 661.137 126.994C661.137 121.256 662.143 116.417 664.155 112.476C666.167 108.467 668.803 105.217 672.063 102.729C675.393 100.171 679.035 98.2004 682.989 96.8177C687.012 95.435 691.07 94.4326 695.163 93.8104L724.819 89.4551C725.027 84.6158 724.194 80.8826 722.321 78.2556C720.518 75.6286 717.916 73.8311 714.517 72.8633C711.118 71.8263 707.199 71.3078 702.759 71.3078C700.401 71.3078 697.834 71.5152 695.059 71.93C692.354 72.2756 689.475 72.8287 686.423 73.5892C683.44 74.3496 680.318 75.3175 677.058 76.4927C673.797 77.5989 670.467 78.9469 667.068 80.537L665.82 57.6196C668.386 56.6517 671.265 55.6838 674.456 54.716C677.717 53.7481 681.254 52.884 685.07 52.1235C688.885 51.2939 692.839 50.6717 696.932 50.2569C701.094 49.773 705.361 49.531 709.731 49.531C718.194 49.531 725.408 50.7754 731.374 53.2642C737.409 55.6838 742.022 59.5898 745.213 64.9822C748.405 70.3054 750 77.2532 750 85.8256C750 89.144 750 93.2574 750 98.1658C750 103.074 750 107.568 750 111.647V123.053C750 128.1 750 133.251 750 138.505C750 143.69 750 149.324 750 155.408H726.588L725.027 141.927H722.842C720.899 144.485 718.471 146.973 715.558 149.393C712.644 151.743 709.176 153.748 705.152 155.408C701.198 156.998 696.689 157.793 691.625 157.793ZM701.198 137.157C704.112 137.157 706.991 136.465 709.835 135.083C712.679 133.7 715.315 131.764 717.743 129.275C720.24 126.787 722.356 123.814 724.09 120.357V104.077C723.189 104.699 721.975 105.286 720.448 105.839C718.992 106.323 716.807 106.876 713.893 107.499C710.979 108.121 706.887 108.916 701.615 109.884C698.632 110.437 696.1 111.37 694.018 112.684C692.007 113.997 690.446 115.691 689.336 117.765C688.226 119.839 687.671 122.224 687.671 124.92C687.671 129.414 689.024 132.594 691.729 134.46C694.504 136.258 697.66 137.157 701.198 137.157Z" fill="#ECF1F6" fill-opacity="0.3"/>
</g>
</svg>
