<svg width="655" height="159" viewBox="0 0 655 159" fill="none" xmlns="http://www.w3.org/2000/svg">
<path d="M0 156.355C0 148.174 0 140.24 0 132.553C0 124.866 0 116.332 0 106.952V55.8563C0 46.2648 0 37.5549 0 29.7265C0 21.8982 0 13.823 0 5.50099C5.99225 5.50099 13.9232 5.50099 23.7928 5.50099C33.7329 5.50099 45.1534 5.50099 58.0544 5.50099C70.0389 5.50099 80.0142 7.01729 87.9804 10.0499C95.9465 13.0825 101.939 17.984 105.957 24.7545C109.975 31.4544 111.985 40.4112 111.985 51.6247C111.985 61.2868 110.222 69.8556 106.697 77.3313C103.172 84.7365 97.4622 90.5549 89.5666 94.7864C81.6709 98.9474 71.0611 101.028 57.7371 101.028C54.3533 101.028 50.6522 101.028 46.6338 101.028C42.686 101.028 38.8087 101.028 35.0018 101.028C31.2655 101.028 28.0578 101.028 25.379 101.028V77.6487H51.2866C58.3363 77.6487 64.1171 76.7671 68.6289 75.004C73.1407 73.2408 76.4541 70.4903 78.569 66.7525C80.7544 62.9441 81.8471 58.0073 81.8471 51.9421C81.8471 47.0053 81.0717 43.0559 79.5207 40.0938C77.9698 37.0612 75.9254 34.7691 73.3875 33.2176C70.8496 31.666 68.0649 30.6081 65.0336 30.0439C62.0022 29.4797 59.0061 29.1976 56.0452 29.1976H14.9101L29.1858 10.0499C29.1858 18.3719 29.1858 26.4824 29.1858 34.3812C29.1858 42.2096 29.1858 50.9195 29.1858 60.511V106.952C29.1858 116.332 29.1858 124.866 29.1858 132.553C29.1858 140.24 29.1858 148.174 29.1858 156.355H0Z" fill="#ECF1F6"/>
<path d="M134.001 156.355C134.001 148.739 134.001 141.369 134.001 134.245C134.001 127.122 134.001 119.188 134.001 110.443V99.8643C134.001 91.8949 134.001 83.8197 134.001 75.6387C134.001 67.4577 134.001 59.2415 134.001 50.99L156.842 49.6148L157.9 69.7146H160.226C163.046 63.7199 166.183 59.2063 169.637 56.1737C173.092 53.0705 176.617 50.99 180.212 49.9321C183.878 48.8037 187.297 48.2395 190.469 48.2395C192.161 48.2395 193.994 48.3806 195.968 48.6627C198.013 48.9448 199.916 49.4384 201.678 50.1437L199.246 76.485C196.708 76.1324 194.382 75.8856 192.267 75.7445C190.223 75.5329 187.931 75.4271 185.394 75.4271C183.42 75.4271 181.305 75.674 179.049 76.1677C176.793 76.6613 174.572 77.6487 172.387 79.1297C170.201 80.5402 168.122 82.6208 166.148 85.3713C164.174 88.1217 162.412 91.7186 160.861 96.1617V111.818C160.861 119.858 160.861 127.405 160.861 134.457C160.861 141.439 160.861 148.739 160.861 156.355H134.001Z" fill="#ECF1F6"/>
<path d="M268.31 159C255.056 159 244.2 156.602 235.74 151.806C227.28 147.011 221.041 140.417 217.023 132.024C213.005 123.631 210.996 114.04 210.996 103.249C210.996 92.5296 212.899 83.0439 216.706 74.7924C220.583 66.4704 226.258 59.982 233.731 55.3273C241.204 50.6726 250.368 48.3453 261.225 48.3453C270.601 48.3453 278.602 50.0732 285.229 53.5289C291.926 56.9142 297.073 62.0273 300.668 68.8683C304.263 75.6387 306.061 84.1723 306.061 94.4691C306.061 97.2196 305.99 99.688 305.849 101.874C305.779 104.061 305.567 106.212 305.215 108.327L281.845 98.9122C281.986 97.9248 282.092 96.9375 282.162 95.9501C282.233 94.8922 282.268 93.9049 282.268 92.988C282.268 85.2302 280.329 79.165 276.452 74.7924C272.575 70.3493 267.57 68.1277 261.436 68.1277C256.783 68.1277 252.695 69.4677 249.17 72.1477C245.645 74.7571 242.86 78.4245 240.816 83.1497C238.771 87.8749 237.749 93.3407 237.749 99.5469V103.673C237.749 110.514 238.948 116.403 241.345 121.339C243.741 126.206 247.443 129.979 252.448 132.659C257.453 135.268 263.763 136.573 271.376 136.573C274.337 136.573 277.651 136.326 281.316 135.832C285.053 135.268 288.824 134.422 292.631 133.293C296.438 132.165 299.998 130.719 303.312 128.956L304.157 152.018C301.479 153.358 298.341 154.557 294.746 155.615C291.151 156.673 287.132 157.484 282.691 158.048C278.25 158.683 273.456 159 268.31 159ZM221.57 108.327V91.507L289.353 90.3433L305.215 96.3733V108.327H221.57Z" fill="#ECF1F6"/>
<path d="M328.763 156.355C328.763 148.739 328.763 141.369 328.763 134.245C328.763 127.122 328.763 119.188 328.763 110.443V99.8643C328.763 91.8949 328.763 83.8197 328.763 75.6387C328.763 67.4577 328.763 59.2415 328.763 50.99L351.604 49.6148L352.662 68.2335H355.094C357.42 64.9188 360.205 61.7452 363.448 58.7126C366.761 55.6094 370.603 53.1058 374.974 51.2016C379.345 49.2269 384.315 48.2395 389.884 48.2395C398.203 48.2395 404.618 50.32 409.13 54.481C413.642 58.5715 416.638 64.4957 418.118 72.2535L419.916 72.6766C420.268 74.6514 420.55 76.7319 420.762 78.9182C420.973 81.0339 421.079 83.2907 421.079 85.6886C421.079 90.2728 421.079 94.5043 421.079 98.3832C421.079 102.192 421.079 106.212 421.079 110.443C421.079 118.977 421.079 126.876 421.079 134.14C421.079 141.333 421.079 148.739 421.079 156.355H394.22C394.22 148.739 394.22 141.369 394.22 134.245C394.22 127.122 394.22 119.647 394.22 111.818V93.9401C394.22 87.0286 393.092 81.8097 390.836 78.2834C388.65 74.7571 384.667 72.994 378.887 72.994C375.503 72.994 372.401 73.7345 369.581 75.2156C366.761 76.6261 364.188 78.5655 361.862 81.0339C359.606 83.5023 357.526 86.2176 355.623 89.1796V111.818C355.623 119.858 355.623 127.405 355.623 134.457C355.623 141.439 355.623 148.739 355.623 156.355H328.763ZM459.148 156.355C459.148 148.739 459.148 141.369 459.148 134.245C459.148 127.122 459.148 119.647 459.148 111.818V93.9401C459.148 87.0286 458.02 81.8097 455.764 78.2834C453.578 74.7571 449.595 72.994 443.814 72.994C440.36 72.994 437.223 73.7345 434.403 75.2156C431.583 76.6261 429.01 78.5655 426.684 81.0339C424.357 83.4318 422.278 86.147 420.445 89.1796L416.532 68.5509H418.964C421.432 65.0951 424.357 61.8157 427.741 58.7126C431.195 55.6094 435.143 53.1058 439.585 51.2016C444.096 49.2269 449.207 48.2395 454.918 48.2395C465.492 48.2395 473.317 51.4484 478.393 57.8663C483.469 64.2841 486.007 73.5582 486.007 85.6886C486.007 90.2728 486.007 94.5043 486.007 98.3832C486.007 102.192 486.007 106.212 486.007 110.443C486.007 118.977 486.007 126.876 486.007 134.14C486.007 141.333 486.007 148.739 486.007 156.355H459.148Z" fill="#ECF1F6"/>
<path d="M513.727 156.355C513.727 148.739 513.727 141.369 513.727 134.245C513.727 127.122 513.727 119.188 513.727 110.443V99.8643C513.727 93.0938 513.727 86.9933 513.727 81.5629C513.727 76.0619 513.727 70.8782 513.727 66.012C513.727 61.0752 513.727 56.0679 513.727 50.99L540.586 50.1437C540.586 55.2921 540.586 60.3699 540.586 65.3772C540.586 70.3846 540.586 75.674 540.586 81.2455C540.586 86.7465 540.586 92.9528 540.586 99.8643V110.443C540.586 119.188 540.586 127.122 540.586 134.245C540.586 141.369 540.586 148.739 540.586 156.355H513.727ZM526.84 32.0539C521.693 32.0539 517.569 30.7844 514.467 28.2455C511.366 25.6361 509.815 21.5103 509.815 15.8683C509.815 10.7199 511.366 6.80572 514.467 4.12575C517.569 1.37525 521.764 0 527.051 0C532.338 0 536.498 1.41051 539.529 4.23153C542.631 7.05255 544.182 10.9315 544.182 15.8683C544.182 21.5103 542.631 25.6361 539.529 28.2455C536.498 30.7844 532.268 32.0539 526.84 32.0539Z" fill="#ECF1F6"/>
<path d="M595.677 158.788C589.755 158.788 584.468 157.554 579.815 155.086C575.162 152.617 571.461 149.056 568.712 144.401C566.033 139.676 564.693 133.999 564.693 127.369C564.693 121.516 565.715 116.579 567.76 112.559C569.804 108.468 572.483 105.154 575.797 102.615C579.18 100.005 582.881 97.9953 586.9 96.5848C590.989 95.1743 595.113 94.1517 599.272 93.517L629.41 89.0738C629.621 84.1371 628.775 80.3287 626.872 77.6487C625.039 74.9687 622.395 73.1351 618.941 72.1477C615.486 71.0898 611.503 70.5609 606.991 70.5609C604.595 70.5609 601.986 70.7724 599.166 71.1956C596.417 71.5482 593.491 72.1124 590.389 72.8882C587.358 73.664 584.186 74.6514 580.872 75.8503C577.559 76.9787 574.175 78.354 570.721 79.976L569.452 56.5968C572.06 55.6094 574.986 54.6221 578.229 53.6347C581.542 52.6474 585.137 51.7658 589.015 50.99C592.892 50.1437 596.91 49.509 601.07 49.0858C605.3 48.5921 609.635 48.3453 614.076 48.3453C622.677 48.3453 630.009 49.6148 636.072 52.1537C642.205 54.6221 646.893 58.6068 650.136 64.1078C653.379 69.5383 655 76.6261 655 85.3713C655 88.7565 655 92.9528 655 97.9601C655 102.967 655 107.552 655 111.713V123.349C655 128.498 655 133.752 655 139.112C655 144.401 655 150.149 655 156.355H631.207L629.621 142.603H627.4C625.427 145.212 622.959 147.751 619.998 150.22C617.037 152.617 613.513 154.663 609.424 156.355C605.405 157.977 600.823 158.788 595.677 158.788ZM605.405 137.737C608.366 137.737 611.292 137.031 614.182 135.621C617.073 134.21 619.751 132.236 622.219 129.697C624.757 127.158 626.907 124.125 628.669 120.599V103.99C627.753 104.625 626.519 105.224 624.968 105.788C623.488 106.282 621.267 106.846 618.306 107.481C615.345 108.116 611.186 108.927 605.828 109.914C602.797 110.478 600.224 111.43 598.109 112.77C596.064 114.11 594.478 115.838 593.35 117.954C592.222 120.07 591.658 122.503 591.658 125.253C591.658 129.838 593.033 133.082 595.782 134.986C598.602 136.82 601.81 137.737 605.405 137.737Z" fill="#ECF1F6"/>
</svg>
