<svg width="1135" height="159" viewBox="0 0 1135 159" fill="none" xmlns="http://www.w3.org/2000/svg">
<mask id="mask0_10034_6800" style="mask-type:alpha" maskUnits="userSpaceOnUse" x="0" y="0" width="1135" height="159">
<rect width="1135" height="159" fill="#D9D9D9"/>
</mask>
<g mask="url(#mask0_10034_6800)">
<g opacity="0.3">
<path d="M0 156.416C2.94245 152.469 6.27962 147.948 10.0115 142.852C13.8152 137.757 17.7265 132.554 21.7454 127.243C25.7644 121.861 29.4963 116.837 32.9411 112.172L55.8707 81.5992L63.6215 92.2566C54.0047 92.2566 45.8592 91.0366 39.1848 88.5965C32.5823 86.1564 27.2356 82.8192 23.1449 78.585C19.1259 74.2789 16.1835 69.327 14.3175 63.7292C12.4516 58.1313 11.5186 52.1029 11.5186 45.6439C11.5186 35.1659 13.564 26.805 17.6547 20.5613C21.8172 14.3175 27.9533 9.83209 36.063 7.10494C44.1726 4.30602 54.22 2.90656 66.2051 2.90656C73.3819 2.90656 80.3791 2.90656 87.197 2.90656C94.0867 2.90656 100.474 2.90656 106.359 2.90656C112.244 2.90656 117.339 2.90656 121.645 2.90656C121.645 11.3751 121.645 19.6283 121.645 27.6662C121.645 35.7041 121.645 44.5674 121.645 54.2559V105.928C121.645 115.473 121.645 124.157 121.645 131.98C121.645 139.802 121.645 147.948 121.645 156.416H96.6703C96.6703 147.948 96.6703 139.802 96.6703 131.98C96.6703 124.157 96.6703 115.473 96.6703 105.928V58.1314C96.6703 48.2993 96.6703 39.4001 96.6703 31.434C96.6703 23.4678 96.6703 15.2505 96.6703 6.78199L109.911 23.4678H67.0663C63.7651 23.4678 60.392 23.719 56.9472 24.2214C53.5024 24.7238 50.3087 25.8003 47.3663 27.4509C44.4238 29.0298 42.0555 31.5058 40.2613 34.8788C38.5389 38.1801 37.6777 42.6655 37.6777 48.3351C37.6777 58.7414 40.5843 66.0975 46.3974 70.4035C52.2106 74.6378 60.9303 76.7549 72.5565 76.7549H101.299V97.3162H65.2363L80.9533 84.2905L54.1483 121.215C50.0575 126.741 45.8951 132.446 41.6608 138.331C37.4265 144.144 33.0129 150.173 28.4198 156.416H0Z" fill="#ECF1F6"/>
<path d="M157.984 156.416C157.984 147.948 157.984 139.802 157.984 131.98C157.984 124.157 157.984 115.473 157.984 105.928V54.1483C157.984 44.5315 157.984 35.7041 157.984 27.6662C157.984 19.6283 157.984 11.3751 157.984 2.90656C164.012 2.90656 171.871 2.90656 181.56 2.90656C191.248 2.90656 202.372 2.90656 214.931 2.90656C226.916 2.90656 236.856 4.44956 244.75 7.53555C252.645 10.6215 258.566 15.5017 262.513 22.176C266.46 28.8504 268.434 37.606 268.434 48.4428C268.434 58.0596 266.675 66.5999 263.159 74.0637C259.642 81.5274 253.829 87.3764 245.719 91.6107C237.61 95.845 226.665 97.9621 212.886 97.9621C209.369 97.9621 205.566 97.9621 201.475 97.9621C197.456 97.9621 193.509 97.9621 189.633 97.9621C185.758 97.9621 182.421 97.9621 179.622 97.9621V77.4008H207.611C215.721 77.4008 222.359 76.432 227.526 74.4942C232.694 72.5565 236.497 69.4706 238.937 65.2363C241.449 61.002 242.705 55.476 242.705 48.6581C242.705 43.0603 241.808 38.6107 240.014 35.3094C238.22 31.9364 235.851 29.4245 232.909 27.7739C230.038 26.0515 226.845 24.9032 223.328 24.329C219.883 23.7549 216.51 23.4678 213.209 23.4678H170.687L182.959 6.78199C182.959 15.2505 182.959 23.5037 182.959 31.5416C182.959 39.5078 182.959 48.3351 182.959 58.0237V105.928C182.959 115.473 182.959 124.157 182.959 131.98C182.959 139.802 182.959 147.948 182.959 156.416H157.984Z" fill="#ECF1F6"/>
<path d="M386.476 156.416C380.376 149.24 374.67 142.494 369.359 136.178C364.049 129.863 358.846 123.691 353.75 117.662L327.806 86.9817H317.579V66.7434H327.591L350.305 41.3379C355.688 35.3812 360.963 29.4604 366.13 23.5755C371.369 17.6188 377.469 10.7292 384.431 2.90656H414.357C406.894 11.0162 399.609 18.9824 392.504 26.805C385.471 34.5559 378.402 42.3785 371.297 50.2729L344.384 79.9844L343.954 68.7888L373.881 104.529C378.546 109.983 383.498 115.868 388.737 122.183C394.047 128.499 399.215 134.671 404.238 140.699C409.334 146.656 413.783 151.895 417.587 156.416H386.476ZM294.758 156.416C294.758 147.948 294.758 139.802 294.758 131.98C294.758 124.157 294.758 115.473 294.758 105.928V54.2559C294.758 44.4956 294.758 35.6324 294.758 27.6662C294.758 19.7001 294.758 11.4469 294.758 2.90656H319.948C319.948 11.4469 319.948 19.7001 319.948 27.6662C319.948 35.6324 319.948 44.4956 319.948 54.2559V105.928C319.948 115.473 319.948 124.157 319.948 131.98C319.948 139.802 319.948 147.948 319.948 156.416H294.758Z" fill="#ECF1F6"/>
<path d="M441.198 156.416C441.198 147.948 441.198 139.802 441.198 131.98C441.198 124.157 441.198 115.473 441.198 105.928V54.1483C441.198 44.5315 441.198 35.7041 441.198 27.6662C441.198 19.6283 441.198 11.3751 441.198 2.90656C447.226 2.90656 455.085 2.90656 464.773 2.90656C474.462 2.90656 485.586 2.90656 498.145 2.90656C510.13 2.90656 520.07 4.44956 527.964 7.53555C535.859 10.6215 541.779 15.5017 545.727 22.176C549.674 28.8504 551.647 37.606 551.647 48.4428C551.647 58.0596 549.889 66.5999 546.372 74.0637C542.856 81.5274 537.043 87.3764 528.933 91.6107C520.823 95.845 509.879 97.9621 496.1 97.9621C492.583 97.9621 488.779 97.9621 484.689 97.9621C480.67 97.9621 476.722 97.9621 472.847 97.9621C468.972 97.9621 465.634 97.9621 462.835 97.9621V77.4008H490.825C498.934 77.4008 505.573 76.432 510.74 74.4942C515.907 72.5565 519.711 69.4706 522.151 65.2363C524.663 61.002 525.919 55.476 525.919 48.6581C525.919 43.0603 525.022 38.6107 523.228 35.3094C521.433 31.9364 519.065 29.4245 516.123 27.7739C513.252 26.0515 510.058 24.9032 506.542 24.329C503.097 23.7549 499.724 23.4678 496.423 23.4678H453.9L466.173 6.78199C466.173 15.2505 466.173 23.5037 466.173 31.5416C466.173 39.5078 466.173 48.3351 466.173 58.0237V105.928C466.173 115.473 466.173 124.157 466.173 131.98C466.173 139.802 466.173 147.948 466.173 156.416H441.198Z" fill="#ECF1F6"/>
<path d="M553.92 156.416C556.79 148.163 559.805 139.479 562.962 130.365C566.12 121.251 569.17 112.603 572.113 104.421L590.413 51.6723C593.786 42.1991 596.801 33.6588 599.456 26.0515C602.111 18.3724 604.803 10.6574 607.53 2.90656H640.363C643.162 10.8727 645.853 18.6594 648.437 26.2668C651.092 33.8741 654.071 42.3785 657.372 51.78L675.565 104.636C678.507 113.105 681.522 121.825 684.608 130.796C687.765 139.695 690.744 148.235 693.543 156.416H667.276C664.477 147.733 661.606 138.833 658.664 129.719C655.721 120.533 652.922 111.849 650.267 103.668L624.861 25.0826H622.708L596.98 102.914C594.181 111.383 591.274 120.246 588.26 129.504C585.246 138.762 582.304 147.733 579.433 156.416H553.92ZM585.461 120.246L587.83 100.869H662.324L664.262 120.246H585.461Z" fill="#ECF1F6"/>
<path d="M781.799 159C769.527 159 758.475 157.062 748.643 153.187C738.811 149.24 730.45 143.714 723.56 136.609C716.671 129.504 711.396 121.107 707.736 111.418C704.076 101.73 702.245 91.1083 702.245 79.5538C702.245 64.1239 705.403 50.4164 711.719 38.4313C718.034 26.4462 726.933 17.0447 738.416 10.2268C749.899 3.40894 763.427 0 779 0C784.024 0 788.94 0.358835 793.749 1.07651C798.557 1.72241 803.114 2.65539 807.42 3.87542C811.798 5.0237 815.853 6.31551 819.585 7.75085C823.316 9.11442 826.582 10.5856 829.381 12.1645L827.228 36.063C821.702 32.6899 816.319 29.9628 811.08 27.8815C805.841 25.8003 800.746 24.2932 795.794 23.3602C790.842 22.3555 786.034 21.8531 781.369 21.8531C771.178 21.8531 762.099 24.1855 754.133 28.8504C746.167 33.4435 739.923 40.046 735.402 48.6581C730.88 57.2701 728.62 67.5687 728.62 79.5538C728.62 87.52 729.768 95.0196 732.065 102.053C734.433 109.014 737.95 115.186 742.614 120.569C747.279 125.879 753.128 130.078 760.161 133.164C767.195 136.178 775.34 137.685 784.598 137.685C788.187 137.685 791.739 137.47 795.256 137.039C798.844 136.537 802.396 135.783 805.913 134.779C809.501 133.774 813.018 132.41 816.463 130.688C819.979 128.965 823.424 126.92 826.797 124.552L828.52 148.235C825.434 150.029 822.061 151.644 818.4 153.079C814.74 154.443 810.901 155.555 806.882 156.416C802.863 157.278 798.736 157.924 794.502 158.354C790.268 158.785 786.034 159 781.799 159Z" fill="#ECF1F6"/>
<path d="M949.749 156.416C943.649 149.24 937.944 142.494 932.633 136.178C927.322 129.863 922.119 123.691 917.024 117.662L891.08 86.9817H880.853V66.7434H890.865L913.579 41.3379C918.961 35.3812 924.236 29.4604 929.404 23.5755C934.642 17.6188 940.743 10.7292 947.704 2.90656H977.631C970.167 11.0162 962.883 18.9824 955.778 26.805C948.745 34.5559 941.676 42.3785 934.571 50.2729L907.658 79.9844L907.227 68.7888L937.154 104.529C941.819 109.983 946.771 115.868 952.01 122.183C957.321 128.499 962.488 134.671 967.512 140.699C972.607 146.656 977.057 151.895 980.86 156.416H949.749ZM858.031 156.416C858.031 147.948 858.031 139.802 858.031 131.98C858.031 124.157 858.031 115.473 858.031 105.928V54.2559C858.031 44.4956 858.031 35.6324 858.031 27.6662C858.031 19.7001 858.031 11.4469 858.031 2.90656H883.221C883.221 11.4469 883.221 19.7001 883.221 27.6662C883.221 35.6324 883.221 44.4956 883.221 54.2559V105.928C883.221 115.473 883.221 124.157 883.221 131.98C883.221 139.802 883.221 147.948 883.221 156.416H858.031Z" fill="#ECF1F6"/>
<path d="M1004.58 156.416C1004.58 147.948 1004.58 139.802 1004.58 131.98C1004.58 124.157 1004.58 115.473 1004.58 105.928V54.2559C1004.58 44.4956 1004.58 35.6324 1004.58 27.6662C1004.58 19.7001 1004.58 11.4469 1004.58 2.90656H1029.23C1029.23 11.4469 1029.23 19.736 1029.23 27.7739C1029.23 35.74 1029.23 44.6032 1029.23 54.3636V113.787H1031.17L1061.53 70.5112C1068.99 59.7461 1076.6 48.8016 1084.35 37.6777C1092.17 26.4821 1100.28 14.8917 1108.68 2.90656H1130.21C1130.21 11.4469 1130.21 19.7001 1130.21 27.6662C1130.21 35.6324 1130.21 44.4956 1130.21 54.2559V105.928C1130.21 115.473 1130.21 124.157 1130.21 131.98C1130.21 139.802 1130.21 147.948 1130.21 156.416H1105.56C1105.56 147.948 1105.56 139.802 1105.56 131.98C1105.56 124.085 1105.56 115.366 1105.56 105.821V45.4286H1103.73L1073.26 88.7041C1064.07 101.838 1055.64 113.894 1047.96 124.875C1040.28 135.855 1032.93 146.369 1025.89 156.416H1004.58Z" fill="#ECF1F6"/>
</g>
</g>
</svg>
