<svg width="611" height="155" viewBox="0 0 611 155" fill="none" xmlns="http://www.w3.org/2000/svg">
<g clip-path="url(#clip0_4277_180)">
<path d="M0 152.441C0 144.523 0 136.845 0 129.406C0 121.966 0 113.708 0 104.63V55.284C0 45.9335 0 37.4703 0 29.8943C0 22.3184 0 14.5035 0 6.4498H93.8037V30.5086C87.3581 30.5086 80.3983 30.5086 72.9241 30.5086C65.5186 30.5086 56.7759 30.5086 46.6961 30.5086H16.5596L28.2851 10.8521C28.2851 18.9058 28.2851 26.7206 28.2851 34.2966C28.2851 41.8725 28.2851 50.3358 28.2851 59.6863V104.63C28.2851 113.708 28.2851 121.966 28.2851 129.406C28.2851 136.845 28.2851 144.523 28.2851 152.441H0ZM21.0853 91.9353V68.7979H47.519C56.6388 68.7979 64.49 68.7979 71.0727 68.7979C77.724 68.7979 84.101 68.7979 90.2038 68.7979V91.9353C83.6896 91.9353 77.1412 91.9353 70.5585 91.9353C64.0443 91.9353 56.3302 91.9353 47.4161 91.9353H21.0853Z" fill="#ECF1F6"/>
<path d="M137.237 154.795C131.478 154.795 126.335 153.601 121.809 151.212C117.284 148.823 113.684 145.376 111.009 140.872C108.404 136.299 107.101 130.805 107.101 124.389C107.101 118.724 108.095 113.946 110.084 110.056C112.072 106.098 114.678 102.89 117.901 100.433C121.192 97.9073 124.792 95.9621 128.7 94.5971C132.677 93.2321 136.689 92.2424 140.734 91.6281L170.048 87.3283C170.254 82.5506 169.431 78.865 167.58 76.2715C165.797 73.6779 163.225 71.9033 159.865 70.9478C156.506 69.924 152.631 69.4121 148.243 69.4121C145.911 69.4121 143.374 69.6169 140.632 70.0264C137.957 70.3677 135.112 70.9137 132.095 71.6645C129.146 72.4152 126.06 73.3708 122.838 74.531C119.615 75.6231 116.324 76.954 112.964 78.5238L111.729 55.8983C114.266 54.9428 117.112 53.9872 120.266 53.0317C123.489 52.0762 126.986 51.223 130.758 50.4723C134.529 49.6532 138.437 49.039 142.483 48.6295C146.597 48.1517 150.814 47.9128 155.134 47.9128C163.5 47.9128 170.631 49.1413 176.528 51.5984C182.494 53.9872 187.053 57.8435 190.208 63.1671C193.362 68.4225 194.939 75.2818 194.939 83.745C194.939 87.0211 194.939 91.0821 194.939 95.928C194.939 100.774 194.939 105.21 194.939 109.237V120.499C194.939 125.481 194.939 130.566 194.939 135.753C194.939 140.872 194.939 146.434 194.939 152.441H171.797L170.254 139.131H168.094C166.174 141.657 163.774 144.114 160.894 146.503C158.014 148.823 154.586 150.803 150.609 152.441C146.7 154.01 142.243 154.795 137.237 154.795ZM146.7 134.422C149.58 134.422 152.426 133.74 155.237 132.374C158.048 131.009 160.654 129.098 163.054 126.641C165.522 124.184 167.614 121.249 169.328 117.837V101.764C168.437 102.378 167.237 102.958 165.728 103.504C164.288 103.982 162.128 104.528 159.248 105.142C156.368 105.756 152.323 106.541 147.111 107.497C144.163 108.043 141.66 108.964 139.603 110.261C137.615 111.558 136.072 113.23 134.975 115.277C133.877 117.325 133.329 119.68 133.329 122.341C133.329 126.778 134.666 129.917 137.34 131.76C140.083 133.535 143.203 134.422 146.7 134.422Z" fill="#ECF1F6"/>
<path d="M287.682 152.441C284.185 148.072 280.619 143.738 276.985 139.439C273.419 135.07 269.82 130.771 266.185 126.539L252.608 110.159H245.1V92.5495H253.328L265.054 77.7048C268.688 73.2001 272.288 68.6614 275.854 64.0885C279.488 59.5156 283.088 54.9769 286.653 50.4723H317.407C312.196 56.5467 306.984 62.6211 301.773 68.6955C296.562 74.7699 291.385 80.8102 286.242 86.8164L270.814 104.732L269.682 92.9591L288.299 115.585C293.648 121.727 298.962 127.904 304.242 134.115C309.59 140.258 314.904 146.366 320.184 152.441H287.682ZM221.341 152.441C221.341 145.069 221.341 137.937 221.341 131.044C221.341 124.15 221.341 116.472 221.341 108.009V51.3937C221.341 42.9987 221.341 34.7402 221.341 26.6182C221.341 18.4963 221.341 10.4425 221.341 2.45707L247.466 0C247.466 8.05372 247.466 16.3122 247.466 24.7754C247.466 33.2387 247.466 42.1114 247.466 51.3937V112.923C247.466 120.021 247.466 126.71 247.466 132.989C247.466 139.2 247.466 145.684 247.466 152.441H221.341Z" fill="#ECF1F6"/>
<path d="M379.424 155C372.087 155 365.847 153.874 360.704 151.622C355.561 149.301 351.619 145.649 348.876 140.667C346.133 135.685 344.762 129.201 344.762 121.215C344.762 116.233 344.762 111.216 344.762 106.166C344.762 101.115 344.762 95.9621 344.762 90.7067C344.762 85.3831 344.762 79.9571 344.762 74.4287C344.762 68.9003 344.762 63.1671 344.762 57.2292C344.762 49.7897 344.762 42.9304 344.762 36.6513C344.762 30.3721 344.762 23.9564 344.762 17.4042L370.578 12.5925C370.578 17.7796 370.578 22.6938 370.578 27.3349C370.578 31.9078 370.578 36.583 370.578 41.3606C370.578 46.1383 370.578 51.4278 370.578 57.2292V113.435C370.578 120.055 371.847 125.072 374.384 128.484C376.99 131.828 381.104 133.501 386.726 133.501C389.058 133.501 391.561 133.091 394.235 132.272C396.978 131.453 399.549 130.19 401.949 128.484L403.698 149.881C401.983 150.973 399.823 151.895 397.218 152.645C394.681 153.396 391.869 153.976 388.784 154.386C385.698 154.795 382.578 155 379.424 155ZM327.173 70.2312V50.4723H402.978V70.2312C396.395 70.2312 389.778 70.2312 383.127 70.2312C376.475 70.2312 370.03 70.2312 363.79 70.2312H327.173Z" fill="#ECF1F6"/>
<path d="M469.851 155C460.8 155 452.914 153.567 446.194 150.7C439.474 147.765 433.886 143.773 429.429 138.722C424.972 133.671 421.646 127.904 419.452 121.42C417.258 114.936 416.161 108.145 416.161 101.047C416.161 90.8774 418.218 81.7999 422.332 73.8144C426.446 65.7607 432.446 59.4133 440.332 54.7721C448.286 50.131 457.954 47.8104 469.337 47.8104C478.114 47.8104 485.793 49.1755 492.376 51.9055C499.027 54.5674 504.582 58.3212 509.039 63.1671C513.564 68.013 516.958 73.6779 519.221 80.1618C521.484 86.5775 522.615 93.5392 522.615 101.047C522.615 111.285 520.524 120.465 516.341 128.587C512.227 136.708 506.227 143.158 498.342 147.936C490.456 152.645 480.959 155 469.851 155ZM469.748 133.501C475.645 133.501 480.514 131.965 484.353 128.894C488.262 125.754 491.176 121.727 493.096 116.813C495.016 111.899 495.976 106.644 495.976 101.047C495.976 94.4947 494.879 88.8639 492.685 84.1546C490.559 79.3769 487.508 75.7254 483.531 73.2001C479.554 70.6066 474.925 69.3098 469.645 69.3098C463.817 69.3098 458.88 70.7431 454.834 73.6096C450.857 76.408 447.84 80.196 445.783 84.9736C443.794 89.7512 442.8 95.109 442.8 101.047C442.8 106.644 443.794 111.899 445.783 116.813C447.771 121.727 450.754 125.754 454.731 128.894C458.777 131.965 463.782 133.501 469.748 133.501Z" fill="#ECF1F6"/>
<path d="M545.173 152.441C545.173 145.069 545.173 137.937 545.173 131.044C545.173 124.15 545.173 116.472 545.173 108.009V97.7708C545.173 90.0583 545.173 82.2435 545.173 74.3263C545.173 66.4091 545.173 58.4577 545.173 50.4723L567.39 49.1413L568.418 68.5931H570.681C573.424 62.7917 576.475 58.4236 579.835 55.4888C583.195 52.4857 586.623 50.4723 590.12 49.4485C593.686 48.3564 597.012 47.8104 600.097 47.8104C601.743 47.8104 603.526 47.9469 605.446 48.22C607.434 48.493 609.286 48.9707 611 49.6532L608.634 75.1453C606.166 74.8041 603.903 74.5652 601.846 74.4287C599.857 74.2239 597.629 74.1215 595.16 74.1215C593.24 74.1215 591.183 74.3604 588.989 74.8382C586.795 75.3159 584.635 76.2715 582.509 77.7048C580.384 79.0698 578.361 81.0832 576.441 83.745C574.521 86.4069 572.807 89.8877 571.298 94.1876V109.34C571.298 117.12 571.298 124.423 571.298 131.248C571.298 138.005 571.298 145.069 571.298 152.441H545.173Z" fill="#ECF1F6"/>
</g>
<defs>
<clipPath id="clip0_4277_180">
<rect width="611" height="155" fill="white"/>
</clipPath>
</defs>
</svg>
