<svg width="712" height="157" viewBox="0 0 712 157" fill="none" xmlns="http://www.w3.org/2000/svg">
<path d="M0 154.408C0 146.388 0 138.611 0 131.075C0 123.54 0 115.175 0 105.98V55.9974C0 46.5262 0 37.9538 0 30.2801C0 22.6063 0 14.6907 0 6.53302H94.898V30.9022C88.3772 30.9022 81.3362 30.9022 73.7749 30.9022C66.2829 30.9022 57.4383 30.9022 47.2409 30.9022H16.7528L28.6151 10.9921C28.6151 19.1497 28.6151 27.0654 28.6151 34.7391C28.6151 42.4128 28.6151 50.9852 28.6151 60.4564V105.98C28.6151 115.175 28.6151 123.54 28.6151 131.075C28.6151 138.611 28.6151 146.388 28.6151 154.408H0ZM21.3312 93.1215V69.6856H48.0733C57.2995 69.6856 65.2424 69.6856 71.9019 69.6856C78.6308 69.6856 85.0822 69.6856 91.2561 69.6856V93.1215C84.6659 93.1215 78.0411 93.1215 71.3816 93.1215C64.7915 93.1215 56.9874 93.1215 47.9693 93.1215H21.3312Z" fill="#ECF1F6"/>
<path d="M138.838 156.793C133.011 156.793 127.809 155.583 123.23 153.163C118.652 150.743 115.01 147.252 112.304 142.69C109.668 138.058 108.35 132.493 108.35 125.994C108.35 120.256 109.356 115.417 111.368 111.476C113.38 107.467 116.016 104.217 119.276 101.729C122.606 99.1706 126.248 97.2004 130.202 95.8177C134.225 94.435 138.283 93.4326 142.376 92.8104L172.032 88.4551C172.24 83.6158 171.408 79.8826 169.535 77.2556C167.731 74.6286 165.13 72.8311 161.73 71.8633C158.331 70.8263 154.412 70.3078 149.972 70.3078C147.614 70.3078 145.047 70.5152 142.272 70.93C139.567 71.2756 136.688 71.8287 133.636 72.5892C130.653 73.3496 127.531 74.3175 124.271 75.4927C121.01 76.5989 117.681 77.9469 114.281 79.537L113.033 56.6196C115.599 55.6517 118.478 54.6838 121.669 53.716C124.93 52.7481 128.468 51.884 132.283 51.1235C136.098 50.2939 140.052 49.6717 144.145 49.2569C148.307 48.773 152.574 48.531 156.944 48.531C165.407 48.531 172.622 49.7754 178.587 52.2642C184.623 54.6838 189.236 58.5898 192.427 63.9822C195.618 69.3054 197.213 76.2532 197.213 84.8256C197.213 88.144 197.213 92.2574 197.213 97.1658C197.213 102.074 197.213 106.568 197.213 110.647V122.053C197.213 127.1 197.213 132.251 197.213 137.505C197.213 142.69 197.213 148.324 197.213 154.408H173.801L172.24 140.927H170.055C168.112 143.485 165.685 145.973 162.771 148.393C159.857 150.743 156.389 152.748 152.366 154.408C148.411 155.998 143.902 156.793 138.838 156.793ZM148.411 136.157C151.325 136.157 154.204 135.465 157.048 134.083C159.892 132.7 162.528 130.764 164.956 128.275C167.453 125.787 169.569 122.814 171.304 119.357V103.077C170.402 103.699 169.188 104.286 167.662 104.839C166.205 105.323 164.02 105.876 161.106 106.499C158.193 107.121 154.1 107.916 148.828 108.884C145.845 109.437 143.313 110.37 141.232 111.684C139.22 112.997 137.659 114.691 136.549 116.765C135.439 118.839 134.884 121.224 134.884 123.92C134.884 128.414 136.237 131.594 138.942 133.46C141.717 135.258 144.874 136.157 148.411 136.157Z" fill="#ECF1F6"/>
<path d="M291.038 154.408C287.5 149.983 283.893 145.593 280.216 141.238C276.609 136.813 272.967 132.458 269.291 128.172L255.555 111.58H247.959V93.7437H256.284L268.146 78.7074C271.823 74.1446 275.465 69.5473 279.072 64.9155C282.748 60.2836 286.39 55.6863 289.998 51.1235H321.11C315.838 57.2763 310.566 63.4291 305.294 69.5819C300.021 75.7347 294.784 81.8529 289.581 87.9366L273.973 106.084L272.828 94.1585L291.662 117.076C297.073 123.298 302.449 129.554 307.791 135.845C313.202 142.067 318.578 148.255 323.919 154.408H291.038ZM223.923 154.408C223.923 146.941 223.923 139.717 223.923 132.734C223.923 125.752 223.923 117.975 223.923 109.402V52.0568C223.923 43.5535 223.923 35.1885 223.923 26.9617C223.923 18.7349 223.923 10.5773 223.923 2.48878L250.353 0C250.353 8.15764 250.353 16.5227 250.353 25.0951C250.353 33.6675 250.353 42.6548 250.353 52.0568V114.38C250.353 121.57 250.353 128.345 250.353 134.705C250.353 140.996 250.353 147.563 250.353 154.408H223.923Z" fill="#ECF1F6"/>
<path d="M383.85 157C376.428 157 370.115 155.859 364.912 153.578C359.709 151.227 355.721 147.529 352.946 142.482C350.171 137.435 348.784 130.868 348.784 122.779C348.784 117.733 348.784 112.651 348.784 107.536C348.784 102.42 348.784 97.2004 348.784 91.8771C348.784 86.4848 348.784 80.9888 348.784 75.389C348.784 69.7893 348.784 63.9822 348.784 57.9676C348.784 50.4322 348.784 43.4844 348.784 37.1242C348.784 30.764 348.784 24.2655 348.784 17.6288L374.901 12.755C374.901 18.009 374.901 22.9866 374.901 27.6876C374.901 32.3195 374.901 37.055 374.901 41.8943C374.901 46.7336 374.901 52.0914 374.901 57.9676V114.898C374.901 121.604 376.185 126.685 378.751 130.142C381.387 133.529 385.55 135.223 391.238 135.223C393.597 135.223 396.129 134.808 398.834 133.979C401.609 133.149 404.21 131.87 406.638 130.142L408.407 151.815C406.673 152.921 404.488 153.854 401.852 154.615C399.285 155.375 396.441 155.963 393.319 156.378C390.197 156.793 387.041 157 383.85 157ZM330.99 71.1374V51.1235H407.679V71.1374C401.019 71.1374 394.325 71.1374 387.596 71.1374C380.867 71.1374 374.346 71.1374 368.034 71.1374H330.99Z" fill="#ECF1F6"/>
<path d="M457.723 157C447.109 157 439.166 153.924 433.894 147.771C428.691 141.549 426.09 132.389 426.09 120.291C426.09 115.728 426.09 111.753 426.09 108.365C426.09 104.978 426.09 101.521 426.09 97.9954C426.09 91.3587 426.09 85.4478 426.09 80.2629C426.09 75.0779 426.09 70.1695 426.09 65.5376C426.09 60.9058 426.09 56.1011 426.09 51.1235L452.52 50.2939C452.52 57.6911 452.52 65.0192 452.52 72.2781C452.52 79.4679 452.52 87.0033 452.52 94.8844V112.721C452.52 119.496 453.664 124.611 455.954 128.068C458.312 131.525 462.509 133.253 468.544 133.253C471.943 133.253 475.065 132.562 477.909 131.179C480.823 129.727 483.459 127.826 485.817 125.476C488.176 123.056 490.326 120.36 492.269 117.387V94.8844C492.269 87.0033 492.269 79.6061 492.269 72.6929C492.269 65.7105 492.269 58.5207 492.269 51.1235H518.699C518.699 58.5207 518.699 65.8487 518.699 73.1077C518.699 80.2974 518.699 88.5934 518.699 97.9954V109.402C518.699 117.975 518.699 125.752 518.699 132.734C518.699 139.717 518.699 146.941 518.699 154.408H496.223L495.182 137.297H492.789C490.5 140.616 487.69 143.796 484.361 146.838C481.031 149.81 477.146 152.264 472.706 154.2C468.267 156.067 463.272 157 457.723 157Z" fill="#ECF1F6"/>
<path d="M546.046 154.408C546.046 146.941 546.046 139.717 546.046 132.734C546.046 125.752 546.046 117.975 546.046 109.402V99.0324C546.046 91.2204 546.046 83.3047 546.046 75.2853C546.046 67.266 546.046 59.212 546.046 51.1235L568.521 49.7754L569.562 69.4782H571.851C574.626 63.6019 577.713 59.1775 581.112 56.2048C584.511 53.1629 587.98 51.1235 591.518 50.0865C595.125 48.9804 598.489 48.4273 601.611 48.4273C603.276 48.4273 605.079 48.5656 607.022 48.8421C609.033 49.1187 610.906 49.6026 612.641 50.2939L610.247 76.1149C607.75 75.7693 605.461 75.5273 603.38 75.389C601.368 75.1816 599.114 75.0779 596.616 75.0779C594.674 75.0779 592.593 75.3199 590.373 75.8038C588.153 76.2878 585.968 77.2556 583.817 78.7074C581.667 80.09 579.621 82.1295 577.678 84.8256C575.736 87.5218 574.002 91.0476 572.476 95.4029V110.75C572.476 118.631 572.476 126.029 572.476 132.942C572.476 139.786 572.476 146.941 572.476 154.408H546.046Z" fill="#ECF1F6"/>
<path d="M653.625 156.793C647.798 156.793 642.595 155.583 638.017 153.163C633.439 150.743 629.797 147.252 627.091 142.69C624.455 138.058 623.137 132.493 623.137 125.994C623.137 120.256 624.143 115.417 626.155 111.476C628.167 107.467 630.803 104.217 634.063 101.729C637.393 99.1706 641.035 97.2004 644.989 95.8177C649.012 94.435 653.07 93.4326 657.163 92.8104L686.819 88.4551C687.027 83.6158 686.194 79.8826 684.321 77.2556C682.518 74.6286 679.916 72.8311 676.517 71.8633C673.118 70.8263 669.199 70.3078 664.759 70.3078C662.401 70.3078 659.834 70.5152 657.059 70.93C654.354 71.2756 651.475 71.8287 648.423 72.5892C645.44 73.3496 642.318 74.3175 639.058 75.4927C635.797 76.5989 632.467 77.9469 629.068 79.537L627.82 56.6196C630.386 55.6517 633.265 54.6838 636.456 53.716C639.717 52.7481 643.254 51.884 647.07 51.1235C650.885 50.2939 654.839 49.6717 658.932 49.2569C663.094 48.773 667.361 48.531 671.731 48.531C680.194 48.531 687.408 49.7754 693.374 52.2642C699.409 54.6838 704.022 58.5898 707.213 63.9822C710.405 69.3054 712 76.2532 712 84.8256C712 88.144 712 92.2574 712 97.1658C712 102.074 712 106.568 712 110.647V122.053C712 127.1 712 132.251 712 137.505C712 142.69 712 148.324 712 154.408H688.588L687.027 140.927H684.842C682.899 143.485 680.471 145.973 677.558 148.393C674.644 150.743 671.176 152.748 667.152 154.408C663.198 155.998 658.689 156.793 653.625 156.793ZM663.198 136.157C666.112 136.157 668.991 135.465 671.835 134.083C674.679 132.7 677.315 130.764 679.743 128.275C682.24 125.787 684.356 122.814 686.09 119.357V103.077C685.189 103.699 683.975 104.286 682.448 104.839C680.992 105.323 678.807 105.876 675.893 106.499C672.979 107.121 668.887 107.916 663.615 108.884C660.632 109.437 658.1 110.37 656.018 111.684C654.007 112.997 652.446 114.691 651.336 116.765C650.226 118.839 649.671 121.224 649.671 123.92C649.671 128.414 651.024 131.594 653.729 133.46C656.504 135.258 659.66 136.157 663.198 136.157Z" fill="#ECF1F6"/>
</svg>
