<svg width="576" height="159" viewBox="0 0 576 159" fill="none" xmlns="http://www.w3.org/2000/svg">
<mask id="mask0_10034_6800" style="mask-type:alpha" maskUnits="userSpaceOnUse" x="0" y="0" width="576" height="159">
<rect width="576" height="159" fill="#D9D9D9"/>
</mask>
<g mask="url(#mask0_10034_6800)">
<path d="M0 153.397C2.70962 149.579 5.80136 145.206 9.27522 140.277C12.8186 135.349 16.4314 130.281 20.1137 125.075C23.8655 119.799 27.3393 114.906 30.5353 110.394L51.5869 80.7181L61.3832 92.38C52.2122 92.38 44.396 91.2346 37.9346 88.9439C31.5427 86.5837 26.3319 83.3559 22.3022 79.2603C18.342 75.1648 15.4587 70.375 13.6523 64.8911C11.8459 59.4073 10.9427 53.5069 10.9427 47.19C10.9427 36.6387 12.9923 28.3088 17.0914 22.2001C21.2601 16.0221 27.3741 11.6142 35.4334 8.97634C43.5623 6.2691 53.567 4.91548 65.4476 4.91548C72.4649 4.91548 79.4126 4.91548 86.2908 4.91548C93.2386 4.91548 99.7 4.91548 105.675 4.91548C111.65 4.91548 116.791 4.91548 121.099 4.91548C121.099 13.1066 121.099 21.0548 121.099 28.76C121.099 36.4652 121.099 45.0728 121.099 54.5828V104.771C121.099 114.003 121.099 122.403 121.099 129.969C121.099 137.535 121.099 145.345 121.099 153.397H92.4396C92.4396 145.345 92.4396 137.535 92.4396 129.969C92.4396 122.403 92.4396 114.003 92.4396 104.771V59.1643C92.4396 49.5849 92.4396 40.9425 92.4396 33.2373C92.4396 25.5321 92.4396 17.584 92.4396 9.39284L107.342 28.2394H66.3856C63.4675 28.2394 60.48 28.4823 57.423 28.9682C54.4355 29.4541 51.6911 30.4607 49.19 31.9878C46.7582 33.4456 44.7781 35.6669 43.2496 38.6518C41.7906 41.5673 41.0611 45.4546 41.0611 50.3137C41.0611 59.6155 43.5623 66.1406 48.5647 69.8891C53.6365 73.5682 61.1053 75.4077 70.9711 75.4077H97.6504V98.0027H62.738L80.4547 83.4253L55.4429 120.181C51.7606 125.387 48.0436 130.767 44.2918 136.32C40.6095 141.804 36.7188 147.497 32.6196 153.397H0Z" fill="#ECF1F6" fill-opacity="0.3"/>
<path d="M153.539 153.397C153.539 145.345 153.539 137.535 153.539 129.969C153.539 122.403 153.539 114.003 153.539 104.771V54.4787C153.539 45.0381 153.539 36.4652 153.539 28.76C153.539 21.0548 153.539 13.1066 153.539 4.91548C159.445 4.91548 167.261 4.91548 176.988 4.91548C186.784 4.91548 198.04 4.91548 210.754 4.91548C222.565 4.91548 232.396 6.40794 240.247 9.39284C248.098 12.3777 254.004 17.2022 257.964 23.8661C261.924 30.4607 263.904 39.2765 263.904 50.3137C263.904 59.8238 262.167 68.2578 258.693 75.616C255.22 82.9047 249.592 88.6315 241.81 92.7965C234.029 96.892 223.573 98.9398 210.441 98.9398C207.106 98.9398 203.459 98.9398 199.499 98.9398C195.608 98.9398 191.787 98.9398 188.035 98.9398C184.353 98.9398 181.191 98.9398 178.551 98.9398V75.9283H204.084C211.032 75.9283 216.729 75.0606 221.176 73.3252C225.622 71.5898 228.888 68.8826 230.972 65.2035C233.126 61.455 234.203 56.5959 234.203 50.6261C234.203 45.767 233.438 41.8797 231.91 38.9642C230.381 35.9793 228.367 33.7232 225.865 32.1961C223.364 30.6689 220.62 29.6277 217.632 29.0724C214.645 28.517 211.692 28.2394 208.774 28.2394H168.234L182.303 9.39284C182.303 17.584 182.303 25.5668 182.303 33.3415C182.303 41.0467 182.303 49.6196 182.303 59.0602V104.771C182.303 114.003 182.303 122.403 182.303 129.969C182.303 137.535 182.303 145.345 182.303 153.397H153.539Z" fill="#ECF1F6" fill-opacity="0.3"/>
<path d="M374.603 153.397C369.322 146.594 364.355 140.208 359.7 134.238C355.114 128.268 350.598 122.437 346.152 116.745L323.641 87.9026H313.845V64.787H323.329L343.234 41.0467C347.889 35.4239 352.509 29.8359 357.094 24.2826C361.749 18.7293 367.099 12.2736 373.144 4.91548H407.118C400.309 12.7595 393.64 20.4647 387.109 28.0311C380.647 35.5975 374.116 43.1986 367.516 50.8343L342.713 79.6768L342.192 66.8695L369.809 102.168C374.047 107.582 378.598 113.413 383.461 119.661C388.394 125.908 393.188 131.982 397.843 137.882C402.498 143.783 406.562 148.954 410.036 153.397H374.603ZM287.27 153.397C287.27 145.345 287.27 137.535 287.27 129.969C287.27 122.403 287.27 114.003 287.27 104.771V54.5828C287.27 45.0728 287.27 36.4652 287.27 28.76C287.27 21.0548 287.27 13.1066 287.27 4.91548H316.45C316.45 13.1066 316.45 21.0548 316.45 28.76C316.45 36.4652 316.45 45.0728 316.45 54.5828V104.771C316.45 114.003 316.45 122.403 316.45 129.969C316.45 137.535 316.45 145.345 316.45 153.397H287.27Z" fill="#ECF1F6" fill-opacity="0.3"/>
<path d="M492.548 156C479.416 156 467.987 153.952 458.261 149.857C448.603 145.761 440.613 140.138 434.291 132.989C428.038 125.839 423.348 117.648 420.222 108.415C417.165 99.1828 415.636 89.4298 415.636 79.1562C415.636 64.787 418.519 51.7715 424.286 40.1095C430.053 28.3782 438.564 19.1111 449.819 12.3083C461.144 5.43611 475.109 2 491.714 2C504.359 2 515.44 3.97837 524.959 7.9351C534.477 11.8918 542.432 17.4104 548.824 24.4909C555.216 31.5713 560.01 39.7625 563.206 49.0642C566.402 58.366 568 68.362 568 79.0521C568 93.7683 565.082 106.923 559.246 118.515C553.41 130.108 544.864 139.271 533.609 146.004C522.353 152.668 508.666 156 492.548 156ZM492.026 131.739C499.808 131.739 506.547 130.351 512.244 127.574C517.942 124.728 522.666 120.841 526.418 115.912C530.239 110.914 533.053 105.257 534.859 98.9398C536.735 92.6229 537.673 85.9937 537.673 79.0521C537.673 71.6245 536.666 64.7176 534.651 58.3313C532.636 51.945 529.683 46.357 525.792 41.5673C521.971 36.7081 517.212 32.9597 511.515 30.3218C505.887 27.6146 499.391 26.261 492.026 26.261C484.453 26.261 477.784 27.6493 472.017 30.426C466.25 33.2026 461.422 37.0552 457.531 41.9838C453.71 46.9123 450.826 52.5698 448.881 58.9561C446.936 65.2729 445.963 71.9716 445.963 79.0521C445.963 86.1325 446.901 92.8312 448.777 99.1481C450.653 105.465 453.501 111.088 457.323 116.016C461.144 120.945 465.938 124.797 471.704 127.574C477.471 130.351 484.245 131.739 492.026 131.739Z" fill="#ECF1F6" fill-opacity="0.3"/>
</g>
</svg>
