<svg width="568" height="154" viewBox="0 0 568 154" fill="none" xmlns="http://www.w3.org/2000/svg">
<g clip-path="url(#clip0_4277_170)">
<path d="M0 151.397C2.70962 147.579 5.80136 143.206 9.27522 138.277C12.8186 133.349 16.4314 128.281 20.1137 123.075C23.8655 117.799 27.3393 112.906 30.5353 108.394L51.5869 78.7181L61.3832 90.38C52.2122 90.38 44.396 89.2346 37.9346 86.9439C31.5427 84.5837 26.3319 81.3559 22.3022 77.2603C18.342 73.1648 15.4587 68.375 13.6523 62.8911C11.8459 57.4073 10.9427 51.5069 10.9427 45.19C10.9427 34.6387 12.9923 26.3088 17.0914 20.2001C21.2601 14.0221 27.3741 9.61415 35.4334 6.97634C43.5623 4.2691 53.567 2.91548 65.4476 2.91548C72.4649 2.91548 79.4126 2.91548 86.2908 2.91548C93.2386 2.91548 99.7 2.91548 105.675 2.91548C111.65 2.91548 116.791 2.91548 121.099 2.91548C121.099 11.1066 121.099 19.0548 121.099 26.76C121.099 34.4652 121.099 43.0728 121.099 52.5828V102.771C121.099 112.003 121.099 120.403 121.099 127.969C121.099 135.535 121.099 143.345 121.099 151.397H92.4396C92.4396 143.345 92.4396 135.535 92.4396 127.969C92.4396 120.403 92.4396 112.003 92.4396 102.771V57.1643C92.4396 47.5849 92.4396 38.9425 92.4396 31.2373C92.4396 23.5321 92.4396 15.584 92.4396 7.39284L107.342 26.2394H66.3856C63.4675 26.2394 60.48 26.4823 57.423 26.9682C54.4355 27.4541 51.6911 28.4607 49.1899 29.9878C46.7582 31.4456 44.7781 33.6669 43.2496 36.6518C41.7906 39.5673 41.0611 43.4546 41.0611 48.3137C41.0611 57.6155 43.5623 64.1406 48.5647 67.8891C53.6365 71.5682 61.1053 73.4077 70.9711 73.4077H97.6504V96.0027H62.738L80.4548 81.4253L55.4429 118.181C51.7606 123.387 48.0436 128.767 44.2918 134.32C40.6095 139.804 36.7188 145.497 32.6196 151.397H0Z" fill="#ECF1F6"/>
<path d="M153.539 151.397C153.539 143.345 153.539 135.535 153.539 127.969C153.539 120.403 153.539 112.003 153.539 102.771V52.4787C153.539 43.0381 153.539 34.4652 153.539 26.76C153.539 19.0548 153.539 11.1066 153.539 2.91548C159.445 2.91548 167.261 2.91548 176.988 2.91548C186.784 2.91548 198.04 2.91548 210.754 2.91548C222.565 2.91548 232.396 4.40794 240.247 7.39284C248.098 10.3777 254.004 15.2022 257.964 21.8661C261.924 28.4607 263.904 37.2765 263.904 48.3137C263.904 57.8238 262.167 66.2578 258.693 73.616C255.22 80.9047 249.592 86.6315 241.81 90.7965C234.029 94.8921 223.573 96.9398 210.441 96.9398C207.106 96.9398 203.459 96.9398 199.499 96.9398C195.608 96.9398 191.787 96.9398 188.035 96.9398C184.353 96.9398 181.191 96.9398 178.551 96.9398V73.9283H204.084C211.032 73.9283 216.729 73.0606 221.176 71.3252C225.622 69.5898 228.888 66.8826 230.972 63.2035C233.126 59.455 234.203 54.5959 234.203 48.6261C234.203 43.767 233.438 39.8797 231.91 36.9642C230.381 33.9793 228.367 31.7232 225.865 30.1961C223.364 28.6689 220.62 27.6277 217.632 27.0724C214.645 26.517 211.692 26.2394 208.774 26.2394H168.234L182.303 7.39284C182.303 15.584 182.303 23.5668 182.303 31.3415C182.303 39.0467 182.303 47.6196 182.303 57.0602V102.771C182.303 112.003 182.303 120.403 182.303 127.969C182.303 135.535 182.303 143.345 182.303 151.397H153.539Z" fill="#ECF1F6"/>
<path d="M374.603 151.397C369.323 144.594 364.355 138.208 359.7 132.238C355.114 126.268 350.598 120.437 346.152 114.745L323.641 85.9026H313.845V62.787H323.328L343.234 39.0467C347.889 33.4239 352.509 27.8359 357.094 22.2826C361.749 16.7293 367.099 10.2736 373.144 2.91548H407.118C400.309 10.7595 393.64 18.4647 387.109 26.0311C380.647 33.5975 374.116 41.1986 367.516 48.8343L342.713 77.6768L342.192 64.8695L369.809 100.168C374.047 105.582 378.598 111.413 383.461 117.661C388.394 123.908 393.188 129.982 397.843 135.882C402.498 141.783 406.562 146.954 410.036 151.397H374.603ZM287.27 151.397C287.27 143.345 287.27 135.535 287.27 127.969C287.27 120.403 287.27 112.003 287.27 102.771V52.5828C287.27 43.0728 287.27 34.4652 287.27 26.76C287.27 19.0548 287.27 11.1066 287.27 2.91548H316.45C316.45 11.1066 316.45 19.0548 316.45 26.76C316.45 34.4652 316.45 43.0728 316.45 52.5828V102.771C316.45 112.003 316.45 120.403 316.45 127.969C316.45 135.535 316.45 143.345 316.45 151.397H287.27Z" fill="#ECF1F6"/>
<path d="M492.548 154C479.416 154 467.987 151.952 458.261 147.857C448.603 143.761 440.613 138.138 434.291 130.989C428.038 123.839 423.348 115.648 420.222 106.415C417.165 97.1828 415.636 87.4298 415.636 77.1562C415.636 62.787 418.519 49.7715 424.286 38.1095C430.053 26.3782 438.564 17.1111 449.819 10.3083C461.144 3.43611 475.109 0 491.714 0C504.359 0 515.44 1.97837 524.959 5.93509C534.477 9.89182 542.432 15.4104 548.824 22.4909C555.216 29.5713 560.01 37.7625 563.206 47.0642C566.402 56.366 568 66.362 568 77.0521C568 91.7683 565.082 104.923 559.246 116.515C553.41 128.108 544.864 137.271 533.609 144.004C522.353 150.668 508.666 154 492.548 154ZM492.026 129.739C499.808 129.739 506.547 128.351 512.244 125.574C517.942 122.728 522.666 118.841 526.418 113.912C530.239 108.914 533.053 103.257 534.859 96.9398C536.735 90.6229 537.673 83.9937 537.673 77.0521C537.673 69.6245 536.666 62.7176 534.651 56.3313C532.636 49.945 529.683 44.357 525.792 39.5673C521.971 34.7081 517.212 30.9597 511.515 28.3218C505.887 25.6146 499.391 24.261 492.026 24.261C484.453 24.261 477.784 25.6493 472.017 28.426C466.25 31.2026 461.422 35.0552 457.531 39.9838C453.71 44.9123 450.826 50.5698 448.881 56.9561C446.936 63.2729 445.963 69.9716 445.963 77.0521C445.963 84.1325 446.901 90.8312 448.777 97.1481C450.653 103.465 453.501 109.088 457.323 114.016C461.144 118.945 465.938 122.797 471.704 125.574C477.471 128.351 484.245 129.739 492.026 129.739Z" fill="#ECF1F6"/>
</g>
<defs>
<clipPath id="clip0_4277_170">
<rect width="568" height="154" fill="white"/>
</clipPath>
</defs>
</svg>
