<svg width="646" height="159" viewBox="0 0 646 159" fill="none" xmlns="http://www.w3.org/2000/svg">
<mask id="mask0_10034_6800" style="mask-type:alpha" maskUnits="userSpaceOnUse" x="0" y="0" width="646" height="159">
<rect width="646" height="159" fill="#D9D9D9"/>
</mask>
<g mask="url(#mask0_10034_6800)">
<path d="M32 152.441C32 144.523 32 136.845 32 129.406C32 121.966 32 113.708 32 104.63V55.284C32 45.9335 32 37.4703 32 29.8943C32 22.3184 32 14.5035 32 6.4498H125.804V30.5086C119.358 30.5086 112.398 30.5086 104.924 30.5086C97.5186 30.5086 88.7759 30.5086 78.6961 30.5086H48.5596L60.2851 10.8521C60.2851 18.9058 60.2851 26.7206 60.2851 34.2966C60.2851 41.8725 60.2851 50.3358 60.2851 59.6863V104.63C60.2851 113.708 60.2851 121.966 60.2851 129.406C60.2851 136.845 60.2851 144.523 60.2851 152.441H32ZM53.0853 91.9353V68.7979H79.519C88.6388 68.7979 96.49 68.7979 103.073 68.7979C109.724 68.7979 116.101 68.7979 122.204 68.7979V91.9353C115.69 91.9353 109.141 91.9353 102.558 91.9353C96.0443 91.9353 88.3302 91.9353 79.4161 91.9353H53.0853Z" fill="#ECF1F6" fill-opacity="0.3"/>
<path d="M169.237 154.795C163.478 154.795 158.335 153.601 153.809 151.212C149.284 148.823 145.684 145.376 143.009 140.872C140.404 136.299 139.101 130.805 139.101 124.389C139.101 118.724 140.095 113.946 142.084 110.056C144.072 106.098 146.678 102.89 149.901 100.433C153.192 97.9073 156.792 95.9621 160.7 94.5971C164.677 93.2321 168.689 92.2424 172.734 91.6281L202.048 87.3283C202.254 82.5506 201.431 78.865 199.58 76.2715C197.797 73.6779 195.225 71.9033 191.865 70.9478C188.506 69.924 184.631 69.4122 180.243 69.4122C177.911 69.4122 175.374 69.6169 172.632 70.0264C169.957 70.3677 167.112 70.9137 164.095 71.6645C161.146 72.4152 158.06 73.3708 154.838 74.531C151.615 75.6231 148.324 76.954 144.964 78.5238L143.729 55.8983C146.266 54.9428 149.112 53.9872 152.266 53.0317C155.489 52.0762 158.986 51.223 162.758 50.4723C166.529 49.6532 170.437 49.039 174.483 48.6295C178.597 48.1517 182.814 47.9128 187.134 47.9128C195.5 47.9128 202.631 49.1413 208.528 51.5984C214.494 53.9872 219.053 57.8435 222.208 63.1671C225.362 68.4225 226.939 75.2818 226.939 83.745C226.939 87.0211 226.939 91.0821 226.939 95.928C226.939 100.774 226.939 105.21 226.939 109.237V120.499C226.939 125.481 226.939 130.566 226.939 135.753C226.939 140.872 226.939 146.434 226.939 152.441H203.797L202.254 139.131H200.094C198.174 141.657 195.774 144.114 192.894 146.503C190.014 148.823 186.586 150.803 182.609 152.441C178.7 154.01 174.243 154.795 169.237 154.795ZM178.7 134.422C181.58 134.422 184.426 133.74 187.237 132.374C190.048 131.009 192.654 129.098 195.054 126.641C197.522 124.184 199.614 121.249 201.328 117.837V101.764C200.437 102.378 199.237 102.958 197.728 103.504C196.288 103.982 194.128 104.528 191.248 105.142C188.368 105.756 184.323 106.541 179.111 107.497C176.163 108.043 173.66 108.964 171.603 110.261C169.615 111.558 168.072 113.23 166.975 115.277C165.877 117.325 165.329 119.68 165.329 122.341C165.329 126.778 166.666 129.917 169.34 131.76C172.083 133.535 175.203 134.422 178.7 134.422Z" fill="#ECF1F6" fill-opacity="0.3"/>
<path d="M319.682 152.441C316.185 148.072 312.619 143.738 308.985 139.439C305.419 135.07 301.82 130.771 298.185 126.539L284.608 110.159H277.1V92.5495H285.328L297.054 77.7048C300.688 73.2001 304.288 68.6614 307.854 64.0885C311.488 59.5156 315.088 54.9769 318.653 50.4723H349.407C344.196 56.5467 338.984 62.6211 333.773 68.6955C328.562 74.7699 323.385 80.8102 318.242 86.8164L302.814 104.732L301.682 92.9591L320.299 115.585C325.648 121.727 330.962 127.904 336.242 134.115C341.59 140.258 346.904 146.366 352.184 152.441H319.682ZM253.341 152.441C253.341 145.069 253.341 137.937 253.341 131.044C253.341 124.15 253.341 116.472 253.341 108.009V51.3937C253.341 42.9987 253.341 34.7402 253.341 26.6182C253.341 18.4963 253.341 10.4425 253.341 2.45707L279.466 0C279.466 8.05372 279.466 16.3122 279.466 24.7754C279.466 33.2387 279.466 42.1114 279.466 51.3937V112.923C279.466 120.021 279.466 126.71 279.466 132.989C279.466 139.2 279.466 145.684 279.466 152.441H253.341Z" fill="#ECF1F6" fill-opacity="0.3"/>
<path d="M411.424 155C404.087 155 397.847 153.874 392.704 151.622C387.561 149.301 383.619 145.649 380.876 140.667C378.133 135.685 376.762 129.201 376.762 121.215C376.762 116.233 376.762 111.216 376.762 106.166C376.762 101.115 376.762 95.9621 376.762 90.7067C376.762 85.3831 376.762 79.9571 376.762 74.4287C376.762 68.9003 376.762 63.1671 376.762 57.2292C376.762 49.7897 376.762 42.9304 376.762 36.6513C376.762 30.3721 376.762 23.9564 376.762 17.4042L402.578 12.5925C402.578 17.7796 402.578 22.6937 402.578 27.3349C402.578 31.9078 402.578 36.583 402.578 41.3606C402.578 46.1383 402.578 51.4278 402.578 57.2292V113.435C402.578 120.055 403.847 125.072 406.384 128.484C408.99 131.828 413.104 133.501 418.726 133.501C421.058 133.501 423.561 133.091 426.235 132.272C428.978 131.453 431.549 130.19 433.949 128.484L435.698 149.881C433.983 150.973 431.823 151.895 429.218 152.645C426.681 153.396 423.869 153.976 420.784 154.386C417.698 154.795 414.578 155 411.424 155ZM359.173 70.2312V50.4723H434.978V70.2312C428.395 70.2312 421.778 70.2312 415.127 70.2312C408.475 70.2312 402.03 70.2312 395.79 70.2312H359.173Z" fill="#ECF1F6" fill-opacity="0.3"/>
<path d="M501.851 155C492.8 155 484.914 153.567 478.194 150.7C471.474 147.765 465.886 143.773 461.429 138.722C456.972 133.671 453.646 127.904 451.452 121.42C449.258 114.936 448.161 108.145 448.161 101.047C448.161 90.8774 450.218 81.7999 454.332 73.8144C458.446 65.7607 464.446 59.4133 472.332 54.7721C480.286 50.131 489.954 47.8104 501.337 47.8104C510.114 47.8104 517.793 49.1755 524.376 51.9055C531.027 54.5674 536.582 58.3212 541.039 63.1671C545.564 68.013 548.958 73.6779 551.221 80.1618C553.484 86.5775 554.616 93.5392 554.616 101.047C554.616 111.285 552.524 120.465 548.341 128.587C544.227 136.708 538.227 143.158 530.342 147.936C522.456 152.645 512.959 155 501.851 155ZM501.748 133.501C507.645 133.501 512.514 131.965 516.353 128.894C520.262 125.754 523.176 121.727 525.096 116.813C527.016 111.899 527.976 106.644 527.976 101.047C527.976 94.4947 526.879 88.8639 524.685 84.1546C522.559 79.3769 519.508 75.7254 515.531 73.2001C511.554 70.6066 506.925 69.3098 501.645 69.3098C495.817 69.3098 490.88 70.7431 486.834 73.6096C482.857 76.408 479.84 80.196 477.783 84.9736C475.794 89.7512 474.8 95.109 474.8 101.047C474.8 106.644 475.794 111.899 477.783 116.813C479.771 121.727 482.754 125.754 486.731 128.894C490.777 131.965 495.782 133.501 501.748 133.501Z" fill="#ECF1F6" fill-opacity="0.3"/>
<path d="M577.173 152.441C577.173 145.069 577.173 137.937 577.173 131.044C577.173 124.15 577.173 116.472 577.173 108.009V97.7708C577.173 90.0583 577.173 82.2435 577.173 74.3263C577.173 66.4091 577.173 58.4577 577.173 50.4723L599.389 49.1413L600.418 68.5931H602.681C605.424 62.7917 608.475 58.4236 611.835 55.4888C615.195 52.4857 618.623 50.4723 622.12 49.4485C625.686 48.3564 629.012 47.8104 632.097 47.8104C633.743 47.8104 635.526 47.9469 637.446 48.22C639.434 48.493 641.286 48.9707 643 49.6532L640.634 75.1453C638.166 74.8041 635.903 74.5652 633.846 74.4287C631.857 74.2239 629.629 74.1215 627.16 74.1215C625.24 74.1215 623.183 74.3604 620.989 74.8382C618.795 75.3159 616.635 76.2715 614.509 77.7048C612.384 79.0698 610.361 81.0832 608.441 83.745C606.521 86.4069 604.807 89.8877 603.298 94.1876V109.339C603.298 117.12 603.298 124.423 603.298 131.248C603.298 138.005 603.298 145.069 603.298 152.441H577.173Z" fill="#ECF1F6" fill-opacity="0.3"/>
</g>
</svg>
