<svg width="707" height="159" viewBox="0 0 707 159" fill="none" xmlns="http://www.w3.org/2000/svg">
<mask id="mask0_10034_6800" style="mask-type:alpha" maskUnits="userSpaceOnUse" x="0" y="0" width="707" height="159">
<rect width="707" height="159" fill="#D9D9D9"/>
</mask>
<g mask="url(#mask0_10034_6800)">
<path d="M47 156.355C47 148.174 47 140.24 47 132.553C47 124.866 47 116.332 47 106.952V55.8563C47 46.2648 47 37.5549 47 29.7265C47 21.8982 47 13.823 47 5.50099C52.9923 5.50099 60.9232 5.50099 70.7928 5.50099C80.7329 5.50099 92.1534 5.50099 105.054 5.50099C117.039 5.50099 127.014 7.01729 134.98 10.0499C142.947 13.0825 148.939 17.984 152.957 24.7545C156.975 31.4544 158.985 40.4112 158.985 51.6247C158.985 61.2868 157.222 69.8556 153.697 77.3313C150.172 84.7365 144.462 90.5549 136.567 94.7864C128.671 98.9474 118.061 101.028 104.737 101.028C101.353 101.028 97.6522 101.028 93.6338 101.028C89.686 101.028 85.8087 101.028 82.0018 101.028C78.2655 101.028 75.0578 101.028 72.379 101.028V77.6487H98.2866C105.336 77.6487 111.117 76.7671 115.629 75.004C120.141 73.2408 123.454 70.4903 125.569 66.7525C127.754 62.9441 128.847 58.0073 128.847 51.9421C128.847 47.0053 128.072 43.0559 126.521 40.0938C124.97 37.0612 122.925 34.7691 120.387 33.2176C117.85 31.666 115.065 30.6081 112.034 30.0439C109.002 29.4797 106.006 29.1976 103.045 29.1976H61.9101L76.1858 10.0499C76.1858 18.3719 76.1858 26.4824 76.1858 34.3812C76.1858 42.2096 76.1858 50.9195 76.1858 60.511V106.952C76.1858 116.332 76.1858 124.866 76.1858 132.553C76.1858 140.24 76.1858 148.174 76.1858 156.355H47Z" fill="#ECF1F6" fill-opacity="0.3"/>
<path d="M181.001 156.355C181.001 148.739 181.001 141.369 181.001 134.245C181.001 127.122 181.001 119.188 181.001 110.443V99.8643C181.001 91.8949 181.001 83.8197 181.001 75.6387C181.001 67.4577 181.001 59.2415 181.001 50.99L203.842 49.6148L204.9 69.7146H207.226C210.046 63.7199 213.183 59.2063 216.637 56.1737C220.092 53.0705 223.617 50.99 227.212 49.9321C230.878 48.8037 234.297 48.2395 237.469 48.2395C239.161 48.2395 240.994 48.3806 242.968 48.6627C245.013 48.9448 246.916 49.4385 248.678 50.1437L246.246 76.485C243.708 76.1324 241.382 75.8856 239.267 75.7445C237.223 75.5329 234.931 75.4271 232.394 75.4271C230.42 75.4271 228.305 75.674 226.049 76.1677C223.793 76.6613 221.572 77.6487 219.387 79.1297C217.201 80.5402 215.122 82.6208 213.148 85.3713C211.174 88.1218 209.412 91.7186 207.861 96.1617V111.818C207.861 119.858 207.861 127.405 207.861 134.457C207.861 141.439 207.861 148.739 207.861 156.355H181.001Z" fill="#ECF1F6" fill-opacity="0.3"/>
<path d="M315.31 159C302.056 159 291.2 156.602 282.74 151.806C274.28 147.011 268.041 140.417 264.023 132.024C260.005 123.631 257.996 114.04 257.996 103.249C257.996 92.5296 259.899 83.0439 263.706 74.7924C267.583 66.4704 273.258 59.982 280.731 55.3273C288.204 50.6727 297.368 48.3453 308.225 48.3453C317.601 48.3453 325.602 50.0732 332.229 53.5289C338.926 56.9142 344.073 62.0273 347.668 68.8683C351.263 75.6387 353.061 84.1723 353.061 94.4691C353.061 97.2196 352.99 99.688 352.849 101.874C352.779 104.061 352.567 106.212 352.215 108.327L328.845 98.9122C328.986 97.9248 329.092 96.9375 329.162 95.9501C329.233 94.8922 329.268 93.9048 329.268 92.988C329.268 85.2302 327.329 79.165 323.452 74.7924C319.575 70.3493 314.569 68.1277 308.436 68.1277C303.783 68.1277 299.695 69.4677 296.17 72.1477C292.645 74.7571 289.86 78.4245 287.816 83.1497C285.771 87.8749 284.749 93.3407 284.749 99.5469V103.673C284.749 110.514 285.948 116.403 288.345 121.339C290.741 126.206 294.443 129.979 299.448 132.659C304.453 135.268 310.763 136.573 318.376 136.573C321.337 136.573 324.651 136.326 328.316 135.832C332.053 135.268 335.824 134.422 339.631 133.293C343.438 132.165 346.998 130.719 350.312 128.956L351.157 152.018C348.479 153.358 345.341 154.557 341.746 155.615C338.151 156.673 334.132 157.484 329.691 158.048C325.25 158.683 320.456 159 315.31 159ZM268.57 108.327V91.507L336.353 90.3433L352.215 96.3733V108.327H268.57Z" fill="#ECF1F6" fill-opacity="0.3"/>
<path d="M375.763 156.355C375.763 148.739 375.763 141.369 375.763 134.245C375.763 127.122 375.763 119.188 375.763 110.443V99.8643C375.763 91.8949 375.763 83.8197 375.763 75.6387C375.763 67.4577 375.763 59.2415 375.763 50.99L398.604 49.6148L399.662 68.2335H402.094C404.42 64.9188 407.205 61.7452 410.448 58.7126C413.761 55.6094 417.603 53.1058 421.974 51.2016C426.345 49.2269 431.315 48.2395 436.884 48.2395C445.203 48.2395 451.618 50.32 456.13 54.481C460.642 58.5715 463.638 64.4957 465.118 72.2535L466.916 72.6766C467.268 74.6514 467.55 76.7319 467.762 78.9182C467.973 81.0339 468.079 83.2907 468.079 85.6886C468.079 90.2728 468.079 94.5043 468.079 98.3832C468.079 102.192 468.079 106.212 468.079 110.443C468.079 118.977 468.079 126.876 468.079 134.14C468.079 141.333 468.079 148.739 468.079 156.355H441.22C441.22 148.739 441.22 141.369 441.22 134.245C441.22 127.122 441.22 119.647 441.22 111.818V93.9401C441.22 87.0286 440.092 81.8097 437.836 78.2834C435.65 74.7571 431.667 72.994 425.887 72.994C422.503 72.994 419.401 73.7345 416.581 75.2156C413.761 76.6261 411.188 78.5655 408.862 81.0339C406.606 83.5023 404.526 86.2176 402.623 89.1796V111.818C402.623 119.858 402.623 127.405 402.623 134.457C402.623 141.439 402.623 148.739 402.623 156.355H375.763ZM506.148 156.355C506.148 148.739 506.148 141.369 506.148 134.245C506.148 127.122 506.148 119.647 506.148 111.818V93.9401C506.148 87.0286 505.02 81.8097 502.764 78.2834C500.578 74.7571 496.595 72.994 490.814 72.994C487.36 72.994 484.223 73.7345 481.403 75.2156C478.583 76.6261 476.01 78.5655 473.684 81.0339C471.357 83.4318 469.278 86.147 467.445 89.1796L463.532 68.5509H465.964C468.432 65.0951 471.357 61.8157 474.741 58.7126C478.195 55.6094 482.143 53.1058 486.585 51.2016C491.096 49.2269 496.207 48.2395 501.918 48.2395C512.492 48.2395 520.317 51.4484 525.393 57.8663C530.469 64.2841 533.007 73.5582 533.007 85.6886C533.007 90.2728 533.007 94.5043 533.007 98.3832C533.007 102.192 533.007 106.212 533.007 110.443C533.007 118.977 533.007 126.876 533.007 134.14C533.007 141.333 533.007 148.739 533.007 156.355H506.148Z" fill="#ECF1F6" fill-opacity="0.3"/>
<path d="M560.727 156.355C560.727 148.739 560.727 141.369 560.727 134.245C560.727 127.122 560.727 119.188 560.727 110.443V99.8643C560.727 93.0938 560.727 86.9933 560.727 81.5629C560.727 76.0619 560.727 70.8782 560.727 66.012C560.727 61.0752 560.727 56.0679 560.727 50.99L587.586 50.1437C587.586 55.2921 587.586 60.3699 587.586 65.3772C587.586 70.3846 587.586 75.674 587.586 81.2455C587.586 86.7465 587.586 92.9528 587.586 99.8643V110.443C587.586 119.188 587.586 127.122 587.586 134.245C587.586 141.369 587.586 148.739 587.586 156.355H560.727ZM573.84 32.0539C568.693 32.0539 564.569 30.7844 561.467 28.2455C558.366 25.6361 556.815 21.5103 556.815 15.8683C556.815 10.7199 558.366 6.80572 561.467 4.12575C564.569 1.37525 568.764 0 574.051 0C579.338 0 583.498 1.41051 586.529 4.23153C589.631 7.05255 591.182 10.9315 591.182 15.8683C591.182 21.5103 589.631 25.6361 586.529 28.2455C583.498 30.7844 579.268 32.0539 573.84 32.0539Z" fill="#ECF1F6" fill-opacity="0.3"/>
<path d="M642.677 158.788C636.755 158.788 631.468 157.554 626.815 155.086C622.162 152.617 618.461 149.056 615.712 144.401C613.033 139.676 611.693 133.999 611.693 127.369C611.693 121.516 612.715 116.579 614.76 112.559C616.804 108.468 619.483 105.154 622.797 102.615C626.18 100.005 629.881 97.9953 633.9 96.5848C637.989 95.1743 642.113 94.1517 646.272 93.517L676.41 89.0738C676.621 84.1371 675.775 80.3287 673.872 77.6487C672.039 74.9687 669.395 73.1351 665.941 72.1477C662.486 71.0898 658.503 70.5609 653.991 70.5609C651.595 70.5609 648.986 70.7725 646.166 71.1956C643.417 71.5482 640.491 72.1124 637.389 72.8882C634.358 73.664 631.186 74.6514 627.872 75.8503C624.559 76.9787 621.175 78.354 617.721 79.976L616.452 56.5968C619.06 55.6094 621.986 54.6221 625.229 53.6347C628.542 52.6474 632.137 51.7658 636.015 50.99C639.892 50.1437 643.91 49.509 648.07 49.0858C652.3 48.5921 656.635 48.3453 661.076 48.3453C669.677 48.3453 677.009 49.6148 683.072 52.1537C689.205 54.6221 693.893 58.6068 697.136 64.1078C700.379 69.5383 702 76.6261 702 85.3713C702 88.7565 702 92.9528 702 97.9601C702 102.967 702 107.552 702 111.713V123.349C702 128.498 702 133.752 702 139.112C702 144.401 702 150.149 702 156.355H678.207L676.621 142.603H674.4C672.426 145.212 669.959 147.751 666.998 150.22C664.037 152.617 660.512 154.663 656.424 156.355C652.405 157.977 647.823 158.788 642.677 158.788ZM652.405 137.737C655.366 137.737 658.292 137.031 661.182 135.621C664.073 134.21 666.751 132.236 669.219 129.697C671.757 127.158 673.907 124.125 675.669 120.599V103.99C674.753 104.625 673.519 105.224 671.968 105.788C670.488 106.282 668.267 106.846 665.306 107.481C662.345 108.116 658.186 108.927 652.828 109.914C649.797 110.478 647.224 111.43 645.109 112.77C643.064 114.11 641.478 115.838 640.35 117.954C639.222 120.07 638.658 122.503 638.658 125.253C638.658 129.838 640.033 133.082 642.782 134.986C645.602 136.82 648.81 137.737 652.405 137.737Z" fill="#ECF1F6" fill-opacity="0.3"/>
</g>
</svg>
