<svg width="318" height="228" viewBox="0 0 318 228" fill="none" xmlns="http://www.w3.org/2000/svg">
<path d="M281.161 2C283.374 2.02069 284.905 2.08522 286.268 2.43945C287.533 2.76849 288.735 3.37439 290.158 4.62793C305.6 21.9182 315.795 48.7804 315.925 71.9072V71.9131L315.939 73.7148C316.021 86.2432 316.06 92.3983 315.78 96.8682C315.505 101.26 314.925 103.997 313.7 109.744L313.697 109.755C313.56 110.416 313.423 111.079 313.282 111.76C305.653 147.556 286.253 186.386 255.234 206.872C254.103 207.603 254.103 207.604 252.949 208.35L252.942 208.354L252.936 208.358C252.291 208.783 251.646 209.207 250.981 209.645C232.986 220.84 210.586 225.11 189.397 225.237H189.393C188.431 225.246 187.468 225.26 186.507 225.281C185.126 225.311 183.741 225.32 182.341 225.329H182.329C181.562 225.339 180.796 225.348 180.009 225.357C178.457 225.118 177.305 224.642 176.309 223.957C175.295 223.26 174.363 222.295 173.313 220.958C171.967 218.206 171.655 215.161 172.347 212.153C174.654 207.888 177.74 206.141 182.651 204.082L182.674 204.073L182.696 204.062C191.791 199.985 199.35 195.167 206.564 188.083L206.563 188.082C207.099 187.564 207.635 187.047 208.187 186.513L208.21 186.49L208.232 186.467C216.748 177.671 221.178 166.217 225.435 155.525L225.436 155.526C225.962 154.211 226.489 152.896 227.016 151.581V151.579C227.434 150.533 227.852 149.487 228.27 148.441L229.385 145.646L226.376 145.7L223.846 145.745C220.718 145.797 217.589 145.829 214.455 145.855H214.451C213.773 145.863 213.095 145.871 212.417 145.881L210.384 145.914C204.139 146.025 198.948 145.656 194.193 144.236C189.488 142.831 185.107 140.365 180.537 136.135C173.932 129.127 172.134 121.314 172.171 111.541V111.522C172.166 110.623 172.161 109.723 172.156 108.797C172.144 106.357 172.144 103.916 172.148 101.471V101.47C172.151 99.4139 172.146 97.3581 172.142 95.3066C172.132 90.4635 172.134 85.6196 172.142 80.7754C172.15 75.7922 172.139 70.8098 172.12 65.8291C172.104 61.5389 172.1 57.248 172.104 52.957C172.106 51.6782 172.105 50.3989 172.104 49.1191L172.093 45.2783C172.08 42.4341 172.089 39.5885 172.102 36.7344V36.71C172.095 35.8884 172.088 35.0665 172.081 34.2207C172.165 24.6815 175.491 17.5115 182.014 10.4639C188.942 3.92954 196.707 2.0518 206.358 2.08984H206.377C207.248 2.08498 208.12 2.07923 209.018 2.07422C211.381 2.06357 213.745 2.06333 216.111 2.06738H216.112C218.1 2.06959 220.087 2.06481 222.07 2.06055C226.747 2.05064 231.424 2.05246 236.102 2.06055C240.926 2.0687 245.749 2.05802 250.57 2.03906C254.717 2.02337 258.864 2.01928 263.011 2.02344C264.249 2.02463 265.487 2.02411 266.726 2.02246L270.442 2.01172C273.187 1.99876 275.934 2.00834 278.688 2.02051H278.714C279.522 2.01372 280.329 2.00699 281.161 2Z" stroke="#BEDBEC" stroke-width="4"/>
<path d="M111.173 2C113.385 2.02069 114.917 2.08522 116.279 2.43945C117.544 2.76849 118.746 3.37439 120.17 4.62793C135.612 21.9182 145.807 48.7804 145.937 71.9072V71.9131L145.951 73.7148C146.033 86.2432 146.072 92.3983 145.792 96.8682C145.517 101.26 144.937 103.997 143.712 109.744L143.709 109.755C143.572 110.416 143.435 111.079 143.294 111.76C135.665 147.556 116.265 186.386 85.2461 206.872C84.1151 207.603 84.115 207.604 82.9609 208.35L82.9541 208.354L82.9473 208.358C82.3023 208.783 81.6572 209.207 80.9932 209.645C62.9975 220.84 40.5974 225.11 19.4092 225.237H19.4043C18.4423 225.246 17.4801 225.26 16.5186 225.281C15.1377 225.311 13.7531 225.32 12.3525 225.329H12.3408C11.5741 225.339 10.8074 225.348 10.0205 225.357C8.46839 225.118 7.31625 224.642 6.32031 223.957C5.30657 223.26 4.37508 222.295 3.3252 220.958C1.97824 218.206 1.66674 215.161 2.3584 212.153C4.66566 207.888 7.75171 206.141 12.6631 204.082L12.6855 204.073L12.708 204.062C21.8028 199.985 29.3616 195.167 36.5762 188.083L36.5752 188.082C37.1108 187.564 37.6464 187.047 38.1982 186.513L38.2217 186.49L38.2441 186.467C46.7601 177.671 51.1895 166.217 55.4463 155.525L55.4473 155.526C55.9738 154.211 56.5007 152.896 57.0273 151.581V151.579C57.4453 150.533 57.8636 149.487 58.2812 148.441L59.3965 145.646L56.3877 145.7L53.8574 145.745C50.7299 145.797 47.6006 145.829 44.4668 145.855H44.4629C43.785 145.863 43.1066 145.871 42.4287 145.881L40.3955 145.914C34.1505 146.025 28.9597 145.656 24.2051 144.236C19.4996 142.831 15.1185 140.365 10.5488 136.135C3.94408 129.127 2.14534 121.314 2.18262 111.541V111.522C2.17776 110.623 2.17298 109.723 2.16797 108.797C2.15539 106.357 2.1561 103.916 2.16016 101.471V101.47C2.16236 99.4139 2.15758 97.3581 2.15332 95.3066C2.14341 90.4635 2.14524 85.6196 2.15332 80.7754C2.16145 75.7922 2.15083 70.8098 2.13184 65.8291C2.1161 61.5389 2.11207 57.248 2.11621 52.957C2.1174 51.6782 2.11688 50.3989 2.11523 49.1191L2.10449 45.2783C2.09143 42.4341 2.10117 39.5885 2.11328 36.7344V36.71C2.10652 35.8884 2.09973 35.0665 2.09277 34.2207C2.17709 24.6815 5.50262 17.5115 12.0254 10.4639C18.954 3.92954 26.7186 2.0518 36.3701 2.08984H36.3887C37.26 2.08498 38.1316 2.07923 39.0293 2.07422C41.3928 2.06357 43.7572 2.06333 46.123 2.06738H46.124C48.1116 2.06959 50.0989 2.06481 52.082 2.06055C56.7585 2.05064 61.4356 2.05246 66.1133 2.06055C70.9375 2.0687 75.7604 2.05802 80.582 2.03906C84.7285 2.02337 88.8753 2.01928 93.0225 2.02344C94.2602 2.02463 95.4986 2.02411 96.7373 2.02246L100.454 2.01172C103.199 1.99876 105.945 2.00834 108.7 2.02051H108.726C109.533 2.01372 110.341 2.00699 111.173 2Z" stroke="#BEDBEC" stroke-width="4"/>
</svg>
