<svg width="0" height="0">
<svg width="16" height="16" viewBox="0 0 " fill="none" xmlns="http://www.w3.org/2000/svg">

</svg>
	<symbol xmlns="http://www.w3.org/2000/svg" id="opt" viewBox="0 0 16 16">
		<path d="M15.25 0.75V15.25H0.75V0.75H15.25Z" fill="none" stroke-width="1.5"/>
		<rect x="3" y="3" width="10" height="1" stroke="none"/>
		<rect x="3" y="6" width="6" height="1" stroke="none"/>
	</symbol>

	<symbol xmlns="http://www.w3.org/2000/svg" id="user" viewBox="0 0 22 20">
		<path d="M3 19C2.99986 17.7062 3.31352 16.4316 3.91408 15.2857C4.51464 14.1397 5.38419 13.1565 6.44815 12.4203C7.51212 11.6842 8.73876 11.217 10.0229 11.059M16 6C16 8.76142 13.7614 11 11 11C8.23858 11 6 8.76142 6 6C6 3.23858 8.23858 1 11 1C13.7614 1 16 3.23858 16 6Z" fill="none" stroke-width="2" stroke-linecap="round" stroke-linejoin="round"/>
		<path d="M19.0234 18.9996C19.0236 17.7058 18.7099 16.4312 18.1094 15.2852C17.5088 14.1393 16.6392 13.156 15.5753 12.4199C14.5113 11.6837 13.2847 11.2166 12.0006 11.0586" fill="none" stroke-width="2" stroke-linecap="round" stroke-linejoin="round"/>
	</symbol>

	<symbol xmlns="http://www.w3.org/2000/svg" id="cart" viewBox="0 0 22 20">
		<path d="M1 1H2.99601L5.6507 12.206C5.74808 12.6164 6.00067 12.9833 6.36498 13.2435C6.72929 13.5037 7.18254 13.6409 7.64671 13.6316H17.4072C17.8615 13.6309 18.3019 13.4902 18.6557 13.2326C19.0096 12.9751 19.2556 12.6161 19.3533 12.215L21 5.51128H4.06387M7.93613 18.0977C7.93613 18.596 7.48931 19 6.93812 19C6.38694 19 5.94012 18.596 5.94012 18.0977C5.94012 17.5994 6.38694 17.1955 6.93812 17.1955C7.48931 17.1955 7.93613 17.5994 7.93613 18.0977ZM18.9142 18.0977C18.9142 18.596 18.4674 19 17.9162 19C17.365 19 16.9182 18.596 16.9182 18.0977C16.9182 17.5994 17.365 17.1955 17.9162 17.1955C18.4674 17.1955 18.9142 17.5994 18.9142 18.0977Z" fill="none" stroke-width="2" stroke-linecap="round" stroke-linejoin="round"/>
	</symbol>

	<symbol xmlns="http://www.w3.org/2000/svg" id="arrow" viewBox="0 0 8 9">
		<path d="M7.5 3.59882C8.16667 3.98372 8.16667 4.94597 7.5 5.33087L1.5 8.79497C0.833334 9.17987 -4.47338e-07 8.69874 -4.13689e-07 7.92894L-1.10848e-07 1.00074C-7.71986e-08 0.230942 0.833333 -0.250184 1.5 0.134717L7.5 3.59882Z"/>
	</symbol>
	<symbol xmlns="http://www.w3.org/2000/svg" id="arrow2" viewBox="0 0 9 11">
		<path d="M9 5.19531L-4.98326e-07 10.3915L-3.57782e-08 -0.000840111L9 5.19531Z"/>
	</symbol>
	<symbol xmlns="http://www.w3.org/2000/svg" id="arrow3" viewBox="0 0 10 6">
		<path d="M0.5 0.5L5 4.5L9.5 0.5" stroke-linecap="round"/>
	</symbol>

	<symbol xmlns="http://www.w3.org/2000/svg" id="lupa" viewBox="0 0 20 20">
		<path d="M19 19L14.66 14.66M17 9C17 13.4183 13.4183 17 9 17C4.58172 17 1 13.4183 1 9C1 4.58172 4.58172 1 9 1C13.4183 1 17 4.58172 17 9Z" stroke-width="2" stroke-linecap="round" stroke-linejoin="round"/>
	</symbol>

	<symbol xmlns="http://www.w3.org/2000/svg" id="delete" viewBox="0 0 24 24">
		<path d="M3 6H5H21" stroke-width="2" stroke-linecap="round" stroke-linejoin="round"/>
		<path d="M19 6V20C19 20.5304 18.7893 21.0391 18.4142 21.4142C18.0391 21.7893 17.5304 22 17 22H7C6.46957 22 5.96086 21.7893 5.58579 21.4142C5.21071 21.0391 5 20.5304 5 20V6M8 6V4C8 3.46957 8.21071 2.96086 8.58579 2.58579C8.96086 2.21071 9.46957 2 10 2H14C14.5304 2 15.0391 2.21071 15.4142 2.58579C15.7893 2.96086 16 3.46957 16 4V6" stroke-width="2" stroke-linecap="round" stroke-linejoin="round"/>
		<path d="M10 11V17" stroke-width="2" stroke-linecap="round" stroke-linejoin="round"/>
		<path d="M14 11V17" stroke-width="2" stroke-linecap="round" stroke-linejoin="round"/>
	</symbol>

	<symbol xmlns="http://www.w3.org/2000/svg" id="attach" viewBox="0 0 24 24">
		<path d="M21.9598 1.19332C19.6069 -0.597359 16.4885 -0.172131 14.7026 2.17607L6.41063 13.0666C5.43261 14.347 5.68302 16.185 6.96343 17.163C8.22494 18.1221 10.0534 17.9284 11.0598 16.6102L18.5674 6.75436C18.7895 6.46142 18.7328 6.04564 18.4399 5.82358C18.1469 5.60152 17.7311 5.65821 17.5091 5.95115L10.0014 15.8023C9.35416 16.6527 8.33833 16.5346 7.77136 16.1046C7.0721 15.5755 6.93508 14.5691 7.46898 13.8698L15.7609 2.97928C17.0886 1.23112 19.3517 0.876764 21.1566 2.25167C22.8481 3.5368 23.1741 5.9606 21.8889 7.64734L12.293 20.2483C10.0865 22.776 6.34449 23.3902 3.73642 21.4058C1.05276 19.3694 0.533041 15.5235 2.57413 12.8446L8.87223 4.57152C9.09429 4.27859 9.0376 3.86281 8.74466 3.64074C8.45173 3.41868 8.03595 3.47538 7.81389 3.76831L1.51579 12.0414C-0.964706 15.3014 -0.336313 19.9837 2.92849 22.4642C6.16022 24.921 11.0173 24.1225 13.3513 21.0562L22.9473 8.45527C24.6718 6.17794 24.2324 2.92258 21.9598 1.19332Z"/>
	</symbol>

	<symbol xmlns="http://www.w3.org/2000/svg" id="tooltip" viewBox="0 0 22 22">
		<path d="M11 21C16.5228 21 21 16.5228 21 11C21 5.47715 16.5228 1 11 1C5.47715 1 1 5.47715 1 11C1 16.5228 5.47715 21 11 21Z" stroke-width="2" stroke-linecap="round" stroke-linejoin="round"/>
		<path d="M8 8.00448C8.2351 7.33614 8.69915 6.77258 9.30995 6.41361C9.92076 6.05463 10.6389 5.92341 11.3372 6.04319C12.0355 6.16296 12.6688 6.526 13.1251 7.068C13.5813 7.61001 13.8311 8.296 13.83 9.00448C13.83 11.0045 10.83 12.0045 10.83 12.0045" stroke-width="2" stroke-linecap="round" stroke-linejoin="round"/>
		<path d="M10.9102 16.0039H10.9202" stroke-width="2" stroke-linecap="round" stroke-linejoin="round"/>
	</symbol>

	<symbol xmlns="http://www.w3.org/2000/svg" id="tooltip2" viewBox="0 0 14 14">
		<path d="M6.75 13C10.2018 13 13 10.2018 13 6.75C13 3.29822 10.2018 0.5 6.75 0.5C3.29822 0.5 0.5 3.29822 0.5 6.75C0.5 10.2018 3.29822 13 6.75 13Z" stroke-linecap="round" stroke-linejoin="round"/>
		<path d="M6.75 9.25H6.75667" stroke-linecap="round" stroke-linejoin="round"/>
		<path d="M6.75 4.25V6.75" stroke-linecap="round" stroke-linejoin="round"/>
	</symbol>

	<symbol xmlns="http://www.w3.org/2000/svg" id="close" viewBox="0 0 11 11">
		<path d="M0.6875 0.6875L10.3125 10.3125" stroke-width="1.375" stroke-linecap="round"/>
		<path d="M10.3125 0.6875L0.6875 10.3125" stroke-width="1.375" stroke-linecap="round"/>
	</symbol>

	<symbol xmlns="http://www.w3.org/2000/svg" id="edit" viewBox="0 0 13 13">
		<path d="M8.12757 2.70919L10.2942 4.87586M11.4718 3.69069C11.7582 3.40438 11.9191 3.01603 11.9192 2.61107C11.9192 2.20611 11.7584 1.81772 11.4721 1.53134C11.1858 1.24495 10.7974 1.08404 10.3925 1.08398C9.98751 1.08393 9.59912 1.24475 9.31273 1.53107L2.08365 8.76177C1.95789 8.88717 1.86488 9.04156 1.81282 9.21136L1.09728 11.5687C1.08328 11.6155 1.08222 11.6653 1.09422 11.7127C1.10621 11.7601 1.13082 11.8034 1.16542 11.8379C1.20002 11.8724 1.24332 11.897 1.29074 11.9089C1.33815 11.9208 1.38791 11.9197 1.43474 11.9056L3.79261 11.1906C3.96224 11.139 4.11662 11.0466 4.24219 10.9214L11.4718 3.69069Z" stroke-width="1.5" stroke-linecap="round" stroke-linejoin="round"/>
	</symbol>

	<symbol xmlns="http://www.w3.org/2000/svg" id="ic_file" viewBox="0 0 18 18">
		<path d="M10.5 1.5H4.5C4.10218 1.5 3.72064 1.65804 3.43934 1.93934C3.15804 2.22064 3 2.60218 3 3V15C3 15.3978 3.15804 15.7794 3.43934 16.0607C3.72064 16.342 4.10218 16.5 4.5 16.5H13.5C13.8978 16.5 14.2794 16.342 14.5607 16.0607C14.842 15.7794 15 15.3978 15 15V6L10.5 1.5Z" stroke-linecap="round" stroke-linejoin="round"/>
		<path d="M10.5 1.5V6H15" stroke-linecap="round" stroke-linejoin="round"/>
		<path d="M9 13.5V9" stroke-linecap="round" stroke-linejoin="round"/>
		<path d="M6.75 11.25H11.25" stroke-linecap="round" stroke-linejoin="round"/>
	</symbol>

	<symbol xmlns="http://www.w3.org/2000/svg" id="compare" viewBox="0 0 16 20">
		<path d="M7.75 0.75L7.75 18.75" stroke-width="1.5" stroke-linecap="round"/>
		<path d="M14.75 11.75L14.75 18.75" stroke-width="1.5" stroke-linecap="round"/>
		<path d="M0.75 6.75L0.750001 18.75" stroke-width="1.5" stroke-linecap="round"/>
	</symbol>

	<symbol xmlns="http://www.w3.org/2000/svg" id="favorite" viewBox="0 0 24 24">
		<path d="M20.8401 4.60987C20.3294 4.09888 19.7229 3.69352 19.0555 3.41696C18.388 3.14039 17.6726 2.99805 16.9501 2.99805C16.2276 2.99805 15.5122 3.14039 14.8448 3.41696C14.1773 3.69352 13.5709 4.09888 13.0601 4.60987L12.0001 5.66987L10.9401 4.60987C9.90843 3.57818 8.50915 2.99858 7.05012 2.99858C5.59109 2.99858 4.19181 3.57818 3.16012 4.60987C2.12843 5.64156 1.54883 7.04084 1.54883 8.49987C1.54883 9.95891 2.12843 11.3582 3.16012 12.3899L4.22012 13.4499L12.0001 21.2299L19.7801 13.4499L20.8401 12.3899C21.3511 11.8791 21.7565 11.2727 22.033 10.6052C22.3096 9.93777 22.4519 9.22236 22.4519 8.49987C22.4519 7.77738 22.3096 7.06198 22.033 6.39452C21.7565 5.72706 21.3511 5.12063 20.8401 4.60987Z" stroke-width="2" stroke-linecap="round" stroke-linejoin="round"/>
	</symbol>
</svg>