<svg width="0" height="0">
<svg width="16" height="16" viewBox="0 0 " fill="none" xmlns="http://www.w3.org/2000/svg">

</svg>
	<symbol xmlns="http://www.w3.org/2000/svg" id="opt" viewBox="0 0 16 16">
		<path d="M15.25 0.75V15.25H0.75V0.75H15.25Z" fill="none" stroke-width="1.5"/>
		<rect x="3" y="3" width="10" height="1" stroke="none"/>
		<rect x="3" y="6" width="6" height="1" stroke="none"/>
	</symbol>

	<symbol xmlns="http://www.w3.org/2000/svg" id="user" viewBox="0 0 22 20">
		<path d="M3 19C2.99986 17.7062 3.31352 16.4316 3.91408 15.2857C4.51464 14.1397 5.38419 13.1565 6.44815 12.4203C7.51212 11.6842 8.73876 11.217 10.0229 11.059M16 6C16 8.76142 13.7614 11 11 11C8.23858 11 6 8.76142 6 6C6 3.23858 8.23858 1 11 1C13.7614 1 16 3.23858 16 6Z" fill="none" stroke-width="2" stroke-linecap="round" stroke-linejoin="round"/>
		<path d="M19.0234 18.9996C19.0236 17.7058 18.7099 16.4312 18.1094 15.2852C17.5088 14.1393 16.6392 13.156 15.5753 12.4199C14.5113 11.6837 13.2847 11.2166 12.0006 11.0586" fill="none" stroke-width="2" stroke-linecap="round" stroke-linejoin="round"/>
	</symbol>

	<symbol xmlns="http://www.w3.org/2000/svg" id="cart" viewBox="0 0 22 20">
		<path d="M1 1H2.99601L5.6507 12.206C5.74808 12.6164 6.00067 12.9833 6.36498 13.2435C6.72929 13.5037 7.18254 13.6409 7.64671 13.6316H17.4072C17.8615 13.6309 18.3019 13.4902 18.6557 13.2326C19.0096 12.9751 19.2556 12.6161 19.3533 12.215L21 5.51128H4.06387M7.93613 18.0977C7.93613 18.596 7.48931 19 6.93812 19C6.38694 19 5.94012 18.596 5.94012 18.0977C5.94012 17.5994 6.38694 17.1955 6.93812 17.1955C7.48931 17.1955 7.93613 17.5994 7.93613 18.0977ZM18.9142 18.0977C18.9142 18.596 18.4674 19 17.9162 19C17.365 19 16.9182 18.596 16.9182 18.0977C16.9182 17.5994 17.365 17.1955 17.9162 17.1955C18.4674 17.1955 18.9142 17.5994 18.9142 18.0977Z" fill="none" stroke-width="2" stroke-linecap="round" stroke-linejoin="round"/>
	</symbol>

	<symbol xmlns="http://www.w3.org/2000/svg" id="arrow" viewBox="0 0 8 9">
		<path d="M7.5 3.59882C8.16667 3.98372 8.16667 4.94597 7.5 5.33087L1.5 8.79497C0.833334 9.17987 -4.47338e-07 8.69874 -4.13689e-07 7.92894L-1.10848e-07 1.00074C-7.71986e-08 0.230942 0.833333 -0.250184 1.5 0.134717L7.5 3.59882Z"/>
	</symbol>
	<symbol xmlns="http://www.w3.org/2000/svg" id="arrow2" viewBox="0 0 9 11">
		<path d="M9 5.19531L-4.98326e-07 10.3915L-3.57782e-08 -0.000840111L9 5.19531Z"/>
	</symbol>
</svg>