<svg width="416" height="396" viewBox="0 0 416 396" fill="none" xmlns="http://www.w3.org/2000/svg">
<path d="M4 289.25C4 300.058 8.2933 310.422 15.9354 318.065C23.5775 325.707 33.9424 330 44.75 330H313.129C323.936 330.002 334.299 334.297 341.94 341.94L386.806 386.806C388.829 388.828 391.406 390.206 394.212 390.764C397.018 391.322 399.926 391.035 402.569 389.941C405.213 388.846 407.472 386.992 409.061 384.613C410.651 382.235 411.5 379.438 411.5 376.577V44.75C411.5 33.9424 407.207 23.5775 399.565 15.9354C391.922 8.29329 381.558 4 370.75 4H44.75C33.9424 4 23.5775 8.29329 15.9354 15.9354C8.2933 23.5775 4 33.9424 4 44.75V289.25Z" stroke="#DCF1FE" stroke-width="8" stroke-linecap="round" stroke-linejoin="round"/>
</svg>
